;TYPE=PLATED
;Layer: PTH_Through_Via
;EasyEDA Pro Client v3.2.149.88089769, 2026-07-23 19:21:16
;Gerber Generator version 0.3
M48
METRIC,LZ,0000.00000
;Hole size 1 = 0.30000 METRIC
T01C0.30000
;Hole size 2 = 0.30500 METRIC
T02C0.30500
%
G05
G90
T01
X192.641Y-95.857
X200.199Y-107.541
X172.555Y-120.114
X177.381Y-137.894
X206.484Y-131.55
X195.161Y-132.814
X187.541Y-130.274
X168.745Y-100.429
X207.754Y-140.815
X182.626Y-99.949
X187.541Y-135.354
X202.781Y-132.814
X202.781Y-135.354
X175.369Y-126.083
X196.832Y-97.254
X168.745Y-111.859
X195.161Y-130.274
X195.161Y-135.354
X187.541Y-132.814
X202.781Y-130.274
X202.8645Y-120.9395
X213.026Y-99.921
X170.015Y-108.049
X193.403Y-103.223
X199.85361Y-99.93989
X211.328Y-69.85
X183.388Y-67.945
X187.96Y-85.979
X190.5Y-108.204
X183.896Y-118.745
X159.131Y-95.123
X159.131Y-110.998
X164.592Y-82.931
X160.909Y-54.483
X157.607Y-49.149
X173.736Y-49.784
X178.689Y-53.467
X207.645Y-44.704
X159.131Y-142.875
X208.153Y-144.78
X166.37Y-125.349
X197.104Y-104.394
X202.819Y-97.917
X210.693Y-104.775
X203.962Y-106.045
X203.708Y-82.55
X185.166Y-48.768
X193.675Y-53.34
X193.548Y-45.974
X177.165Y-115.824
X172.212Y-92.075
X172.085Y-85.979
X168.148Y-56.515
X201.645Y-59.659
T02
X166.136Y-78.613
M30