G04 Layer: CustomLayer6*
G04 EasyEDA Pro v3.2.149.88089769, 2026-07-23 19:21:16*
G04 Gerber Generator version 0.3*
G04 Scale: 100 percent, Rotated: No, Reflected: No*
G04 Dimensions in millimeters*
G04 Leading zeros omitted, absolute positions, 4 integers and 5 decimals*
G04 Generated by one-click*
G04 Object Configs: Pad,Via,Track,Text,Image,Dimension,BoardOutline,BoardCutout,CopperFilled,SolidRegion,FPCStiffener,Line,PlaneZone,ComponentProperty,ComponentSilkscreen,TearDrop*
G04 Layer Configs: 1,2,3,4,5,6,7,8,9,10,11,13,14,71,72,73,74,75,76,77,78,79,80,81,82,83,84,85,86,87,88,89,56*
G04 Copper Areas: 0*
%FSLAX45Y45*%
%MOMM*%
%ADD10C,0.05*%
%ADD11C,0.6837*%
G75*


G04 PolygonModel Start*
G54D10*
G01X16770000Y-10507700D02*
G01X16770000Y-11457700D01*
G01X17360000Y-10507700D02*
G01X16770000Y-10507700D01*
G01X17360000Y-10507700D02*
G01X17360000Y-11457700D01*
G01X17360000Y-11457700D02*
G01X16770000Y-11457700D01*
G01X20093400Y-9915600D02*
G01X20835400Y-9915600D01*
G01X20093400Y-10830600D02*
G01X20093400Y-9915600D01*
G01X20835400Y-9915600D02*
G01X20835400Y-10830600D01*
G01X20835400Y-10830600D02*
G01X20093400Y-10830600D01*
G01X17377100Y-12668400D02*
G01X17377100Y-12878400D01*
G01X17377100Y-12878400D02*
G01X17482100Y-12878400D01*
G01X17482100Y-12598400D02*
G01X17482100Y-12668400D01*
G01X17482100Y-12598400D02*
G01X17597100Y-12483400D01*
G01X17482100Y-12668400D02*
G01X17377100Y-12668400D01*
G01X17482100Y-12878400D02*
G01X17482100Y-12948400D01*
G01X17482100Y-12948400D02*
G01X17597100Y-13063400D01*
G01X17597100Y-12483400D02*
G01X18062100Y-12483400D01*
G01X17597100Y-13063400D02*
G01X18062100Y-13063400D01*
G01X18062100Y-12483400D02*
G01X18062100Y-12668400D01*
G01X18062100Y-12668400D02*
G01X18167100Y-12668400D01*
G01X18062100Y-12878400D02*
G01X18062100Y-13063400D01*
G01X18167100Y-12668400D02*
G01X18167100Y-12878400D01*
G01X18167100Y-12878400D02*
G01X18062100Y-12878400D01*
G01X18216600Y-12658400D02*
G01X18656600Y-12658400D01*
G01X18216600Y-12888400D02*
G01X18216600Y-12658400D01*
G01X18656600Y-12888400D02*
G01X18216600Y-12888400D01*
G01X18656600Y-12888400D02*
G01X18656600Y-12658400D01*
G01X16461200Y-7128100D02*
G01X16461200Y-7628100D01*
G01X16461200Y-7128100D02*
G01X16766000Y-7128100D01*
G01X16766000Y-7628100D02*
G01X16461200Y-7628100D01*
G01X16766000Y-7628100D02*
G01X16766000Y-7128100D01*
G01X20293400Y-12343500D02*
G01X20293400Y-12938500D01*
G01X20408400Y-12228500D02*
G01X20293400Y-12343500D01*
G01X20543400Y-12103500D02*
G01X20543400Y-12228500D01*
G01X20543400Y-12228500D02*
G01X20408400Y-12228500D01*
G01X20543400Y-12938500D02*
G01X20293400Y-12938500D01*
G01X20543400Y-13063500D02*
G01X20543400Y-12938500D01*
G01X20753400Y-12103500D02*
G01X20543400Y-12103500D01*
G01X20753400Y-12228500D02*
G01X20753400Y-12103500D01*
G01X20753400Y-12938500D02*
G01X20753400Y-13063500D01*
G01X20753400Y-13063500D02*
G01X20543400Y-13063500D01*
G01X20888400Y-12228500D02*
G01X20753400Y-12228500D01*
G01X20888400Y-12228500D02*
G01X21003400Y-12343500D01*
G01X21003400Y-12343500D02*
G01X21003400Y-12938500D01*
G01X21003400Y-12938500D02*
G01X20753400Y-12938500D01*
G01X18837100Y-12672400D02*
G01X18837100Y-13890400D01*
G01X18837100Y-13890400D02*
G01X19019100Y-13890400D01*
G01X19019100Y-12215400D02*
G01X19019100Y-12672400D01*
G01X19019100Y-12672400D02*
G01X18837100Y-12672400D01*
G01X19019100Y-13890400D02*
G01X19019100Y-14347400D01*
G01X19019100Y-14347400D02*
G01X20015100Y-14347400D01*
G01X20015100Y-12215400D02*
G01X19019100Y-12215400D01*
G01X20015100Y-12672400D02*
G01X20015100Y-12215400D01*
G01X20015100Y-13890400D02*
G01X20197100Y-13890400D01*
G01X20015100Y-14347400D02*
G01X20015100Y-13890400D01*
G01X20197100Y-12672400D02*
G01X20015100Y-12672400D01*
G01X20197100Y-13890400D02*
G01X20197100Y-12672400D01*
G01X20880400Y-13212500D02*
G01X20670400Y-13212500D01*
G01X20670400Y-13212500D02*
G01X20670400Y-13317500D01*
G01X20950400Y-13317500D02*
G01X20880400Y-13317500D01*
G01X20950400Y-13317500D02*
G01X21065400Y-13432500D01*
G01X20880400Y-13317500D02*
G01X20880400Y-13212500D01*
G01X20670400Y-13317500D02*
G01X20600400Y-13317500D01*
G01X20600400Y-13317500D02*
G01X20485400Y-13432500D01*
G01X21065400Y-13432500D02*
G01X21065400Y-13897500D01*
G01X20485400Y-13432500D02*
G01X20485400Y-13897500D01*
G01X21065400Y-13897500D02*
G01X20880400Y-13897500D01*
G01X20880400Y-13897500D02*
G01X20880400Y-14002500D01*
G01X20670400Y-13897500D02*
G01X20485400Y-13897500D01*
G01X20880400Y-14002500D02*
G01X20670400Y-14002500D01*
G01X20670400Y-14002500D02*
G01X20670400Y-13897500D01*
G01X18133100Y-13894400D02*
G01X18133100Y-13684400D01*
G01X18133100Y-13684400D02*
G01X18028100Y-13684400D01*
G01X18028100Y-13964400D02*
G01X18028100Y-13894400D01*
G01X18028100Y-13964400D02*
G01X17913100Y-14079400D01*
G01X18028100Y-13894400D02*
G01X18133100Y-13894400D01*
G01X18028100Y-13684400D02*
G01X18028100Y-13614400D01*
G01X18028100Y-13614400D02*
G01X17913100Y-13499400D01*
G01X17913100Y-14079400D02*
G01X17448100Y-14079400D01*
G01X17913100Y-13499400D02*
G01X17448100Y-13499400D01*
G01X17448100Y-14079400D02*
G01X17448100Y-13894400D01*
G01X17448100Y-13894400D02*
G01X17343100Y-13894400D01*
G01X17448100Y-13684400D02*
G01X17448100Y-13499400D01*
G01X17343100Y-13894400D02*
G01X17343100Y-13684400D01*
G01X17343100Y-13684400D02*
G01X17448100Y-13684400D01*
G01X18656600Y-13904400D02*
G01X18216600Y-13904400D01*
G01X18656600Y-13674400D02*
G01X18656600Y-13904400D01*
G01X18216600Y-13674400D02*
G01X18656600Y-13674400D01*
G01X18216600Y-13674400D02*
G01X18216600Y-13904400D01*
G01X20012100Y-6020500D02*
G01X20012100Y-6520500D01*
G01X20012100Y-6020500D02*
G01X20316900Y-6020500D01*
G01X20316900Y-6520500D02*
G01X20012100Y-6520500D01*
G01X20316900Y-6520500D02*
G01X20316900Y-6020500D01*
G01X16292300Y-13056800D02*
G01X16292300Y-13556800D01*
G01X16292300Y-13056800D02*
G01X15987500Y-13056800D01*
G01X15987500Y-13556800D02*
G01X16292300Y-13556800D01*
G01X15987500Y-13556800D02*
G01X15987500Y-13056800D01*
G01X16319500Y-4258500D02*
G01X16319500Y-4758500D01*
G01X16319500Y-4258500D02*
G01X16624300Y-4258500D01*
G01X16624300Y-4758500D02*
G01X16319500Y-4758500D01*
G01X16624300Y-4758500D02*
G01X16624300Y-4258500D01*
G01X19727100Y-5016500D02*
G01X20227100Y-5016500D01*
G01X19727100Y-5016500D02*
G01X19727100Y-4711700D01*
G01X20227100Y-4711700D02*
G01X20227100Y-5016500D01*
G01X20227100Y-4711700D02*
G01X19727100Y-4711700D01*
G01X16270300Y-4947400D02*
G01X16270300Y-5447400D01*
G01X16270300Y-4947400D02*
G01X16575100Y-4947400D01*
G01X16575100Y-5447400D02*
G01X16270300Y-5447400D01*
G01X16575100Y-5447400D02*
G01X16575100Y-4947400D01*

M02*

