G04 Layer: TopPasteMaskLayer*
G04 EasyEDA Pro v3.2.149.88089769, 2026-07-23 19:21:16*
G04 Gerber Generator version 0.3*
G04 Scale: 100 percent, Rotated: No, Reflected: No*
G04 Dimensions in millimeters*
G04 Leading zeros omitted, absolute positions, 4 integers and 5 decimals*
G04 Generated by one-click*
G04 Object Configs: Pad,Via,Track,Text,Image,Dimension,BoardOutline,BoardCutout,CopperFilled,SolidRegion,FPCStiffener,Line,PlaneZone,ComponentProperty,ComponentSilkscreen,TearDrop*
G04 Layer Configs: 1,2,3,4,5,6,7,8,9,10,11,13,14,71,72,73,74,75,76,77,78,79,80,81,82,83,84,85,86,87,88,89,56*
G04 Copper Areas: 0*
%FSLAX45Y45*%
%MOMM*%
%AMPolygonMacro1*4,1,8,5.08,1.905,5.08,-1.905,3.81,-3.175,-3.81,-3.175,-5.08,-1.905,-5.08,1.905,-3.81,3.175,3.81,3.175,5.08,1.905,0*%
%AMRoundRect*1,1,$1,$2,$3*1,1,$1,$4,$5*1,1,$1,0-$2,0-$3*1,1,$1,0-$4,0-$5*20,1,$1,$2,$3,$4,$5,0*20,1,$1,$4,$5,0-$2,0-$3,0*20,1,$1,0-$2,0-$3,0-$4,0-$5,0*20,1,$1,0-$4,0-$5,$2,$3,0*4,1,4,$2,$3,$4,$5,0-$2,0-$3,0-$4,0-$5,$2,$3,0*%
%ADD10R,0.65X1.7*%
%ADD11R,1.5X2.0*%
%ADD12PolygonMacro1*%
%ADD13RoundRect,0.18X-0.895X0.21X0.895X0.21*%
%ADD14RoundRect,0.5X-1.25X0.55X1.25X0.55*%
%ADD15RoundRect,0.5X-0.3X0.3X0.3X0.3*%
%ADD16R,2.0005X4.0*%
%ADD17R,2.0X4.0*%
%ADD18RoundRect,0.5X-0.55X-1.5X-0.55X1.5*%
%ADD19R,1.1176X0.3556*%
%ADD20RoundRect,0.51X-2.245X0.255X2.245X0.255*%
%ADD21RoundRect,0.5X-0.55X-1.25X-0.55X1.25*%
%ADD22R,0.8X0.8*%
%ADD23R,1.07X0.6*%
%ADD24R,4.0X2.0*%
%ADD25R,1.7X1.7*%
%ADD26C,1.7*%
%ADD27R,2.0X2.0*%
%ADD28C,2.0*%
G75*


G04 PolygonModel Start*
G36*
G01X19379700Y-9519602D02*
G01X19507698Y-9519602D01*
G01X19512699Y-9524604D01*
G01X19512699Y-9639605D01*
G01X19507698Y-9644604D01*
G01X19466695Y-9645106D01*
G01X19466695Y-9600105D01*
G01X19421696Y-9600105D01*
G01X19421696Y-9644106D01*
G01X19379700Y-9644604D01*
G01X19374698Y-9639605D01*
G01X19374698Y-9524604D01*
G01X19379700Y-9519602D01*
G37*
G36*
G01X19507700Y-9860597D02*
G01X19379702Y-9860597D01*
G01X19374701Y-9855596D01*
G01X19374701Y-9740595D01*
G01X19379702Y-9735596D01*
G01X19420705Y-9735094D01*
G01X19420705Y-9780095D01*
G01X19465704Y-9780095D01*
G01X19465704Y-9736094D01*
G01X19507700Y-9735596D01*
G01X19512702Y-9740595D01*
G01X19512702Y-9855596D01*
G01X19507700Y-9860597D01*
G37*
G36*
G01X19747200Y-10175297D02*
G01X19619202Y-10175297D01*
G01X19614201Y-10170296D01*
G01X19614201Y-10055295D01*
G01X19619202Y-10050296D01*
G01X19660205Y-10049793D01*
G01X19660205Y-10094795D01*
G01X19705204Y-10094795D01*
G01X19705204Y-10050794D01*
G01X19747200Y-10050296D01*
G01X19752202Y-10055295D01*
G01X19752202Y-10170296D01*
G01X19747200Y-10175297D01*
G37*
G36*
G01X19619200Y-9834302D02*
G01X19747198Y-9834302D01*
G01X19752199Y-9839304D01*
G01X19752199Y-9954305D01*
G01X19747198Y-9959303D01*
G01X19706195Y-9959806D01*
G01X19706195Y-9914805D01*
G01X19661196Y-9914805D01*
G01X19661196Y-9958806D01*
G01X19619200Y-9959303D01*
G01X19614198Y-9954305D01*
G01X19614198Y-9839304D01*
G01X19619200Y-9834302D01*
G37*
G36*
G01X20886103Y-10058900D02*
G01X20886103Y-9930902D01*
G01X20891104Y-9925901D01*
G01X21006105Y-9925901D01*
G01X21011104Y-9930902D01*
G01X21011606Y-9971905D01*
G01X20966605Y-9971905D01*
G01X20966605Y-10016904D01*
G01X21010606Y-10016904D01*
G01X21011104Y-10058900D01*
G01X21006105Y-10063902D01*
G01X20891104Y-10063902D01*
G01X20886103Y-10058900D01*
G37*
G36*
G01X21227098Y-9930900D02*
G01X21227098Y-10058898D01*
G01X21222096Y-10063899D01*
G01X21107095Y-10063899D01*
G01X21102096Y-10058898D01*
G01X21101594Y-10017895D01*
G01X21146595Y-10017895D01*
G01X21146595Y-9972896D01*
G01X21102594Y-9972896D01*
G01X21102096Y-9930900D01*
G01X21107095Y-9925898D01*
G01X21222096Y-9925898D01*
G01X21227098Y-9930900D01*
G37*
G36*
G01X17191500Y-11572902D02*
G01X17319498Y-11572902D01*
G01X17324499Y-11577904D01*
G01X17324499Y-11692905D01*
G01X17319498Y-11697903D01*
G01X17278495Y-11698406D01*
G01X17278495Y-11653405D01*
G01X17233496Y-11653405D01*
G01X17233496Y-11697406D01*
G01X17191500Y-11697903D01*
G01X17186498Y-11692905D01*
G01X17186498Y-11577904D01*
G01X17191500Y-11572902D01*
G37*
G36*
G01X17319500Y-11913897D02*
G01X17191502Y-11913897D01*
G01X17186501Y-11908896D01*
G01X17186501Y-11793895D01*
G01X17191502Y-11788896D01*
G01X17232505Y-11788393D01*
G01X17232505Y-11833395D01*
G01X17277504Y-11833395D01*
G01X17277504Y-11789394D01*
G01X17319500Y-11788896D01*
G01X17324502Y-11793895D01*
G01X17324502Y-11908896D01*
G01X17319500Y-11913897D01*
G37*
G36*
G01X16938500Y-10453397D02*
G01X16810502Y-10453397D01*
G01X16805501Y-10448396D01*
G01X16805501Y-10333395D01*
G01X16810502Y-10328396D01*
G01X16851505Y-10327893D01*
G01X16851505Y-10372895D01*
G01X16896504Y-10372895D01*
G01X16896504Y-10328894D01*
G01X16938500Y-10328396D01*
G01X16943502Y-10333395D01*
G01X16943502Y-10448396D01*
G01X16938500Y-10453397D01*
G37*
G36*
G01X16810500Y-10112402D02*
G01X16938498Y-10112402D01*
G01X16943499Y-10117404D01*
G01X16943499Y-10232405D01*
G01X16938498Y-10237403D01*
G01X16897495Y-10237906D01*
G01X16897495Y-10192905D01*
G01X16852496Y-10192905D01*
G01X16852496Y-10236906D01*
G01X16810500Y-10237403D01*
G01X16805498Y-10232405D01*
G01X16805498Y-10117404D01*
G01X16810500Y-10112402D01*
G37*
G36*
G01X17050998Y-10360900D02*
G01X17050998Y-10232902D01*
G01X17055999Y-10227901D01*
G01X17171000Y-10227901D01*
G01X17175999Y-10232902D01*
G01X17176502Y-10273905D01*
G01X17131501Y-10273905D01*
G01X17131501Y-10318904D01*
G01X17175501Y-10318904D01*
G01X17175999Y-10360900D01*
G01X17171000Y-10365902D01*
G01X17055999Y-10365902D01*
G01X17050998Y-10360900D01*
G37*
G36*
G01X17265999Y-10360900D02*
G01X17266001Y-10318904D01*
G01X17310500Y-10318904D01*
G01X17310500Y-10273905D01*
G01X17266502Y-10273905D01*
G01X17265999Y-10232902D01*
G01X17271000Y-10227901D01*
G01X17385999Y-10227901D01*
G01X17391000Y-10232902D01*
G01X17391000Y-10360900D01*
G01X17385999Y-10365902D01*
G01X17271000Y-10365902D01*
G01X17265999Y-10360900D01*
G37*
G36*
G01X16675498Y-11694400D02*
G01X16675498Y-11566402D01*
G01X16680499Y-11561401D01*
G01X16795500Y-11561401D01*
G01X16800499Y-11566402D01*
G01X16801002Y-11607405D01*
G01X16756001Y-11607405D01*
G01X16756001Y-11652404D01*
G01X16800001Y-11652404D01*
G01X16800499Y-11694400D01*
G01X16795500Y-11699402D01*
G01X16680499Y-11699402D01*
G01X16675498Y-11694400D01*
G37*
G36*
G01X16890499Y-11694400D02*
G01X16890501Y-11652404D01*
G01X16934999Y-11652404D01*
G01X16934999Y-11607405D01*
G01X16891002Y-11607405D01*
G01X16890499Y-11566402D01*
G01X16895500Y-11561401D01*
G01X17010498Y-11561401D01*
G01X17015500Y-11566402D01*
G01X17015500Y-11694400D01*
G01X17010498Y-11699402D01*
G01X16895500Y-11699402D01*
G01X16890499Y-11694400D01*
G37*
G36*
G01X17050703Y-10020800D02*
G01X17050703Y-9892802D01*
G01X17055704Y-9887801D01*
G01X17170705Y-9887801D01*
G01X17175704Y-9892802D01*
G01X17176206Y-9933805D01*
G01X17131205Y-9933805D01*
G01X17131205Y-9978804D01*
G01X17175206Y-9978804D01*
G01X17175704Y-10020800D01*
G01X17170705Y-10025802D01*
G01X17055704Y-10025802D01*
G01X17050703Y-10020800D01*
G37*
G36*
G01X17391698Y-9892800D02*
G01X17391698Y-10020798D01*
G01X17386696Y-10025799D01*
G01X17271695Y-10025799D01*
G01X17266696Y-10020798D01*
G01X17266194Y-9979795D01*
G01X17311195Y-9979795D01*
G01X17311195Y-9934796D01*
G01X17267194Y-9934796D01*
G01X17266696Y-9892800D01*
G01X17271695Y-9887798D01*
G01X17386696Y-9887798D01*
G01X17391698Y-9892800D01*
G37*
G36*
G01X16657003Y-11925800D02*
G01X16657003Y-11797802D01*
G01X16662004Y-11792801D01*
G01X16777005Y-11792801D01*
G01X16782004Y-11797802D01*
G01X16782506Y-11838805D01*
G01X16737505Y-11838805D01*
G01X16737505Y-11883804D01*
G01X16781506Y-11883804D01*
G01X16782004Y-11925800D01*
G01X16777005Y-11930802D01*
G01X16662004Y-11930802D01*
G01X16657003Y-11925800D01*
G37*
G36*
G01X16997998Y-11797800D02*
G01X16997998Y-11925798D01*
G01X16992996Y-11930799D01*
G01X16877995Y-11930799D01*
G01X16872996Y-11925798D01*
G01X16872494Y-11884795D01*
G01X16917495Y-11884795D01*
G01X16917495Y-11839796D01*
G01X16873494Y-11839796D01*
G01X16872996Y-11797800D01*
G01X16877995Y-11792798D01*
G01X16992996Y-11792798D01*
G01X16997998Y-11797800D01*
G37*
G36*
G01X18215448Y-9319500D02*
G01X18215448Y-9191502D01*
G01X18220449Y-9186501D01*
G01X18335450Y-9186501D01*
G01X18340449Y-9191502D01*
G01X18340952Y-9232505D01*
G01X18295950Y-9232505D01*
G01X18295950Y-9277504D01*
G01X18339951Y-9277504D01*
G01X18340449Y-9319500D01*
G01X18335450Y-9324502D01*
G01X18220449Y-9324502D01*
G01X18215448Y-9319500D01*
G37*
G36*
G01X18430449Y-9319500D02*
G01X18430451Y-9277504D01*
G01X18474949Y-9277504D01*
G01X18474949Y-9232505D01*
G01X18430951Y-9232505D01*
G01X18430449Y-9191502D01*
G01X18435450Y-9186501D01*
G01X18550448Y-9186501D01*
G01X18555450Y-9191502D01*
G01X18555450Y-9319500D01*
G01X18550448Y-9324502D01*
G01X18435450Y-9324502D01*
G01X18430449Y-9319500D01*
G37*
G36*
G01X18870900Y-10096252D02*
G01X18742902Y-10096252D01*
G01X18737901Y-10091251D01*
G01X18737901Y-9976250D01*
G01X18742902Y-9971251D01*
G01X18783905Y-9970748D01*
G01X18783905Y-10015749D01*
G01X18828904Y-10015749D01*
G01X18828904Y-9971749D01*
G01X18870900Y-9971251D01*
G01X18875902Y-9976250D01*
G01X18875902Y-10091251D01*
G01X18870900Y-10096252D01*
G37*
G36*
G01X18870900Y-9881251D02*
G01X18828904Y-9881249D01*
G01X18828904Y-9836750D01*
G01X18783905Y-9836750D01*
G01X18783905Y-9880748D01*
G01X18742902Y-9881251D01*
G01X18737901Y-9876250D01*
G01X18737901Y-9761251D01*
G01X18742902Y-9756250D01*
G01X18870900Y-9756250D01*
G01X18875902Y-9761251D01*
G01X18875902Y-9876250D01*
G01X18870900Y-9881251D01*
G37*
G36*
G01X19177500Y-10101402D02*
G01X19049502Y-10101402D01*
G01X19044501Y-10096401D01*
G01X19044501Y-9981400D01*
G01X19049502Y-9976401D01*
G01X19090505Y-9975898D01*
G01X19090505Y-10020899D01*
G01X19135504Y-10020899D01*
G01X19135504Y-9976899D01*
G01X19177500Y-9976401D01*
G01X19182502Y-9981400D01*
G01X19182502Y-10096401D01*
G01X19177500Y-10101402D01*
G37*
G36*
G01X19177500Y-9886401D02*
G01X19135504Y-9886399D01*
G01X19135504Y-9841901D01*
G01X19090505Y-9841901D01*
G01X19090505Y-9885898D01*
G01X19049502Y-9886401D01*
G01X19044501Y-9881400D01*
G01X19044501Y-9766402D01*
G01X19049502Y-9761400D01*
G01X19177500Y-9761400D01*
G01X19182502Y-9766402D01*
G01X19182502Y-9881400D01*
G01X19177500Y-9886401D01*
G37*
G36*
G01X20395700Y-8999398D02*
G01X20523698Y-8999398D01*
G01X20528699Y-9004399D01*
G01X20528699Y-9119400D01*
G01X20523698Y-9124399D01*
G01X20482695Y-9124902D01*
G01X20482695Y-9079901D01*
G01X20437696Y-9079901D01*
G01X20437696Y-9123901D01*
G01X20395700Y-9124399D01*
G01X20390698Y-9119400D01*
G01X20390698Y-9004399D01*
G01X20395700Y-8999398D01*
G37*
G36*
G01X20395700Y-9214399D02*
G01X20437696Y-9214401D01*
G01X20437696Y-9258899D01*
G01X20482695Y-9258899D01*
G01X20482695Y-9214902D01*
G01X20523698Y-9214399D01*
G01X20528699Y-9219400D01*
G01X20528699Y-9334398D01*
G01X20523698Y-9339400D01*
G01X20395700Y-9339400D01*
G01X20390698Y-9334398D01*
G01X20390698Y-9219400D01*
G01X20395700Y-9214399D01*
G37*
G36*
G01X20147102Y-9727700D02*
G01X20147102Y-9855698D01*
G01X20142101Y-9860699D01*
G01X20027100Y-9860699D01*
G01X20022101Y-9855698D01*
G01X20021598Y-9814695D01*
G01X20066599Y-9814695D01*
G01X20066599Y-9769696D01*
G01X20022599Y-9769696D01*
G01X20022101Y-9727700D01*
G01X20027100Y-9722698D01*
G01X20142101Y-9722698D01*
G01X20147102Y-9727700D01*
G37*
G36*
G01X19932101Y-9727700D02*
G01X19932099Y-9769696D01*
G01X19887601Y-9769696D01*
G01X19887601Y-9814695D01*
G01X19931598Y-9814695D01*
G01X19932101Y-9855698D01*
G01X19927100Y-9860699D01*
G01X19812102Y-9860699D01*
G01X19807100Y-9855698D01*
G01X19807100Y-9727700D01*
G01X19812102Y-9722698D01*
G01X19927100Y-9722698D01*
G01X19932101Y-9727700D01*
G37*
G36*
G01X17181800Y-9749602D02*
G01X17053802Y-9749602D01*
G01X17048801Y-9744601D01*
G01X17048801Y-9629600D01*
G01X17053802Y-9624601D01*
G01X17094805Y-9624098D01*
G01X17094805Y-9669100D01*
G01X17139804Y-9669100D01*
G01X17139804Y-9625099D01*
G01X17181800Y-9624601D01*
G01X17186802Y-9629600D01*
G01X17186802Y-9744601D01*
G01X17181800Y-9749602D01*
G37*
G36*
G01X17181800Y-9534601D02*
G01X17139804Y-9534599D01*
G01X17139804Y-9490101D01*
G01X17094805Y-9490101D01*
G01X17094805Y-9534099D01*
G01X17053802Y-9534601D01*
G01X17048801Y-9529600D01*
G01X17048801Y-9414602D01*
G01X17053802Y-9409600D01*
G01X17181800Y-9409600D01*
G01X17186802Y-9414602D01*
G01X17186802Y-9529600D01*
G01X17181800Y-9534601D01*
G37*
G36*
G01X17307800Y-9409598D02*
G01X17435798Y-9409598D01*
G01X17440799Y-9414599D01*
G01X17440799Y-9529600D01*
G01X17435798Y-9534599D01*
G01X17394795Y-9535102D01*
G01X17394795Y-9490101D01*
G01X17349796Y-9490101D01*
G01X17349796Y-9534101D01*
G01X17307800Y-9534599D01*
G01X17302798Y-9529600D01*
G01X17302798Y-9414599D01*
G01X17307800Y-9409598D01*
G37*
G36*
G01X17307800Y-9624599D02*
G01X17349796Y-9624601D01*
G01X17349796Y-9669100D01*
G01X17394795Y-9669100D01*
G01X17394795Y-9625102D01*
G01X17435798Y-9624599D01*
G01X17440799Y-9629600D01*
G01X17440799Y-9744598D01*
G01X17435798Y-9749600D01*
G01X17307800Y-9749600D01*
G01X17302798Y-9744598D01*
G01X17302798Y-9629600D01*
G01X17307800Y-9624599D01*
G37*
G36*
G01X16565702Y-11797800D02*
G01X16565702Y-11925798D01*
G01X16560701Y-11930799D01*
G01X16445700Y-11930799D01*
G01X16440701Y-11925798D01*
G01X16440198Y-11884795D01*
G01X16485199Y-11884795D01*
G01X16485199Y-11839796D01*
G01X16441199Y-11839796D01*
G01X16440701Y-11797800D01*
G01X16445700Y-11792798D01*
G01X16560701Y-11792798D01*
G01X16565702Y-11797800D01*
G37*
G36*
G01X16350701Y-11797800D02*
G01X16350699Y-11839796D01*
G01X16306201Y-11839796D01*
G01X16306201Y-11884795D01*
G01X16350198Y-11884795D01*
G01X16350701Y-11925798D01*
G01X16345700Y-11930799D01*
G01X16230702Y-11930799D01*
G01X16225700Y-11925798D01*
G01X16225700Y-11797800D01*
G01X16230702Y-11792798D01*
G01X16345700Y-11792798D01*
G01X16350701Y-11797800D01*
G37*
G36*
G01X15819298Y-11925800D02*
G01X15819298Y-11797802D01*
G01X15824299Y-11792801D01*
G01X15939300Y-11792801D01*
G01X15944299Y-11797802D01*
G01X15944802Y-11838805D01*
G01X15899801Y-11838805D01*
G01X15899801Y-11883804D01*
G01X15943801Y-11883804D01*
G01X15944299Y-11925800D01*
G01X15939300Y-11930802D01*
G01X15824299Y-11930802D01*
G01X15819298Y-11925800D01*
G37*
G36*
G01X16034299Y-11925800D02*
G01X16034301Y-11883804D01*
G01X16078799Y-11883804D01*
G01X16078799Y-11838805D01*
G01X16034802Y-11838805D01*
G01X16034299Y-11797802D01*
G01X16039300Y-11792801D01*
G01X16154298Y-11792801D01*
G01X16159300Y-11797802D01*
G01X16159300Y-11925800D01*
G01X16154298Y-11930802D01*
G01X16039300Y-11930802D01*
G01X16034299Y-11925800D01*
G37*
G36*
G01X18110700Y-9961702D02*
G01X17982702Y-9961702D01*
G01X17977701Y-9956701D01*
G01X17977701Y-9841700D01*
G01X17982702Y-9836701D01*
G01X18023705Y-9836198D01*
G01X18023705Y-9881199D01*
G01X18068704Y-9881199D01*
G01X18068704Y-9837199D01*
G01X18110700Y-9836701D01*
G01X18115702Y-9841700D01*
G01X18115702Y-9956701D01*
G01X18110700Y-9961702D01*
G37*
G36*
G01X18110700Y-9746701D02*
G01X18068704Y-9746699D01*
G01X18068704Y-9702201D01*
G01X18023705Y-9702201D01*
G01X18023705Y-9746198D01*
G01X17982702Y-9746701D01*
G01X17977701Y-9741700D01*
G01X17977701Y-9626702D01*
G01X17982702Y-9621700D01*
G01X18110700Y-9621700D01*
G01X18115702Y-9626702D01*
G01X18115702Y-9741700D01*
G01X18110700Y-9746701D01*
G37*

G04 Pad Start*
G54D10*
G01X17255500Y-10617700D03*
G01X17128500Y-10617700D03*
G01X17001500Y-10617700D03*
G01X16874500Y-10617700D03*
G01X16874500Y-11347700D03*
G01X17001500Y-11347700D03*
G01X17128500Y-11347700D03*
G01X17255500Y-11347700D03*
G54D11*
G01X20291400Y-11920000D03*
G01X20521400Y-11920000D03*
G54D12*
G01X20521400Y-11287500D03*
G54D11*
G01X20751400Y-11920000D03*
G54D13*
G01X20216900Y-9992100D03*
G01X20216900Y-10119100D03*
G01X20216900Y-10246100D03*
G01X20216900Y-10373100D03*
G01X20216900Y-10500100D03*
G01X20216900Y-10627100D03*
G01X20216900Y-10754100D03*
G01X20711900Y-10754100D03*
G01X20711900Y-10627100D03*
G01X20711900Y-10500100D03*
G01X20711900Y-10373100D03*
G01X20711900Y-10246100D03*
G01X20711900Y-10119100D03*
G01X20711900Y-9992100D03*
G54D14*
G01X17552100Y-12773400D03*
G01X17992100Y-12773400D03*
G54D15*
G01X18576600Y-12773400D03*
G01X18296600Y-12773400D03*
G54D17*
G01X16613600Y-7378100D03*
G54D18*
G01X20648400Y-12303500D03*
G01X20648400Y-12863500D03*
G54D19*
G01X19309080Y-10106660D03*
G01X19309080Y-10172700D03*
G01X19309080Y-10238740D03*
G01X19502120Y-10238740D03*
G01X19502120Y-10106660D03*
G54D20*
G01X19137100Y-12773400D03*
G01X19897100Y-12773400D03*
G01X19137100Y-13027400D03*
G01X19897100Y-13027400D03*
G01X19137100Y-13281400D03*
G01X19897100Y-13281400D03*
G01X19137100Y-13535400D03*
G01X19897100Y-13535400D03*
G01X19137100Y-13789400D03*
G01X19897100Y-13789400D03*
G54D21*
G01X20775400Y-13387500D03*
G01X20775400Y-13827500D03*
G54D14*
G01X17958100Y-13789400D03*
G01X17518100Y-13789400D03*
G54D15*
G01X18296600Y-13789400D03*
G01X18576600Y-13789400D03*
G54D22*
G01X17792700Y-9671710D03*
G01X17792700Y-9911690D03*
G54D17*
G01X20164500Y-6270500D03*
G54D23*
G01X18259443Y-9693904D03*
G01X18259443Y-9883896D03*
G01X18506458Y-9788900D03*
G54D17*
G01X16471900Y-4508500D03*
G54D24*
G01X19977100Y-4864100D03*
G54D17*
G01X16422700Y-5197400D03*
G54D25*
G01X16894000Y-4662500D03*
G54D26*
G01X17148000Y-4662500D03*
G01X17402000Y-4662500D03*
G01X17656000Y-4662500D03*
G54D27*
G01X19316700Y-3898900D03*
G54D28*
G01X19570700Y-3898900D03*
G04 Pad End*

M02*

