G04 Layer: BoardOutlineLayer*
G04 EasyEDA Pro v3.2.149.88089769, 2026-07-23 19:21:16*
G04 Gerber Generator version 0.3*
G04 Scale: 100 percent, Rotated: No, Reflected: No*
G04 Dimensions in millimeters*
G04 Leading zeros omitted, absolute positions, 4 integers and 5 decimals*
G04 Generated by one-click*
G04 Object Configs: Pad,Via,Track,Text,Image,Dimension,BoardOutline,BoardCutout,CopperFilled,SolidRegion,FPCStiffener,Line,PlaneZone,ComponentProperty,ComponentSilkscreen,TearDrop*
G04 Layer Configs: 1,2,3,4,5,6,7,8,9,10,11,13,14,71,72,73,74,75,76,77,78,79,80,81,82,83,84,85,86,87,88,89,56*
G04 Copper Areas: 0*
%FSLAX45Y45*%
%MOMM*%
%ADD10C,0.15*%
%ADD11C,0.0254*%
%ADD12C,0.8342*%
G75*


G04 PolygonModel Start*
G54D10*
G01X15367000Y-2536000D02*
G01X21427000Y-2536000D01*
G01X21427000Y-15386000D01*
G01X15367000Y-15386000D01*
G01X15367000Y-2536000D01*
G54D11*
G01X16484600Y-8661400D02*
G01X17018000Y-8661400D01*
G01X17018000Y-9055100D01*
G01X16484600Y-9055100D01*
G01X16484600Y-8661400D01*
G01X15536350Y-8661400D02*
G01X15980850Y-8661400D01*
G01X15980850Y-9055100D01*
G01X15536350Y-9055100D01*
G01X15536350Y-8661400D01*
G01X17542950Y-8655035D02*
G01X17987450Y-8655035D01*
G01X17987450Y-9048735D01*
G01X17542950Y-9048735D01*
G01X17542950Y-8655035D01*
G01X19754850Y-4286250D02*
G01X20199350Y-4286250D01*
G01X20199350Y-4679950D01*
G01X19754850Y-4679950D01*
G01X19754850Y-4286250D01*
G01X16592550Y-5010150D02*
G01X17037050Y-5010150D01*
G01X17037050Y-5403850D01*
G01X16592550Y-5403850D01*
G01X16592550Y-5010150D01*
G01X15864416Y-4306706D02*
G01X16308916Y-4306706D01*
G01X16308916Y-4700406D01*
G01X15864416Y-4700406D01*
G01X15864416Y-4306706D01*

G04 Rect Start*
G01X16002000Y-6692900D02*
G01X16002000Y-5867400D01*
G01X16344900Y-5867400D01*
G01X16344900Y-6692900D01*
G01X16002000Y-6692900D01*
G01X16002000Y-7766050D02*
G01X16002000Y-6940550D01*
G01X16344900Y-6940550D01*
G01X16344900Y-7766050D01*
G01X16002000Y-7766050D01*
G01X20440664Y-6697132D02*
G01X20440664Y-5871632D01*
G01X20783564Y-5871632D01*
G01X20783564Y-6697132D01*
G01X20440664Y-6697132D01*
G01X20440664Y-7770282D02*
G01X20440664Y-6944782D01*
G01X20783564Y-6944782D01*
G01X20783564Y-7770282D01*
G01X20440664Y-7770282D01*
G01X17049726Y-6121400D02*
G01X17049726Y-5604712D01*
G01X19748500Y-5604712D01*
G01X19748500Y-6121400D01*
G01X17049726Y-6121400D01*
G01X17043400Y-8047788D02*
G01X17043400Y-7531100D01*
G01X19742174Y-7531100D01*
G01X19742174Y-8047788D01*
G01X17043400Y-8047788D01*
G04 Rect End*

M02*

