G04 Layer: CustomLayer1*
G04 EasyEDA Pro v3.2.149.88089769, 2026-07-23 19:21:16*
G04 Gerber Generator version 0.3*
G04 Scale: 100 percent, Rotated: No, Reflected: No*
G04 Dimensions in millimeters*
G04 Leading zeros omitted, absolute positions, 4 integers and 5 decimals*
G04 Generated by one-click*
G04 Object Configs: Pad,Via,Track,Text,Image,Dimension,BoardOutline,BoardCutout,CopperFilled,SolidRegion,FPCStiffener,Line,PlaneZone,ComponentProperty,ComponentSilkscreen,TearDrop*
G04 Layer Configs: 1,2,3,4,5,6,7,8,9,10,11,13,14,71,72,73,74,75,76,77,78,79,80,81,82,83,84,85,86,87,88,89,56*
G04 Copper Areas: 0*
%FSLAX45Y45*%
%MOMM*%
%ADD10C,0.1*%
%ADD11C,0.254*%
%ADD12C,0.7258*%
G75*


G04 PolygonModel Start*
G54D10*
G01X16548806Y-8755945D02*
G01X16728708Y-8755945D01*
G01X19215791Y-4335647D02*
G01X19229917Y-4318008D01*
G01X15931445Y-9546182D02*
G01X15934958Y-9546182D01*
G01X16121924Y-7521223D02*
G01X16125473Y-7524736D01*
G01X17134403Y-4709577D02*
G01X17130889Y-4709577D01*
G01X17836445Y-8759459D02*
G01X17797618Y-8759459D01*
G01X16425334Y-9514417D02*
G01X16442973Y-9510904D01*
G01X18143338Y-2857494D02*
G01X18125699Y-2892772D01*
G01X16178390Y-7651758D02*
G01X16185421Y-7627056D01*
G01X17137921Y-7916341D02*
G01X17137921Y-7919855D01*
G01X16181903Y-7697612D02*
G01X16174840Y-7701125D01*
G01X17543615Y-9574397D02*
G01X17547159Y-9574397D01*
G01X17035632Y-9574397D02*
G01X17039146Y-9574397D01*
G01X18111604Y-2928050D02*
G01X18101028Y-2970390D01*
G01X20538708Y-6794515D02*
G01X20538708Y-6780390D01*
G01X15649223Y-7260154D02*
G01X15645674Y-7277793D01*
G01X20623389Y-6290032D02*
G01X20623389Y-6318247D01*
G01X20249424Y-5450411D02*
G01X20249424Y-5468049D01*
G01X16735771Y-8759459D02*
G01X16700493Y-8759459D01*
G01X15744448Y-8858265D02*
G01X15744448Y-8840626D01*
G01X15398729Y-5005925D02*
G01X15398729Y-5030609D01*
G01X19568569Y-7898702D02*
G01X19586209Y-7905765D01*
G01X17264938Y-7828147D02*
G01X17272001Y-7814022D01*
G01X17448389Y-8170349D02*
G01X17349588Y-8170349D01*
G01X16192479Y-9546182D02*
G01X16188965Y-9546182D01*
G01X15705653Y-8819438D02*
G01X15709171Y-8840626D01*
G01X15497535Y-4385033D02*
G01X15469285Y-4406202D01*
G01X17116764Y-4924775D02*
G01X17120282Y-4917730D01*
G01X20729222Y-6999119D02*
G01X20732736Y-6999119D01*
G01X16114865Y-6120688D02*
G01X16114865Y-6124220D01*
G01X16248945Y-6096005D02*
G01X16245396Y-6099536D01*
G01X15991393Y-9574397D02*
G01X15991393Y-9546182D01*
G01X20552834Y-6819182D02*
G01X20549284Y-6815668D01*
G01X17254362Y-7877514D02*
G01X17243754Y-7891640D01*
G01X16114865Y-7327195D02*
G01X16114865Y-7295431D01*
G01X16428847Y-9546182D02*
G01X16432365Y-9546182D01*
G01X17180257Y-5662077D02*
G01X17162619Y-5672671D01*
G01X20651604Y-7323682D02*
G01X20651604Y-7348348D01*
G01X19533291Y-7828147D02*
G01X19536810Y-7835210D01*
G01X17137921Y-7902216D02*
G01X17137921Y-7909279D01*
G01X19540354Y-7937494D02*
G01X19550930Y-7955133D01*
G01X16139562Y-7150807D02*
G01X16139562Y-7154320D01*
G01X17204959Y-7708188D02*
G01X17201445Y-7708188D01*
G01X20651604Y-6314716D02*
G01X20651604Y-6339417D01*
G01X17497758Y-5951362D02*
G01X17497758Y-5965470D01*
G01X15673893Y-8957035D02*
G01X15663313Y-8960549D01*
G01X17092063Y-9588486D02*
G01X17081487Y-9599098D01*
G01X16139562Y-7429515D02*
G01X16139562Y-7457730D01*
G01X21149007Y-7133167D02*
G01X21152555Y-7115529D01*
G01X21399500Y-5069417D02*
G01X21399500Y-5051779D01*
G01X20563410Y-6656918D02*
G01X20563410Y-6692196D01*
G01X21399500Y-5051779D02*
G01X21399500Y-5030609D01*
G01X19635610Y-5009438D02*
G01X19642644Y-5009438D01*
G01X19244007Y-4222751D02*
G01X19229917Y-4201581D01*
G01X19448615Y-4360331D02*
G01X21198409Y-4360331D01*
G01X16206604Y-6424081D02*
G01X16206604Y-6381758D01*
G01X16495889Y-9539119D02*
G01X16499403Y-9556757D01*
G01X16206604Y-7482432D02*
G01X16206604Y-7440091D01*
G01X16217181Y-9542632D02*
G01X16217181Y-9539119D01*
G01X17300215Y-9528543D02*
G01X17296671Y-9528543D01*
G01X19635610Y-7895153D02*
G01X19649701Y-7881063D01*
G01X15550421Y-7761105D02*
G01X15398729Y-7761105D01*
G01X17649449Y-8755945D02*
G01X17829382Y-8755945D01*
G01X17335493Y-9524994D02*
G01X17264938Y-9524994D01*
G01X16707556Y-8935847D02*
G01X16714587Y-8946459D01*
G01X15744448Y-8879417D02*
G01X15744448Y-8858265D01*
G01X20859727Y-4596699D02*
G01X21057298Y-4596699D01*
G01X17349588Y-5450411D02*
G01X17349588Y-5468049D01*
G01X17264938Y-5810251D02*
G01X17261393Y-5803188D01*
G01X20563410Y-7542375D02*
G01X20563410Y-7588265D01*
G01X16125473Y-6473466D02*
G01X16128986Y-6477015D01*
G01X17582438Y-9599098D02*
G01X17568313Y-9606125D01*
G01X21230143Y-7037910D02*
G01X21247782Y-7034397D01*
G01X20563410Y-6798028D02*
G01X20563410Y-6794515D01*
G01X21149007Y-4861282D02*
G01X21149007Y-4864814D01*
G01X15663313Y-8960549D02*
G01X15702139Y-8960549D01*
G01X19515653Y-7799932D02*
G01X19526229Y-7814022D01*
G01X20016604Y-3446640D02*
G01X20030699Y-3411362D01*
G01X21381861Y-4713109D02*
G01X21381861Y-4744855D01*
G01X16188965Y-9574397D02*
G01X16192479Y-9574397D01*
G01X17070910Y-9546182D02*
G01X17088548Y-9546182D01*
G01X19628549Y-5884338D02*
G01X19632062Y-5877275D01*
G01X15966723Y-9535570D02*
G01X15963174Y-9532056D01*
G01X17229659Y-5739695D02*
G01X17212020Y-5732633D01*
G01X16273615Y-5767911D02*
G01X16270097Y-5771442D01*
G01X19540354Y-7852848D02*
G01X19540354Y-7863425D01*
G01X20436393Y-3809994D02*
G01X20475215Y-3753564D01*
G01X19536810Y-5799675D02*
G01X19533291Y-5810251D01*
G01X20563410Y-6745112D02*
G01X20563410Y-6762751D01*
G01X17515396Y-9524994D02*
G01X17525977Y-9514417D01*
G01X17123827Y-4910667D02*
G01X17123827Y-4903605D01*
G01X17003868Y-9546182D02*
G01X17010931Y-9546182D01*
G01X16273615Y-6819182D02*
G01X16270097Y-6822730D01*
G01X19938986Y-3076223D02*
G01X19903708Y-3051522D01*
G01X20351743Y-3908782D02*
G01X20394083Y-3862911D01*
G01X16139562Y-6406442D02*
G01X16139562Y-6431144D01*
G01X20563410Y-6639278D02*
G01X20623389Y-6639278D01*
G01X20563410Y-5961938D02*
G01X20563410Y-6000747D01*
G01X16238337Y-6480529D02*
G01X16245396Y-6480529D01*
G01X15839702Y-5132911D02*
G01X15839702Y-5129397D01*
G01X20150653Y-8187987D02*
G01X20150653Y-8170349D01*
G01X19494500Y-7778744D02*
G01X19515653Y-7799932D01*
G01X17762341Y-8759459D02*
G01X17758826Y-8759459D01*
G01X20676306Y-6233584D02*
G01X20672756Y-6205369D01*
G01X18048112Y-5450411D02*
G01X17949310Y-5450411D01*
G01X19448615Y-8187987D02*
G01X19349841Y-8187987D01*
G01X16654639Y-8759459D02*
G01X16651090Y-8759459D01*
G01X15642160Y-7097890D02*
G01X15645674Y-7115529D01*
G01X19300472Y-5951362D02*
G01X19300472Y-5965470D01*
G01X17056785Y-9532056D02*
G01X17053271Y-9528543D01*
G01X16661670Y-4067532D02*
G01X16725195Y-4095748D01*
G01X17751764Y-8960549D02*
G01X17751764Y-8964099D01*
G01X19554449Y-5750272D02*
G01X19568569Y-5739695D01*
G01X20563410Y-7341321D02*
G01X20563410Y-7394237D01*
G01X19540354Y-7870487D02*
G01X19540354Y-7881063D01*
G01X17046208Y-9528543D02*
G01X17049726Y-9528543D01*
G01X17212020Y-7905765D02*
G01X17194382Y-7905765D01*
G01X16831028Y-3104438D02*
G01X16802782Y-3136203D01*
G01X17300215Y-9574397D02*
G01X17300215Y-9546182D01*
G01X20633966Y-7228424D02*
G01X20633966Y-7221362D01*
G01X15839702Y-5143505D02*
G01X15839702Y-5136442D01*
G01X16174840Y-5940786D02*
G01X16181903Y-5940786D01*
G01X21247782Y-7560014D02*
G01X21399500Y-7560014D01*
G01X16203059Y-7044973D02*
G01X16210118Y-7073188D01*
G01X16263035Y-7725827D02*
G01X16263035Y-7690550D01*
G01X16859243Y-3076223D02*
G01X16831028Y-3104438D01*
G01X15903198Y-9539119D02*
G01X15913806Y-9524994D01*
G01X16266584Y-7852848D02*
G01X16270097Y-7856362D01*
G01X17056785Y-9546182D02*
G01X17060334Y-9546182D01*
G01X15970236Y-9574397D02*
G01X15970236Y-9546182D01*
G01X20563410Y-6843883D02*
G01X20563410Y-6854459D01*
G01X15938476Y-5122334D02*
G01X15737417Y-5122334D01*
G01X18450257Y-8170349D02*
G01X18347972Y-8170349D01*
G01X16266584Y-6805091D02*
G01X16270097Y-6808605D01*
G01X16114865Y-6304140D02*
G01X16114865Y-6275925D01*
G01X16647576Y-8187987D02*
G01X16548806Y-8187987D01*
G01X15596306Y-7570626D02*
G01X15613945Y-7584716D01*
G01X16238337Y-6406442D02*
G01X16238337Y-6381758D01*
G01X15398729Y-7560014D02*
G01X15398729Y-7358959D01*
G01X16915674Y-2469439D02*
G01X16852180Y-2483564D01*
G01X17751764Y-8759459D02*
G01X17751764Y-8960549D01*
G01X16894521Y-3566581D02*
G01X16929799Y-3584220D01*
G01X16428847Y-9574397D02*
G01X16411209Y-9574397D01*
G01X16435910Y-9574397D02*
G01X16439424Y-9574397D01*
G01X15934958Y-9535570D02*
G01X15938476Y-9532056D01*
G01X17402504Y-7722313D02*
G01X17430750Y-7715251D01*
G01X16263035Y-6925015D02*
G01X16263035Y-6900348D01*
G01X21381861Y-5005925D02*
G01X21381861Y-5037671D01*
G01X20538708Y-7806959D02*
G01X20538708Y-7782293D01*
G01X16150143Y-5940786D02*
G01X16065493Y-5940786D01*
G01X17497758Y-7697612D02*
G01X17497758Y-7687036D01*
G01X18697201Y-2970390D02*
G01X18686625Y-2928050D01*
G01X15649223Y-4850688D02*
G01X15652736Y-4850688D01*
G01X20633966Y-6420549D02*
G01X20633966Y-6409973D01*
G01X19469798Y-7757591D02*
G01X19494500Y-7778744D01*
G01X21399500Y-4557890D02*
G01X21395951Y-4526144D01*
G01X21381861Y-5062355D02*
G01X21381861Y-5083525D01*
G01X20563410Y-5803188D02*
G01X20563410Y-5817314D01*
G01X16263035Y-6999119D02*
G01X16174840Y-6999119D01*
G01X19300472Y-5965470D02*
G01X19300472Y-5979577D01*
G01X17279032Y-9546182D02*
G01X17279032Y-9574397D01*
G01X15652736Y-4868327D02*
G01X15649223Y-4868327D01*
G01X20623389Y-7320133D02*
G01X20623389Y-7348348D01*
G01X21268965Y-14848424D02*
G01X21300698Y-14834299D01*
G01X16442973Y-9546182D02*
G01X16446486Y-9546182D01*
G01X17257875Y-5722056D02*
G01X17257875Y-5718525D01*
G01X20538708Y-6850945D02*
G01X20538708Y-6833306D01*
G01X20559866Y-5774973D02*
G01X20556347Y-5771442D01*
G01X17113250Y-4931838D02*
G01X17116764Y-4924775D01*
G01X17448389Y-8187987D02*
G01X17349588Y-8187987D01*
G01X17144979Y-5827890D02*
G01X17152042Y-5849060D01*
G01X16210118Y-7394237D02*
G01X16210118Y-7348348D01*
G01X20595143Y-7175507D02*
G01X20591624Y-7214299D01*
G01X21194865Y-7341321D02*
G01X21177226Y-7330709D01*
G01X17829382Y-8755945D02*
G01X17829382Y-8759459D01*
G01X20605750Y-6536959D02*
G01X20612782Y-6568723D01*
G01X17441326Y-4296838D02*
G01X17430750Y-4314477D01*
G01X20958527Y-4586105D02*
G01X20958527Y-4589636D01*
G01X15991393Y-9574397D02*
G01X15970236Y-9574397D01*
G01X17303730Y-7778744D02*
G01X17328431Y-7757591D01*
G01X20538708Y-6730987D02*
G01X20538708Y-6702772D01*
G01X16192479Y-6536959D02*
G01X16196028Y-6501681D01*
G01X20729222Y-5940786D02*
G01X20648060Y-5940786D01*
G01X21381861Y-4857751D02*
G01X21381861Y-4900091D01*
G01X15751507Y-8759459D02*
G01X15747993Y-8759459D01*
G01X17254362Y-7937494D02*
G01X17257875Y-7919855D01*
G01X20672756Y-6374695D02*
G01X20676306Y-6346480D01*
G01X15730354Y-8928821D02*
G01X15737417Y-8914695D01*
G01X16266584Y-5778504D02*
G01X16263035Y-5785549D01*
G01X19699104Y-4773088D02*
G01X19692041Y-4776619D01*
G01X17303730Y-9528543D02*
G01X17300215Y-9528543D01*
G01X18848894Y-8187987D02*
G01X18848894Y-8170349D01*
G01X17568313Y-9542632D02*
G01X17568313Y-9539119D01*
G01X20563410Y-6046619D02*
G01X20563410Y-6092473D01*
G01X16213667Y-9574397D02*
G01X16217181Y-9574397D01*
G01X16139562Y-7200209D02*
G01X16139562Y-7224876D01*
G01X19392181Y-5916084D02*
G01X19367479Y-5926661D01*
G01X17314309Y-9535570D02*
G01X17310791Y-9532056D01*
G01X17067365Y-9539119D02*
G01X17063847Y-9535570D01*
G01X20538708Y-6815668D02*
G01X16287736Y-6815668D01*
G01X16114865Y-6441719D02*
G01X16114865Y-6427612D01*
G01X20623389Y-7701125D02*
G01X20616326Y-7697612D01*
G01X15618147Y-12470688D02*
G01X15628755Y-12505966D01*
G01X19565056Y-5672671D02*
G01X19550930Y-5683248D01*
G01X21395951Y-4526144D02*
G01X21385374Y-4490866D01*
G01X20563410Y-7493008D02*
G01X20563410Y-7542375D01*
G01X20048337Y-8187987D02*
G01X20048337Y-8170349D01*
G01X20637479Y-6409973D02*
G01X20633966Y-6413504D01*
G01X20619840Y-7651758D02*
G01X20626903Y-7672910D01*
G01X21149007Y-7260154D02*
G01X21149007Y-7133167D01*
G01X19568569Y-5739695D02*
G01X19586209Y-5732633D01*
G01X17568313Y-9546182D02*
G01X17568313Y-9542632D01*
G01X20570472Y-6113644D02*
G01X20577504Y-6074834D01*
G01X17099125Y-9574397D02*
G01X17088548Y-9574397D01*
G01X17441326Y-4222751D02*
G01X17448389Y-4240390D01*
G01X15726810Y-8942911D02*
G01X15730354Y-8928821D01*
G01X20669243Y-5309300D02*
G01X20768014Y-5309300D01*
G01X20662180Y-6431144D02*
G01X20665699Y-6417036D01*
G01X17003868Y-9539119D02*
G01X17014448Y-9524994D01*
G01X15839702Y-5143505D02*
G01X15839702Y-5309300D01*
G01X17162619Y-4709577D02*
G01X17162619Y-4857751D01*
G01X21057298Y-4621383D02*
G01X21057298Y-4557890D01*
G01X15695077Y-8787709D02*
G01X15702139Y-8805349D01*
G01X20648060Y-6639278D02*
G01X20623389Y-6639278D01*
G01X15927896Y-9546182D02*
G01X15931445Y-9546182D01*
G01X20538708Y-6872098D02*
G01X20538708Y-6850945D01*
G01X17056785Y-9574397D02*
G01X17060334Y-9574397D01*
G01X17497758Y-6043088D02*
G01X17497758Y-6050133D01*
G01X20563410Y-7630570D02*
G01X20563410Y-7672910D01*
G01X16114865Y-6194775D02*
G01X16114865Y-6170091D01*
G01X15934958Y-9574397D02*
G01X15938476Y-9574397D01*
G01X15737417Y-8960549D02*
G01X15740931Y-8960549D01*
G01X16263035Y-5810251D02*
G01X16263035Y-5799675D01*
G01X17141466Y-7831660D02*
G01X17137921Y-7852848D01*
G01X20013060Y-2501203D02*
G01X19946049Y-2483564D01*
G01X19356903Y-4222751D02*
G01X19367479Y-4205112D01*
G01X17339007Y-9524994D02*
G01X17346070Y-9539119D01*
G01X19579146Y-5662077D02*
G01X19565056Y-5672671D01*
G01X21247782Y-7358959D02*
G01X21230143Y-7358959D01*
G01X20623389Y-6999119D02*
G01X20563410Y-6999119D01*
G01X20563410Y-6868584D02*
G01X20563410Y-6886223D01*
G01X15663313Y-8759459D02*
G01X15673893Y-8763007D01*
G01X17561254Y-9574397D02*
G01X17564799Y-9574397D01*
G01X19660282Y-7881063D02*
G01X19660282Y-7870487D01*
G01X19173451Y-4356800D02*
G01X19194639Y-4349755D01*
G01X20732736Y-7701125D02*
G01X20729222Y-7701125D01*
G01X20566924Y-7440091D02*
G01X20563410Y-7394237D01*
G01X18647833Y-8187987D02*
G01X18647833Y-8170349D01*
G01X16203059Y-9546182D02*
G01X16199542Y-9546182D01*
G01X16432365Y-9542632D02*
G01X16432365Y-9539119D01*
G01X16185421Y-9606125D02*
G01X16167782Y-9599098D01*
G01X17257875Y-5718525D02*
G01X17254362Y-5700886D01*
G01X17257875Y-5729119D02*
G01X17257875Y-5722056D01*
G01X17339007Y-9574397D02*
G01X17321368Y-9574397D01*
G01X19247555Y-5468049D02*
G01X19148754Y-5468049D01*
G01X17762341Y-8801799D02*
G01X17769403Y-8784160D01*
G01X15416368Y-5104695D02*
G01X15416368Y-5097633D01*
G01X17529521Y-9542632D02*
G01X17533035Y-9539119D01*
G01X19540354Y-5722056D02*
G01X19540354Y-5729119D01*
G01X20637479Y-7485945D02*
G01X20637479Y-7482432D01*
G01X16661670Y-8759459D02*
G01X16658153Y-8759459D01*
G01X17243754Y-5750272D02*
G01X17229659Y-5739695D01*
G01X16157202Y-7697612D02*
G01X16164264Y-7687036D01*
G01X17624778Y-4356800D02*
G01X17649449Y-4360331D01*
G01X17497758Y-7676460D02*
G01X17497758Y-7658820D01*
G01X15603338Y-7341321D02*
G01X15585698Y-7351896D01*
G01X16287736Y-6745112D02*
G01X16287736Y-6769813D01*
G01X20630421Y-6180667D02*
G01X20626903Y-6205369D01*
G01X17310791Y-9532056D02*
G01X17307278Y-9532056D01*
G01X16178390Y-5986640D02*
G01X16171327Y-5965470D01*
G01X18499660Y-2730508D02*
G01X18460837Y-2719914D01*
G01X20672756Y-7267216D02*
G01X20669243Y-7242515D01*
G01X17257875Y-5757334D02*
G01X17257875Y-5746758D01*
G01X16771049Y-8755945D02*
G01X16950952Y-8755945D01*
G01X16263035Y-7567077D02*
G01X16263035Y-7517710D01*
G01X15737417Y-8805349D02*
G01X15730354Y-8787709D01*
G01X16263035Y-6561661D02*
G01X16263035Y-6515806D01*
G01X17790560Y-8964099D02*
G01X17790560Y-8960549D01*
G01X20563410Y-7239001D02*
G01X20563410Y-7291917D01*
G01X17536583Y-9546182D02*
G01X17540098Y-9546182D01*
G01X16139562Y-7150807D02*
G01X16132504Y-7150807D01*
G01X17543615Y-9510904D02*
G01X17557736Y-9510904D01*
G01X16263035Y-6494654D02*
G01X16263035Y-6498167D01*
G01X16114865Y-6113644D02*
G01X16114865Y-6120688D01*
G01X16181903Y-9542632D02*
G01X16178390Y-9546182D01*
G01X16263035Y-7517710D02*
G01X16263035Y-7468306D01*
G01X16287736Y-7616480D02*
G01X16287736Y-7658820D01*
G01X16287736Y-6815668D02*
G01X16284223Y-6815668D01*
G01X16263035Y-7838723D02*
G01X16263035Y-7845785D01*
G01X16263035Y-6420549D02*
G01X16263035Y-6367633D01*
G01X16114865Y-7503584D02*
G01X16114865Y-7510646D01*
G01X16605236Y-2585866D02*
G01X16548806Y-2621144D01*
G01X21399500Y-5090588D02*
G01X21399500Y-5079994D01*
G01X19579146Y-7976321D02*
G01X19600333Y-7979834D01*
G01X16220698Y-6074834D02*
G01X16224243Y-6113644D01*
G01X16192479Y-9510904D02*
G01X16206604Y-9510904D01*
G01X16834542Y-8921757D02*
G01X16834542Y-8960549D01*
G01X16700493Y-8960549D02*
G01X16689917Y-8957035D01*
G01X15702139Y-8759459D02*
G01X15663313Y-8759459D01*
G01X17755282Y-8759459D02*
G01X17751764Y-8759459D01*
G01X20669243Y-7457730D02*
G01X20672756Y-7433028D01*
G01X20055396Y-4409716D02*
G01X19903708Y-4409716D01*
G01X17293152Y-9510904D02*
G01X17310791Y-9510904D01*
G01X16263035Y-5849060D02*
G01X16263035Y-5827890D01*
G01X17557736Y-9546182D02*
G01X17561254Y-9546182D01*
G01X16809840Y-8964099D02*
G01X16809840Y-8960549D01*
G01X16414726Y-9524994D02*
G01X16425334Y-9514417D01*
G01X20559866Y-6805091D02*
G01X20563410Y-6798028D01*
G01X17106187Y-4942414D02*
G01X17109701Y-4935369D01*
G01X21381861Y-4857751D02*
G01X21149007Y-4857751D01*
G01X17028569Y-9574397D02*
G01X17032088Y-9574397D01*
G01X16150143Y-9556757D02*
G01X16153688Y-9539119D01*
G01X16802782Y-8805349D02*
G01X16806326Y-8819438D01*
G01X16287736Y-7736403D02*
G01X16287736Y-7768167D01*
G01X17649449Y-5450411D02*
G01X17649449Y-5468049D01*
G01X19049979Y-8187987D02*
G01X18947694Y-8187987D01*
G01X15850282Y-8755945D02*
G01X15850282Y-8964099D01*
G01X20669243Y-6180667D02*
G01X20665699Y-6163029D01*
G01X20563410Y-6491105D02*
G01X20563410Y-6536959D01*
G01X16178390Y-9574397D02*
G01X16160750Y-9574397D01*
G01X21399500Y-4628445D02*
G01X21381861Y-4610806D01*
G01X16255976Y-7143744D02*
G01X16252459Y-7143744D01*
G01X20563410Y-7814022D02*
G01X20563410Y-7828147D01*
G01X17525977Y-9514417D02*
G01X17543615Y-9510904D01*
G01X16139562Y-7249577D02*
G01X16139562Y-7277793D01*
G01X19349841Y-4279199D02*
G01X19349841Y-4258029D01*
G01X20535194Y-2984498D02*
G01X20506948Y-2924536D01*
G01X16287736Y-5767911D02*
G01X16287736Y-5778504D01*
G01X17296671Y-9574397D02*
G01X17300215Y-9574397D01*
G01X17420143Y-4187473D02*
G01X17430750Y-4205112D01*
G01X16263035Y-6021918D02*
G01X16263035Y-5983109D01*
G01X17575375Y-9514417D02*
G01X17589500Y-9524994D01*
G01X20581048Y-7595292D02*
G01X20577504Y-7563563D01*
G01X16203059Y-7524736D02*
G01X16206604Y-7482432D01*
G01X20538708Y-7863425D02*
G01X20538708Y-7856362D01*
G01X19617972Y-7736403D02*
G01X19593270Y-7708188D01*
G01X17286091Y-9546182D02*
G01X17282576Y-9546182D01*
G01X20563410Y-6942654D02*
G01X20563410Y-6974417D01*
G01X16164264Y-7687036D02*
G01X16171327Y-7672910D01*
G01X21399500Y-5030609D02*
G01X21399500Y-5005925D01*
G01X16139562Y-6480529D02*
G01X16146625Y-6480529D01*
G01X17127340Y-4857751D02*
G01X17123827Y-4857751D01*
G01X19300472Y-7697612D02*
G01X19300472Y-7687036D01*
G01X16196028Y-6074834D02*
G01X16192479Y-6043088D01*
G01X17293152Y-9574397D02*
G01X17296671Y-9574397D01*
G01X20588111Y-6011341D02*
G01X20595143Y-5986640D01*
G01X17388410Y-4353286D02*
G01X17367227Y-4356800D01*
G01X17448389Y-4240390D02*
G01X17448389Y-4258029D01*
G01X17769403Y-8784160D02*
G01X17779979Y-8770071D01*
G01X20538708Y-6808605D02*
G01X20538708Y-6794515D01*
G01X16114865Y-6219477D02*
G01X16114865Y-6194775D01*
G01X21381861Y-4635508D02*
G01X21381861Y-4656661D01*
G01X16287736Y-6018386D02*
G01X16287736Y-6064258D01*
G01X17649449Y-8170349D02*
G01X17550674Y-8170349D01*
G01X19660282Y-7852848D02*
G01X19656764Y-7831660D01*
G01X18249171Y-5468049D02*
G01X18150396Y-5468049D01*
G01X16799264Y-8960549D02*
G01X16809840Y-8957035D01*
G01X20672756Y-7433028D02*
G01X20676306Y-7408327D01*
G01X20475215Y-2864557D02*
G01X20436393Y-2808109D01*
G01X20662180Y-7493008D02*
G01X20665699Y-7475369D01*
G01X17247299Y-8187987D02*
G01X17148528Y-8187987D01*
G01X16679310Y-8946459D02*
G01X16668729Y-8935847D01*
G01X19300472Y-6014855D02*
G01X19300472Y-6032494D01*
G01X16287736Y-6946202D02*
G01X16287736Y-6984994D01*
G01X19550930Y-7955133D02*
G01X19565056Y-7969257D01*
G01X15398729Y-4713109D02*
G01X15398729Y-4744855D01*
G01X21198409Y-14859000D02*
G01X21233687Y-14855486D01*
G01X15949084Y-9609674D02*
G01X15934958Y-9606125D01*
G01X20626903Y-7027334D02*
G01X20619840Y-7044973D01*
G01X16196028Y-7136682D02*
G01X16192479Y-7101404D01*
G01X17529521Y-9546182D02*
G01X17529521Y-9542632D01*
G01X19656764Y-7937494D02*
G01X19660282Y-7919855D01*
G01X19049979Y-5468049D02*
G01X18947694Y-5468049D01*
G01X16238337Y-6381758D02*
G01X16238337Y-6353525D01*
G01X18249171Y-8170349D02*
G01X18150396Y-8170349D01*
G01X17099125Y-4557890D02*
G01X17099125Y-5161144D01*
G01X17550674Y-9574397D02*
G01X17554222Y-9574397D01*
G01X20648060Y-5940786D02*
G01X20641027Y-5940786D01*
G01X17497758Y-5940786D02*
G01X17497758Y-5951362D01*
G01X20563410Y-7348348D02*
G01X20588111Y-7348348D01*
G01X21149007Y-4864814D02*
G01X21149007Y-4868327D01*
G01X20566924Y-7214299D02*
G01X20570472Y-7175507D01*
G01X17250812Y-9570847D02*
G01X17250812Y-9556757D01*
G01X16164264Y-7009695D02*
G01X16157202Y-7002633D01*
G01X16114865Y-6427612D02*
G01X16114865Y-6409973D01*
G01X20588111Y-7302494D02*
G01X20588111Y-7348348D01*
G01X15956115Y-9546182D02*
G01X15959660Y-9546182D01*
G01X20641027Y-7196661D02*
G01X20637479Y-7207237D01*
G01X15740931Y-8897056D02*
G01X15744448Y-8879417D01*
G01X20588111Y-6290032D02*
G01X20588111Y-6335886D01*
G01X16227757Y-7482432D02*
G01X16224243Y-7524736D01*
G01X16665216Y-8798285D02*
G01X16665216Y-8759459D01*
G01X20662180Y-6145390D02*
G01X20658667Y-6134814D01*
G01X19349841Y-4258029D02*
G01X19349841Y-4240390D01*
G01X16848667Y-5450411D02*
G01X16749865Y-5450411D01*
G01X17533035Y-9546182D02*
G01X17536583Y-9546182D01*
G01X20538708Y-7863425D02*
G01X20542227Y-7863425D01*
G01X19699104Y-4557890D02*
G01X20859727Y-4557890D01*
G01X20577504Y-7563563D02*
G01X20570472Y-7524736D01*
G01X15751507Y-8964099D02*
G01X15751507Y-8960549D01*
G01X17247299Y-5468049D02*
G01X17148528Y-5468049D01*
G01X17300215Y-4857751D02*
G01X17300215Y-4709577D01*
G01X16150143Y-6639278D02*
G01X16157202Y-6635765D01*
G01X16128986Y-7150807D02*
G01X16125473Y-7154320D01*
G01X21399500Y-4843644D02*
G01X21399500Y-4808366D01*
G01X16210118Y-9574397D02*
G01X16213667Y-9574397D01*
G01X17758826Y-8822987D02*
G01X17762341Y-8801799D01*
G01X16263035Y-6074834D02*
G01X16263035Y-6078366D01*
G01X15613945Y-7732890D02*
G01X15596306Y-7747015D01*
G01X16210118Y-7302494D02*
G01X16206604Y-7260154D01*
G01X17053271Y-9546182D02*
G01X17056785Y-9546182D01*
G01X15956115Y-9532056D02*
G01X15952598Y-9528543D01*
G01X15642160Y-7694098D02*
G01X15631584Y-7715251D01*
G01X20598687Y-3309060D02*
G01X20595143Y-3242036D01*
G01X19540354Y-5785549D02*
G01X19536810Y-5799675D01*
G01X19367479Y-5926661D02*
G01X19335750Y-5933723D01*
G01X21385374Y-4490866D02*
G01X21371254Y-4459119D01*
G01X16460612Y-9546182D02*
G01X16464125Y-9546182D01*
G01X19674402Y-5009438D02*
G01X19674402Y-4822473D01*
G01X17501306Y-9556757D02*
G01X17504819Y-9539119D01*
G01X20563410Y-5778504D02*
G01X20559866Y-5774973D01*
G01X21371254Y-14760230D02*
G01X21385374Y-14728466D01*
G01X20859727Y-4557890D02*
G01X20859727Y-4409716D01*
G01X16263035Y-7468306D02*
G01X16263035Y-7418903D01*
G01X18647833Y-5450411D02*
G01X18647833Y-5468049D01*
G01X17286091Y-9532056D02*
G01X17286091Y-9535570D01*
G01X20623389Y-6226522D02*
G01X20626903Y-6201838D01*
G01X20633966Y-6409973D02*
G01X20630421Y-6399397D01*
G01X19656764Y-7866938D02*
G01X19660282Y-7852848D01*
G01X17074424Y-9514417D02*
G01X17088548Y-9524994D01*
G01X17049726Y-4159258D02*
G01X17349588Y-4159258D01*
G01X16114865Y-6138327D02*
G01X16114865Y-6127751D01*
G01X16139562Y-7524736D02*
G01X16139562Y-7528286D01*
G01X19543869Y-5760866D02*
G01X19554449Y-5750272D01*
G01X16114865Y-7411876D02*
G01X16114865Y-7383625D01*
G01X20651604Y-6265331D02*
G01X20651604Y-6290032D01*
G01X17099125Y-4557890D02*
G01X16227757Y-4557890D01*
G01X17162619Y-5877275D02*
G01X17169680Y-5884338D01*
G01X19229917Y-4318008D02*
G01X19244007Y-4293307D01*
G01X17032088Y-9546182D02*
G01X17035632Y-9546182D01*
G01X20616326Y-7002633D02*
G01X20623389Y-6999119D01*
G01X21399500Y-4557890D02*
G01X21399500Y-4628445D01*
G01X16114865Y-6170091D02*
G01X16114865Y-6152452D01*
G01X16128986Y-4409716D02*
G01X16030215Y-4409716D01*
G01X16651090Y-8759459D02*
G01X16651090Y-8960549D01*
G01X16263035Y-7418903D02*
G01X16263035Y-7369536D01*
G01X19649701Y-5757334D02*
G01X19656764Y-5771442D01*
G01X19300472Y-7687036D02*
G01X19300472Y-7676460D01*
G01X16725195Y-8957035D02*
G01X16735771Y-8960549D01*
G01X17070910Y-9574397D02*
G01X17070910Y-9546182D01*
G01X19635610Y-5009438D02*
G01X19635610Y-4857751D01*
G01X16114865Y-7242515D02*
G01X16114865Y-7221362D01*
G01X20602202Y-6611064D02*
G01X20595143Y-6593424D01*
G01X16287736Y-6843883D02*
G01X16287736Y-6861522D01*
G01X17257875Y-7870487D02*
G01X17257875Y-7852848D01*
G01X19586209Y-7905765D02*
G01X19603847Y-7905765D01*
G01X16139562Y-7500070D02*
G01X16139562Y-7514161D01*
G01X17137921Y-7881063D02*
G01X17137921Y-7891640D01*
G01X20658667Y-7503584D02*
G01X20662180Y-7493008D01*
G01X17152042Y-5849060D02*
G01X17162619Y-5877275D01*
G01X16139562Y-7457730D02*
G01X16139562Y-7478883D01*
G01X20563410Y-7792869D02*
G01X20563410Y-7814022D01*
G01X16263035Y-7126105D02*
G01X16263035Y-7129654D01*
G01X17317854Y-9606125D02*
G01X17300215Y-9609674D01*
G01X16263035Y-5785549D02*
G01X16263035Y-5789081D01*
G01X17497758Y-5979577D02*
G01X17497758Y-5997216D01*
G01X16471187Y-9546182D02*
G01X16467643Y-9542632D01*
G01X16763986Y-8960549D02*
G01X16799264Y-8960549D01*
G01X19498014Y-4857751D02*
G01X19498014Y-5009438D01*
G01X17197896Y-7979834D02*
G01X17219084Y-7976321D01*
G01X17148528Y-4857751D02*
G01X17141466Y-4857751D01*
G01X15642160Y-7298980D02*
G01X15631584Y-7316619D01*
G01X20538708Y-7239001D02*
G01X20538708Y-7186084D01*
G01X16171327Y-7027334D02*
G01X16164264Y-7009695D01*
G01X17247299Y-5683248D02*
G01X17233174Y-5672671D01*
G01X16206604Y-7440091D02*
G01X16210118Y-7394237D01*
G01X15614629Y-12435410D02*
G01X15618147Y-12470688D01*
G01X20595143Y-3376085D02*
G01X20598687Y-3309060D01*
G01X15910257Y-9546182D02*
G01X15910257Y-9574397D01*
G01X16157202Y-9588486D02*
G01X16150143Y-9570847D01*
G01X16950952Y-8964099D02*
G01X16771049Y-8964099D01*
G01X20535194Y-3633605D02*
G01X20556347Y-3573644D01*
G01X15737417Y-5161144D02*
G01X15649223Y-5161144D01*
G01X16139562Y-7514161D02*
G01X16139562Y-7524736D01*
G01X17194382Y-5732633D02*
G01X17176743Y-5736164D01*
G01X20566924Y-6198306D02*
G01X20566924Y-6155966D01*
G01X16263035Y-7263702D02*
G01X16263035Y-7214299D01*
G01X16499403Y-9574397D02*
G01X16488827Y-9574397D01*
G01X19688528Y-4780133D02*
G01X19684979Y-4787195D01*
G01X16206604Y-9532056D02*
G01X16203059Y-9528543D01*
G01X17130889Y-4709577D02*
G01X17127340Y-4709577D01*
G01X17042695Y-9532056D02*
G01X17046208Y-9528543D01*
G01X17328431Y-5880806D02*
G01X17303730Y-5859636D01*
G01X17324917Y-9514417D02*
G01X17339007Y-9524994D01*
G01X15416368Y-4857751D02*
G01X15416368Y-4818942D01*
G01X16838059Y-8759459D02*
G01X16834542Y-8759459D01*
G01X19194639Y-4169835D02*
G01X19173451Y-4162772D01*
G01X17790560Y-8872355D02*
G01X17794104Y-8893543D01*
G01X21156069Y-7097890D02*
G01X21166646Y-7080251D01*
G01X17497758Y-7605904D02*
G01X17497758Y-7595292D01*
G01X16700493Y-8914695D02*
G01X16707556Y-8935847D01*
G01X19868430Y-3033883D02*
G01X19829639Y-3019775D01*
G01X17317854Y-9574397D02*
G01X17321368Y-9574397D01*
G01X16749865Y-8187987D02*
G01X16749865Y-8170349D01*
G01X20665699Y-7221362D02*
G01X20662180Y-7207237D01*
G01X17286091Y-9535570D02*
G01X17282576Y-9539119D01*
G01X16238337Y-6353525D02*
G01X16238337Y-6321779D01*
G01X19194639Y-4349755D02*
G01X19215791Y-4335647D01*
G01X16227757Y-4557890D02*
G01X16227757Y-4621383D01*
G01X16640514Y-8964099D02*
G01X16640514Y-8755945D01*
G01X16809840Y-8858265D02*
G01X16809840Y-8879417D01*
G01X16287736Y-6716896D02*
G01X16287736Y-6745112D01*
G01X15444619Y-4430886D02*
G01X15426980Y-4459119D01*
G01X20648060Y-6448764D02*
G01X20651604Y-6448764D01*
G01X18647833Y-5450411D02*
G01X18549032Y-5450411D01*
G01X15416368Y-5108227D02*
G01X15416368Y-5104695D01*
G01X17264938Y-9524994D02*
G01X17275514Y-9514417D01*
G01X16428847Y-9546182D02*
G01X16432365Y-9542632D01*
G01X17282576Y-9539119D02*
G01X17282576Y-9542632D01*
G01X15952598Y-9528543D02*
G01X15949084Y-9528543D01*
G01X20623389Y-7373049D02*
G01X20623389Y-7348348D01*
G01X17303730Y-9546182D02*
G01X17300215Y-9546182D01*
G01X15910257Y-9546182D02*
G01X15927896Y-9546182D01*
G01X16203059Y-3242036D02*
G01X16199542Y-3309060D01*
G01X15744448Y-8960549D02*
G01X15747993Y-8960549D01*
G01X15670375Y-8759459D02*
G01X15670375Y-8755945D01*
G01X16188965Y-9532056D02*
G01X16185421Y-9535570D01*
G01X16781625Y-3171480D02*
G01X16767504Y-3210272D01*
G01X21057298Y-4621383D02*
G01X20859727Y-4621383D01*
G01X17310791Y-9546182D02*
G01X17307278Y-9546182D01*
G01X16139562Y-6099536D02*
G01X16132504Y-6099536D01*
G01X16114865Y-6448764D02*
G01X16114865Y-6441719D01*
G01X16263035Y-7690550D02*
G01X16263035Y-7651758D01*
G01X16407695Y-9588486D02*
G01X16400632Y-9570847D01*
G01X16838059Y-8805349D02*
G01X16831028Y-8787709D01*
G01X16213667Y-9532056D02*
G01X16210118Y-9532056D01*
G01X21328944Y-14813146D02*
G01X21353616Y-14788444D01*
G01X17346070Y-7747015D02*
G01X17363708Y-7736403D01*
G01X19649701Y-5468049D02*
G01X19547417Y-5468049D01*
G01X16114865Y-7457730D02*
G01X16114865Y-7436542D01*
G01X16287736Y-6984994D02*
G01X16287736Y-7023821D01*
G01X16263035Y-6780390D02*
G01X16263035Y-6769813D01*
G01X17257875Y-5785549D02*
G01X17257875Y-5771442D01*
G01X20249424Y-8170349D02*
G01X20150653Y-8170349D01*
G01X19868430Y-3584220D02*
G01X19903708Y-3566581D01*
G01X17346070Y-9539119D02*
G01X17349588Y-9556757D01*
G01X19649701Y-5450411D02*
G01X19649701Y-5468049D01*
G01X20648060Y-7422452D02*
G01X20644542Y-7443605D01*
G01X16848667Y-8187987D02*
G01X16749865Y-8187987D01*
G01X18125699Y-2892772D02*
G01X18111604Y-2928050D01*
G01X17021507Y-9599098D02*
G01X17007417Y-9588486D01*
G01X17589500Y-9574397D02*
G01X17571861Y-9574397D01*
G01X20538708Y-6346480D02*
G01X20538708Y-6293564D01*
G01X21399500Y-4649616D02*
G01X21399500Y-4639022D01*
G01X21212505Y-7041460D02*
G01X21230143Y-7037910D01*
G01X20651604Y-7376599D02*
G01X20651604Y-7401264D01*
G01X18647833Y-5468049D02*
G01X18549032Y-5468049D01*
G01X17063847Y-9574397D02*
G01X17067365Y-9574397D01*
G01X16196028Y-7563563D02*
G01X16203059Y-7524736D01*
G01X17000354Y-9556757D02*
G01X17003868Y-9539119D01*
G01X17155560Y-4709577D02*
G01X17148528Y-4709577D01*
G01X16411209Y-9546182D02*
G01X16428847Y-9546182D01*
G01X20581048Y-7101404D02*
G01X20588111Y-7073188D01*
G01X17448389Y-5450411D02*
G01X17448389Y-5468049D01*
G01X19790813Y-3012730D02*
G01X19748477Y-3009199D01*
G01X15444619Y-14788444D02*
G01X15469285Y-14813146D01*
G01X15998452Y-9574397D02*
G01X15991393Y-9574397D01*
G01X17067365Y-9606125D02*
G01X17049726Y-9609674D01*
G01X17339007Y-9546182D02*
G01X17339007Y-9574397D01*
G01X15398729Y-4808366D02*
G01X15398729Y-4843644D01*
G01X16287736Y-7069675D02*
G01X16287736Y-7115529D01*
G01X15663313Y-8960549D02*
G01X15635097Y-8960549D01*
G01X17543615Y-9532056D02*
G01X17547159Y-9528543D01*
G01X16224243Y-3111501D02*
G01X16210118Y-3174994D01*
G01X17310791Y-9510904D02*
G01X17324917Y-9514417D01*
G01X17568313Y-9606125D02*
G01X17550674Y-9609674D01*
G01X20538708Y-6586362D02*
G01X20538708Y-6544021D01*
G01X20623389Y-7348348D02*
G01X20623389Y-7334258D01*
G01X19300472Y-5933723D02*
G01X19300472Y-5940786D01*
G01X16287736Y-6787452D02*
G01X16287736Y-6801543D01*
G01X19540354Y-5700886D02*
G01X19540354Y-5718525D01*
G01X17582438Y-4183942D02*
G01X17568313Y-4201581D01*
G01X20538708Y-7750528D02*
G01X20538708Y-7718764D01*
G01X17804681Y-8935847D02*
G01X17815257Y-8946459D01*
G01X19356903Y-7711737D02*
G01X19388666Y-7718764D01*
G01X15942021Y-9532056D02*
G01X15945535Y-9528543D01*
G01X16287736Y-5778504D02*
G01X16287736Y-5792612D01*
G01X16781625Y-3446640D02*
G01X16802782Y-3481918D01*
G01X16689917Y-8847653D02*
G01X16689917Y-8872355D01*
G01X18654866Y-2857494D02*
G01X18630195Y-2822216D01*
G01X16263035Y-7545924D02*
G01X16263035Y-7549438D01*
G01X16799264Y-8759459D02*
G01X16834542Y-8759459D01*
G01X20958527Y-4593167D02*
G01X20958527Y-4596699D01*
G01X17748250Y-5450411D02*
G01X17748250Y-5468049D01*
G01X15398729Y-4649616D02*
G01X15398729Y-4667255D01*
G01X20563410Y-6762751D02*
G01X20563410Y-6776876D01*
G01X20563410Y-7739952D02*
G01X20563410Y-7768167D01*
G01X16273615Y-7859875D02*
G01X16280674Y-7863425D01*
G01X17289640Y-9546182D02*
G01X17286091Y-9546182D01*
G01X19656764Y-5771442D02*
G01X19660282Y-5785549D01*
G01X16150143Y-5940786D02*
G01X16174840Y-5940786D01*
G01X20958527Y-4575529D02*
G01X20958527Y-4582591D01*
G01X15416368Y-4610806D02*
G01X15398729Y-4628445D01*
G01X16192479Y-7595292D02*
G01X16196028Y-7563563D01*
G01X16291254Y-3693584D02*
G01X16323014Y-3753564D01*
G01X16809840Y-8858265D02*
G01X16845118Y-8858265D01*
G01X16255976Y-6092473D02*
G01X16252459Y-6096005D01*
G01X16404146Y-2758723D02*
G01X16361810Y-2808109D01*
G01X16210118Y-6568723D02*
G01X16203059Y-6593424D01*
G01X16248945Y-9546182D02*
G01X16238337Y-9546182D01*
G01X16263035Y-6730987D02*
G01X16263035Y-6706320D01*
G01X16799264Y-8759459D02*
G01X16763986Y-8759459D01*
G01X20626903Y-6374695D02*
G01X20630421Y-6395866D01*
G01X16848667Y-8759459D02*
G01X16845118Y-8759459D01*
G01X19653250Y-7810508D02*
G01X19646188Y-7789320D01*
G01X16114865Y-6455827D02*
G01X16114865Y-6459376D01*
G01X17603590Y-4169835D02*
G01X17582438Y-4183942D01*
G01X16457063Y-9532056D02*
G01X16453549Y-9528543D01*
G01X17540098Y-9574397D02*
G01X17543615Y-9574397D01*
G01X16263035Y-5827890D02*
G01X16263035Y-5810251D01*
G01X16450004Y-9609674D02*
G01X16432365Y-9606125D01*
G01X17137921Y-5764397D02*
G01X16287736Y-5764397D01*
G01X15952598Y-9546182D02*
G01X15956115Y-9546182D01*
G01X17148528Y-4709577D02*
G01X17141466Y-4709577D01*
G01X18450257Y-5450411D02*
G01X18450257Y-5468049D01*
G01X16128986Y-6103050D02*
G01X16125473Y-6103050D01*
G01X20048337Y-5450411D02*
G01X20048337Y-5468049D01*
G01X16471187Y-9546182D02*
G01X16488827Y-9546182D01*
G01X21233687Y-4363862D02*
G01X21198409Y-4360331D01*
G01X16548806Y-3996977D02*
G01X16605236Y-4035786D01*
G01X20073035Y-2525887D02*
G01X20013060Y-2501203D01*
G01X16178390Y-9574397D02*
G01X16181903Y-9574397D01*
G01X16238337Y-7164932D02*
G01X16238337Y-7154320D01*
G01X16287736Y-6565210D02*
G01X16287736Y-6607515D01*
G01X17035632Y-9546182D02*
G01X17039146Y-9546182D01*
G01X20626903Y-7672910D02*
G01X20633966Y-7687036D01*
G01X15398729Y-5030609D02*
G01X15398729Y-5051779D01*
G01X15416368Y-4783664D02*
G01X15416368Y-4744855D01*
G01X16841604Y-8759459D02*
G01X16838059Y-8759459D01*
G01X15571604Y-7563563D02*
G01X15596306Y-7570626D01*
G01X20577504Y-7136682D02*
G01X20581048Y-7101404D01*
G01X15398729Y-4628445D02*
G01X15398729Y-4639022D01*
G01X19229917Y-4201581D02*
G01X19215791Y-4183942D01*
G01X20249424Y-8187987D02*
G01X20249424Y-8170349D01*
G01X16178390Y-7044973D02*
G01X16171327Y-7027334D01*
G01X16263035Y-7609418D02*
G01X16263035Y-7567077D01*
G01X15670375Y-8755945D02*
G01X15850282Y-8755945D01*
G01X20192993Y-2585866D02*
G01X20136532Y-2550588D01*
G01X17212020Y-5732633D02*
G01X17194382Y-5732633D01*
G01X17384865Y-7729376D02*
G01X17402504Y-7722313D01*
G01X16263035Y-7549438D02*
G01X16263035Y-7552988D01*
G01X16174840Y-6639278D02*
G01X16150143Y-6639278D01*
G01X20136532Y-2550588D02*
G01X20073035Y-2525887D01*
G01X16217181Y-9574397D02*
G01X16220698Y-9574397D01*
G01X17448389Y-4279199D02*
G01X17441326Y-4296838D01*
G01X15398729Y-5090588D02*
G01X15416368Y-5108227D01*
G01X16432365Y-9546182D02*
G01X16435910Y-9546182D01*
G01X16220698Y-9546182D02*
G01X16217181Y-9542632D01*
G01X18947694Y-8187987D02*
G01X18947694Y-8170349D01*
G01X16848667Y-5450411D02*
G01X16848667Y-5468049D01*
G01X19847277Y-5450411D02*
G01X19748477Y-5450411D01*
G01X15620976Y-7062612D02*
G01X15631584Y-7080251D01*
G01X15529264Y-4370925D02*
G01X15497535Y-4385033D01*
G01X16231306Y-7260154D02*
G01X16234819Y-7302494D01*
G01X16238337Y-6480529D02*
G01X16238337Y-6473466D01*
G01X17582438Y-4335647D02*
G01X17603590Y-4349755D01*
G01X19300472Y-7704674D02*
G01X19300472Y-7697612D01*
G01X17836445Y-8960549D02*
G01X17864660Y-8960549D01*
G01X20506948Y-2924536D02*
G01X20475215Y-2864557D01*
G01X16785143Y-2501203D02*
G01X16725195Y-2525887D01*
G01X19300472Y-5997216D02*
G01X19300472Y-6014855D01*
G01X20630421Y-7457730D02*
G01X20633966Y-7475369D01*
G01X16181903Y-9574397D02*
G01X16185421Y-9574397D01*
G01X16192479Y-9574397D02*
G01X16196028Y-9574397D01*
G01X16139562Y-6462889D02*
G01X16139562Y-6473466D01*
G01X16206604Y-9510904D02*
G01X16224243Y-9514417D01*
G01X19215791Y-4183942D02*
G01X19194639Y-4169835D01*
G01X17310791Y-9574397D02*
G01X17314309Y-9574397D01*
G01X20563410Y-5785549D02*
G01X20563410Y-5778504D01*
G01X17342556Y-9588486D02*
G01X17331948Y-9599098D01*
G01X20676306Y-7291917D02*
G01X20672756Y-7267216D01*
G01X17272001Y-9599098D02*
G01X17257875Y-9588486D01*
G01X16210118Y-6335886D02*
G01X16210118Y-6290032D01*
G01X16795750Y-8928821D02*
G01X16788688Y-8942911D01*
G01X20538708Y-6494654D02*
G01X20538708Y-6448764D01*
G01X15631584Y-7602355D02*
G01X15642160Y-7623543D01*
G01X18601948Y-2794001D02*
G01X18570215Y-2769300D01*
G01X16446486Y-9574397D02*
G01X16450004Y-9574397D01*
G01X16485282Y-9524994D02*
G01X16495889Y-9539119D01*
G01X20623389Y-6237116D02*
G01X20623389Y-6226522D01*
G01X19660282Y-5771442D02*
G01X19660282Y-5757334D01*
G01X19847277Y-8170349D02*
G01X19748477Y-8170349D01*
G01X17060334Y-9546182D02*
G01X17063847Y-9546182D01*
G01X20566924Y-6155966D02*
G01X20570472Y-6113644D01*
G01X19684979Y-4787195D02*
G01X19681465Y-4794258D01*
G01X15564542Y-14855486D02*
G01X15599819Y-14859000D01*
G01X20570472Y-7175507D02*
G01X20577504Y-7136682D01*
G01X21381861Y-4621383D02*
G01X21381861Y-4635508D01*
G01X17296671Y-9528543D02*
G01X17293152Y-9532056D01*
G01X15758570Y-8755945D02*
G01X15758570Y-8964099D01*
G01X16139562Y-6148921D02*
G01X16139562Y-6173605D01*
G01X17247299Y-8187987D02*
G01X17247299Y-8170349D01*
G01X20648060Y-7701125D02*
G01X20729222Y-7701125D01*
G01X15416368Y-4621383D02*
G01X15416368Y-4610806D01*
G01X20648060Y-7277793D02*
G01X20651604Y-7298980D01*
G01X16188965Y-9546182D02*
G01X16185421Y-9546182D01*
G01X17257875Y-7902216D02*
G01X17257875Y-7891640D01*
G01X20588111Y-7348348D02*
G01X20588111Y-7394237D01*
G01X16224243Y-6480529D02*
G01X16238337Y-6480529D01*
G01X20570472Y-5097633D02*
G01X20768014Y-5097633D01*
G01X16467643Y-9606125D02*
G01X16450004Y-9609674D01*
G01X17286091Y-9574397D02*
G01X17289640Y-9574397D01*
G01X20669243Y-5132911D02*
G01X20669243Y-5129397D01*
G01X19748477Y-2458862D02*
G01X17049726Y-2458862D01*
G01X18048112Y-8170349D02*
G01X17949310Y-8170349D01*
G01X16728708Y-8964099D02*
G01X16548806Y-8964099D01*
G01X17497758Y-5965470D02*
G01X17497758Y-5979577D01*
G01X15631584Y-7316619D02*
G01X15620976Y-7330709D01*
G01X15398729Y-4974161D02*
G01X15398729Y-5005925D01*
G01X17257875Y-5736164D02*
G01X17257875Y-5729119D01*
G01X16263035Y-7821084D02*
G01X16263035Y-7803445D01*
G01X17568313Y-9546182D02*
G01X17571861Y-9546182D01*
G01X20563410Y-7672910D02*
G01X20563410Y-7708188D01*
G01X15709171Y-8957035D02*
G01X15716229Y-8953487D01*
G01X16213667Y-9535570D02*
G01X16213667Y-9532056D01*
G01X15645674Y-7277793D02*
G01X15642160Y-7298980D01*
G01X20192993Y-4035786D02*
G01X20249424Y-3996977D01*
G01X17123827Y-4709577D02*
G01X17123827Y-4896560D01*
G01X15839702Y-5136442D02*
G01X15839702Y-5132911D01*
G01X15416368Y-5108227D02*
G01X15649223Y-5108227D01*
G01X16210118Y-6011341D02*
G01X16217181Y-6043088D01*
G01X20538708Y-6932077D02*
G01X20538708Y-6900348D01*
G01X17137921Y-7891640D02*
G01X17137921Y-7902216D01*
G01X19526229Y-7814022D02*
G01X19533291Y-7828147D01*
G01X17307278Y-9574397D02*
G01X17310791Y-9574397D01*
G01X17303730Y-5859636D02*
G01X17282576Y-5838466D01*
G01X16263035Y-6794515D02*
G01X16266584Y-6798028D01*
G01X16280674Y-6815668D02*
G01X16273615Y-6819182D01*
G01X17804681Y-8784160D02*
G01X17797618Y-8801799D01*
G01X15398729Y-14657911D02*
G01X15398729Y-7761105D01*
G01X16816903Y-8953487D02*
G01X16823965Y-8942911D01*
G01X16287736Y-6769813D02*
G01X16287736Y-6787452D01*
G01X17564799Y-9535570D02*
G01X17561254Y-9532056D01*
G01X20563410Y-7291917D02*
G01X20563410Y-7341321D01*
G01X19247555Y-8170349D02*
G01X19148754Y-8170349D01*
G01X16252459Y-6484042D02*
G01X16255976Y-6487591D01*
G01X20538708Y-6780390D02*
G01X20538708Y-6759238D01*
G01X15398729Y-7034397D02*
G01X15398729Y-5090588D01*
G01X15998452Y-9556757D02*
G01X15998452Y-9570847D01*
G01X16065493Y-6639278D02*
G01X16150143Y-6639278D01*
G01X15705653Y-8897056D02*
G01X15702139Y-8914695D01*
G01X16287736Y-6371164D02*
G01X16287736Y-6420549D01*
G01X15564542Y-4363862D02*
G01X15529264Y-4370925D01*
G01X20538708Y-6667494D02*
G01X20538708Y-6628702D01*
G01X20958527Y-4409716D02*
G01X20859727Y-4409716D01*
G01X20859727Y-4621383D02*
G01X20859727Y-4557890D01*
G01X19413338Y-7729376D02*
G01X19434521Y-7736403D01*
G01X16139562Y-7373049D02*
G01X16139562Y-7401264D01*
G01X20563410Y-7140230D02*
G01X20563410Y-7189598D01*
G01X20563410Y-5923147D02*
G01X20563410Y-5961938D01*
G01X17406049Y-4342692D02*
G01X17388410Y-4353286D01*
G01X20595143Y-7044973D02*
G01X20602202Y-7027334D01*
G01X17289640Y-9574397D02*
G01X17293152Y-9574397D01*
G01X16848667Y-8759459D02*
G01X16848667Y-8755945D01*
G01X19617972Y-7976321D02*
G01X19635610Y-7969257D01*
G01X17134403Y-4857751D02*
G01X17130889Y-4857751D01*
G01X17272001Y-5824359D02*
G01X17264938Y-5810251D01*
G01X15596306Y-7747015D02*
G01X15571604Y-7757591D01*
G01X17649449Y-8964099D02*
G01X17649449Y-8755945D01*
G01X17790560Y-8847653D02*
G01X17790560Y-8872355D01*
G01X17508338Y-9588486D02*
G01X17501306Y-9570847D01*
G01X17850535Y-8187987D02*
G01X17850535Y-8170349D01*
G01X21166646Y-7602355D02*
G01X21184285Y-7584716D01*
G01X19674402Y-4808366D02*
G01X19674402Y-4815411D01*
G01X16471187Y-9574397D02*
G01X16471187Y-9546182D01*
G01X21166646Y-7316619D02*
G01X21156069Y-7298980D01*
G01X17317854Y-9542632D02*
G01X17317854Y-9539119D01*
G01X21399500Y-4667255D02*
G01X21399500Y-4649616D01*
G01X16227757Y-4596699D02*
G01X16030215Y-4596699D01*
G01X19452160Y-5891383D02*
G01X19434521Y-5901977D01*
G01X16139562Y-6353525D02*
G01X16139562Y-6381758D01*
G01X16238337Y-7429515D02*
G01X16238337Y-7401264D01*
G01X20672756Y-6205369D02*
G01X20669243Y-6180667D01*
G01X17836445Y-8759459D02*
G01X17825838Y-8763007D01*
G01X16196028Y-9574397D02*
G01X16199542Y-9574397D01*
G01X15398729Y-4744855D02*
G01X15398729Y-4773088D01*
G01X17755282Y-8872355D02*
G01X17755282Y-8847653D01*
G01X16132504Y-7150807D02*
G01X16128986Y-7150807D01*
G01X16841604Y-8960549D02*
G01X16845118Y-8960549D01*
G01X17070910Y-9546182D02*
G01X17067365Y-9542632D01*
G01X19300472Y-7605904D02*
G01X19300472Y-7595292D01*
G01X16464125Y-9574397D02*
G01X16467643Y-9574397D01*
G01X17010931Y-9546182D02*
G01X17010931Y-9574397D01*
G01X17561254Y-9532056D02*
G01X17557736Y-9532056D01*
G01X16647576Y-5450411D02*
G01X16548806Y-5450411D01*
G01X20563410Y-6840369D02*
G01X20563410Y-6843883D01*
G01X16442973Y-9510904D02*
G01X16457063Y-9510904D01*
G01X17533035Y-9606125D02*
G01X17518945Y-9599098D01*
G01X20538708Y-7186084D02*
G01X20538708Y-7136682D01*
G01X20549284Y-7863425D02*
G01X20552834Y-7859875D01*
G01X17162619Y-4709577D02*
G01X17155560Y-4709577D01*
G01X17787042Y-8763007D02*
G01X17797618Y-8759459D01*
G01X17049726Y-5450411D02*
G01X16947438Y-5450411D01*
G01X21399500Y-5079994D02*
G01X21399500Y-5069417D01*
G01X17014448Y-9524994D02*
G01X17085004Y-9524994D01*
G01X20538708Y-5849060D02*
G01X20538708Y-5824359D01*
G01X16248945Y-6480529D02*
G01X16252459Y-6484042D01*
G01X19660282Y-5785549D02*
G01X19660282Y-5771442D01*
G01X16238337Y-7528286D02*
G01X16245396Y-7528286D01*
G01X16287736Y-7161383D02*
G01X16287736Y-7214299D01*
G01X16263035Y-6769813D02*
G01X16263035Y-6752174D01*
G01X16548806Y-2621144D02*
G01X16495889Y-2663466D01*
G01X17649449Y-8187987D02*
G01X17550674Y-8187987D01*
G01X20563410Y-6000747D02*
G01X20563410Y-6046619D01*
G01X17141466Y-5771442D02*
G01X17137921Y-5785549D01*
G01X17035632Y-9606125D02*
G01X17021507Y-9599098D01*
G01X21381861Y-5097633D02*
G01X21381861Y-5104695D01*
G01X20566924Y-7260154D02*
G01X20566924Y-7214299D01*
G01X16263035Y-5940786D02*
G01X16174840Y-5940786D01*
G01X16227757Y-6424081D02*
G01X16224243Y-6462889D01*
G01X17279032Y-9546182D02*
G01X17261393Y-9546182D01*
G01X17547159Y-9528543D02*
G01X17550674Y-9528543D01*
G01X20665699Y-6163029D02*
G01X20662180Y-6145390D01*
G01X16725195Y-8763007D02*
G01X16714587Y-8770071D01*
G01X18347972Y-8187987D02*
G01X18347972Y-8170349D01*
G01X16210118Y-7627056D02*
G01X16203059Y-7651758D01*
G01X16139562Y-7224876D02*
G01X16139562Y-7249577D01*
G01X17554222Y-4222751D02*
G01X17550674Y-4247453D01*
G01X20637479Y-6170091D02*
G01X20641027Y-6180667D01*
G01X16259521Y-6088942D02*
G01X16255976Y-6092473D01*
G01X20605750Y-7595292D02*
G01X20612782Y-7627056D01*
G01X20563410Y-6290032D02*
G01X20588111Y-6290032D01*
G01X19367479Y-4314477D02*
G01X19356903Y-4296838D01*
G01X16450004Y-9574397D02*
G01X16453549Y-9574397D01*
G01X15688014Y-8942911D02*
G01X15680951Y-8953487D01*
G01X17162619Y-7969257D02*
G01X17180257Y-7976321D01*
G01X20637479Y-6145390D02*
G01X20633966Y-6163029D01*
G01X16238337Y-7524736D02*
G01X16238337Y-7514161D01*
G01X21184285Y-7584716D02*
G01X21201923Y-7570626D01*
G01X16114865Y-7164932D02*
G01X16114865Y-7168445D01*
G01X17815257Y-8946459D02*
G01X17825838Y-8957035D01*
G01X16689917Y-8759459D02*
G01X16689917Y-8755945D01*
G01X16263035Y-6498167D02*
G01X16263035Y-6505230D01*
G01X17162619Y-5743227D02*
G01X17148528Y-5757334D01*
G01X17049726Y-3608921D02*
G01X19748477Y-3608921D01*
G01X15568060Y-7358959D02*
G01X15550421Y-7358959D01*
G01X16139562Y-7277793D02*
G01X16139562Y-7309556D01*
G01X16188965Y-7687036D02*
G01X16181903Y-7697612D01*
G01X21381861Y-5108227D02*
G01X21399500Y-5090588D01*
G01X16153688Y-9539119D02*
G01X16164264Y-9524994D01*
G01X16749865Y-3287890D02*
G01X16749865Y-3330230D01*
G01X19378060Y-4328585D02*
G01X19367479Y-4314477D01*
G01X16771049Y-8759459D02*
G01X16771049Y-8755945D01*
G01X15709171Y-8759459D02*
G01X15709171Y-8755945D01*
G01X16287736Y-6265331D02*
G01X16287736Y-6318247D01*
G01X16157202Y-7002633D02*
G01X16150143Y-6999119D01*
G01X16128986Y-6477015D02*
G01X16132504Y-6480529D01*
G01X16464125Y-9532056D02*
G01X16460612Y-9532056D01*
G01X15398729Y-4843644D02*
G01X15398729Y-4875390D01*
G01X16287736Y-7838723D02*
G01X16287736Y-7852848D01*
G01X19392181Y-4342692D02*
G01X19378060Y-4328585D01*
G01X16245396Y-9539119D02*
G01X16248945Y-9556757D01*
G01X17850535Y-5450411D02*
G01X17748250Y-5450411D01*
G01X16714587Y-8946459D02*
G01X16725195Y-8957035D01*
G01X16287736Y-6685133D02*
G01X16287736Y-6716896D01*
G01X19632062Y-7761105D02*
G01X19617972Y-7736403D01*
G01X16763986Y-8960549D02*
G01X16749865Y-8960549D01*
G01X19617972Y-5662077D02*
G01X19600333Y-5658564D01*
G01X16802782Y-8914695D02*
G01X16795750Y-8928821D01*
G01X16492341Y-9588486D02*
G01X16481764Y-9599098D01*
G01X15631584Y-7715251D02*
G01X15613945Y-7732890D01*
G01X17409563Y-5919616D02*
G01X17384865Y-5909022D01*
G01X20623389Y-7334258D02*
G01X20623389Y-7309556D01*
G01X20669243Y-5143505D02*
G01X20669243Y-5136442D01*
G01X16742834Y-5161144D02*
G01X16742834Y-5309300D01*
G01X16114865Y-7267216D02*
G01X16114865Y-7242515D01*
G01X16139562Y-6258286D02*
G01X16139562Y-6290032D01*
G01X21149007Y-4857751D02*
G01X21149007Y-4861282D01*
G01X16287736Y-6886223D02*
G01X16287736Y-6914438D01*
G01X20563410Y-6692196D02*
G01X20563410Y-6720411D01*
G01X15649223Y-4868327D02*
G01X15649223Y-4864814D01*
G01X16467643Y-9546182D02*
G01X16471187Y-9546182D01*
G01X21166646Y-7715251D02*
G01X21156069Y-7694098D01*
G01X17797618Y-8759459D02*
G01X17765889Y-8759459D01*
G01X20732736Y-6639278D02*
G01X20729222Y-6639278D01*
G01X21399500Y-5005925D02*
G01X21399500Y-4974161D01*
G01X19995421Y-3481918D02*
G01X20016604Y-3446640D01*
G01X16439424Y-9546182D02*
G01X16442973Y-9546182D01*
G01X15702139Y-8805349D02*
G01X15705653Y-8819438D01*
G01X16287736Y-6113644D02*
G01X16287736Y-6163029D01*
G01X16238337Y-6258286D02*
G01X16238337Y-6230053D01*
G01X19430977Y-4356800D02*
G01X19409819Y-4353286D01*
G01X16845118Y-8759459D02*
G01X16841604Y-8759459D01*
G01X15839702Y-5309300D02*
G01X15938476Y-5309300D01*
G01X17060334Y-9532056D02*
G01X17056785Y-9532056D01*
G01X15649223Y-4857751D02*
G01X15652736Y-4857751D01*
G01X17557736Y-9574397D02*
G01X17561254Y-9574397D01*
G01X17233174Y-7969257D02*
G01X17247299Y-7955133D01*
G01X21381861Y-5037671D02*
G01X21381861Y-5062355D01*
G01X21156069Y-7623543D02*
G01X21166646Y-7602355D01*
G01X20538708Y-5997216D02*
G01X20538708Y-5954893D01*
G01X16400632Y-9556757D02*
G01X16404146Y-9539119D01*
G01X17229659Y-7898702D02*
G01X17212020Y-7905765D01*
G01X16238337Y-6473466D02*
G01X16238337Y-6462889D01*
G01X20641027Y-6134814D02*
G01X20637479Y-6145390D01*
G01X19938986Y-3541897D02*
G01X19967201Y-3513664D01*
G01X16181903Y-7002633D02*
G01X16188965Y-7009695D01*
G01X17850535Y-5468049D02*
G01X17748250Y-5468049D01*
G01X17797618Y-8801799D02*
G01X17794104Y-8822987D01*
G01X19681465Y-4794258D02*
G01X19677921Y-4801303D01*
G01X15850282Y-8964099D02*
G01X15670375Y-8964099D01*
G01X17462479Y-7708188D02*
G01X17476604Y-7704674D01*
G01X20394083Y-3862911D02*
G01X20436393Y-3809994D01*
G01X17497758Y-5997216D02*
G01X17497758Y-6014855D01*
G01X20641027Y-6635765D02*
G01X20648060Y-6639278D01*
G01X17755282Y-8847653D02*
G01X17758826Y-8822987D01*
G01X19378060Y-4187473D02*
G01X19392181Y-4176897D01*
G01X19448615Y-5450411D02*
G01X19349841Y-5450411D01*
G01X20538708Y-5916084D02*
G01X20538708Y-5880806D01*
G01X16203059Y-6593424D02*
G01X16196028Y-6611064D01*
G01X16164264Y-5951362D02*
G01X16157202Y-5940786D01*
G01X17497758Y-7704674D02*
G01X17497758Y-7697612D01*
G01X20588111Y-3174994D02*
G01X20573986Y-3111501D01*
G01X17257875Y-5771442D02*
G01X17257875Y-5757334D01*
G01X20669243Y-5125866D02*
G01X20669243Y-5122334D01*
G01X18101028Y-2970390D02*
G01X18097480Y-3009199D01*
G01X17286091Y-9606125D02*
G01X17272001Y-9599098D01*
G01X15730354Y-8787709D02*
G01X15726810Y-8777097D01*
G01X16442973Y-9574397D02*
G01X16446486Y-9574397D01*
G01X20249424Y-2621144D02*
G01X20192993Y-2585866D01*
G01X16749865Y-8759459D02*
G01X16735771Y-8759459D01*
G01X20055396Y-4557890D02*
G01X20055396Y-4409716D01*
G01X17497758Y-7641182D02*
G01X17497758Y-7623543D01*
G01X17035632Y-9535570D02*
G01X17039146Y-9532056D01*
G01X19847277Y-5450411D02*
G01X19847277Y-5468049D01*
G01X17779979Y-8770071D02*
G01X17787042Y-8763007D01*
G01X20475215Y-3753564D02*
G01X20506948Y-3693584D01*
G01X20538708Y-5803188D02*
G01X20538708Y-5785549D01*
G01X17007417Y-3012730D02*
G01X16968591Y-3019775D01*
G01X20048337Y-3330230D02*
G01X20048337Y-3287890D01*
G01X21149007Y-4850688D02*
G01X21149007Y-4854220D01*
G01X16263035Y-6265331D02*
G01X16263035Y-6215945D01*
G01X15963174Y-9546182D02*
G01X15966723Y-9546182D01*
G01X20249424Y-5468049D02*
G01X20150653Y-5468049D01*
G01X17282576Y-7799932D02*
G01X17303730Y-7778744D01*
G01X16263035Y-7369536D02*
G01X16263035Y-7316619D01*
G01X16174840Y-6999119D02*
G01X16181903Y-7002633D01*
G01X15927896Y-9514417D02*
G01X15942021Y-9510904D01*
G01X16270097Y-6822730D02*
G01X16266584Y-6826244D01*
G01X15938476Y-9546182D02*
G01X15942021Y-9546182D01*
G01X20302340Y-2663466D02*
G01X20249424Y-2621144D01*
G01X16164264Y-6628702D02*
G01X16171327Y-6611064D01*
G01X16693431Y-8893543D02*
G01X16700493Y-8914695D01*
G01X20626903Y-6205369D02*
G01X20623389Y-6233584D01*
G01X15599819Y-4360331D02*
G01X15564542Y-4363862D01*
G01X16245396Y-7147293D02*
G01X16238337Y-7150807D01*
G01X20581048Y-6043088D02*
G01X20588111Y-6011341D01*
G01X18048112Y-8187987D02*
G01X18048112Y-8170349D01*
G01X16287736Y-7570626D02*
G01X16287736Y-7616480D01*
G01X17014448Y-9524994D02*
G01X17028569Y-9514417D01*
G01X17141466Y-7866938D02*
G01X17137921Y-7852848D01*
G01X16647576Y-8187987D02*
G01X16647576Y-8170349D01*
G01X16139562Y-7154320D02*
G01X16139562Y-7164932D01*
G01X20538708Y-7718764D02*
G01X20538708Y-7679973D01*
G01X16834542Y-8960549D02*
G01X16799264Y-8960549D01*
G01X16234819Y-6335886D02*
G01X16231306Y-6381758D01*
G01X17127340Y-4709577D02*
G01X17123827Y-4709577D01*
G01X16224243Y-7528286D02*
G01X16238337Y-7528286D01*
G01X17501306Y-9570847D02*
G01X17501306Y-9556757D01*
G01X20563410Y-7394237D02*
G01X20563410Y-7369536D01*
G01X18647833Y-8187987D02*
G01X18549032Y-8187987D01*
G01X16231306Y-6381758D02*
G01X16227757Y-6424081D01*
G01X20633966Y-5951362D02*
G01X20626903Y-5965470D01*
G01X21381861Y-4935369D02*
G01X21381861Y-4974161D01*
G01X20563410Y-6335886D02*
G01X20563410Y-6311202D01*
G01X20573986Y-3111501D02*
G01X20556347Y-3048008D01*
G01X16400632Y-9570847D02*
G01X16400632Y-9556757D01*
G01X16287736Y-6215945D02*
G01X16287736Y-6265331D01*
G01X20623389Y-6639278D02*
G01X20616326Y-6635765D01*
G01X17148528Y-8187987D02*
G01X17148528Y-8170349D01*
G01X17300215Y-9574397D02*
G01X17303730Y-9574397D01*
G01X16700493Y-8960549D02*
G01X16735771Y-8960549D01*
G01X16217181Y-7101404D02*
G01X16220698Y-7136682D01*
G01X20573986Y-3506619D02*
G01X20588111Y-3443109D01*
G01X16263035Y-6875646D02*
G01X16263035Y-6861522D01*
G01X20249424Y-8187987D02*
G01X20150653Y-8187987D01*
G01X19247555Y-8187987D02*
G01X19148754Y-8187987D01*
G01X16206604Y-9574397D02*
G01X16210118Y-9574397D01*
G01X18418528Y-2716383D02*
G01X18379701Y-2716383D01*
G01X15913806Y-9524994D02*
G01X15927896Y-9514417D01*
G01X15934958Y-9546182D02*
G01X15938476Y-9546182D01*
G01X15702139Y-8914695D02*
G01X15695077Y-8928821D01*
G01X17067365Y-9542632D02*
G01X17067365Y-9539119D01*
G01X20538708Y-6759238D02*
G01X20538708Y-6730987D01*
G01X16210118Y-3174994D02*
G01X16203059Y-3242036D01*
G01X18249171Y-5450411D02*
G01X18249171Y-5468049D01*
G01X16263035Y-6833306D02*
G01X16263035Y-6840369D01*
G01X20538708Y-6293564D02*
G01X20538708Y-6240647D01*
G01X16287736Y-7521223D02*
G01X16287736Y-7570626D01*
G01X17797618Y-8960549D02*
G01X17787042Y-8957035D01*
G01X16210118Y-3443109D02*
G01X16224243Y-3506619D01*
G01X16707556Y-8784160D02*
G01X16700493Y-8801799D01*
G01X16725195Y-4095748D02*
G01X16785143Y-4116918D01*
G01X16125473Y-6103050D02*
G01X16121924Y-6106581D01*
G01X21156069Y-7298980D02*
G01X21152555Y-7277793D01*
G01X17254362Y-5760866D02*
G01X17243754Y-5750272D01*
G01X16185421Y-6011341D02*
G01X16178390Y-5986640D01*
G01X15398729Y-4688425D02*
G01X15398729Y-4713109D01*
G01X15680951Y-8766522D02*
G01X15688014Y-8777097D01*
G01X20538708Y-6628702D02*
G01X20538708Y-6586362D01*
G01X18097480Y-3009199D02*
G01X17049726Y-3009199D01*
G01X17497758Y-7687036D02*
G01X17497758Y-7676460D01*
G01X19540354Y-7881063D02*
G01X19540354Y-7891640D01*
G01X20538708Y-7044973D02*
G01X20538708Y-7002633D01*
G01X20559866Y-7852848D02*
G01X20563410Y-7849299D01*
G01X20637479Y-6424081D02*
G01X20633966Y-6420549D01*
G01X16457063Y-9510904D02*
G01X16474701Y-9514417D01*
G01X15751507Y-8960549D02*
G01X15751507Y-8759459D01*
G01X20958527Y-4582591D02*
G01X20958527Y-4586105D01*
G01X16287736Y-7023821D02*
G01X16287736Y-7069675D01*
G01X19494500Y-5859636D02*
G01X19469798Y-5880806D01*
G01X16263035Y-6515806D02*
G01X16263035Y-6469952D01*
G01X18048112Y-8187987D02*
G01X17949310Y-8187987D01*
G01X19409819Y-4166303D02*
G01X19430977Y-4162772D01*
G01X17554222Y-9528543D02*
G01X17550674Y-9528543D01*
G01X16411209Y-9574397D02*
G01X16400632Y-9574397D01*
G01X17300215Y-9546182D02*
G01X17296671Y-9546182D01*
G01X20563410Y-6092473D02*
G01X20563410Y-6141859D01*
G01X15740931Y-8960549D02*
G01X15744448Y-8960549D01*
G01X15416368Y-5083525D02*
G01X15416368Y-5062355D01*
G01X16188965Y-7009695D02*
G01X16196028Y-7027334D01*
G01X17152042Y-7789320D02*
G01X17144979Y-7810508D01*
G01X15649223Y-4868327D02*
G01X15649223Y-5161144D01*
G01X18750119Y-8187987D02*
G01X18750119Y-8170349D01*
G01X17257875Y-9588486D02*
G01X17250812Y-9570847D01*
G01X16128986Y-4589636D02*
G01X16128986Y-4593167D01*
G01X18450257Y-8187987D02*
G01X18450257Y-8170349D01*
G01X21381861Y-4900091D02*
G01X21381861Y-4935369D01*
G01X19646188Y-7789320D02*
G01X19632062Y-7761105D01*
G01X16848667Y-8170349D02*
G01X16749865Y-8170349D01*
G01X19300472Y-7658820D02*
G01X19300472Y-7641182D01*
G01X20588111Y-6244161D02*
G01X20588111Y-6290032D01*
G01X19642644Y-5009438D02*
G01X19649701Y-5009438D01*
G01X16192479Y-6043088D02*
G01X16185421Y-6011341D01*
G01X15966723Y-9606125D02*
G01X15949084Y-9609674D01*
G01X20506948Y-3693584D02*
G01X20535194Y-3633605D01*
G01X15949084Y-9546182D02*
G01X15952598Y-9546182D01*
G01X16030215Y-4557890D02*
G01X15649223Y-4557890D01*
G01X17162619Y-5672671D02*
G01X17152042Y-5683248D01*
G01X16446486Y-2709338D02*
G01X16404146Y-2758723D01*
G01X16259521Y-6491105D02*
G01X16263035Y-6494654D01*
G01X17081487Y-9599098D02*
G01X17067365Y-9606125D01*
G01X20732736Y-7701125D02*
G01X20732736Y-6999119D01*
G01X19692041Y-4776619D02*
G01X19688528Y-4780133D01*
G01X16114865Y-7383625D02*
G01X16114865Y-7355411D01*
G01X16809840Y-8840626D02*
G01X16809840Y-8858265D01*
G01X16263035Y-7803445D02*
G01X16263035Y-7782293D01*
G01X16661670Y-8914695D02*
G01X16658153Y-8893543D01*
G01X16414726Y-9524994D02*
G01X16485282Y-9524994D01*
G01X15959660Y-9510904D02*
G01X15973754Y-9514417D01*
G01X19550930Y-5683248D02*
G01X19540354Y-5700886D01*
G01X16128986Y-4593167D02*
G01X16128986Y-4596699D01*
G01X16217181Y-9546182D02*
G01X16213667Y-9546182D01*
G01X18848894Y-8170349D02*
G01X18750119Y-8170349D01*
G01X17088548Y-9546182D02*
G01X17099125Y-9546182D01*
G01X15398729Y-4639022D02*
G01X15398729Y-4649616D01*
G01X20602202Y-7672910D02*
G01X20595143Y-7651758D01*
G01X17247299Y-5450411D02*
G01X17247299Y-5468049D01*
G01X16432365Y-9574397D02*
G01X16435910Y-9574397D01*
G01X16432365Y-9539119D02*
G01X16435910Y-9535570D01*
G01X16196028Y-7672910D02*
G01X16188965Y-7687036D01*
G01X16263035Y-6847432D02*
G01X16263035Y-6840369D01*
G01X21149007Y-4850688D02*
G01X21149007Y-4557890D01*
G01X16838059Y-8914695D02*
G01X16841604Y-8897056D01*
G01X19526229Y-5824359D02*
G01X19515653Y-5838466D01*
G01X18150396Y-5450411D02*
G01X18150396Y-5468049D01*
G01X16171327Y-5965470D02*
G01X16164264Y-5951362D01*
G01X17317854Y-9539119D02*
G01X17314309Y-9535570D01*
G01X16845118Y-8879417D02*
G01X16845118Y-8858265D01*
G01X16453549Y-9574397D02*
G01X16457063Y-9574397D01*
G01X20623389Y-7408327D02*
G01X20626903Y-7433028D01*
G01X18450257Y-8187987D02*
G01X18347972Y-8187987D01*
G01X15702139Y-8960549D02*
G01X15709171Y-8957035D01*
G01X17028569Y-9546182D02*
G01X17028569Y-9574397D01*
G01X17254362Y-5700886D02*
G01X17247299Y-5683248D01*
G01X19498014Y-5009438D02*
G01X19635610Y-5009438D01*
G01X17137921Y-5757334D02*
G01X17137921Y-5771442D01*
G01X21145493Y-4850688D02*
G01X21149007Y-4850688D01*
G01X15751507Y-8759459D02*
G01X15751507Y-8755945D01*
G01X17003868Y-9570847D02*
G01X17000354Y-9556757D01*
G01X19646188Y-7955133D02*
G01X19656764Y-7937494D01*
G01X19903708Y-3051522D02*
G01X19868430Y-3033883D01*
G01X19748477Y-4159258D02*
G01X19815514Y-4155727D01*
G01X20633966Y-6159497D02*
G01X20637479Y-6155966D01*
G01X16188965Y-5951362D02*
G01X16196028Y-5965470D01*
G01X17314309Y-9574397D02*
G01X17317854Y-9574397D01*
G01X16238337Y-6117175D02*
G01X16238337Y-6106581D01*
G01X16457063Y-9574397D02*
G01X16460612Y-9574397D01*
G01X16181903Y-9546182D02*
G01X16178390Y-9546182D01*
G01X16224243Y-6113644D02*
G01X16227757Y-6155966D01*
G01X16220698Y-6501681D02*
G01X16217181Y-6536959D01*
G01X16460612Y-9574397D02*
G01X16464125Y-9574397D01*
G01X16700493Y-8801799D02*
G01X16693431Y-8822987D01*
G01X16361810Y-3809994D02*
G01X16404146Y-3862911D01*
G01X17508338Y-9546182D02*
G01X17529521Y-9546182D01*
G01X17176743Y-5736164D02*
G01X17162619Y-5743227D01*
G01X17233174Y-5672671D02*
G01X17219084Y-5662077D01*
G01X17850535Y-8187987D02*
G01X17748250Y-8187987D01*
G01X17028569Y-9514417D02*
G01X17042695Y-9510904D01*
G01X16238337Y-9574397D02*
G01X16220698Y-9574397D01*
G01X17349588Y-8187987D02*
G01X17349588Y-8170349D01*
G01X17497758Y-6014855D02*
G01X17497758Y-6032494D01*
G01X16241882Y-3048008D02*
G01X16224243Y-3111501D01*
G01X16255976Y-6487591D02*
G01X16259521Y-6491105D01*
G01X17529521Y-9574397D02*
G01X17533035Y-9574397D01*
G01X16238337Y-7514161D02*
G01X16238337Y-7500070D01*
G01X15709171Y-8763007D02*
G01X15702139Y-8759459D01*
G01X16174840Y-9514417D02*
G01X16192479Y-9510904D01*
G01X19300472Y-7623543D02*
G01X19300472Y-7605904D01*
G01X16234819Y-6290032D02*
G01X16210118Y-6290032D01*
G01X20542227Y-6815668D02*
G01X20538708Y-6815668D01*
G01X17557736Y-9510904D02*
G01X17575375Y-9514417D01*
G01X20538708Y-7845785D02*
G01X20538708Y-7828147D01*
G01X21300698Y-4385033D02*
G01X21268965Y-4370925D01*
G01X20577504Y-6501681D02*
G01X20570472Y-6462889D01*
G01X19660282Y-5729119D02*
G01X19660282Y-5722056D01*
G01X20538708Y-7090827D02*
G01X20538708Y-7044973D01*
G01X16661670Y-2550588D02*
G01X16605236Y-2585866D01*
G01X17331948Y-9599098D02*
G01X17317854Y-9606125D01*
G01X16248945Y-7531799D02*
G01X16252459Y-7535348D01*
G01X20630421Y-6395866D02*
G01X20633966Y-6417036D01*
G01X20641027Y-5940786D02*
G01X20633966Y-5951362D01*
G01X16234819Y-6290032D02*
G01X16234819Y-6335886D01*
G01X16661670Y-8960549D02*
G01X16658153Y-8960549D01*
G01X15416368Y-4974161D02*
G01X15416368Y-4935369D01*
G01X20563410Y-6141859D02*
G01X20563410Y-6191244D01*
G01X17046208Y-9574397D02*
G01X17049726Y-9574397D01*
G01X16654639Y-8872355D02*
G01X16654639Y-8847653D01*
G01X17349588Y-9556757D02*
G01X17349588Y-9570847D01*
G01X20641027Y-7002633D02*
G01X20633966Y-7009695D01*
G01X20538708Y-6448764D02*
G01X20538708Y-6395866D01*
G01X17568313Y-9574397D02*
G01X17571861Y-9574397D01*
G01X17141466Y-4709577D02*
G01X17134403Y-4709577D01*
G01X21399500Y-4773088D02*
G01X21399500Y-4744855D01*
G01X17497758Y-5933723D02*
G01X17476604Y-5933723D01*
G01X17141466Y-5806720D02*
G01X17144979Y-5827890D01*
G01X16227757Y-4621383D02*
G01X16030215Y-4621383D01*
G01X20626903Y-7440091D02*
G01X20626903Y-7418903D01*
G01X20623389Y-7397751D02*
G01X20623389Y-7394237D01*
G01X15680951Y-8953487D02*
G01X15673893Y-8957035D01*
G01X16065493Y-5940786D02*
G01X16065493Y-6639278D01*
G01X19540354Y-7916341D02*
G01X19540354Y-7919855D01*
G01X17589500Y-9546182D02*
G01X17600077Y-9546182D01*
G01X16435910Y-9546182D02*
G01X16439424Y-9546182D01*
G01X16287736Y-7422452D02*
G01X16287736Y-7471820D01*
G01X16263035Y-7838723D02*
G01X16263035Y-7831660D01*
G01X15398729Y-4667255D02*
G01X15398729Y-4688425D01*
G01X16287736Y-6064258D02*
G01X16287736Y-6113644D01*
G01X15613945Y-7584716D02*
G01X15631584Y-7602355D01*
G01X20563410Y-6886223D02*
G01X20563410Y-6910924D01*
G01X20676306Y-7380112D02*
G01X20676306Y-7348348D01*
G01X16160750Y-9546182D02*
G01X16160750Y-9574397D01*
G01X16700493Y-8759459D02*
G01X16665216Y-8759459D01*
G01X16181903Y-9539119D02*
G01X16181903Y-9542632D01*
G01X20538708Y-7136682D02*
G01X20538708Y-7090827D01*
G01X15970236Y-9546182D02*
G01X15970236Y-9542632D01*
G01X16450004Y-9546182D02*
G01X16450004Y-9574397D01*
G01X15398729Y-7560014D02*
G01X15550421Y-7560014D01*
G01X20676306Y-7408327D02*
G01X20676306Y-7380112D01*
G01X20669243Y-7242515D02*
G01X20665699Y-7221362D01*
G01X18549032Y-5450411D02*
G01X18549032Y-5468049D01*
G01X15945535Y-9528543D02*
G01X15949084Y-9528543D01*
G01X19674402Y-4815411D02*
G01X19674402Y-4822473D01*
G01X21395951Y-14693188D02*
G01X21399500Y-14657911D01*
G01X17384865Y-5909022D02*
G01X17363708Y-5901977D01*
G01X16785143Y-4116918D02*
G01X16852180Y-4134557D01*
G01X20538708Y-7591778D02*
G01X20538708Y-7545924D01*
G01X16139562Y-7182571D02*
G01X16139562Y-7200209D01*
G01X17088548Y-9574397D02*
G01X17088548Y-9546182D01*
G01X16270097Y-6808605D02*
G01X16273615Y-6808605D01*
G01X20048337Y-3287890D02*
G01X20041305Y-3249081D01*
G01X19300472Y-5933723D02*
G01X17497758Y-5933723D01*
G01X15620976Y-7330709D02*
G01X15603338Y-7341321D01*
G01X19540354Y-5778504D02*
G01X19543869Y-5760866D01*
G01X16213667Y-9546182D02*
G01X16210118Y-9546182D01*
G01X17137921Y-7919855D02*
G01X17141466Y-7937494D01*
G01X20662180Y-7207237D02*
G01X20658667Y-7196661D01*
G01X16263035Y-7214299D02*
G01X16263035Y-7164932D01*
G01X16287736Y-7697612D02*
G01X16287736Y-7736403D01*
G01X20676306Y-7320133D02*
G01X20676306Y-7291917D01*
G01X19540354Y-7852848D02*
G01X19540354Y-7870487D01*
G01X15938476Y-5097633D02*
G01X15938476Y-5161144D01*
G01X15942021Y-9510904D02*
G01X15959660Y-9510904D01*
G01X17099125Y-9556757D02*
G01X17099125Y-9570847D01*
G01X16114865Y-6275925D02*
G01X16114865Y-6247692D01*
G01X20538708Y-7545924D02*
G01X20538708Y-7496522D01*
G01X16263035Y-7119042D02*
G01X16263035Y-7073188D01*
G01X17321368Y-9546182D02*
G01X17317854Y-9546182D01*
G01X19554449Y-7891640D02*
G01X19568569Y-7898702D01*
G01X17279032Y-9574397D02*
G01X17282576Y-9574397D01*
G01X16128986Y-4586105D02*
G01X16128986Y-4589636D01*
G01X19247555Y-8187987D02*
G01X19247555Y-8170349D01*
G01X16767504Y-3411362D02*
G01X16781625Y-3446640D01*
G01X17137921Y-7870487D02*
G01X17137921Y-7881063D01*
G01X16845118Y-8858265D02*
G01X16845118Y-8840626D01*
G01X17257875Y-5746758D02*
G01X17257875Y-5736164D01*
G01X16749865Y-5450411D02*
G01X16749865Y-5468049D01*
G01X20563410Y-6342949D02*
G01X20563410Y-6395866D01*
G01X16132504Y-6480529D02*
G01X16139562Y-6480529D01*
G01X20048337Y-8187987D02*
G01X19949562Y-8187987D01*
G01X15416368Y-5005925D02*
G01X15416368Y-4974161D01*
G01X16132504Y-7528286D02*
G01X16139562Y-7528286D01*
G01X16435910Y-9535570D02*
G01X16435910Y-9532056D01*
G01X15959660Y-9546182D02*
G01X15963174Y-9546182D01*
G01X15603338Y-7052035D02*
G01X15620976Y-7062612D01*
G01X16647576Y-5468049D02*
G01X16548806Y-5468049D01*
G01X16238337Y-7478883D02*
G01X16238337Y-7457730D01*
G01X17406049Y-4176897D02*
G01X17420143Y-4187473D01*
G01X17049726Y-8187987D02*
G01X17049726Y-8170349D01*
G01X19148754Y-8187987D02*
G01X19148754Y-8170349D01*
G01X20859727Y-4575529D02*
G01X20958527Y-4575529D01*
G01X20637479Y-7493008D02*
G01X20641027Y-7503584D01*
G01X17497758Y-6032494D02*
G01X17497758Y-6043088D01*
G01X17063847Y-9546182D02*
G01X17067365Y-9546182D01*
G01X16238337Y-9524994D02*
G01X16245396Y-9539119D01*
G01X20563410Y-7330709D02*
G01X20563410Y-7302494D01*
G01X20563410Y-6293564D02*
G01X20563410Y-6342949D01*
G01X15737417Y-5097633D02*
G01X15938476Y-5097633D01*
G01X16323014Y-3753564D02*
G01X16361810Y-3809994D01*
G01X16263035Y-5944299D02*
G01X16263035Y-5909022D01*
G01X15963174Y-9532056D02*
G01X15959660Y-9532056D01*
G01X17144979Y-7810508D02*
G01X17141466Y-7831660D01*
G01X17441326Y-5926661D02*
G01X17409563Y-5919616D01*
G01X20591624Y-7440091D02*
G01X20591624Y-7482432D01*
G01X20577504Y-6074834D02*
G01X20581048Y-6043088D01*
G01X20549284Y-6812154D02*
G01X20552834Y-6808605D01*
G01X19536810Y-7835210D02*
G01X19536810Y-7845785D01*
G01X21268965Y-4370925D02*
G01X21233687Y-4363862D01*
G01X19600333Y-7979834D02*
G01X19617972Y-7976321D01*
G01X20626903Y-6611064D02*
G01X20633966Y-6628702D01*
G01X16287736Y-6914438D02*
G01X16287736Y-6946202D01*
G01X18630195Y-2822216D02*
G01X18601948Y-2794001D01*
G01X16284223Y-6815668D02*
G01X16280674Y-6815668D01*
G01X20563410Y-7588265D02*
G01X20563410Y-7630570D01*
G01X20644542Y-7443605D02*
G01X20641027Y-7457730D01*
G01X17293152Y-9546182D02*
G01X17289640Y-9546182D01*
G01X15469285Y-14813146D02*
G01X15497535Y-14834299D01*
G01X16227757Y-7214299D02*
G01X16231306Y-7260154D01*
G01X17032088Y-9539119D02*
G01X17035632Y-9535570D01*
G01X19434521Y-5901977D02*
G01X19413338Y-5909022D01*
G01X15991393Y-9546182D02*
G01X15998452Y-9546182D01*
G01X16287736Y-5834952D02*
G01X16287736Y-5866699D01*
G01X15398729Y-4875390D02*
G01X15398729Y-4910667D01*
G01X21194865Y-7052035D02*
G01X21212505Y-7041460D01*
G01X21198409Y-14859000D02*
G01X15599819Y-14859000D01*
G01X17067365Y-9574397D02*
G01X17070910Y-9574397D01*
G01X20669243Y-5309300D02*
G01X20669243Y-5143505D01*
G01X16287736Y-7658820D02*
G01X16287736Y-7697612D01*
G01X21149007Y-5161144D02*
G01X21149007Y-4868327D01*
G01X20563410Y-6191244D02*
G01X20563410Y-6240647D01*
G01X16728708Y-8960549D02*
G01X16728708Y-8964099D01*
G01X19540354Y-7909279D02*
G01X19540354Y-7916341D01*
G01X16206604Y-6198306D02*
G01X16206604Y-6155966D01*
G01X17388410Y-4166303D02*
G01X17406049Y-4176897D01*
G01X16263035Y-7030848D02*
G01X16263035Y-6992056D01*
G01X16206604Y-7214299D02*
G01X16203059Y-7175507D01*
G01X16139562Y-6106581D02*
G01X16139562Y-6117175D01*
G01X19946049Y-2483564D02*
G01X19882556Y-2469439D01*
G01X20016604Y-3171480D02*
G01X19995421Y-3136203D01*
G01X16831028Y-8787709D02*
G01X16823965Y-8777097D01*
G01X16114865Y-6455827D02*
G01X16114865Y-6448764D01*
G01X16665216Y-8759459D02*
G01X16661670Y-8759459D01*
G01X16238337Y-6230053D02*
G01X16238337Y-6198306D01*
G01X17758826Y-8960549D02*
G01X17755282Y-8960549D01*
G01X15938476Y-5161144D02*
G01X15938476Y-5309300D01*
G01X19670889Y-5009438D02*
G01X19674402Y-5009438D01*
G01X16238337Y-7341321D02*
G01X16238337Y-7309556D01*
G01X16287736Y-6420549D02*
G01X16287736Y-6473466D01*
G01X16284223Y-6815668D02*
G01X16287736Y-6815668D01*
G01X20633966Y-7221362D02*
G01X20637479Y-7214299D01*
G01X16287736Y-6829793D02*
G01X16287736Y-6843883D01*
G01X16210118Y-9546182D02*
G01X16206604Y-9546182D01*
G01X21381861Y-5083525D02*
G01X21381861Y-5097633D01*
G01X18700750Y-3009199D02*
G01X18697201Y-2970390D01*
G01X16160750Y-9546182D02*
G01X16153688Y-9546182D01*
G01X17550674Y-9546182D02*
G01X17554222Y-9546182D01*
G01X20552834Y-5767911D02*
G01X20549284Y-5767911D01*
G01X20630421Y-7246063D02*
G01X20633966Y-7228424D01*
G01X20048337Y-8170349D02*
G01X19949562Y-8170349D01*
G01X19430977Y-4162772D02*
G01X19448615Y-4159258D01*
G01X20605750Y-7101404D02*
G01X20602202Y-7136682D01*
G01X15416368Y-4744855D02*
G01X15416368Y-4713109D01*
G01X17339007Y-9546182D02*
G01X17321368Y-9546182D01*
G01X16263035Y-7073188D02*
G01X16263035Y-7030848D01*
G01X21399500Y-4713109D02*
G01X21399500Y-4688425D01*
G01X20633966Y-6163029D02*
G01X20637479Y-6170091D01*
G01X15412855Y-14728466D02*
G01X15426980Y-14760230D01*
G01X20768014Y-5309300D02*
G01X20768014Y-5161144D01*
G01X16263035Y-6861522D02*
G01X16263035Y-6847432D01*
G01X20602202Y-5965470D02*
G01X20609264Y-5951362D01*
G01X17363708Y-7736403D02*
G01X17384865Y-7729376D01*
G01X20605750Y-6043088D02*
G01X20602202Y-6074834D01*
G01X20676306Y-6290032D02*
G01X20676306Y-6261799D01*
G01X17550674Y-8187987D02*
G01X17550674Y-8170349D01*
G01X20623389Y-6311202D02*
G01X20623389Y-6290032D01*
G01X21399500Y-7358959D02*
G01X21399500Y-7560014D01*
G01X20595143Y-6113644D02*
G01X20591624Y-6155966D01*
G01X21149007Y-4868327D02*
G01X21145493Y-4868327D01*
G01X19565056Y-7969257D02*
G01X19579146Y-7976321D01*
G01X17123827Y-4709577D02*
G01X17099125Y-4709577D01*
G01X16139562Y-6381758D02*
G01X16139562Y-6406442D01*
G01X16263035Y-6215945D02*
G01X16263035Y-6166560D01*
G01X18249171Y-8187987D02*
G01X18150396Y-8187987D01*
G01X17765889Y-8960549D02*
G01X17762341Y-8960549D01*
G01X20641027Y-7503584D02*
G01X20648060Y-7507098D01*
G01X16467643Y-9542632D02*
G01X16467643Y-9539119D01*
G01X17032088Y-9542632D02*
G01X17032088Y-9539119D01*
G01X19656764Y-7831660D02*
G01X19653250Y-7810508D01*
G01X19321625Y-7704674D02*
G01X19356903Y-7711737D01*
G01X16280674Y-7863425D02*
G01X16284223Y-7863425D01*
G01X17148528Y-5757334D02*
G01X17141466Y-5771442D01*
G01X16185421Y-7073188D02*
G01X16178390Y-7044973D01*
G01X17049726Y-8170349D02*
G01X16947438Y-8170349D01*
G01X16203059Y-6462889D02*
G01X16206604Y-6424081D01*
G01X20651604Y-6290032D02*
G01X20651604Y-6314716D01*
G01X17261393Y-7838723D02*
G01X17264938Y-7828147D01*
G01X19748477Y-8187987D02*
G01X19748477Y-8170349D01*
G01X20591624Y-6198306D02*
G01X20588111Y-6244161D01*
G01X19392181Y-4176897D02*
G01X19409819Y-4166303D01*
G01X17303730Y-9574397D02*
G01X17307278Y-9574397D01*
G01X16848667Y-5468049D02*
G01X16749865Y-5468049D01*
G01X19632062Y-5877275D02*
G01X19646188Y-5849060D01*
G01X19049979Y-8170349D02*
G01X18947694Y-8170349D01*
G01X16693431Y-8822987D02*
G01X16689917Y-8847653D01*
G01X15906743Y-9588486D02*
G01X15903198Y-9570847D01*
G01X19247555Y-5450411D02*
G01X19247555Y-5468049D01*
G01X16224243Y-3506619D02*
G01X16241882Y-3573644D01*
G01X16203059Y-5986640D02*
G01X16210118Y-6011341D01*
G01X20563410Y-5789081D02*
G01X20563410Y-5792612D01*
G01X20609264Y-5951362D02*
G01X20616326Y-5940786D01*
G01X16238337Y-6462889D02*
G01X16238337Y-6448764D01*
G01X15949084Y-9546182D02*
G01X15949084Y-9574397D01*
G01X20559866Y-6826244D02*
G01X20556347Y-6822730D01*
G01X16263035Y-5799675D02*
G01X16263035Y-5792612D01*
G01X17765889Y-8798285D02*
G01X17765889Y-8759459D01*
G01X19660282Y-7870487D02*
G01X19660282Y-7852848D01*
G01X20630421Y-7242515D02*
G01X20626903Y-7267216D01*
G01X16361810Y-2808109D02*
G01X16323014Y-2864557D01*
G01X21300698Y-14834299D02*
G01X21328944Y-14813146D01*
G01X15839702Y-5129397D02*
G01X15839702Y-5125866D01*
G01X16474701Y-9514417D02*
G01X16485282Y-9524994D01*
G01X20588111Y-7073188D02*
G01X20595143Y-7044973D01*
G01X16263035Y-7133167D02*
G01X16259521Y-7136682D01*
G01X16428847Y-9546182D02*
G01X16428847Y-9574397D01*
G01X20538708Y-5824359D02*
G01X20538708Y-5803188D01*
G01X20563410Y-5792612D02*
G01X20563410Y-5803188D01*
G01X16450004Y-9546182D02*
G01X16453549Y-9546182D01*
G01X16432365Y-9606125D02*
G01X16418271Y-9599098D01*
G01X17063847Y-9535570D02*
G01X17063847Y-9532056D01*
G01X17593014Y-9588486D02*
G01X17582438Y-9599098D01*
G01X16217181Y-6043088D02*
G01X16220698Y-6074834D01*
G01X16114865Y-7493008D02*
G01X16114865Y-7478883D01*
G01X16238337Y-6173605D02*
G01X16238337Y-6148921D01*
G01X20630421Y-6399397D02*
G01X20626903Y-6381758D01*
G01X18048112Y-5468049D02*
G01X17949310Y-5468049D01*
G01X16442973Y-9532056D02*
G01X16446486Y-9528543D01*
G01X18549032Y-8187987D02*
G01X18549032Y-8170349D01*
G01X16287736Y-6649855D02*
G01X16287736Y-6685133D01*
G01X16481764Y-9599098D02*
G01X16467643Y-9606125D01*
G01X20538708Y-6833306D02*
G01X20538708Y-6822730D01*
G01X20648060Y-6999119D02*
G01X20641027Y-7002633D01*
G01X17346070Y-5891383D02*
G01X17328431Y-5880806D01*
G01X17571861Y-9574397D02*
G01X17571861Y-9546182D01*
G01X20626903Y-7418903D02*
G01X20623389Y-7397751D01*
G01X20538708Y-6822730D02*
G01X20538708Y-6815668D01*
G01X20623389Y-6261799D02*
G01X20623389Y-6290032D01*
G01X20626903Y-7263702D02*
G01X20630421Y-7246063D01*
G01X20136532Y-4067532D02*
G01X20192993Y-4035786D01*
G01X16114865Y-7189598D02*
G01X16114865Y-7179022D01*
G01X19247555Y-5450411D02*
G01X19148754Y-5450411D01*
G01X20768014Y-5143505D02*
G01X20669243Y-5143505D01*
G01X20633966Y-7221362D02*
G01X20630421Y-7242515D01*
G01X16809840Y-8879417D02*
G01X16806326Y-8897056D01*
G01X16238337Y-7150807D02*
G01X16224243Y-7150807D01*
G01X15952598Y-9574397D02*
G01X15956115Y-9574397D01*
G01X16206604Y-6381758D02*
G01X16210118Y-6335886D01*
G01X19649701Y-8170349D02*
G01X19547417Y-8170349D01*
G01X15631584Y-8759459D02*
G01X15631584Y-8960549D01*
G01X17550674Y-4247453D02*
G01X17550674Y-4272136D01*
G01X20538708Y-7341321D02*
G01X20538708Y-7291917D01*
G01X21381861Y-5104695D02*
G01X21381861Y-5108227D01*
G01X17261393Y-9574397D02*
G01X17254362Y-9574397D01*
G01X17868174Y-8960549D02*
G01X17871722Y-8960549D01*
G01X16499403Y-9556757D02*
G01X16499403Y-9570847D01*
G01X16263035Y-6790966D02*
G01X16263035Y-6794515D01*
G01X16238337Y-7277793D02*
G01X16238337Y-7249577D01*
G01X15709171Y-8858265D02*
G01X15744448Y-8858265D01*
G01X18263292Y-2748147D02*
G01X18228014Y-2769300D01*
G01X16661670Y-8801799D02*
G01X16668729Y-8784160D01*
G01X16548806Y-8187987D02*
G01X16548806Y-8170349D01*
G01X20563410Y-6268862D02*
G01X20563410Y-6244161D01*
G01X20658667Y-6441719D02*
G01X20662180Y-6431144D01*
G01X15550421Y-7560014D02*
G01X15571604Y-7563563D01*
G01X20538708Y-5880806D02*
G01X20538708Y-5849060D01*
G01X20623389Y-7284855D02*
G01X20626903Y-7263702D01*
G01X21156069Y-7694098D02*
G01X21149007Y-7672910D01*
G01X17600077Y-9570847D02*
G01X17593014Y-9588486D01*
G01X19847277Y-8187987D02*
G01X19748477Y-8187987D01*
G01X16287736Y-7796383D02*
G01X16287736Y-7817571D01*
G01X16238337Y-6290032D02*
G01X16238337Y-6258286D01*
G01X15737417Y-8921757D02*
G01X15737417Y-8960549D01*
G01X20538708Y-7856362D02*
G01X20538708Y-7845785D01*
G01X19335750Y-5933723D02*
G01X19321625Y-5933723D01*
G01X17603590Y-4349755D02*
G01X17624778Y-4356800D01*
G01X17518945Y-9599098D02*
G01X17508338Y-9588486D01*
G01X15426980Y-14760230D02*
G01X15444619Y-14788444D01*
G01X15398729Y-4945945D02*
G01X15398729Y-4974161D01*
G01X16781625Y-8766522D02*
G01X16788688Y-8777097D01*
G01X16929799Y-3033883D02*
G01X16894521Y-3051522D01*
G01X16287736Y-7115529D02*
G01X16287736Y-7161383D01*
G01X17300215Y-4857751D02*
G01X17162619Y-4857751D01*
G01X16255976Y-7535348D02*
G01X16259521Y-7538862D01*
G01X20623389Y-6318247D02*
G01X20623389Y-6346480D01*
G01X17349588Y-9546182D02*
G01X17339007Y-9546182D01*
G01X20588111Y-3443109D02*
G01X20595143Y-3376085D01*
G01X17550674Y-4272136D02*
G01X17554222Y-4293307D01*
G01X16238337Y-6131282D02*
G01X16238337Y-6117175D01*
G01X20013060Y-4116918D02*
G01X20073035Y-4095748D01*
G01X16128986Y-4409716D02*
G01X16128986Y-4575529D01*
G01X15709171Y-8858265D02*
G01X15709171Y-8879417D01*
G01X20538708Y-6702772D02*
G01X20538708Y-6667494D01*
G01X16287736Y-6318247D02*
G01X16287736Y-6371164D01*
G01X15642160Y-7623543D02*
G01X15649223Y-7648209D01*
G01X17765889Y-8759459D02*
G01X17762341Y-8759459D01*
G01X17864660Y-8960549D02*
G01X17868174Y-8960549D01*
G01X15737417Y-8914695D02*
G01X15740931Y-8897056D01*
G01X20538708Y-6187730D02*
G01X20538708Y-6138327D01*
G01X16654639Y-8960549D02*
G01X16651090Y-8960549D01*
G01X16139562Y-6431144D02*
G01X16139562Y-6448764D01*
G01X16749865Y-8759459D02*
G01X16763986Y-8759459D01*
G01X16231306Y-6198306D02*
G01X16234819Y-6244161D01*
G01X18848894Y-8187987D02*
G01X18750119Y-8187987D01*
G01X15416368Y-4818942D02*
G01X15416368Y-4783664D01*
G01X16446486Y-9546182D02*
G01X16450004Y-9546182D01*
G01X16654639Y-8847653D02*
G01X16658153Y-8822987D01*
G01X20602202Y-7563563D02*
G01X20605750Y-7595292D01*
G01X16238337Y-7373049D02*
G01X16238337Y-7341321D01*
G01X16263035Y-6600487D02*
G01X16263035Y-6561661D01*
G01X17868174Y-8759459D02*
G01X17864660Y-8759459D01*
G01X15740931Y-8819438D02*
G01X15737417Y-8805349D01*
G01X19635610Y-7969257D02*
G01X19646188Y-7955133D01*
G01X16287736Y-6519320D02*
G01X16287736Y-6565210D01*
G01X16065493Y-6999119D02*
G01X16065493Y-7701125D01*
G01X15649223Y-4864814D02*
G01X15649223Y-4861282D01*
G01X16950952Y-8755945D02*
G01X16950952Y-8964099D01*
G01X17787042Y-8957035D02*
G01X17779979Y-8946459D01*
G01X15426980Y-4459119D02*
G01X15412854Y-4490866D01*
G01X20623389Y-6999119D02*
G01X20648060Y-6999119D01*
G01X20591624Y-7214299D02*
G01X20591624Y-7260154D01*
G01X17758826Y-8759459D02*
G01X17755282Y-8759459D01*
G01X17099125Y-4945945D02*
G01X17106187Y-4942414D01*
G01X16210118Y-7073188D02*
G01X16217181Y-7101404D01*
G01X16263035Y-6752174D02*
G01X16263035Y-6730987D01*
G01X19603847Y-5732633D02*
G01X19621486Y-5736164D01*
G01X17529521Y-9574397D02*
G01X17508338Y-9574397D01*
G01X17289640Y-9532056D02*
G01X17286091Y-9532056D01*
G01X20563410Y-6840369D02*
G01X20563410Y-6833306D01*
G01X17141466Y-5700886D02*
G01X17137921Y-5718525D01*
G01X16453549Y-9528543D02*
G01X16450004Y-9528543D01*
G01X17039146Y-9546182D02*
G01X17042695Y-9546182D01*
G01X16263035Y-6790966D02*
G01X16263035Y-6787452D01*
G01X19660282Y-7919855D02*
G01X19660282Y-7916341D01*
G01X20538708Y-5771442D02*
G01X20538708Y-5767911D01*
G01X15942021Y-9574397D02*
G01X15945535Y-9574397D01*
G01X20563410Y-6974417D02*
G01X20563410Y-7013209D01*
G01X17137921Y-5718525D02*
G01X17137921Y-5722056D01*
G01X17529521Y-9546182D02*
G01X17529521Y-9574397D01*
G01X16167782Y-9599098D02*
G01X16157202Y-9588486D01*
G01X17088548Y-9574397D02*
G01X17070910Y-9574397D01*
G01X15416368Y-4635508D02*
G01X15416368Y-4621383D01*
G01X16548806Y-8964099D02*
G01X16548806Y-8755945D01*
G01X20644542Y-6198306D02*
G01X20648060Y-6215945D01*
G01X21226625Y-7563563D02*
G01X21247782Y-7560014D01*
G01X20563410Y-6582849D02*
G01X20563410Y-6621640D01*
G01X15963174Y-9574397D02*
G01X15966723Y-9574397D01*
G01X16774563Y-8763007D02*
G01X16781625Y-8766522D01*
G01X15931445Y-9539119D02*
G01X15934958Y-9535570D01*
G01X19667341Y-5009438D02*
G01X19670889Y-5009438D01*
G01X20630421Y-6184199D02*
G01X20633966Y-6170091D01*
G01X21399500Y-7761105D02*
G01X21399500Y-14657911D01*
G01X19448615Y-4159258D02*
G01X19748477Y-4159258D01*
G01X16139562Y-6321779D02*
G01X16139562Y-6353525D01*
G01X16178390Y-9546182D02*
G01X16160750Y-9546182D01*
G01X17042695Y-9574397D02*
G01X17046208Y-9574397D01*
G01X20570472Y-6462889D02*
G01X20566924Y-6424081D01*
G01X16263035Y-6117175D02*
G01X16263035Y-6067772D01*
G01X17049726Y-9546182D02*
G01X17049726Y-9574397D01*
G01X17317854Y-9546182D02*
G01X17314309Y-9546182D01*
G01X16287736Y-7214299D02*
G01X16287736Y-7263702D01*
G01X17257875Y-7891640D02*
G01X17257875Y-7881063D01*
G01X17148528Y-5450411D02*
G01X17148528Y-5468049D01*
G01X16263035Y-6992056D02*
G01X16263035Y-6956778D01*
G01X16252459Y-7535348D02*
G01X16255976Y-7535348D01*
G01X20651604Y-6339417D02*
G01X20648060Y-6364119D01*
G01X16203059Y-6113644D02*
G01X16196028Y-6074834D01*
G01X20538708Y-5764397D02*
G01X19660282Y-5764397D01*
G01X17296671Y-9546182D02*
G01X17293152Y-9546182D01*
G01X17561254Y-9546182D02*
G01X17564799Y-9546182D01*
G01X20549284Y-5767911D02*
G01X20542227Y-5764397D01*
G01X19540354Y-5746758D02*
G01X19540354Y-5757334D01*
G01X17314309Y-9546182D02*
G01X17310791Y-9546182D01*
G01X20729222Y-5940786D02*
G01X20729222Y-6639278D01*
G01X16749865Y-3330230D02*
G01X16756924Y-3369022D01*
G01X20633966Y-6163029D02*
G01X20630421Y-6180667D01*
G01X16220698Y-7136682D02*
G01X16224243Y-7175507D01*
G01X20633966Y-7471820D02*
G01X20630421Y-7457730D01*
G01X16841604Y-8819438D02*
G01X16838059Y-8805349D01*
G01X20538708Y-6815668D02*
G01X20542227Y-6815668D01*
G01X17219084Y-7976321D02*
G01X17233174Y-7969257D01*
G01X17649449Y-4159258D02*
G01X17624778Y-4162772D01*
G01X16838059Y-8960549D02*
G01X16841604Y-8960549D01*
G01X16859243Y-3541897D02*
G01X16894521Y-3566581D01*
G01X16192479Y-7101404D02*
G01X16185421Y-7073188D01*
G01X16446486Y-3908782D02*
G01X16495889Y-3954636D01*
G01X17564799Y-9574397D02*
G01X17568313Y-9574397D01*
G01X16460612Y-9532056D02*
G01X16457063Y-9532056D01*
G01X16128986Y-4575529D02*
G01X16128986Y-4582591D01*
G01X18450257Y-5450411D02*
G01X18347972Y-5450411D01*
G01X18450257Y-5468049D02*
G01X18347972Y-5468049D01*
G01X20588111Y-7627056D02*
G01X20581048Y-7595292D01*
G01X17349588Y-4159258D02*
G01X17367227Y-4162772D01*
G01X16266584Y-6826244D02*
G01X16266584Y-6829793D01*
G01X16263035Y-6900348D02*
G01X16263035Y-6875646D01*
G01X16689917Y-8872355D02*
G01X16693431Y-8893543D01*
G01X17063847Y-9532056D02*
G01X17060334Y-9532056D01*
G01X20602202Y-6501681D02*
G01X20605750Y-6536959D01*
G01X17949310Y-5450411D02*
G01X17949310Y-5468049D01*
G01X19173451Y-4162772D02*
G01X19148754Y-4159258D01*
G01X18672504Y-2892772D02*
G01X18654866Y-2857494D01*
G01X16689917Y-8957035D02*
G01X16679310Y-8946459D01*
G01X15497535Y-14834299D02*
G01X15529264Y-14848424D01*
G01X15920837Y-9599098D02*
G01X15906743Y-9588486D01*
G01X19533291Y-5810251D02*
G01X19526229Y-5824359D01*
G01X15635097Y-8960549D02*
G01X15635097Y-8759459D01*
G01X17137921Y-5771442D02*
G01X17137921Y-5785549D01*
G01X16802782Y-3136203D02*
G01X16781625Y-3171480D01*
G01X16174840Y-6639278D02*
G01X16263035Y-6639278D01*
G01X16651090Y-8755945D02*
G01X16651090Y-8759459D01*
G01X19540354Y-5757334D02*
G01X19540354Y-5771442D01*
G01X16968591Y-3019775D02*
G01X16929799Y-3033883D01*
G01X17864660Y-8759459D02*
G01X17836445Y-8759459D01*
G01X21201923Y-7570626D02*
G01X21226625Y-7563563D01*
G01X17589500Y-9574397D02*
G01X17589500Y-9546182D01*
G01X21399500Y-4910667D02*
G01X21399500Y-4875390D01*
G01X17497758Y-5933723D02*
G01X17497758Y-5940786D01*
G01X16788688Y-8777097D02*
G01X16795750Y-8787709D01*
G01X16982715Y-4155727D02*
G01X17049726Y-4159258D01*
G01X16234819Y-7348348D02*
G01X16234819Y-7394237D01*
G01X17367227Y-4162772D02*
G01X17388410Y-4166303D01*
G01X17547159Y-9574397D02*
G01X17550674Y-9574397D01*
G01X16845118Y-8840626D02*
G01X16841604Y-8819438D01*
G01X21399500Y-5090588D02*
G01X21399500Y-7034397D01*
G01X16217181Y-7595292D02*
G01X16210118Y-7627056D01*
G01X16400632Y-9546182D02*
G01X16411209Y-9546182D01*
G01X15980813Y-9599098D02*
G01X15966723Y-9606125D01*
G01X21149007Y-5108227D02*
G01X21381861Y-5108227D01*
G01X17046208Y-9546182D02*
G01X17049726Y-9546182D01*
G01X16404146Y-3862911D02*
G01X16446486Y-3908782D01*
G01X16125473Y-7524736D02*
G01X16128986Y-7528286D01*
G01X16238337Y-6321779D02*
G01X16238337Y-6290032D01*
G01X16287736Y-7859875D02*
G01X16287736Y-7863425D01*
G01X20542227Y-7863425D02*
G01X20549284Y-7863425D01*
G01X21353616Y-14788444D02*
G01X21371254Y-14760230D01*
G01X20538708Y-5785549D02*
G01X20538708Y-5771442D01*
G01X16125473Y-7154320D02*
G01X16121924Y-7157869D01*
G01X20648060Y-7507098D02*
G01X20651604Y-7507098D01*
G01X16238337Y-7457730D02*
G01X16238337Y-7429515D01*
G01X15702139Y-8759459D02*
G01X15737417Y-8759459D01*
G01X17300215Y-4709577D02*
G01X17162619Y-4709577D01*
G01X15529264Y-14848424D02*
G01X15564542Y-14855486D01*
G01X16263035Y-6674556D02*
G01X16263035Y-6639278D01*
G01X21247782Y-7034397D02*
G01X21399500Y-7034397D01*
G01X20538708Y-7679973D02*
G01X20538708Y-7637633D01*
G01X17137921Y-5785549D02*
G01X17141466Y-5806720D01*
G01X16968591Y-3598327D02*
G01X17007417Y-3605390D01*
G01X17825838Y-8957035D02*
G01X17836445Y-8960549D01*
G01X17825838Y-8763007D02*
G01X17815257Y-8770071D01*
G01X16206604Y-6155966D02*
G01X16203059Y-6113644D01*
G01X17769403Y-8935847D02*
G01X17762341Y-8914695D01*
G01X15412854Y-4490866D02*
G01X15402247Y-4526144D01*
G01X20619840Y-7044973D02*
G01X20612782Y-7073188D01*
G01X19646188Y-5683248D02*
G01X19635610Y-5672671D01*
G01X21184285Y-7732890D02*
G01X21166646Y-7715251D01*
G01X16848667Y-8960549D02*
G01X16848667Y-8759459D01*
G01X16781625Y-8953487D02*
G01X16774563Y-8957035D01*
G01X20669243Y-5136442D02*
G01X20669243Y-5132911D01*
G01X16171327Y-7672910D02*
G01X16178390Y-7651758D01*
G01X16263035Y-7757591D02*
G01X16263035Y-7725827D01*
G01X19699104Y-5161144D02*
G01X20570472Y-5161144D01*
G01X20563410Y-6833306D02*
G01X20563410Y-6829793D01*
G01X15747993Y-8960549D02*
G01X15751507Y-8960549D01*
G01X17010931Y-9546182D02*
G01X17028569Y-9546182D01*
G01X17533035Y-9539119D02*
G01X17536583Y-9535570D01*
G01X16929799Y-3584220D02*
G01X16968591Y-3598327D01*
G01X19448615Y-5468049D02*
G01X19349841Y-5468049D01*
G01X18298569Y-2730508D02*
G01X18263292Y-2748147D01*
G01X20768014Y-5161144D02*
G01X21149007Y-5161144D01*
G01X20591624Y-6381758D02*
G01X20591624Y-6424081D01*
G01X16266584Y-5774973D02*
G01X16266584Y-5778504D01*
G01X17536583Y-9574397D02*
G01X17540098Y-9574397D01*
G01X16206604Y-7260154D02*
G01X16206604Y-7214299D01*
G01X16252459Y-6096005D02*
G01X16248945Y-6096005D01*
G01X16263035Y-6787452D02*
G01X16263035Y-6780390D01*
G01X20351743Y-2709338D02*
G01X20302340Y-2663466D01*
G01X15945535Y-9546182D02*
G01X15949084Y-9546182D01*
G01X16287736Y-7863425D02*
G01X17137921Y-7863425D01*
G01X19649701Y-5450411D02*
G01X19547417Y-5450411D01*
G01X15987875Y-9524994D02*
G01X15994938Y-9539119D01*
G01X15416368Y-5062355D02*
G01X15416368Y-5037671D01*
G01X17829382Y-8960549D02*
G01X17829382Y-8964099D01*
G01X19300472Y-7704674D02*
G01X19321625Y-7704674D01*
G01X17448389Y-5468049D02*
G01X17349588Y-5468049D01*
G01X19660282Y-7916341D02*
G01X19660282Y-7909279D01*
G01X15585698Y-7041460D02*
G01X15603338Y-7052035D01*
G01X17137921Y-5736164D02*
G01X17137921Y-5746758D01*
G01X16647576Y-5450411D02*
G01X16647576Y-5468049D01*
G01X16139562Y-6131282D02*
G01X16139562Y-6148921D01*
G01X17028569Y-9546182D02*
G01X17032088Y-9546182D01*
G01X20633966Y-7687036D02*
G01X20641027Y-7697612D01*
G01X17257875Y-7881063D02*
G01X17257875Y-7870487D01*
G01X17568313Y-9539119D02*
G01X17564799Y-9535570D01*
G01X16245396Y-7528286D02*
G01X16248945Y-7531799D01*
G01X21399500Y-4875390D02*
G01X21399500Y-4843644D01*
G01X17564799Y-9546182D02*
G01X17568313Y-9546182D01*
G01X16030215Y-4557890D02*
G01X16030215Y-4621383D01*
G01X16806326Y-8897056D02*
G01X16802782Y-8914695D01*
G01X16121924Y-7157869D02*
G01X16118410Y-7161383D01*
G01X21057298Y-4557890D02*
G01X21149007Y-4557890D01*
G01X19660282Y-7902216D02*
G01X19660282Y-7891640D01*
G01X18647833Y-8170349D02*
G01X18549032Y-8170349D01*
G01X19660282Y-7909279D02*
G01X19660282Y-7902216D01*
G01X16439424Y-9532056D02*
G01X16442973Y-9532056D01*
G01X20602202Y-6074834D02*
G01X20595143Y-6113644D01*
G01X15652736Y-4850688D02*
G01X15652736Y-4868327D01*
G01X20563410Y-7302494D02*
G01X20566924Y-7260154D01*
G01X16259521Y-7538862D02*
G01X16263035Y-7545924D01*
G01X17550674Y-9609674D02*
G01X17533035Y-9606125D01*
G01X17554222Y-9546182D02*
G01X17557736Y-9546182D01*
G01X18460837Y-2719914D02*
G01X18418528Y-2716383D01*
G01X21371254Y-4459119D02*
G01X21353616Y-4430886D01*
G01X16238337Y-7224876D02*
G01X16238337Y-7200209D01*
G01X20602202Y-7136682D02*
G01X20595143Y-7175507D01*
G01X17257875Y-7909279D02*
G01X17257875Y-7902216D01*
G01X19656764Y-4857751D02*
G01X19663826Y-4857751D01*
G01X17039146Y-9574397D02*
G01X17042695Y-9574397D01*
G01X17088548Y-9524994D02*
G01X17095612Y-9539119D01*
G01X17293152Y-9532056D02*
G01X17289640Y-9532056D01*
G01X19452160Y-7747015D02*
G01X19469798Y-7757591D01*
G01X21177226Y-7330709D02*
G01X21166646Y-7316619D01*
G01X16488827Y-9546182D02*
G01X16499403Y-9546182D01*
G01X15716229Y-8766522D02*
G01X15709171Y-8763007D01*
G01X16287736Y-7263702D02*
G01X16287736Y-7316619D01*
G01X19967201Y-3104438D02*
G01X19938986Y-3076223D01*
G01X19660282Y-5722056D02*
G01X19660282Y-5718525D01*
G01X20732736Y-6639278D02*
G01X20732736Y-5940786D01*
G01X21212505Y-7351896D02*
G01X21194865Y-7341321D01*
G01X20566924Y-6424081D02*
G01X20566924Y-6381758D01*
G01X16238337Y-7528286D02*
G01X16238337Y-7524736D01*
G01X16284223Y-7863425D02*
G01X16287736Y-7863425D01*
G01X16263035Y-6166560D02*
G01X16263035Y-6117175D01*
G01X17282576Y-5838466D02*
G01X17272001Y-5824359D01*
G01X19049979Y-5450411D02*
G01X19049979Y-5468049D01*
G01X16668729Y-8935847D02*
G01X16661670Y-8914695D01*
G01X16245396Y-6099536D02*
G01X16238337Y-6099536D01*
G01X17137921Y-5746758D02*
G01X17137921Y-5757334D01*
G01X20563410Y-5838466D02*
G01X20563410Y-5863167D01*
G01X16238337Y-7309556D02*
G01X16238337Y-7277793D01*
G01X16263035Y-6706320D02*
G01X16263035Y-6674556D01*
G01X17850535Y-5450411D02*
G01X17850535Y-5468049D01*
G01X17141466Y-4857751D02*
G01X17134403Y-4857751D01*
G01X19621486Y-5736164D02*
G01X19635610Y-5743227D01*
G01X16150143Y-6999119D02*
G01X16065493Y-6999119D01*
G01X21149007Y-7672910D02*
G01X21149007Y-7648209D01*
G01X16841604Y-8897056D02*
G01X16845118Y-8879417D01*
G01X16241882Y-9588486D02*
G01X16231306Y-9599098D01*
G01X19540354Y-7891640D02*
G01X19540354Y-7902216D01*
G01X20563410Y-6720411D02*
G01X20563410Y-6745112D01*
G01X16114865Y-7355411D02*
G01X16114865Y-7327195D01*
G01X16823965Y-8777097D02*
G01X16816903Y-8766522D01*
G01X18750119Y-5450411D02*
G01X18750119Y-5468049D01*
G01X20641027Y-7457730D02*
G01X20637479Y-7468306D01*
G01X17010931Y-9574397D02*
G01X17003868Y-9574397D01*
G01X16132504Y-6099536D02*
G01X16128986Y-6103050D01*
G01X18379701Y-2716383D02*
G01X18337365Y-2719914D01*
G01X17257875Y-7919855D02*
G01X17257875Y-7916341D01*
G01X16263035Y-7845785D02*
G01X16266584Y-7849299D01*
G01X20648060Y-6131282D02*
G01X20641027Y-6134814D01*
G01X20637479Y-7207237D02*
G01X20633966Y-7221362D01*
G01X15398729Y-5051779D02*
G01X15398729Y-5069417D01*
G01X19670889Y-4857751D02*
G01X19674402Y-4857751D01*
G01X20538708Y-6812154D02*
G01X20538708Y-6808605D01*
G01X21399500Y-4808366D02*
G01X21399500Y-4773088D01*
G01X17871722Y-8759459D02*
G01X17871722Y-8960549D01*
G01X20623389Y-7348348D02*
G01X20623389Y-7380112D01*
G01X16263035Y-6085411D02*
G01X16259521Y-6088942D01*
G01X20538708Y-7782293D02*
G01X20538708Y-7750528D01*
G01X17497758Y-7658820D02*
G01X17497758Y-7641182D01*
G01X17571861Y-9546182D02*
G01X17589500Y-9546182D01*
G01X18150396Y-8187987D02*
G01X18150396Y-8170349D01*
G01X17180257Y-7736403D02*
G01X17162619Y-7761105D01*
G01X16238337Y-6099536D02*
G01X16224243Y-6099536D01*
G01X16658153Y-8960549D02*
G01X16654639Y-8960549D01*
G01X16287736Y-7768167D02*
G01X16287736Y-7796383D01*
G01X20538708Y-6138327D02*
G01X20538708Y-6088942D01*
G01X16291254Y-2924536D02*
G01X16263035Y-2984498D01*
G01X17060334Y-9574397D02*
G01X17063847Y-9574397D01*
G01X16150143Y-6999119D02*
G01X16174840Y-6999119D01*
G01X17162619Y-4857751D02*
G01X17155560Y-4857751D01*
G01X15398729Y-4910667D02*
G01X15398729Y-4945945D01*
G01X20302340Y-3954636D02*
G01X20351743Y-3908782D01*
G01X17060334Y-9510904D02*
G01X17074424Y-9514417D01*
G01X16756924Y-3369022D02*
G01X16767504Y-3411362D01*
G01X17282576Y-9542632D02*
G01X17279032Y-9546182D01*
G01X17871722Y-8759459D02*
G01X17868174Y-8759459D01*
G01X21381861Y-4610806D02*
G01X21381861Y-4621383D01*
G01X19540354Y-5785549D02*
G01X19540354Y-5778504D01*
G01X20563410Y-7835210D02*
G01X20563410Y-7838723D01*
G01X15550421Y-7358959D02*
G01X15398729Y-7358959D01*
G01X18168034Y-2822216D02*
G01X18143338Y-2857494D01*
G01X15709171Y-8964099D02*
G01X15709171Y-8960549D01*
G01X16495889Y-2663466D02*
G01X16446486Y-2709338D01*
G01X20648060Y-7701125D02*
G01X20623389Y-7701125D01*
G01X15970236Y-9542632D02*
G01X15966723Y-9539119D01*
G01X20549284Y-6815668D02*
G01X20542227Y-6815668D01*
G01X20626903Y-6201838D02*
G01X20630421Y-6184199D01*
G01X16192479Y-9532056D02*
G01X16188965Y-9532056D01*
G01X17762341Y-8914695D02*
G01X17758826Y-8893543D01*
G01X19663826Y-5009438D02*
G01X19667341Y-5009438D01*
G01X17049726Y-3009199D02*
G01X17007417Y-3012730D01*
G01X19829639Y-3019775D02*
G01X19790813Y-3012730D01*
G01X20563410Y-5863167D02*
G01X20563410Y-5891383D01*
G01X16139562Y-7528286D02*
G01X16146625Y-7528286D01*
G01X20552834Y-7859875D02*
G01X20556347Y-7856362D01*
G01X20637479Y-6431144D02*
G01X20641027Y-6441719D01*
G01X17536583Y-9532056D02*
G01X17540098Y-9532056D01*
G01X19748477Y-3608921D02*
G01X19790813Y-3605390D01*
G01X19388666Y-7718764D02*
G01X19413338Y-7729376D01*
G01X16114865Y-7510646D02*
G01X16114865Y-7514161D01*
G01X20651604Y-7298980D02*
G01X20651604Y-7323682D01*
G01X20563410Y-6621640D02*
G01X20563410Y-6656918D01*
G01X16139562Y-6290032D02*
G01X16139562Y-6321779D01*
G01X16647576Y-8170349D02*
G01X16548806Y-8170349D01*
G01X15934958Y-9606125D02*
G01X15920837Y-9599098D01*
G01X17321368Y-9546182D02*
G01X17317854Y-9542632D01*
G01X19667341Y-4857751D02*
G01X19670889Y-4857751D01*
G01X19540354Y-7863425D02*
G01X19543869Y-7877514D01*
G01X20563410Y-6776876D02*
G01X20563410Y-6783904D01*
G01X15903198Y-9570847D02*
G01X15899681Y-9556757D01*
G01X20563410Y-5891383D02*
G01X20563410Y-5923147D01*
G01X16199542Y-9528543D02*
G01X16196028Y-9528543D01*
G01X15688014Y-8777097D02*
G01X15695077Y-8787709D01*
G01X17282576Y-9546182D02*
G01X17279032Y-9546182D01*
G01X16238337Y-7200209D02*
G01X16238337Y-7182571D01*
G01X17247299Y-8170349D02*
G01X17148528Y-8170349D01*
G01X16234819Y-6244161D02*
G01X16234819Y-6290032D01*
G01X16238337Y-9546182D02*
G01X16220698Y-9546182D01*
G01X16689917Y-8763007D02*
G01X16700493Y-8759459D01*
G01X17349588Y-9570847D02*
G01X17342556Y-9588486D01*
G01X16287736Y-7369536D02*
G01X16287736Y-7422452D01*
G01X15970236Y-9546182D02*
G01X15991393Y-9546182D01*
G01X16859243Y-8755945D02*
G01X16859243Y-8964099D01*
G01X17529521Y-9546182D02*
G01X17533035Y-9546182D01*
G01X17067365Y-9546182D02*
G01X17070910Y-9546182D01*
G01X16287736Y-5813782D02*
G01X16287736Y-5834952D01*
G01X16238337Y-9546182D02*
G01X16238337Y-9574397D01*
G01X16196028Y-6501681D02*
G01X16203059Y-6462889D01*
G01X16224243Y-7175507D02*
G01X16227757Y-7214299D01*
G01X16665216Y-8960549D02*
G01X16700493Y-8960549D01*
G01X16114865Y-7503584D02*
G01X16114865Y-7500070D01*
G01X16185421Y-7627056D02*
G01X16192479Y-7595292D01*
G01X21381861Y-4610806D02*
G01X21149007Y-4610806D01*
G01X15673893Y-8763007D02*
G01X15680951Y-8766522D01*
G01X19586209Y-5732633D02*
G01X19603847Y-5732633D01*
G01X16287736Y-5866699D02*
G01X16287736Y-5898445D01*
G01X19498014Y-4857751D02*
G01X19635610Y-4857751D01*
G01X17864660Y-8759459D02*
G01X17864660Y-8960549D01*
G01X20633966Y-7475369D02*
G01X20637479Y-7493008D01*
G01X16234819Y-7348348D02*
G01X16210118Y-7348348D01*
G01X16118410Y-6469952D02*
G01X16121924Y-6473466D01*
G01X20616326Y-6635765D02*
G01X20609264Y-6628702D01*
G01X20648060Y-7189598D02*
G01X20641027Y-7196661D01*
G01X17367227Y-4356800D02*
G01X17349588Y-4360331D01*
G01X16252459Y-7143744D02*
G01X16248945Y-7147293D01*
G01X16270097Y-5771442D02*
G01X16266584Y-5774973D01*
G01X16263035Y-7316619D02*
G01X16263035Y-7263702D01*
G01X17257875Y-7863425D02*
G01X17254362Y-7877514D01*
G01X16287736Y-6812154D02*
G01X16287736Y-6815668D01*
G01X16679310Y-8770071D02*
G01X16689917Y-8763007D01*
G01X16467643Y-9574397D02*
G01X16471187Y-9574397D01*
G01X16157202Y-5940786D02*
G01X16150143Y-5940786D01*
G01X17504819Y-9546182D02*
G01X17508338Y-9546182D01*
G01X15899681Y-9556757D02*
G01X15903198Y-9539119D01*
G01X17049726Y-8187987D02*
G01X16947438Y-8187987D01*
G01X20556347Y-3573644D02*
G01X20573986Y-3506619D01*
G01X20633966Y-6628702D02*
G01X20641027Y-6635765D01*
G01X20958527Y-4575529D02*
G01X20958527Y-4409716D01*
G01X20538708Y-5954893D02*
G01X20538708Y-5916084D01*
G01X17007417Y-9588486D02*
G01X17003868Y-9570847D01*
G01X19635610Y-5672671D02*
G01X19617972Y-5662077D01*
G01X20641027Y-6441719D02*
G01X20648060Y-6448764D01*
G01X17162619Y-7895153D02*
G01X17148528Y-7881063D01*
G01X16287736Y-6819182D02*
G01X16287736Y-6829793D01*
G01X16287736Y-5764397D02*
G01X16284223Y-5764397D01*
G01X16263035Y-3633605D02*
G01X16291254Y-3693584D01*
G01X20538708Y-6900348D02*
G01X20538708Y-6872098D01*
G01X15716229Y-8953487D02*
G01X15726810Y-8942911D01*
G01X20563410Y-7845785D02*
G01X20563410Y-7838723D01*
G01X16114865Y-6462889D02*
G01X16118410Y-6469952D01*
G01X16181903Y-5940786D02*
G01X16188965Y-5951362D01*
G01X15726810Y-8777097D02*
G01X15716229Y-8766522D01*
G01X15740931Y-8759459D02*
G01X15737417Y-8759459D01*
G01X20563410Y-5817314D02*
G01X20563410Y-5838466D01*
G01X20542227Y-5764397D02*
G01X20538708Y-5764397D01*
G01X17120282Y-4917730D02*
G01X17123827Y-4910667D01*
G01X16270097Y-7856362D02*
G01X16273615Y-7859875D01*
G01X16196028Y-6611064D02*
G01X16188965Y-6628702D01*
G01X16774563Y-8957035D02*
G01X16763986Y-8960549D01*
G01X21399500Y-7761105D02*
G01X21247782Y-7761105D01*
G01X16323014Y-2864557D02*
G01X16291254Y-2924536D01*
G01X16206604Y-9546182D02*
G01X16203059Y-9546182D01*
G01X20602202Y-7027334D02*
G01X20609264Y-7009695D01*
G01X21226625Y-7757591D02*
G01X21201923Y-7747015D01*
G01X16188965Y-6628702D02*
G01X16181903Y-6635765D01*
G01X20595143Y-3242036D02*
G01X20588111Y-3174994D01*
G01X20563410Y-7768167D02*
G01X20563410Y-7792869D01*
G01X16178390Y-6593424D02*
G01X16185421Y-6568723D01*
G01X18947694Y-5450411D02*
G01X18947694Y-5468049D01*
G01X15649223Y-4861282D02*
G01X15649223Y-4857751D01*
G01X15416368Y-4857751D02*
G01X15649223Y-4857751D01*
G01X15903198Y-9546182D02*
G01X15910257Y-9546182D01*
G01X16210118Y-7348348D02*
G01X16210118Y-7302494D01*
G01X19815514Y-2462394D02*
G01X19748477Y-2458862D01*
G01X20648060Y-6364119D02*
G01X20644542Y-6381758D01*
G01X15416368Y-5037671D02*
G01X15416368Y-5005925D01*
G01X19536810Y-7845785D02*
G01X19540354Y-7852848D01*
G01X20538708Y-6815668D02*
G01X20538708Y-6812154D01*
G01X15966723Y-9546182D02*
G01X15970236Y-9546182D01*
G01X21149007Y-4854220D02*
G01X21149007Y-4857751D01*
G01X16287736Y-6801543D02*
G01X16287736Y-6812154D01*
G01X16831028Y-8928821D02*
G01X16838059Y-8914695D01*
G01X16203059Y-3376085D02*
G01X16210118Y-3443109D01*
G01X20566924Y-6381758D02*
G01X20563410Y-6335886D01*
G01X20073035Y-4095748D02*
G01X20136532Y-4067532D01*
G01X20556347Y-6808605D02*
G01X20559866Y-6805091D01*
G01X19603847Y-7905765D02*
G01X19621486Y-7902216D01*
G01X21233687Y-14855486D02*
G01X21268965Y-14848424D01*
G01X20563410Y-6910924D02*
G01X20563410Y-6942654D01*
G01X16199542Y-9609674D02*
G01X16185421Y-9606125D01*
G01X18347972Y-5450411D02*
G01X18347972Y-5468049D01*
G01X16220698Y-9574397D02*
G01X16220698Y-9546182D01*
G01X17765889Y-8960549D02*
G01X17765889Y-8921757D01*
G01X15839702Y-5125866D02*
G01X15839702Y-5122334D01*
G01X17261393Y-5803188D02*
G01X17261393Y-5796143D01*
G01X16728708Y-8755945D02*
G01X16728708Y-8759459D01*
G01X20676306Y-6261799D02*
G01X20676306Y-6233584D01*
G01X19434521Y-7736403D02*
G01X19452160Y-7747015D01*
G01X16139562Y-7478883D02*
G01X16139562Y-7500070D01*
G01X16114865Y-7500070D02*
G01X16114865Y-7493008D01*
G01X16263035Y-7164932D02*
G01X16263035Y-7119042D01*
G01X18048112Y-5450411D02*
G01X18048112Y-5468049D01*
G01X16114865Y-7436542D02*
G01X16114865Y-7411876D01*
G01X15416368Y-4656661D02*
G01X15416368Y-4635508D01*
G01X15737417Y-5097633D02*
G01X15737417Y-5161144D01*
G01X16238337Y-6148921D02*
G01X16238337Y-6131282D01*
G01X15747993Y-8759459D02*
G01X15744448Y-8759459D01*
G01X15635097Y-8759459D02*
G01X15663313Y-8759459D01*
G01X16263035Y-7782293D02*
G01X16263035Y-7757591D01*
G01X15973754Y-9514417D02*
G01X15987875Y-9524994D01*
G01X19049979Y-5450411D02*
G01X18947694Y-5450411D01*
G01X16238337Y-7401264D02*
G01X16238337Y-7373049D01*
G01X20619840Y-5986640D02*
G01X20612782Y-6011341D01*
G01X16287736Y-5933723D02*
G01X16287736Y-5976064D01*
G01X19829639Y-3598327D02*
G01X19868430Y-3584220D01*
G01X15709171Y-8879417D02*
G01X15705653Y-8897056D01*
G01X17243754Y-7891640D02*
G01X17229659Y-7898702D01*
G01X19540354Y-5736164D02*
G01X19540354Y-5746758D01*
G01X16816903Y-8766522D02*
G01X16809840Y-8763007D01*
G01X16802782Y-3481918D02*
G01X16831028Y-3513664D01*
G01X20612782Y-7627056D02*
G01X20619840Y-7651758D01*
G01X20581048Y-6536959D02*
G01X20577504Y-6501681D01*
G01X20633966Y-7478883D02*
G01X20633966Y-7471820D01*
G01X20651604Y-7189598D02*
G01X20648060Y-7189598D01*
G01X17557736Y-9532056D02*
G01X17554222Y-9528543D01*
G01X17307278Y-9546182D02*
G01X17303730Y-9546182D01*
G01X15571604Y-7757591D02*
G01X15550421Y-7761105D01*
G01X16185421Y-6568723D02*
G01X16192479Y-6536959D01*
G01X15938476Y-5143505D02*
G01X15839702Y-5143505D01*
G01X20595143Y-5986640D02*
G01X20602202Y-5965470D01*
G01X19653250Y-5827890D02*
G01X19656764Y-5806720D01*
G01X16287736Y-5898445D02*
G01X16287736Y-5933723D01*
G01X16030215Y-4575529D02*
G01X16128986Y-4575529D01*
G01X16446486Y-9528543D02*
G01X16450004Y-9528543D01*
G01X17152042Y-5683248D02*
G01X17141466Y-5700886D01*
G01X19300472Y-6032494D02*
G01X19300472Y-6043088D01*
G01X16259521Y-7136682D02*
G01X16255976Y-7143744D01*
G01X19903708Y-4409716D02*
G01X19903708Y-4557890D01*
G01X16234819Y-7394237D02*
G01X16231306Y-7440091D01*
G01X20637479Y-7468306D02*
G01X20633966Y-7475369D01*
G01X20563410Y-6536959D02*
G01X20563410Y-6582849D01*
G01X19448615Y-8187987D02*
G01X19448615Y-8170349D01*
G01X17430750Y-7715251D02*
G01X17462479Y-7708188D01*
G01X20595143Y-6462889D02*
G01X20602202Y-6501681D01*
G01X16114865Y-7168445D02*
G01X16114865Y-7175507D01*
G01X19148754Y-4360331D02*
G01X19173451Y-4356800D01*
G01X16139562Y-6230053D02*
G01X16139562Y-6258286D01*
G01X21399500Y-7358959D02*
G01X21247782Y-7358959D01*
G01X21149007Y-4857751D02*
G01X21145493Y-4857751D01*
G01X16852180Y-4134557D02*
G01X16915674Y-4148664D01*
G01X16848667Y-8187987D02*
G01X16848667Y-8170349D01*
G01X20563410Y-6445251D02*
G01X20563410Y-6491105D01*
G01X19349841Y-4240390D02*
G01X19356903Y-4222751D01*
G01X16605236Y-4035786D02*
G01X16661670Y-4067532D01*
G01X16665216Y-8960549D02*
G01X16661670Y-8960549D01*
G01X16185421Y-9574397D02*
G01X16188965Y-9574397D01*
G01X17600077Y-9574397D02*
G01X17589500Y-9574397D01*
G01X20616326Y-5940786D02*
G01X20623389Y-5940786D01*
G01X16114865Y-7179022D02*
G01X16114865Y-7175507D01*
G01X20570472Y-5161144D02*
G01X20570472Y-5097633D01*
G01X19540354Y-7902216D02*
G01X19540354Y-7909279D01*
G01X20591624Y-7260154D02*
G01X20588111Y-7302494D01*
G01X16238337Y-7249577D02*
G01X16238337Y-7224876D01*
G01X16795750Y-8787709D02*
G01X16802782Y-8805349D01*
G01X16114865Y-6247692D02*
G01X16114865Y-6219477D01*
G01X17032088Y-9574397D02*
G01X17035632Y-9574397D01*
G01X15416368Y-4713109D02*
G01X15416368Y-4681362D01*
G01X20641027Y-7242515D02*
G01X20644542Y-7256639D01*
G01X20030699Y-3411362D02*
G01X20041305Y-3369022D01*
G01X19515653Y-5838466D02*
G01X19494500Y-5859636D01*
G01X16689917Y-8964099D02*
G01X16689917Y-8960549D01*
G01X16418271Y-9599098D02*
G01X16407695Y-9588486D01*
G01X19660282Y-5746758D02*
G01X19660282Y-5736164D01*
G01X17261393Y-9546182D02*
G01X17254362Y-9546182D01*
G01X17649449Y-4360331D02*
G01X19148754Y-4360331D01*
G01X20538708Y-7496522D02*
G01X20538708Y-7447154D01*
G01X16287736Y-6473466D02*
G01X16287736Y-6519320D01*
G01X16287736Y-7471820D02*
G01X16287736Y-7521223D01*
G01X19660282Y-5736164D02*
G01X19660282Y-5729119D01*
G01X19656764Y-5806720D02*
G01X19660282Y-5785549D01*
G01X19967201Y-3513664D02*
G01X19995421Y-3481918D01*
G01X16114865Y-6459376D02*
G01X16114865Y-6462889D01*
G01X17275514Y-9514417D02*
G01X17293152Y-9510904D01*
G01X16263035Y-7129654D02*
G01X16263035Y-7133167D01*
G01X17829382Y-8964099D02*
G01X17649449Y-8964099D01*
G01X20048337Y-5468049D02*
G01X19949562Y-5468049D01*
G01X16848667Y-8964099D02*
G01X16848667Y-8960549D01*
G01X16234819Y-9524994D02*
G01X16164264Y-9524994D01*
G01X16263035Y-6469952D02*
G01X16263035Y-6420549D01*
G01X20563410Y-7189598D02*
G01X20563410Y-7239001D01*
G01X19656764Y-5009438D02*
G01X19663826Y-5009438D01*
G01X16171327Y-6611064D02*
G01X16178390Y-6593424D01*
G01X16834542Y-8759459D02*
G01X16834542Y-8798285D01*
G01X17123827Y-4903605D02*
G01X17123827Y-4896560D01*
G01X20538708Y-7291917D02*
G01X20538708Y-7239001D01*
G01X17039146Y-9532056D02*
G01X17042695Y-9532056D01*
G01X15737417Y-8960549D02*
G01X15702139Y-8960549D01*
G01X20563410Y-7849299D02*
G01X20563410Y-7845785D01*
G01X17148528Y-7881063D02*
G01X17141466Y-7866938D01*
G01X17765889Y-8960549D02*
G01X17797618Y-8960549D01*
G01X15959660Y-9532056D02*
G01X15956115Y-9532056D01*
G01X17497758Y-7704674D02*
G01X19300472Y-7704674D01*
G01X20641027Y-6180667D02*
G01X20644542Y-6198306D01*
G01X19674402Y-5009438D02*
G01X19699104Y-5009438D01*
G01X16488827Y-9574397D02*
G01X16488827Y-9546182D01*
G01X17568313Y-4201581D02*
G01X17554222Y-4222751D01*
G01X16231306Y-7440091D02*
G01X16227757Y-7482432D01*
G01X16114865Y-7514161D02*
G01X16118410Y-7517710D01*
G01X20542227Y-6815668D02*
G01X20549284Y-6812154D01*
G01X16763986Y-8759459D02*
G01X16774563Y-8763007D01*
G01X19367479Y-4205112D02*
G01X19378060Y-4187473D01*
G01X15469285Y-4406202D02*
G01X15444619Y-4430886D01*
G01X19649701Y-8187987D02*
G01X19649701Y-8170349D01*
G01X17762341Y-8960549D02*
G01X17758826Y-8960549D01*
G01X17049726Y-5450411D02*
G01X17049726Y-5468049D01*
G01X20552834Y-6808605D02*
G01X20556347Y-6808605D01*
G01X15398729Y-7034397D02*
G01X15550421Y-7034397D01*
G01X19469798Y-5880806D02*
G01X19452160Y-5891383D01*
G01X20651604Y-7507098D02*
G01X20658667Y-7503584D01*
G01X17137921Y-5722056D02*
G01X17137921Y-5729119D01*
G01X19300472Y-7676460D02*
G01X19300472Y-7658820D01*
G01X16114865Y-7203723D02*
G01X16114865Y-7189598D01*
G01X16199542Y-9574397D02*
G01X16199542Y-9546182D01*
G01X19699104Y-5161144D02*
G01X19699104Y-4557890D01*
G01X15585698Y-7351896D02*
G01X15568060Y-7358959D01*
G01X17540098Y-9532056D02*
G01X17543615Y-9532056D01*
G01X21381861Y-4681362D02*
G01X21381861Y-4713109D01*
G01X15966723Y-9539119D02*
G01X15966723Y-9535570D01*
G01X17042695Y-9546182D02*
G01X17046208Y-9546182D01*
G01X19660282Y-5718525D02*
G01X19656764Y-5700886D01*
G01X17194382Y-7905765D02*
G01X17176743Y-7902216D01*
G01X16065493Y-7701125D02*
G01X16065493Y-6999119D01*
G01X17257875Y-7863425D02*
G01X19540354Y-7863425D01*
G01X16273615Y-6808605D02*
G01X16280674Y-6812154D01*
G01X20623389Y-7291917D02*
G01X20623389Y-7320133D01*
G01X21381861Y-4744855D02*
G01X21381861Y-4783664D01*
G01X20676306Y-7348348D02*
G01X20676306Y-7320133D01*
G01X15398729Y-5069417D02*
G01X15398729Y-5079994D01*
G01X16894521Y-3051522D02*
G01X16859243Y-3076223D01*
G01X17130889Y-4857751D02*
G01X17127340Y-4857751D01*
G01X16263035Y-5792612D02*
G01X16263035Y-5789081D01*
G01X16210118Y-6290032D02*
G01X16210118Y-6244161D01*
G01X16809840Y-8957035D02*
G01X16816903Y-8953487D01*
G01X17257875Y-7852848D02*
G01X17257875Y-7863425D01*
G01X16231306Y-9599098D02*
G01X16217181Y-9606125D01*
G01X20538708Y-6544021D02*
G01X20538708Y-6494654D01*
G01X15670375Y-8964099D02*
G01X15670375Y-8960549D01*
G01X16834542Y-8960549D02*
G01X16838059Y-8960549D01*
G01X20538708Y-7828147D02*
G01X20538708Y-7806959D01*
G01X17257875Y-7916341D02*
G01X17257875Y-7909279D01*
G01X16150143Y-9570847D02*
G01X16150143Y-9556757D01*
G01X16735771Y-8759459D02*
G01X16725195Y-8763007D01*
G01X15744448Y-8759459D02*
G01X15740931Y-8759459D01*
G01X15631584Y-7080251D02*
G01X15642160Y-7097890D01*
G01X15649223Y-7672910D02*
G01X15642160Y-7694098D01*
G01X20436393Y-2808109D02*
G01X20394083Y-2758723D01*
G01X16809840Y-8759459D02*
G01X16809840Y-8755945D01*
G01X16263035Y-5983109D02*
G01X16263035Y-5944299D01*
G01X15398729Y-4773088D02*
G01X15398729Y-4808366D01*
G01X20563410Y-7443605D02*
G01X20563410Y-7493008D01*
G01X16139562Y-6173605D02*
G01X16139562Y-6198306D01*
G01X16114865Y-6335886D02*
G01X16114865Y-6304140D01*
G01X15649223Y-4610806D02*
G01X15416368Y-4610806D01*
G01X20669243Y-6395866D02*
G01X20672756Y-6374695D01*
G01X20566924Y-7482432D02*
G01X20566924Y-7440091D01*
G01X20563410Y-7394237D02*
G01X20563410Y-7443605D01*
G01X17109701Y-4935369D02*
G01X17113250Y-4931838D01*
G01X20623389Y-7380112D02*
G01X20623389Y-7408327D01*
G01X16725195Y-2525887D02*
G01X16661670Y-2550588D01*
G01X20626903Y-7267216D02*
G01X20623389Y-7291917D01*
G01X15398729Y-4628445D02*
G01X15398729Y-4557890D01*
G01X16248945Y-9574397D02*
G01X16238337Y-9574397D01*
G01X16146625Y-6099536D02*
G01X16139562Y-6099536D01*
G01X19540354Y-5718525D02*
G01X19540354Y-5722056D01*
G01X17257875Y-5785549D02*
G01X17257875Y-5778504D01*
G01X17790560Y-8759459D02*
G01X17790560Y-8755945D01*
G01X17949310Y-8187987D02*
G01X17949310Y-8170349D01*
G01X19815514Y-4155727D02*
G01X19882556Y-4148664D01*
G01X15416368Y-5097633D02*
G01X15416368Y-5083525D01*
G01X16658153Y-8822987D02*
G01X16661670Y-8801799D01*
G01X16287736Y-6607515D02*
G01X16287736Y-6649855D01*
G01X20616326Y-7697612D02*
G01X20609264Y-7687036D01*
G01X18570215Y-2769300D02*
G01X18534937Y-2748147D01*
G01X16241882Y-3573644D02*
G01X16263035Y-3633605D01*
G01X17099125Y-5161144D02*
G01X15938476Y-5161144D01*
G01X15416368Y-4935369D02*
G01X15416368Y-4900091D01*
G01X17649449Y-8187987D02*
G01X17649449Y-8170349D01*
G01X16499403Y-9570847D02*
G01X16492341Y-9588486D01*
G01X20538708Y-7637633D02*
G01X20538708Y-7591778D01*
G01X17028569Y-9546182D02*
G01X17032088Y-9542632D01*
G01X17201445Y-7708188D02*
G01X17180257Y-7736403D01*
G01X20623389Y-6335886D02*
G01X20623389Y-6311202D01*
G01X16756924Y-3249081D02*
G01X16749865Y-3287890D01*
G01X17176743Y-7902216D02*
G01X17162619Y-7895153D01*
G01X21399500Y-4639022D02*
G01X21399500Y-4628445D01*
G01X16263035Y-6639278D02*
G01X16263035Y-6600487D01*
G01X16181903Y-6635765D02*
G01X16174840Y-6639278D01*
G01X20591624Y-6155966D02*
G01X20591624Y-6198306D01*
G01X16203059Y-7651758D02*
G01X16196028Y-7672910D01*
G01X16238337Y-7154320D02*
G01X16238337Y-7150807D01*
G01X17540098Y-9546182D02*
G01X17543615Y-9546182D01*
G01X16217181Y-6536959D02*
G01X16210118Y-6568723D01*
G01X20595143Y-6593424D02*
G01X20588111Y-6568723D01*
G01X16404146Y-9539119D02*
G01X16414726Y-9524994D01*
G01X18249171Y-8187987D02*
G01X18249171Y-8170349D01*
G01X16224243Y-7524736D02*
G01X16220698Y-7563563D01*
G01X20563410Y-7708188D02*
G01X20563410Y-7739952D01*
G01X19847277Y-5468049D02*
G01X19748477Y-5468049D01*
G01X21328944Y-4406202D02*
G01X21300698Y-4385033D01*
G01X20612782Y-6011341D02*
G01X20605750Y-6043088D01*
G01X19300472Y-7595292D02*
G01X19300472Y-7588265D01*
G01X15416368Y-4900091D02*
G01X15416368Y-4857751D01*
G01X19660282Y-5757334D02*
G01X19660282Y-5746758D01*
G01X17141466Y-7937494D02*
G01X17152042Y-7955133D01*
G01X19247555Y-4272136D02*
G01X19247555Y-4247453D01*
G01X17049726Y-9609674D02*
G01X17035632Y-9606125D01*
G01X16248945Y-9556757D02*
G01X16248945Y-9570847D01*
G01X16065493Y-6639278D02*
G01X16065493Y-5940786D01*
G01X16139562Y-7341321D02*
G01X16139562Y-7373049D01*
G01X19148754Y-4159258D02*
G01X17649449Y-4159258D01*
G01X20633966Y-7009695D02*
G01X20626903Y-7027334D01*
G01X15649223Y-4854220D02*
G01X15649223Y-4850688D01*
G01X20563410Y-6783904D02*
G01X20563410Y-6790966D01*
G01X17254362Y-9539119D02*
G01X17264938Y-9524994D01*
G01X16845118Y-8960549D02*
G01X16848667Y-8960549D01*
G01X15709171Y-8840626D02*
G01X15709171Y-8858265D01*
G01X17430750Y-4205112D02*
G01X17441326Y-4222751D01*
G01X16238337Y-6198306D02*
G01X16238337Y-6173605D01*
G01X16457063Y-9546182D02*
G01X16460612Y-9546182D01*
G01X17550674Y-9546182D02*
G01X17550674Y-9574397D01*
G01X16947438Y-5450411D02*
G01X16947438Y-5468049D01*
G01X21385374Y-14728466D02*
G01X21395951Y-14693188D01*
G01X19649701Y-5009438D02*
G01X19656764Y-5009438D01*
G01X17219084Y-5662077D02*
G01X17197896Y-5658564D01*
G01X16284223Y-5764397D02*
G01X16280674Y-5767911D01*
G01X20633966Y-6417036D02*
G01X20637479Y-6431144D01*
G01X20556347Y-3048008D02*
G01X20535194Y-2984498D01*
G01X18686625Y-2928050D02*
G01X18672504Y-2892772D01*
G01X19949562Y-5450411D02*
G01X19949562Y-5468049D01*
G01X20595143Y-7524736D02*
G01X20602202Y-7563563D01*
G01X16196028Y-5965470D02*
G01X16203059Y-5986640D01*
G01X17794104Y-8893543D02*
G01X17797618Y-8914695D01*
G01X19448615Y-8170349D02*
G01X19349841Y-8170349D01*
G01X18848894Y-5450411D02*
G01X18750119Y-5450411D01*
G01X17850535Y-8170349D02*
G01X17748250Y-8170349D01*
G01X19949562Y-8187987D02*
G01X19949562Y-8170349D01*
G01X19413338Y-5909022D02*
G01X19392181Y-5916084D01*
G01X20538708Y-6395866D02*
G01X20538708Y-6346480D01*
G01X15931445Y-9542632D02*
G01X15931445Y-9539119D01*
G01X19547417Y-5450411D02*
G01X19547417Y-5468049D01*
G01X21177226Y-7062612D02*
G01X21194865Y-7052035D01*
G01X20570472Y-5122334D02*
G01X20768014Y-5122334D01*
G01X20556347Y-7856362D02*
G01X20559866Y-7852848D01*
G01X20588111Y-6568723D02*
G01X20581048Y-6536959D01*
G01X16665216Y-8960549D02*
G01X16665216Y-8921757D01*
G01X16453549Y-9546182D02*
G01X16457063Y-9546182D01*
G01X20641027Y-7697612D02*
G01X20648060Y-7701125D01*
G01X17554222Y-9574397D02*
G01X17557736Y-9574397D01*
G01X16146625Y-7150807D02*
G01X16139562Y-7150807D01*
G01X15998452Y-9570847D02*
G01X15991393Y-9588486D01*
G01X20623389Y-6233584D02*
G01X20623389Y-6261799D01*
G01X16852180Y-2483564D02*
G01X16785143Y-2501203D01*
G01X16114865Y-7221362D02*
G01X16114865Y-7203723D01*
G01X16428847Y-9574397D02*
G01X16432365Y-9574397D01*
G01X20633966Y-7224876D02*
G01X20637479Y-7228424D01*
G01X17261393Y-9546182D02*
G01X17261393Y-9574397D01*
G01X16174840Y-7701125D02*
G01X16150143Y-7701125D01*
G01X16065493Y-7701125D02*
G01X16150143Y-7701125D01*
G01X20563410Y-6794515D02*
G01X20563410Y-6790966D01*
G01X20665699Y-7475369D02*
G01X20669243Y-7457730D01*
G01X16203059Y-7175507D02*
G01X16196028Y-7136682D01*
G01X20150653Y-5450411D02*
G01X20150653Y-5468049D01*
G01X17815257Y-8770071D02*
G01X17804681Y-8784160D01*
G01X17624778Y-4162772D02*
G01X17603590Y-4169835D01*
G01X16199542Y-9546182D02*
G01X16196028Y-9546182D01*
G01X20644542Y-7256639D02*
G01X20648060Y-7277793D01*
G01X16210118Y-6244161D02*
G01X16206604Y-6198306D01*
G01X16234819Y-7302494D02*
G01X16234819Y-7348348D01*
G01X17321368Y-9574397D02*
G01X17321368Y-9546182D01*
G01X15945535Y-9574397D02*
G01X15949084Y-9574397D01*
G01X15927896Y-9546182D02*
G01X15927896Y-9574397D01*
G01X20538708Y-7002633D02*
G01X20538708Y-6967355D01*
G01X17755282Y-8960549D02*
G01X17751764Y-8960549D01*
G01X16160750Y-9574397D02*
G01X16153688Y-9574397D01*
G01X16118410Y-7517710D02*
G01X16121924Y-7521223D01*
G01X17272001Y-7814022D02*
G01X17282576Y-7799932D01*
G01X17508338Y-9574397D02*
G01X17504819Y-9574397D01*
G01X16806326Y-8819438D02*
G01X16809840Y-8840626D01*
G01X16488827Y-9574397D02*
G01X16471187Y-9574397D01*
G01X16224243Y-6462889D02*
G01X16220698Y-6501681D01*
G01X16139562Y-6448764D02*
G01X16139562Y-6462889D01*
G01X15649223Y-7648209D02*
G01X15649223Y-7672910D01*
G01X16280674Y-6812154D02*
G01X16284223Y-6815668D01*
G01X17448389Y-8187987D02*
G01X17448389Y-8170349D01*
G01X17430750Y-4314477D02*
G01X17420143Y-4328585D01*
G01X16982715Y-2462394D02*
G01X16915674Y-2469439D01*
G01X20958527Y-4589636D02*
G01X20958527Y-4593167D01*
G01X17053271Y-9528543D02*
G01X17049726Y-9528543D01*
G01X20651604Y-6448764D02*
G01X20658667Y-6441719D01*
G01X17137921Y-7909279D02*
G01X17137921Y-7916341D01*
G01X15927896Y-9574397D02*
G01X15910257Y-9574397D01*
G01X16263035Y-5909022D02*
G01X16263035Y-5877275D01*
G01X17300215Y-9609674D02*
G01X17286091Y-9606125D01*
G01X17049726Y-5468049D02*
G01X16947438Y-5468049D01*
G01X19748477Y-5450411D02*
G01X19748477Y-5468049D01*
G01X16139562Y-7309556D02*
G01X16139562Y-7341321D01*
G01X16439424Y-9574397D02*
G01X16442973Y-9574397D01*
G01X20563410Y-6829793D02*
G01X20559866Y-6826244D01*
G01X15398729Y-5079994D02*
G01X15398729Y-5090588D01*
G01X20676306Y-6346480D02*
G01X20676306Y-6318247D01*
G01X16464125Y-9535570D02*
G01X16464125Y-9532056D01*
G01X19660282Y-7891640D02*
G01X19660282Y-7881063D01*
G01X16263035Y-6956778D02*
G01X16263035Y-6925015D01*
G01X19946049Y-4134557D02*
G01X20013060Y-4116918D01*
G01X20041305Y-3249081D02*
G01X20030699Y-3210272D01*
G01X21381861Y-4974161D02*
G01X21381861Y-5005925D01*
G01X16263035Y-6318247D02*
G01X16263035Y-6265331D01*
G01X17649449Y-5450411D02*
G01X17550674Y-5450411D01*
G01X20669243Y-5129397D02*
G01X20669243Y-5125866D01*
G01X16266584Y-7849299D02*
G01X16266584Y-7852848D01*
G01X19663826Y-4857751D02*
G01X19667341Y-4857751D01*
G01X16118410Y-7161383D02*
G01X16114865Y-7164932D01*
G01X20768014Y-5161144D02*
G01X20768014Y-5097633D01*
G01X16831028Y-3513664D02*
G01X16859243Y-3541897D01*
G01X17497758Y-7623543D02*
G01X17497758Y-7605904D01*
G01X16185421Y-9535570D02*
G01X16181903Y-9539119D01*
G01X20048337Y-5450411D02*
G01X19949562Y-5450411D01*
G01X20556347Y-6822730D02*
G01X20552834Y-6819182D01*
G01X16139562Y-7401264D02*
G01X16139562Y-7429515D01*
G01X15994938Y-9539119D02*
G01X15998452Y-9556757D01*
G01X17053271Y-9574397D02*
G01X17056785Y-9574397D01*
G01X16263035Y-7651758D02*
G01X16263035Y-7609418D01*
G01X19882556Y-2469439D02*
G01X19815514Y-2462394D01*
G01X20619840Y-6593424D02*
G01X20626903Y-6611064D01*
G01X20570472Y-7524736D02*
G01X20566924Y-7482432D01*
G01X17328431Y-7757591D02*
G01X17346070Y-7747015D01*
G01X20538708Y-6967355D02*
G01X20538708Y-6932077D01*
G01X16263035Y-6078366D02*
G01X16263035Y-6085411D01*
G01X16548806Y-5450411D02*
G01X16548806Y-5468049D01*
G01X16263035Y-2984498D02*
G01X16241882Y-3048008D01*
G01X21399500Y-4744855D02*
G01X21399500Y-4713109D01*
G01X20626903Y-6360588D02*
G01X20623389Y-6335886D01*
G01X16742834Y-5309300D02*
G01X16894521Y-5309300D01*
G01X16238337Y-7500070D02*
G01X16238337Y-7478883D01*
G01X16203059Y-9528543D02*
G01X16199542Y-9528543D01*
G01X17162619Y-7761105D02*
G01X17152042Y-7789320D01*
G01X17250812Y-9556757D02*
G01X17254362Y-9539119D01*
G01X18196254Y-2794001D02*
G01X18168034Y-2822216D01*
G01X19300472Y-5979577D02*
G01X19300472Y-5997216D01*
G01X16266584Y-6829793D02*
G01X16263035Y-6833306D01*
G01X19540354Y-5729119D02*
G01X19540354Y-5736164D01*
G01X19356903Y-4296838D02*
G01X19349841Y-4279199D01*
G01X19300472Y-5940786D02*
G01X19300472Y-5951362D01*
G01X15949084Y-9574397D02*
G01X15952598Y-9574397D01*
G01X15966723Y-9574397D02*
G01X15970236Y-9574397D01*
G01X20563410Y-6244161D02*
G01X20566924Y-6198306D01*
G01X17049726Y-9574397D02*
G01X17053271Y-9574397D01*
G01X16203059Y-9574397D02*
G01X16206604Y-9574397D01*
G01X15599819Y-4360331D02*
G01X17349588Y-4360331D01*
G01X20665699Y-6417036D02*
G01X20669243Y-6395866D01*
G01X19247555Y-4247453D02*
G01X19244007Y-4222751D01*
G01X19300472Y-7641182D02*
G01X19300472Y-7623543D01*
G01X20538708Y-7394237D02*
G01X20538708Y-7341321D01*
G01X16164264Y-9524994D02*
G01X16174840Y-9514417D01*
G01X20623389Y-6346480D02*
G01X20626903Y-6374695D01*
G01X20658667Y-6134814D02*
G01X20651604Y-6131282D01*
G01X15931445Y-9546182D02*
G01X15931445Y-9542632D01*
G01X16199542Y-3309060D02*
G01X16203059Y-3376085D01*
G01X21353616Y-4430886D02*
G01X21328944Y-4406202D01*
G01X19349841Y-5450411D02*
G01X19349841Y-5468049D01*
G01X16651090Y-8960549D02*
G01X16651090Y-8964099D01*
G01X17476604Y-7704674D02*
G01X17497758Y-7704674D01*
G01X17533035Y-9574397D02*
G01X17536583Y-9574397D01*
G01X20641027Y-6399397D02*
G01X20637479Y-6409973D01*
G01X17261393Y-5796143D02*
G01X17257875Y-5785549D01*
G01X20609264Y-6628702D02*
G01X20602202Y-6611064D01*
G01X20538708Y-6240647D02*
G01X20538708Y-6187730D01*
G01X20595143Y-7651758D02*
G01X20588111Y-7627056D01*
G01X17758826Y-8893543D02*
G01X17755282Y-8872355D01*
G01X19409819Y-4353286D02*
G01X19392181Y-4342692D01*
G01X17589500Y-9524994D02*
G01X17596533Y-9539119D01*
G01X16199542Y-9574397D02*
G01X16203059Y-9574397D01*
G01X16178390Y-9546182D02*
G01X16178390Y-9574397D01*
G01X16139562Y-6099536D02*
G01X16139562Y-6106581D01*
G01X16287736Y-7852848D02*
G01X16287736Y-7859875D01*
G01X17568313Y-4318008D02*
G01X17582438Y-4335647D01*
G01X17095612Y-9539119D02*
G01X17099125Y-9556757D01*
G01X20626903Y-7433028D02*
G01X20630421Y-7457730D01*
G01X20633966Y-6170091D02*
G01X20633966Y-6159497D01*
G01X20612782Y-7073188D02*
G01X20605750Y-7101404D01*
G01X16139562Y-6473466D02*
G01X16139562Y-6480529D01*
G01X16658153Y-8759459D02*
G01X16654639Y-8759459D01*
G01X19995421Y-3136203D02*
G01X19967201Y-3104438D01*
G01X20609264Y-7687036D02*
G01X20602202Y-7672910D01*
G01X16139562Y-6198306D02*
G01X16139562Y-6230053D01*
G01X17797618Y-8960549D02*
G01X17836445Y-8960549D01*
G01X16287736Y-5976064D02*
G01X16287736Y-6018386D01*
G01X16118410Y-6110112D02*
G01X16114865Y-6113644D01*
G01X19148754Y-5450411D02*
G01X19148754Y-5468049D01*
G01X15649223Y-4557890D02*
G01X15649223Y-4850688D01*
G01X21152555Y-7277793D02*
G01X21149007Y-7260154D01*
G01X20637479Y-7228424D02*
G01X20641027Y-7242515D01*
G01X19543869Y-7877514D02*
G01X19554449Y-7891640D01*
G01X20626903Y-6381758D02*
G01X20626903Y-6360588D01*
G01X16263035Y-5877275D02*
G01X16263035Y-5849060D01*
G01X15956115Y-9574397D02*
G01X15959660Y-9574397D01*
G01X16174840Y-7701125D02*
G01X16263035Y-7701125D01*
G01X19642644Y-4857751D02*
G01X19649701Y-4857751D01*
G01X17099125Y-9570847D02*
G01X17092063Y-9588486D01*
G01X16128986Y-4582591D02*
G01X16128986Y-4586105D01*
G01X17042695Y-9510904D02*
G01X17060334Y-9510904D01*
G01X16030215Y-4409716D02*
G01X16030215Y-4557890D01*
G01X21149007Y-7648209D02*
G01X21156069Y-7623543D01*
G01X19049979Y-8187987D02*
G01X19049979Y-8170349D01*
G01X17282576Y-9574397D02*
G01X17286091Y-9574397D01*
G01X18337365Y-2719914D02*
G01X18298569Y-2730508D01*
G01X20644542Y-6381758D02*
G01X20641027Y-6399397D01*
G01X19649701Y-4857751D02*
G01X19656764Y-4857751D01*
G01X20637479Y-7482432D02*
G01X20633966Y-7478883D01*
G01X15402247Y-4526144D02*
G01X15398729Y-4557890D01*
G01X21399500Y-4688425D02*
G01X21399500Y-4667255D01*
G01X16220698Y-9546182D02*
G01X16217181Y-9546182D01*
G01X16248945Y-9570847D02*
G01X16241882Y-9588486D01*
G01X21381861Y-4818942D02*
G01X21381861Y-4857751D01*
G01X20591624Y-7482432D02*
G01X20595143Y-7524736D01*
G01X17797618Y-8914695D02*
G01X17804681Y-8935847D01*
G01X16139562Y-6117175D02*
G01X16139562Y-6131282D01*
G01X19547417Y-8187987D02*
G01X19547417Y-8170349D01*
G01X16411209Y-9546182D02*
G01X16411209Y-9574397D01*
G01X20676306Y-6318247D02*
G01X20676306Y-6290032D01*
G01X17741187Y-8964099D02*
G01X17741187Y-8755945D01*
G01X19635610Y-5743227D02*
G01X19649701Y-5757334D01*
G01X17600077Y-9556757D02*
G01X17600077Y-9570847D01*
G01X16809840Y-8763007D02*
G01X16799264Y-8759459D01*
G01X20538708Y-7447154D02*
G01X20538708Y-7394237D01*
G01X16217181Y-9606125D02*
G01X16199542Y-9609674D01*
G01X18249171Y-5450411D02*
G01X18150396Y-5450411D01*
G01X17596533Y-9539119D02*
G01X17600077Y-9556757D01*
G01X16823965Y-8942911D02*
G01X16831028Y-8928821D01*
G01X16114865Y-6409973D02*
G01X16114865Y-6388803D01*
G01X20623389Y-7394237D02*
G01X20623389Y-7373049D01*
G01X17007417Y-3605390D02*
G01X17049726Y-3608921D01*
G01X15649223Y-4857751D02*
G01X15649223Y-4854220D01*
G01X16238337Y-6448764D02*
G01X16238337Y-6431144D01*
G01X15942021Y-9546182D02*
G01X15945535Y-9546182D01*
G01X20623389Y-6275925D02*
G01X20623389Y-6251223D01*
G01X15910257Y-9574397D02*
G01X15903198Y-9574397D01*
G01X21381861Y-4783664D02*
G01X21381861Y-4818942D01*
G01X17748250Y-8187987D02*
G01X17748250Y-8170349D01*
G01X16771049Y-8964099D02*
G01X16771049Y-8960549D01*
G01X16121924Y-6473466D02*
G01X16125473Y-6473466D01*
G01X20651604Y-7401264D02*
G01X20648060Y-7422452D01*
G01X20623389Y-6290032D02*
G01X20623389Y-6275925D01*
G01X16157202Y-6635765D02*
G01X16164264Y-6628702D01*
G01X15631584Y-8960549D02*
G01X15635097Y-8960549D01*
G01X17476604Y-5933723D02*
G01X17441326Y-5926661D01*
G01X20651604Y-7348348D02*
G01X20651604Y-7376599D01*
G01X21399500Y-4945945D02*
G01X21399500Y-4910667D01*
G01X17197896Y-5658564D02*
G01X17180257Y-5662077D01*
G01X17180257Y-7976321D02*
G01X17197896Y-7979834D01*
G01X16238337Y-7182571D02*
G01X16238337Y-7164932D01*
G01X19660282Y-7863425D02*
G01X20538708Y-7863425D01*
G01X15913806Y-9524994D02*
G01X15984362Y-9524994D01*
G01X16114865Y-7295431D02*
G01X16114865Y-7267216D01*
G01X19321625Y-5933723D02*
G01X19300472Y-5933723D01*
G01X17448389Y-4258029D02*
G01X17448389Y-4279199D01*
G01X19540354Y-7919855D02*
G01X19540354Y-7937494D01*
G01X19540354Y-5764397D02*
G01X17257875Y-5764397D01*
G01X17536583Y-9535570D02*
G01X17536583Y-9532056D01*
G01X15744448Y-8840626D02*
G01X15740931Y-8819438D01*
G01X18228014Y-2769300D02*
G01X18196254Y-2794001D01*
G01X19448615Y-5450411D02*
G01X19448615Y-5468049D01*
G01X20623389Y-5940786D02*
G01X20648060Y-5940786D01*
G01X16114865Y-6127751D02*
G01X16114865Y-6124220D01*
G01X19677921Y-4801303D02*
G01X19674402Y-4808366D01*
G01X19748477Y-3009199D02*
G01X18700750Y-3009199D01*
G01X16217181Y-9539119D02*
G01X16213667Y-9535570D01*
G01X20588111Y-6335886D02*
G01X20591624Y-6381758D01*
G01X21247782Y-7761105D02*
G01X21226625Y-7757591D01*
G01X16894521Y-5309300D02*
G01X16894521Y-5161144D01*
G01X20563410Y-7013209D02*
G01X20563410Y-7052035D01*
G01X17152042Y-7955133D02*
G01X17162619Y-7969257D01*
G01X20729222Y-5940786D02*
G01X20732736Y-5940786D01*
G01X16668729Y-8784160D02*
G01X16679310Y-8770071D01*
G01X19244007Y-4293307D02*
G01X19247555Y-4272136D01*
G01X20563410Y-6854459D02*
G01X20563410Y-6868584D01*
G01X21201923Y-7747015D02*
G01X21184285Y-7732890D01*
G01X16196028Y-9546182D02*
G01X16192479Y-9546182D01*
G01X17049726Y-2458862D02*
G01X16982715Y-2462394D01*
G01X20538708Y-5767911D02*
G01X20538708Y-5764397D01*
G01X16287736Y-7316619D02*
G01X16287736Y-7369536D01*
G01X20651604Y-6240647D02*
G01X20651604Y-6265331D01*
G01X20563410Y-6395866D02*
G01X20563410Y-6445251D01*
G01X16287736Y-6163029D02*
G01X16287736Y-6215945D01*
G01X17307278Y-9532056D02*
G01X17303730Y-9528543D01*
G01X20591624Y-6424081D02*
G01X20595143Y-6462889D01*
G01X20563410Y-7052035D02*
G01X20563410Y-7094376D01*
G01X16224243Y-9514417D02*
G01X16238337Y-9524994D01*
G01X16245396Y-6480529D02*
G01X16248945Y-6480529D01*
G01X15416368Y-4681362D02*
G01X15416368Y-4656661D01*
G01X17550674Y-5450411D02*
G01X17550674Y-5468049D01*
G01X17257875Y-7852848D02*
G01X17261393Y-7838723D01*
G01X20563410Y-7701125D02*
G01X20623389Y-7701125D01*
G01X16210118Y-9532056D02*
G01X16206604Y-9532056D01*
G01X19649701Y-7881063D02*
G01X19656764Y-7866938D01*
G01X17779979Y-8946459D02*
G01X17769403Y-8935847D01*
G01X16767504Y-3210272D02*
G01X16756924Y-3249081D01*
G01X19600333Y-5658564D02*
G01X19579146Y-5662077D01*
G01X19300472Y-6043088D02*
G01X19300472Y-6050133D01*
G01X19635610Y-4857751D02*
G01X19642644Y-4857751D01*
G01X20563410Y-6240647D02*
G01X20563410Y-6293564D01*
G01X16196028Y-9528543D02*
G01X16192479Y-9532056D01*
G01X15645674Y-7115529D02*
G01X15649223Y-7133167D01*
G01X16735771Y-8960549D02*
G01X16749865Y-8960549D01*
G01X20612782Y-6568723D02*
G01X20619840Y-6593424D01*
G01X16238337Y-6106581D02*
G01X16238337Y-6099536D01*
G01X21166646Y-7080251D02*
G01X21177226Y-7062612D01*
G01X19349841Y-8187987D02*
G01X19349841Y-8170349D01*
G01X16114865Y-7478883D02*
G01X16114865Y-7457730D01*
G01X17247299Y-7955133D02*
G01X17254362Y-7937494D01*
G01X16114865Y-6360588D02*
G01X16114865Y-6335886D01*
G01X17257875Y-5778504D02*
G01X17254362Y-5760866D01*
G01X21399500Y-4974161D02*
G01X21399500Y-4945945D01*
G01X19621486Y-7902216D02*
G01X19635610Y-7895153D01*
G01X15568060Y-7037910D02*
G01X15585698Y-7041460D01*
G01X17049726Y-9546182D02*
G01X17053271Y-9546182D01*
G01X16263035Y-6067772D02*
G01X16263035Y-6021918D01*
G01X16248945Y-7147293D02*
G01X16245396Y-7147293D01*
G01X17363708Y-5901977D02*
G01X17346070Y-5891383D01*
G01X19790813Y-3605390D02*
G01X19829639Y-3598327D01*
G01X21145493Y-4868327D02*
G01X21145493Y-4850688D01*
G01X18848894Y-5450411D02*
G01X18848894Y-5468049D01*
G01X19656764Y-5700886D02*
G01X19646188Y-5683248D01*
G01X20651604Y-6131282D02*
G01X20648060Y-6131282D01*
G01X17420143Y-4328585D02*
G01X17406049Y-4342692D01*
G01X17247299Y-5450411D02*
G01X17148528Y-5450411D01*
G01X20648060Y-6639278D02*
G01X20729222Y-6639278D01*
G01X18848894Y-5468049D02*
G01X18750119Y-5468049D01*
G01X17279032Y-9574397D02*
G01X17261393Y-9574397D01*
G01X19540354Y-5771442D02*
G01X19540354Y-5785549D01*
G01X15938476Y-9574397D02*
G01X15942021Y-9574397D01*
G01X16435910Y-9532056D02*
G01X16439424Y-9532056D01*
G01X16467643Y-9539119D02*
G01X16464125Y-9535570D01*
G01X20538708Y-6039557D02*
G01X20538708Y-5997216D01*
G01X16263035Y-6367633D02*
G01X16263035Y-6318247D01*
G01X20563410Y-7094376D02*
G01X20563410Y-7140230D01*
G01X20658667Y-7196661D02*
G01X20651604Y-7189598D01*
G01X16227757Y-6155966D02*
G01X16231306Y-6198306D01*
G01X17543615Y-9546182D02*
G01X17547159Y-9546182D01*
G01X17547159Y-9546182D02*
G01X17550674Y-9546182D01*
G01X16287736Y-7817571D02*
G01X16287736Y-7838723D01*
G01X17794104Y-8822987D02*
G01X17790560Y-8847653D01*
G01X16287736Y-5792612D02*
G01X16287736Y-5813782D01*
G01X19649701Y-8187987D02*
G01X19547417Y-8187987D01*
G01X20626903Y-5965470D02*
G01X20619840Y-5986640D01*
G01X17028569Y-9574397D02*
G01X17010931Y-9574397D01*
G01X15695077Y-8928821D02*
G01X15688014Y-8942911D01*
G01X17349588Y-9574397D02*
G01X17339007Y-9574397D01*
G01X20563410Y-7828147D02*
G01X20563410Y-7835210D01*
G01X17155560Y-4857751D02*
G01X17148528Y-4857751D01*
G01X21381861Y-4656661D02*
G01X21381861Y-4681362D01*
G01X16280674Y-5767911D02*
G01X16273615Y-5767911D01*
G01X20030699Y-3210272D02*
G01X20016604Y-3171480D01*
G01X15959660Y-9574397D02*
G01X15963174Y-9574397D01*
G01X17137921Y-7852848D02*
G01X17137921Y-7870487D01*
G01X19882556Y-4148664D02*
G01X19946049Y-4134557D01*
G01X15931445Y-9574397D02*
G01X15934958Y-9574397D01*
G01X19646188Y-5849060D02*
G01X19653250Y-5827890D01*
G01X16220698Y-7563563D02*
G01X16217181Y-7595292D01*
G01X20563410Y-5789081D02*
G01X20563410Y-5785549D01*
G01X15938476Y-9532056D02*
G01X15942021Y-9532056D01*
G01X16185421Y-9546182D02*
G01X16181903Y-9546182D01*
G01X16196028Y-7027334D02*
G01X16203059Y-7044973D01*
G01X20630421Y-7457730D02*
G01X20626903Y-7440091D01*
G01X16139562Y-7164932D02*
G01X16139562Y-7182571D01*
G01X16121924Y-6106581D02*
G01X16118410Y-6110112D01*
G01X17497758Y-7595292D02*
G01X17497758Y-7588265D01*
G01X16287736Y-5764397D02*
G01X16287736Y-5767911D01*
G01X16114865Y-6152452D02*
G01X16114865Y-6138327D01*
G01X15550421Y-7034397D02*
G01X15568060Y-7037910D01*
G01X15991393Y-9588486D02*
G01X15980813Y-9599098D01*
G01X17508338Y-9546182D02*
G01X17508338Y-9574397D01*
G01X17554222Y-4293307D02*
G01X17568313Y-4318008D01*
G01X21152555Y-7115529D02*
G01X21156069Y-7097890D01*
G01X20588111Y-7394237D02*
G01X20591624Y-7440091D01*
G01X20623389Y-5940786D02*
G01X20563410Y-5940786D01*
G01X20394083Y-2758723D02*
G01X20351743Y-2709338D01*
G01X16915674Y-4148664D02*
G01X16982715Y-4155727D01*
G01X15649223Y-7133167D02*
G01X15649223Y-7260154D01*
G01X16464125Y-9546182D02*
G01X16467643Y-9546182D01*
G01X16263035Y-7831660D02*
G01X16263035Y-7821084D01*
G01X16714587Y-8770071D02*
G01X16707556Y-8784160D01*
G01X19448615Y-4360331D02*
G01X19430977Y-4356800D01*
G01X17751764Y-8755945D02*
G01X17751764Y-8759459D01*
G01X20249424Y-3996977D02*
G01X20302340Y-3954636D01*
G01X16788688Y-8942911D02*
G01X16781625Y-8953487D01*
G01X20729222Y-6999119D02*
G01X20729222Y-7701125D01*
G01X20609264Y-7009695D02*
G01X20616326Y-7002633D01*
G01X17649449Y-5468049D02*
G01X17550674Y-5468049D01*
G01X16114865Y-6388803D02*
G01X16114865Y-6360588D01*
G01X19847277Y-8187987D02*
G01X19847277Y-8170349D01*
G01X16128986Y-7528286D02*
G01X16132504Y-7528286D01*
G01X16287736Y-6815668D02*
G01X16287736Y-6819182D01*
G01X20623389Y-7309556D02*
G01X20623389Y-7298980D01*
G01X16150143Y-7701125D02*
G01X16157202Y-7697612D01*
G01X17515396Y-9524994D02*
G01X17585951Y-9524994D01*
G01X16658153Y-8893543D02*
G01X16654639Y-8872355D01*
G01X20249424Y-5450411D02*
G01X20150653Y-5450411D01*
G01X15927896Y-9574397D02*
G01X15931445Y-9574397D01*
G01X17137921Y-5729119D02*
G01X17137921Y-5736164D01*
G01X20041305Y-3369022D02*
G01X20048337Y-3330230D01*
G01X20648060Y-6215945D02*
G01X20651604Y-6240647D01*
G01X20538708Y-6088942D02*
G01X20538708Y-6039557D01*
G01X16947438Y-8187987D02*
G01X16947438Y-8170349D01*
G01X18534937Y-2748147D02*
G01X18499660Y-2730508D01*
G01X16266584Y-6798028D02*
G01X16266584Y-6805091D01*
G01X17448389Y-5450411D02*
G01X17349588Y-5450411D01*
G01X16287736Y-6815668D02*
G01X20538708Y-6815668D01*
G01X15737417Y-8759459D02*
G01X15737417Y-8798285D01*
G01X19903708Y-3566581D02*
G01X19938986Y-3541897D01*
G01X16238337Y-6431144D02*
G01X16238337Y-6406442D01*
G01X20729222Y-6999119D02*
G01X20648060Y-6999119D01*
G01X20623389Y-7298980D02*
G01X20623389Y-7284855D01*
G01X16287736Y-6861522D02*
G01X16287736Y-6886223D01*
G01X20623389Y-6251223D02*
G01X20623389Y-6237116D01*
G01X17504819Y-9539119D02*
G01X17515396Y-9524994D01*
G01X20556347Y-5771442D02*
G01X20552834Y-5767911D01*
G01X21230143Y-7358959D02*
G01X21212505Y-7351896D01*
G01X15635097Y-8759459D02*
G01X15631584Y-8759459D01*
G01X16495889Y-3954636D02*
G01X16548806Y-3996977D01*

G04 Dimension Start*
G54D11*
G01X15419166Y-15342706D02*
G01X15419166Y-15340420D01*
G01X15421452Y-15335594D01*
G01X15423992Y-15333308D01*
G01X15428564Y-15331022D01*
G01X15437962Y-15331022D01*
G01X15442534Y-15333308D01*
G01X15444820Y-15335594D01*
G01X15447106Y-15340420D01*
G01X15447106Y-15344992D01*
G01X15444820Y-15349564D01*
G01X15440248Y-15356676D01*
G01X15416880Y-15380044D01*
G01X15449392Y-15380044D01*
G01X15516194Y-15347278D02*
G01X15513908Y-15354390D01*
G01X15509336Y-15358962D01*
G01X15502224Y-15361248D01*
G01X15499938Y-15361248D01*
G01X15493080Y-15358962D01*
G01X15488254Y-15354390D01*
G01X15485968Y-15347278D01*
G01X15485968Y-15344992D01*
G01X15488254Y-15338134D01*
G01X15493080Y-15333308D01*
G01X15499938Y-15331022D01*
G01X15502224Y-15331022D01*
G01X15509336Y-15333308D01*
G01X15513908Y-15338134D01*
G01X15516194Y-15347278D01*
G01X15516194Y-15358962D01*
G01X15513908Y-15370646D01*
G01X15509336Y-15377758D01*
G01X15502224Y-15380044D01*
G01X15497652Y-15380044D01*
G01X15490540Y-15377758D01*
G01X15488254Y-15372932D01*
G01X15580710Y-15331022D02*
G01X15557342Y-15331022D01*
G01X15555056Y-15352104D01*
G01X15557342Y-15349564D01*
G01X15564454Y-15347278D01*
G01X15571312Y-15347278D01*
G01X15578424Y-15349564D01*
G01X15582996Y-15354390D01*
G01X15585536Y-15361248D01*
G01X15585536Y-15366074D01*
G01X15582996Y-15372932D01*
G01X15578424Y-15377758D01*
G01X15571312Y-15380044D01*
G01X15564454Y-15380044D01*
G01X15557342Y-15377758D01*
G01X15555056Y-15375218D01*
G01X15552770Y-15370646D01*
G01X15624398Y-15368360D02*
G01X15622112Y-15370646D01*
G01X15624398Y-15372932D01*
G01X15626684Y-15370646D01*
G01X15624398Y-15368360D01*
G01X15665546Y-15342706D02*
G01X15665546Y-15340420D01*
G01X15667832Y-15335594D01*
G01X15670372Y-15333308D01*
G01X15674944Y-15331022D01*
G01X15684342Y-15331022D01*
G01X15688914Y-15333308D01*
G01X15691200Y-15335594D01*
G01X15693486Y-15340420D01*
G01X15693486Y-15344992D01*
G01X15691200Y-15349564D01*
G01X15686628Y-15356676D01*
G01X15663260Y-15380044D01*
G01X15696026Y-15380044D01*
G01X15765368Y-15331022D02*
G01X15742000Y-15380044D01*
G01X15732602Y-15331022D02*
G01X15765368Y-15331022D01*
G01X15829884Y-15331022D02*
G01X15806516Y-15331022D01*
G01X15804230Y-15352104D01*
G01X15806516Y-15349564D01*
G01X15813628Y-15347278D01*
G01X15820486Y-15347278D01*
G01X15827598Y-15349564D01*
G01X15832170Y-15354390D01*
G01X15834710Y-15361248D01*
G01X15834710Y-15366074D01*
G01X15832170Y-15372932D01*
G01X15827598Y-15377758D01*
G01X15820486Y-15380044D01*
G01X15813628Y-15380044D01*
G01X15806516Y-15377758D01*
G01X15804230Y-15375218D01*
G01X15801944Y-15370646D01*
G01X15899226Y-15338134D02*
G01X15896940Y-15333308D01*
G01X15889828Y-15331022D01*
G01X15885256Y-15331022D01*
G01X15878398Y-15333308D01*
G01X15873572Y-15340420D01*
G01X15871286Y-15352104D01*
G01X15871286Y-15363788D01*
G01X15873572Y-15372932D01*
G01X15878398Y-15377758D01*
G01X15885256Y-15380044D01*
G01X15887542Y-15380044D01*
G01X15894654Y-15377758D01*
G01X15899226Y-15372932D01*
G01X15901512Y-15366074D01*
G01X15901512Y-15363788D01*
G01X15899226Y-15356676D01*
G01X15894654Y-15352104D01*
G01X15887542Y-15349564D01*
G01X15885256Y-15349564D01*
G01X15878398Y-15352104D01*
G01X15873572Y-15356676D01*
G01X15871286Y-15363788D01*
G01X15938088Y-15347278D02*
G01X15938088Y-15380044D01*
G01X15938088Y-15356676D02*
G01X15945200Y-15349564D01*
G01X15949772Y-15347278D01*
G01X15956630Y-15347278D01*
G01X15961456Y-15349564D01*
G01X15963742Y-15356676D01*
G01X15963742Y-15380044D01*
G01X15963742Y-15356676D02*
G01X15970854Y-15349564D01*
G01X15975426Y-15347278D01*
G01X15982284Y-15347278D01*
G01X15987110Y-15349564D01*
G01X15989396Y-15356676D01*
G01X15989396Y-15380044D01*
G01X16025972Y-15331022D02*
G01X16028258Y-15333308D01*
G01X16030544Y-15331022D01*
G01X16028258Y-15328736D01*
G01X16025972Y-15331022D01*
G01X16028258Y-15347278D02*
G01X16028258Y-15380044D01*
G01X16067120Y-15331022D02*
G01X16067120Y-15380044D01*
G01X15367000Y-15086000D02*
G01X15367000Y-15790000D01*
G01X16117000Y-15086000D02*
G01X16117000Y-15790000D01*
G01X15367000Y-15536000D02*
G01X15440604Y-15516278D01*
G01X15367000Y-15536000D02*
G01X15440604Y-15555722D01*
G01X16117000Y-15536000D02*
G01X16043396Y-15516278D01*
G01X16117000Y-15536000D02*
G01X16043396Y-15555722D01*
G01X15367000Y-15536000D02*
G01X16117000Y-15536000D01*
G01X18129284Y-15715134D02*
G01X18126998Y-15710308D01*
G01X18119886Y-15708022D01*
G01X18115314Y-15708022D01*
G01X18108456Y-15710308D01*
G01X18103630Y-15717420D01*
G01X18101344Y-15729104D01*
G01X18101344Y-15740788D01*
G01X18103630Y-15749932D01*
G01X18108456Y-15754758D01*
G01X18115314Y-15757044D01*
G01X18117600Y-15757044D01*
G01X18124712Y-15754758D01*
G01X18129284Y-15749932D01*
G01X18131570Y-15743074D01*
G01X18131570Y-15740788D01*
G01X18129284Y-15733676D01*
G01X18124712Y-15729104D01*
G01X18117600Y-15726564D01*
G01X18115314Y-15726564D01*
G01X18108456Y-15729104D01*
G01X18103630Y-15733676D01*
G01X18101344Y-15740788D01*
G01X18182116Y-15708022D02*
G01X18175258Y-15710308D01*
G01X18170432Y-15717420D01*
G01X18168146Y-15729104D01*
G01X18168146Y-15735962D01*
G01X18170432Y-15747646D01*
G01X18175258Y-15754758D01*
G01X18182116Y-15757044D01*
G01X18186688Y-15757044D01*
G01X18193800Y-15754758D01*
G01X18198372Y-15747646D01*
G01X18200912Y-15735962D01*
G01X18200912Y-15729104D01*
G01X18198372Y-15717420D01*
G01X18193800Y-15710308D01*
G01X18186688Y-15708022D01*
G01X18182116Y-15708022D01*
G01X18239774Y-15745360D02*
G01X18237488Y-15747646D01*
G01X18239774Y-15749932D01*
G01X18242060Y-15747646D01*
G01X18239774Y-15745360D01*
G01X18306576Y-15715134D02*
G01X18304290Y-15710308D01*
G01X18297178Y-15708022D01*
G01X18292606Y-15708022D01*
G01X18285748Y-15710308D01*
G01X18280922Y-15717420D01*
G01X18278636Y-15729104D01*
G01X18278636Y-15740788D01*
G01X18280922Y-15749932D01*
G01X18285748Y-15754758D01*
G01X18292606Y-15757044D01*
G01X18294892Y-15757044D01*
G01X18302004Y-15754758D01*
G01X18306576Y-15749932D01*
G01X18308862Y-15743074D01*
G01X18308862Y-15740788D01*
G01X18306576Y-15733676D01*
G01X18302004Y-15729104D01*
G01X18294892Y-15726564D01*
G01X18292606Y-15726564D01*
G01X18285748Y-15729104D01*
G01X18280922Y-15733676D01*
G01X18278636Y-15740788D01*
G01X18359408Y-15708022D02*
G01X18352550Y-15710308D01*
G01X18347724Y-15717420D01*
G01X18345438Y-15729104D01*
G01X18345438Y-15735962D01*
G01X18347724Y-15747646D01*
G01X18352550Y-15754758D01*
G01X18359408Y-15757044D01*
G01X18363980Y-15757044D01*
G01X18371092Y-15754758D01*
G01X18375664Y-15747646D01*
G01X18378204Y-15735962D01*
G01X18378204Y-15729104D01*
G01X18375664Y-15717420D01*
G01X18371092Y-15710308D01*
G01X18363980Y-15708022D01*
G01X18359408Y-15708022D01*
G01X18428750Y-15708022D02*
G01X18421892Y-15710308D01*
G01X18417066Y-15717420D01*
G01X18414780Y-15729104D01*
G01X18414780Y-15735962D01*
G01X18417066Y-15747646D01*
G01X18421892Y-15754758D01*
G01X18428750Y-15757044D01*
G01X18433322Y-15757044D01*
G01X18440434Y-15754758D01*
G01X18445006Y-15747646D01*
G01X18447546Y-15735962D01*
G01X18447546Y-15729104D01*
G01X18445006Y-15717420D01*
G01X18440434Y-15710308D01*
G01X18433322Y-15708022D01*
G01X18428750Y-15708022D01*
G01X18498092Y-15708022D02*
G01X18491234Y-15710308D01*
G01X18486408Y-15717420D01*
G01X18484122Y-15729104D01*
G01X18484122Y-15735962D01*
G01X18486408Y-15747646D01*
G01X18491234Y-15754758D01*
G01X18498092Y-15757044D01*
G01X18502664Y-15757044D01*
G01X18509776Y-15754758D01*
G01X18514348Y-15747646D01*
G01X18516888Y-15735962D01*
G01X18516888Y-15729104D01*
G01X18514348Y-15717420D01*
G01X18509776Y-15710308D01*
G01X18502664Y-15708022D01*
G01X18498092Y-15708022D01*
G01X18553464Y-15724278D02*
G01X18553464Y-15757044D01*
G01X18553464Y-15733676D02*
G01X18560576Y-15726564D01*
G01X18565148Y-15724278D01*
G01X18572006Y-15724278D01*
G01X18576832Y-15726564D01*
G01X18579118Y-15733676D01*
G01X18579118Y-15757044D01*
G01X18579118Y-15733676D02*
G01X18586230Y-15726564D01*
G01X18590802Y-15724278D01*
G01X18597660Y-15724278D01*
G01X18602486Y-15726564D01*
G01X18604772Y-15733676D01*
G01X18604772Y-15757044D01*
G01X18641348Y-15724278D02*
G01X18641348Y-15757044D01*
G01X18641348Y-15733676D02*
G01X18648460Y-15726564D01*
G01X18653032Y-15724278D01*
G01X18659890Y-15724278D01*
G01X18664716Y-15726564D01*
G01X18667002Y-15733676D01*
G01X18667002Y-15757044D01*
G01X18667002Y-15733676D02*
G01X18674114Y-15726564D01*
G01X18678686Y-15724278D01*
G01X18685544Y-15724278D01*
G01X18690370Y-15726564D01*
G01X18692656Y-15733676D01*
G01X18692656Y-15757044D01*
G01X21427000Y-15386000D02*
G01X21427000Y-16040000D01*
G01X15367000Y-15386000D02*
G01X15367000Y-16040000D01*
G01X21427000Y-15786000D02*
G01X21353397Y-15805722D01*
G01X21427000Y-15786000D02*
G01X21353397Y-15766278D01*
G01X15367000Y-15786000D02*
G01X15440604Y-15805722D01*
G01X15367000Y-15786000D02*
G01X15440604Y-15766278D01*
G01X21427000Y-15786000D02*
G01X18705356Y-15786000D01*
G01X18088644Y-15786000D02*
G01X15367000Y-15786000D01*
G01X18127029Y-15458022D02*
G01X18103661Y-15490788D01*
G01X18138713Y-15490788D01*
G01X18127029Y-15458022D02*
G01X18127029Y-15507044D01*
G01X18203229Y-15458022D02*
G01X18179861Y-15458022D01*
G01X18177575Y-15479104D01*
G01X18179861Y-15476564D01*
G01X18186973Y-15474278D01*
G01X18193831Y-15474278D01*
G01X18200943Y-15476564D01*
G01X18205515Y-15481390D01*
G01X18208055Y-15488248D01*
G01X18208055Y-15493074D01*
G01X18205515Y-15499932D01*
G01X18200943Y-15504758D01*
G01X18193831Y-15507044D01*
G01X18186973Y-15507044D01*
G01X18179861Y-15504758D01*
G01X18177575Y-15502218D01*
G01X18175289Y-15497646D01*
G01X18246917Y-15495360D02*
G01X18244631Y-15497646D01*
G01X18246917Y-15499932D01*
G01X18249203Y-15497646D01*
G01X18246917Y-15495360D01*
G01X18318545Y-15458022D02*
G01X18295177Y-15507044D01*
G01X18285779Y-15458022D02*
G01X18318545Y-15458022D01*
G01X18357407Y-15469706D02*
G01X18357407Y-15467420D01*
G01X18359693Y-15462594D01*
G01X18362233Y-15460308D01*
G01X18366805Y-15458022D01*
G01X18376203Y-15458022D01*
G01X18380775Y-15460308D01*
G01X18383061Y-15462594D01*
G01X18385347Y-15467420D01*
G01X18385347Y-15471992D01*
G01X18383061Y-15476564D01*
G01X18378489Y-15483676D01*
G01X18355121Y-15507044D01*
G01X18387887Y-15507044D01*
G01X18438433Y-15458022D02*
G01X18431575Y-15460308D01*
G01X18426749Y-15467420D01*
G01X18424463Y-15479104D01*
G01X18424463Y-15485962D01*
G01X18426749Y-15497646D01*
G01X18431575Y-15504758D01*
G01X18438433Y-15507044D01*
G01X18443005Y-15507044D01*
G01X18450117Y-15504758D01*
G01X18454689Y-15497646D01*
G01X18457229Y-15485962D01*
G01X18457229Y-15479104D01*
G01X18454689Y-15467420D01*
G01X18450117Y-15460308D01*
G01X18443005Y-15458022D01*
G01X18438433Y-15458022D01*
G01X18507775Y-15458022D02*
G01X18500917Y-15460308D01*
G01X18496091Y-15467420D01*
G01X18493805Y-15479104D01*
G01X18493805Y-15485962D01*
G01X18496091Y-15497646D01*
G01X18500917Y-15504758D01*
G01X18507775Y-15507044D01*
G01X18512347Y-15507044D01*
G01X18519459Y-15504758D01*
G01X18524031Y-15497646D01*
G01X18526571Y-15485962D01*
G01X18526571Y-15479104D01*
G01X18524031Y-15467420D01*
G01X18519459Y-15460308D01*
G01X18512347Y-15458022D01*
G01X18507775Y-15458022D01*
G01X18563147Y-15474278D02*
G01X18563147Y-15507044D01*
G01X18563147Y-15483676D02*
G01X18570259Y-15476564D01*
G01X18574831Y-15474278D01*
G01X18581689Y-15474278D01*
G01X18586515Y-15476564D01*
G01X18588801Y-15483676D01*
G01X18588801Y-15507044D01*
G01X18588801Y-15483676D02*
G01X18595913Y-15476564D01*
G01X18600485Y-15474278D01*
G01X18607343Y-15474278D01*
G01X18612169Y-15476564D01*
G01X18614455Y-15483676D01*
G01X18614455Y-15507044D01*
G01X18651031Y-15474278D02*
G01X18651031Y-15507044D01*
G01X18651031Y-15483676D02*
G01X18658143Y-15476564D01*
G01X18662715Y-15474278D01*
G01X18669573Y-15474278D01*
G01X18674399Y-15476564D01*
G01X18676685Y-15483676D01*
G01X18676685Y-15507044D01*
G01X18676685Y-15483676D02*
G01X18683797Y-15476564D01*
G01X18688369Y-15474278D01*
G01X18695227Y-15474278D01*
G01X18700053Y-15476564D01*
G01X18702339Y-15483676D01*
G01X18702339Y-15507044D01*
G01X20689000Y-15086000D02*
G01X20689000Y-15790000D01*
G01X16117000Y-15086000D02*
G01X16117000Y-15790000D01*
G01X20689000Y-15536000D02*
G01X20615396Y-15555722D01*
G01X20689000Y-15536000D02*
G01X20615396Y-15516278D01*
G01X16117000Y-15536000D02*
G01X16190604Y-15555722D01*
G01X16117000Y-15536000D02*
G01X16190604Y-15516278D01*
G01X20689000Y-15536000D02*
G01X18715039Y-15536000D01*
G01X18090961Y-15536000D02*
G01X16117000Y-15536000D01*
G01X15419166Y-2092706D02*
G01X15419166Y-2090420D01*
G01X15421452Y-2085594D01*
G01X15423992Y-2083308D01*
G01X15428564Y-2081022D01*
G01X15437962Y-2081022D01*
G01X15442534Y-2083308D01*
G01X15444820Y-2085594D01*
G01X15447106Y-2090420D01*
G01X15447106Y-2094992D01*
G01X15444820Y-2099564D01*
G01X15440248Y-2106676D01*
G01X15416880Y-2130044D01*
G01X15449392Y-2130044D01*
G01X15516194Y-2097278D02*
G01X15513908Y-2104390D01*
G01X15509336Y-2108962D01*
G01X15502224Y-2111248D01*
G01X15499938Y-2111248D01*
G01X15493080Y-2108962D01*
G01X15488254Y-2104390D01*
G01X15485968Y-2097278D01*
G01X15485968Y-2094992D01*
G01X15488254Y-2088134D01*
G01X15493080Y-2083308D01*
G01X15499938Y-2081022D01*
G01X15502224Y-2081022D01*
G01X15509336Y-2083308D01*
G01X15513908Y-2088134D01*
G01X15516194Y-2097278D01*
G01X15516194Y-2108962D01*
G01X15513908Y-2120646D01*
G01X15509336Y-2127758D01*
G01X15502224Y-2130044D01*
G01X15497652Y-2130044D01*
G01X15490540Y-2127758D01*
G01X15488254Y-2122932D01*
G01X15580710Y-2081022D02*
G01X15557342Y-2081022D01*
G01X15555056Y-2102104D01*
G01X15557342Y-2099564D01*
G01X15564454Y-2097278D01*
G01X15571312Y-2097278D01*
G01X15578424Y-2099564D01*
G01X15582996Y-2104390D01*
G01X15585536Y-2111248D01*
G01X15585536Y-2116074D01*
G01X15582996Y-2122932D01*
G01X15578424Y-2127758D01*
G01X15571312Y-2130044D01*
G01X15564454Y-2130044D01*
G01X15557342Y-2127758D01*
G01X15555056Y-2125218D01*
G01X15552770Y-2120646D01*
G01X15624398Y-2118360D02*
G01X15622112Y-2120646D01*
G01X15624398Y-2122932D01*
G01X15626684Y-2120646D01*
G01X15624398Y-2118360D01*
G01X15665546Y-2092706D02*
G01X15665546Y-2090420D01*
G01X15667832Y-2085594D01*
G01X15670372Y-2083308D01*
G01X15674944Y-2081022D01*
G01X15684342Y-2081022D01*
G01X15688914Y-2083308D01*
G01X15691200Y-2085594D01*
G01X15693486Y-2090420D01*
G01X15693486Y-2094992D01*
G01X15691200Y-2099564D01*
G01X15686628Y-2106676D01*
G01X15663260Y-2130044D01*
G01X15696026Y-2130044D01*
G01X15765368Y-2081022D02*
G01X15742000Y-2130044D01*
G01X15732602Y-2081022D02*
G01X15765368Y-2081022D01*
G01X15829884Y-2081022D02*
G01X15806516Y-2081022D01*
G01X15804230Y-2102104D01*
G01X15806516Y-2099564D01*
G01X15813628Y-2097278D01*
G01X15820486Y-2097278D01*
G01X15827598Y-2099564D01*
G01X15832170Y-2104390D01*
G01X15834710Y-2111248D01*
G01X15834710Y-2116074D01*
G01X15832170Y-2122932D01*
G01X15827598Y-2127758D01*
G01X15820486Y-2130044D01*
G01X15813628Y-2130044D01*
G01X15806516Y-2127758D01*
G01X15804230Y-2125218D01*
G01X15801944Y-2120646D01*
G01X15899226Y-2088134D02*
G01X15896940Y-2083308D01*
G01X15889828Y-2081022D01*
G01X15885256Y-2081022D01*
G01X15878398Y-2083308D01*
G01X15873572Y-2090420D01*
G01X15871286Y-2102104D01*
G01X15871286Y-2113788D01*
G01X15873572Y-2122932D01*
G01X15878398Y-2127758D01*
G01X15885256Y-2130044D01*
G01X15887542Y-2130044D01*
G01X15894654Y-2127758D01*
G01X15899226Y-2122932D01*
G01X15901512Y-2116074D01*
G01X15901512Y-2113788D01*
G01X15899226Y-2106676D01*
G01X15894654Y-2102104D01*
G01X15887542Y-2099564D01*
G01X15885256Y-2099564D01*
G01X15878398Y-2102104D01*
G01X15873572Y-2106676D01*
G01X15871286Y-2113788D01*
G01X15938088Y-2097278D02*
G01X15938088Y-2130044D01*
G01X15938088Y-2106676D02*
G01X15945200Y-2099564D01*
G01X15949772Y-2097278D01*
G01X15956630Y-2097278D01*
G01X15961456Y-2099564D01*
G01X15963742Y-2106676D01*
G01X15963742Y-2130044D01*
G01X15963742Y-2106676D02*
G01X15970854Y-2099564D01*
G01X15975426Y-2097278D01*
G01X15982284Y-2097278D01*
G01X15987110Y-2099564D01*
G01X15989396Y-2106676D01*
G01X15989396Y-2130044D01*
G01X16025972Y-2081022D02*
G01X16028258Y-2083308D01*
G01X16030544Y-2081022D01*
G01X16028258Y-2078736D01*
G01X16025972Y-2081022D01*
G01X16028258Y-2097278D02*
G01X16028258Y-2130044D01*
G01X16067120Y-2081022D02*
G01X16067120Y-2130044D01*
G01X15367000Y-2836000D02*
G01X15367000Y-2032000D01*
G01X16117000Y-2836000D02*
G01X16117000Y-2032000D01*
G01X15367000Y-2286000D02*
G01X15440604Y-2266278D01*
G01X15367000Y-2286000D02*
G01X15440604Y-2305722D01*
G01X16117000Y-2286000D02*
G01X16043396Y-2266278D01*
G01X16117000Y-2286000D02*
G01X16043396Y-2305722D01*
G01X15367000Y-2286000D02*
G01X16117000Y-2286000D01*
G01X18051083Y-2217420D02*
G01X18055655Y-2215134D01*
G01X18062767Y-2208022D01*
G01X18062767Y-2257044D01*
G01X18111027Y-2208022D02*
G01X18103915Y-2210308D01*
G01X18101629Y-2215134D01*
G01X18101629Y-2219706D01*
G01X18103915Y-2224278D01*
G01X18108741Y-2226564D01*
G01X18117885Y-2229104D01*
G01X18124997Y-2231390D01*
G01X18129569Y-2235962D01*
G01X18132109Y-2240788D01*
G01X18132109Y-2247646D01*
G01X18129569Y-2252218D01*
G01X18127283Y-2254758D01*
G01X18120425Y-2257044D01*
G01X18111027Y-2257044D01*
G01X18103915Y-2254758D01*
G01X18101629Y-2252218D01*
G01X18099343Y-2247646D01*
G01X18099343Y-2240788D01*
G01X18101629Y-2235962D01*
G01X18106455Y-2231390D01*
G01X18113313Y-2229104D01*
G01X18122711Y-2226564D01*
G01X18127283Y-2224278D01*
G01X18129569Y-2219706D01*
G01X18129569Y-2215134D01*
G01X18127283Y-2210308D01*
G01X18120425Y-2208022D01*
G01X18111027Y-2208022D01*
G01X18182655Y-2208022D02*
G01X18175797Y-2210308D01*
G01X18170971Y-2217420D01*
G01X18168685Y-2229104D01*
G01X18168685Y-2235962D01*
G01X18170971Y-2247646D01*
G01X18175797Y-2254758D01*
G01X18182655Y-2257044D01*
G01X18187227Y-2257044D01*
G01X18194339Y-2254758D01*
G01X18198911Y-2247646D01*
G01X18201451Y-2235962D01*
G01X18201451Y-2229104D01*
G01X18198911Y-2217420D01*
G01X18194339Y-2210308D01*
G01X18187227Y-2208022D01*
G01X18182655Y-2208022D01*
G01X18251997Y-2208022D02*
G01X18245139Y-2210308D01*
G01X18240313Y-2217420D01*
G01X18238027Y-2229104D01*
G01X18238027Y-2235962D01*
G01X18240313Y-2247646D01*
G01X18245139Y-2254758D01*
G01X18251997Y-2257044D01*
G01X18256569Y-2257044D01*
G01X18263681Y-2254758D01*
G01X18268253Y-2247646D01*
G01X18270793Y-2235962D01*
G01X18270793Y-2229104D01*
G01X18268253Y-2217420D01*
G01X18263681Y-2210308D01*
G01X18256569Y-2208022D01*
G01X18251997Y-2208022D01*
G01X18309655Y-2245360D02*
G01X18307369Y-2247646D01*
G01X18309655Y-2249932D01*
G01X18311941Y-2247646D01*
G01X18309655Y-2245360D01*
G01X18362487Y-2208022D02*
G01X18355629Y-2210308D01*
G01X18350803Y-2217420D01*
G01X18348517Y-2229104D01*
G01X18348517Y-2235962D01*
G01X18350803Y-2247646D01*
G01X18355629Y-2254758D01*
G01X18362487Y-2257044D01*
G01X18367059Y-2257044D01*
G01X18374171Y-2254758D01*
G01X18378743Y-2247646D01*
G01X18381283Y-2235962D01*
G01X18381283Y-2229104D01*
G01X18378743Y-2217420D01*
G01X18374171Y-2210308D01*
G01X18367059Y-2208022D01*
G01X18362487Y-2208022D01*
G01X18431829Y-2208022D02*
G01X18424971Y-2210308D01*
G01X18420145Y-2217420D01*
G01X18417859Y-2229104D01*
G01X18417859Y-2235962D01*
G01X18420145Y-2247646D01*
G01X18424971Y-2254758D01*
G01X18431829Y-2257044D01*
G01X18436401Y-2257044D01*
G01X18443513Y-2254758D01*
G01X18448085Y-2247646D01*
G01X18450625Y-2235962D01*
G01X18450625Y-2229104D01*
G01X18448085Y-2217420D01*
G01X18443513Y-2210308D01*
G01X18436401Y-2208022D01*
G01X18431829Y-2208022D01*
G01X18501171Y-2208022D02*
G01X18494313Y-2210308D01*
G01X18489487Y-2217420D01*
G01X18487201Y-2229104D01*
G01X18487201Y-2235962D01*
G01X18489487Y-2247646D01*
G01X18494313Y-2254758D01*
G01X18501171Y-2257044D01*
G01X18505743Y-2257044D01*
G01X18512855Y-2254758D01*
G01X18517427Y-2247646D01*
G01X18519967Y-2235962D01*
G01X18519967Y-2229104D01*
G01X18517427Y-2217420D01*
G01X18512855Y-2210308D01*
G01X18505743Y-2208022D01*
G01X18501171Y-2208022D01*
G01X18570513Y-2208022D02*
G01X18563655Y-2210308D01*
G01X18558829Y-2217420D01*
G01X18556543Y-2229104D01*
G01X18556543Y-2235962D01*
G01X18558829Y-2247646D01*
G01X18563655Y-2254758D01*
G01X18570513Y-2257044D01*
G01X18575085Y-2257044D01*
G01X18582197Y-2254758D01*
G01X18586769Y-2247646D01*
G01X18589309Y-2235962D01*
G01X18589309Y-2229104D01*
G01X18586769Y-2217420D01*
G01X18582197Y-2210308D01*
G01X18575085Y-2208022D01*
G01X18570513Y-2208022D01*
G01X18625885Y-2224278D02*
G01X18625885Y-2257044D01*
G01X18625885Y-2233676D02*
G01X18632997Y-2226564D01*
G01X18637569Y-2224278D01*
G01X18644427Y-2224278D01*
G01X18649253Y-2226564D01*
G01X18651539Y-2233676D01*
G01X18651539Y-2257044D01*
G01X18651539Y-2233676D02*
G01X18658651Y-2226564D01*
G01X18663223Y-2224278D01*
G01X18670081Y-2224278D01*
G01X18674907Y-2226564D01*
G01X18677193Y-2233676D01*
G01X18677193Y-2257044D01*
G01X18713769Y-2208022D02*
G01X18716055Y-2210308D01*
G01X18718341Y-2208022D01*
G01X18716055Y-2205736D01*
G01X18713769Y-2208022D01*
G01X18716055Y-2224278D02*
G01X18716055Y-2257044D01*
G01X18754917Y-2208022D02*
G01X18754917Y-2257044D01*
G01X20689000Y-2836000D02*
G01X20689000Y-2032000D01*
G01X16117000Y-2836000D02*
G01X16117000Y-2032000D01*
G01X20689000Y-2286000D02*
G01X20615396Y-2305722D01*
G01X20689000Y-2286000D02*
G01X20615396Y-2266278D01*
G01X16117000Y-2286000D02*
G01X16190604Y-2305722D01*
G01X16117000Y-2286000D02*
G01X16190604Y-2266278D01*
G01X20689000Y-2286000D02*
G01X18767617Y-2286000D01*
G01X18038383Y-2286000D02*
G01X16117000Y-2286000D01*
G01X21708420Y-9283326D02*
G01X21706134Y-9278754D01*
G01X21699022Y-9271642D01*
G01X21748044Y-9271642D01*
G01X21710706Y-9232780D02*
G01X21708420Y-9232780D01*
G01X21703594Y-9230494D01*
G01X21701308Y-9227954D01*
G01X21699022Y-9223382D01*
G01X21699022Y-9213984D01*
G01X21701308Y-9209412D01*
G01X21703594Y-9207126D01*
G01X21708420Y-9204840D01*
G01X21712992Y-9204840D01*
G01X21717564Y-9207126D01*
G01X21724676Y-9211698D01*
G01X21748044Y-9235066D01*
G01X21748044Y-9202300D01*
G01X21699022Y-9154040D02*
G01X21701308Y-9161152D01*
G01X21706134Y-9163438D01*
G01X21710706Y-9163438D01*
G01X21715278Y-9161152D01*
G01X21717564Y-9156326D01*
G01X21720104Y-9147182D01*
G01X21722390Y-9140070D01*
G01X21726962Y-9135498D01*
G01X21731788Y-9132958D01*
G01X21738646Y-9132958D01*
G01X21743218Y-9135498D01*
G01X21745758Y-9137784D01*
G01X21748044Y-9144642D01*
G01X21748044Y-9154040D01*
G01X21745758Y-9161152D01*
G01X21743218Y-9163438D01*
G01X21738646Y-9165724D01*
G01X21731788Y-9165724D01*
G01X21726962Y-9163438D01*
G01X21722390Y-9158612D01*
G01X21720104Y-9151754D01*
G01X21717564Y-9142356D01*
G01X21715278Y-9137784D01*
G01X21710706Y-9135498D01*
G01X21706134Y-9135498D01*
G01X21701308Y-9137784D01*
G01X21699022Y-9144642D01*
G01X21699022Y-9154040D01*
G01X21736360Y-9094096D02*
G01X21738646Y-9096382D01*
G01X21740932Y-9094096D01*
G01X21738646Y-9091810D01*
G01X21736360Y-9094096D01*
G01X21699022Y-9027294D02*
G01X21699022Y-9050662D01*
G01X21720104Y-9052948D01*
G01X21717564Y-9050662D01*
G01X21715278Y-9043550D01*
G01X21715278Y-9036692D01*
G01X21717564Y-9029580D01*
G01X21722390Y-9025008D01*
G01X21729248Y-9022468D01*
G01X21734074Y-9022468D01*
G01X21740932Y-9025008D01*
G01X21745758Y-9029580D01*
G01X21748044Y-9036692D01*
G01X21748044Y-9043550D01*
G01X21745758Y-9050662D01*
G01X21743218Y-9052948D01*
G01X21738646Y-9055234D01*
G01X21699022Y-8971922D02*
G01X21701308Y-8978780D01*
G01X21708420Y-8983606D01*
G01X21720104Y-8985892D01*
G01X21726962Y-8985892D01*
G01X21738646Y-8983606D01*
G01X21745758Y-8978780D01*
G01X21748044Y-8971922D01*
G01X21748044Y-8967350D01*
G01X21745758Y-8960238D01*
G01X21738646Y-8955666D01*
G01X21726962Y-8953126D01*
G01X21720104Y-8953126D01*
G01X21708420Y-8955666D01*
G01X21701308Y-8960238D01*
G01X21699022Y-8967350D01*
G01X21699022Y-8971922D01*
G01X21699022Y-8902580D02*
G01X21701308Y-8909438D01*
G01X21708420Y-8914264D01*
G01X21720104Y-8916550D01*
G01X21726962Y-8916550D01*
G01X21738646Y-8914264D01*
G01X21745758Y-8909438D01*
G01X21748044Y-8902580D01*
G01X21748044Y-8898008D01*
G01X21745758Y-8890896D01*
G01X21738646Y-8886324D01*
G01X21726962Y-8883784D01*
G01X21720104Y-8883784D01*
G01X21708420Y-8886324D01*
G01X21701308Y-8890896D01*
G01X21699022Y-8898008D01*
G01X21699022Y-8902580D01*
G01X21699022Y-8833238D02*
G01X21701308Y-8840096D01*
G01X21708420Y-8844922D01*
G01X21720104Y-8847208D01*
G01X21726962Y-8847208D01*
G01X21738646Y-8844922D01*
G01X21745758Y-8840096D01*
G01X21748044Y-8833238D01*
G01X21748044Y-8828666D01*
G01X21745758Y-8821554D01*
G01X21738646Y-8816982D01*
G01X21726962Y-8814442D01*
G01X21720104Y-8814442D01*
G01X21708420Y-8816982D01*
G01X21701308Y-8821554D01*
G01X21699022Y-8828666D01*
G01X21699022Y-8833238D01*
G01X21715278Y-8777866D02*
G01X21748044Y-8777866D01*
G01X21724676Y-8777866D02*
G01X21717564Y-8770754D01*
G01X21715278Y-8766182D01*
G01X21715278Y-8759324D01*
G01X21717564Y-8754498D01*
G01X21724676Y-8752212D01*
G01X21748044Y-8752212D01*
G01X21724676Y-8752212D02*
G01X21717564Y-8745100D01*
G01X21715278Y-8740528D01*
G01X21715278Y-8733670D01*
G01X21717564Y-8728844D01*
G01X21724676Y-8726558D01*
G01X21748044Y-8726558D01*
G01X21715278Y-8689982D02*
G01X21748044Y-8689982D01*
G01X21724676Y-8689982D02*
G01X21717564Y-8682870D01*
G01X21715278Y-8678298D01*
G01X21715278Y-8671440D01*
G01X21717564Y-8666614D01*
G01X21724676Y-8664328D01*
G01X21748044Y-8664328D01*
G01X21724676Y-8664328D02*
G01X21717564Y-8657216D01*
G01X21715278Y-8652644D01*
G01X21715278Y-8645786D01*
G01X21717564Y-8640960D01*
G01X21724676Y-8638674D01*
G01X21748044Y-8638674D01*
G01X21427000Y-2536000D02*
G01X22031000Y-2536000D01*
G01X21427000Y-15386000D02*
G01X22031000Y-15386000D01*
G01X21777000Y-2536000D02*
G01X21796722Y-2609604D01*
G01X21777000Y-2536000D02*
G01X21757278Y-2609604D01*
G01X21777000Y-15386000D02*
G01X21796722Y-15312396D01*
G01X21777000Y-15386000D02*
G01X21757278Y-15312396D01*
G01X21777000Y-2536000D02*
G01X21777000Y-8625974D01*
G01X21777000Y-9296026D02*
G01X21777000Y-15386000D01*
G01X15211922Y-15338729D02*
G01X15260944Y-15361843D01*
G01X15211922Y-15371241D02*
G01X15211922Y-15338729D01*
G01X15249260Y-15299867D02*
G01X15251546Y-15302153D01*
G01X15253832Y-15299867D01*
G01X15251546Y-15297581D01*
G01X15249260Y-15299867D01*
G01X15211922Y-15237637D02*
G01X15244688Y-15261005D01*
G01X15244688Y-15225953D01*
G01X15211922Y-15237637D02*
G01X15260944Y-15237637D01*
G01X15211922Y-15175407D02*
G01X15214208Y-15182265D01*
G01X15221320Y-15187091D01*
G01X15233004Y-15189377D01*
G01X15239862Y-15189377D01*
G01X15251546Y-15187091D01*
G01X15258658Y-15182265D01*
G01X15260944Y-15175407D01*
G01X15260944Y-15170835D01*
G01X15258658Y-15163723D01*
G01X15251546Y-15159151D01*
G01X15239862Y-15156611D01*
G01X15233004Y-15156611D01*
G01X15221320Y-15159151D01*
G01X15214208Y-15163723D01*
G01X15211922Y-15170835D01*
G01X15211922Y-15175407D01*
G01X15211922Y-15106065D02*
G01X15214208Y-15112923D01*
G01X15221320Y-15117749D01*
G01X15233004Y-15120035D01*
G01X15239862Y-15120035D01*
G01X15251546Y-15117749D01*
G01X15258658Y-15112923D01*
G01X15260944Y-15106065D01*
G01X15260944Y-15101493D01*
G01X15258658Y-15094381D01*
G01X15251546Y-15089809D01*
G01X15239862Y-15087269D01*
G01X15233004Y-15087269D01*
G01X15221320Y-15089809D01*
G01X15214208Y-15094381D01*
G01X15211922Y-15101493D01*
G01X15211922Y-15106065D01*
G01X15211922Y-15036723D02*
G01X15214208Y-15043581D01*
G01X15221320Y-15048407D01*
G01X15233004Y-15050693D01*
G01X15239862Y-15050693D01*
G01X15251546Y-15048407D01*
G01X15258658Y-15043581D01*
G01X15260944Y-15036723D01*
G01X15260944Y-15032151D01*
G01X15258658Y-15025039D01*
G01X15251546Y-15020467D01*
G01X15239862Y-15017927D01*
G01X15233004Y-15017927D01*
G01X15221320Y-15020467D01*
G01X15214208Y-15025039D01*
G01X15211922Y-15032151D01*
G01X15211922Y-15036723D01*
G01X15228178Y-14981351D02*
G01X15260944Y-14981351D01*
G01X15237576Y-14981351D02*
G01X15230464Y-14974239D01*
G01X15228178Y-14969667D01*
G01X15228178Y-14962809D01*
G01X15230464Y-14957983D01*
G01X15237576Y-14955697D01*
G01X15260944Y-14955697D01*
G01X15237576Y-14955697D02*
G01X15230464Y-14948585D01*
G01X15228178Y-14944013D01*
G01X15228178Y-14937155D01*
G01X15230464Y-14932329D01*
G01X15237576Y-14930043D01*
G01X15260944Y-14930043D01*
G01X15228178Y-14893467D02*
G01X15260944Y-14893467D01*
G01X15237576Y-14893467D02*
G01X15230464Y-14886355D01*
G01X15228178Y-14881783D01*
G01X15228178Y-14874925D01*
G01X15230464Y-14870099D01*
G01X15237576Y-14867813D01*
G01X15260944Y-14867813D01*
G01X15237576Y-14867813D02*
G01X15230464Y-14860701D01*
G01X15228178Y-14856129D01*
G01X15228178Y-14849271D01*
G01X15230464Y-14844445D01*
G01X15237576Y-14842159D01*
G01X15260944Y-14842159D01*
G01X15739900Y-14736700D02*
G01X15035900Y-14736700D01*
G01X15739900Y-15476700D02*
G01X15035900Y-15476700D01*
G01X15289900Y-14736700D02*
G01X15309622Y-14810304D01*
G01X15289900Y-14736700D02*
G01X15270178Y-14810304D01*
G01X15289900Y-15476700D02*
G01X15309622Y-15403097D01*
G01X15289900Y-15476700D02*
G01X15270178Y-15403097D01*
G01X15289900Y-14736700D02*
G01X15289900Y-14829459D01*
G01X15289900Y-15383941D02*
G01X15289900Y-15476700D01*
G01X14857372Y-3139481D02*
G01X14906394Y-3162595D01*
G01X14857372Y-3171993D02*
G01X14857372Y-3139481D01*
G01X14894710Y-3100619D02*
G01X14896996Y-3102905D01*
G01X14899282Y-3100619D01*
G01X14896996Y-3098333D01*
G01X14894710Y-3100619D01*
G01X14857372Y-3038389D02*
G01X14890138Y-3061757D01*
G01X14890138Y-3026705D01*
G01X14857372Y-3038389D02*
G01X14906394Y-3038389D01*
G01X14857372Y-2976159D02*
G01X14859658Y-2983017D01*
G01X14866770Y-2987843D01*
G01X14878454Y-2990129D01*
G01X14885312Y-2990129D01*
G01X14896996Y-2987843D01*
G01X14904108Y-2983017D01*
G01X14906394Y-2976159D01*
G01X14906394Y-2971587D01*
G01X14904108Y-2964475D01*
G01X14896996Y-2959903D01*
G01X14885312Y-2957363D01*
G01X14878454Y-2957363D01*
G01X14866770Y-2959903D01*
G01X14859658Y-2964475D01*
G01X14857372Y-2971587D01*
G01X14857372Y-2976159D01*
G01X14857372Y-2906817D02*
G01X14859658Y-2913675D01*
G01X14866770Y-2918501D01*
G01X14878454Y-2920787D01*
G01X14885312Y-2920787D01*
G01X14896996Y-2918501D01*
G01X14904108Y-2913675D01*
G01X14906394Y-2906817D01*
G01X14906394Y-2902245D01*
G01X14904108Y-2895133D01*
G01X14896996Y-2890561D01*
G01X14885312Y-2888021D01*
G01X14878454Y-2888021D01*
G01X14866770Y-2890561D01*
G01X14859658Y-2895133D01*
G01X14857372Y-2902245D01*
G01X14857372Y-2906817D01*
G01X14857372Y-2837475D02*
G01X14859658Y-2844333D01*
G01X14866770Y-2849159D01*
G01X14878454Y-2851445D01*
G01X14885312Y-2851445D01*
G01X14896996Y-2849159D01*
G01X14904108Y-2844333D01*
G01X14906394Y-2837475D01*
G01X14906394Y-2832903D01*
G01X14904108Y-2825791D01*
G01X14896996Y-2821219D01*
G01X14885312Y-2818679D01*
G01X14878454Y-2818679D01*
G01X14866770Y-2821219D01*
G01X14859658Y-2825791D01*
G01X14857372Y-2832903D01*
G01X14857372Y-2837475D01*
G01X14873628Y-2782103D02*
G01X14906394Y-2782103D01*
G01X14883026Y-2782103D02*
G01X14875914Y-2774991D01*
G01X14873628Y-2770419D01*
G01X14873628Y-2763561D01*
G01X14875914Y-2758735D01*
G01X14883026Y-2756449D01*
G01X14906394Y-2756449D01*
G01X14883026Y-2756449D02*
G01X14875914Y-2749337D01*
G01X14873628Y-2744765D01*
G01X14873628Y-2737907D01*
G01X14875914Y-2733081D01*
G01X14883026Y-2730795D01*
G01X14906394Y-2730795D01*
G01X14873628Y-2694219D02*
G01X14906394Y-2694219D01*
G01X14883026Y-2694219D02*
G01X14875914Y-2687107D01*
G01X14873628Y-2682535D01*
G01X14873628Y-2675677D01*
G01X14875914Y-2670851D01*
G01X14883026Y-2668565D01*
G01X14906394Y-2668565D01*
G01X14883026Y-2668565D02*
G01X14875914Y-2661453D01*
G01X14873628Y-2656881D01*
G01X14873628Y-2650023D01*
G01X14875914Y-2645197D01*
G01X14883026Y-2642911D01*
G01X14906394Y-2642911D01*
G01X15385350Y-2537452D02*
G01X14681350Y-2537452D01*
G01X15385350Y-3277452D02*
G01X14681350Y-3277452D01*
G01X14935350Y-2537452D02*
G01X14955072Y-2611056D01*
G01X14935350Y-2537452D02*
G01X14915628Y-2611056D01*
G01X14935350Y-3277452D02*
G01X14955072Y-3203849D01*
G01X14935350Y-3277452D02*
G01X14915628Y-3203849D01*
G01X14935350Y-2537452D02*
G01X14935350Y-2630211D01*
G01X14935350Y-3184693D02*
G01X14935350Y-3277452D01*
G01X21499278Y-2676271D02*
G01X21450256Y-2653157D01*
G01X21499278Y-2643759D02*
G01X21499278Y-2676271D01*
G01X21461940Y-2715133D02*
G01X21459654Y-2712847D01*
G01X21457368Y-2715133D01*
G01X21459654Y-2717419D01*
G01X21461940Y-2715133D01*
G01X21499278Y-2777363D02*
G01X21466512Y-2753995D01*
G01X21466512Y-2789047D01*
G01X21499278Y-2777363D02*
G01X21450256Y-2777363D01*
G01X21499278Y-2839593D02*
G01X21496992Y-2832735D01*
G01X21489880Y-2827909D01*
G01X21478196Y-2825623D01*
G01X21471338Y-2825623D01*
G01X21459654Y-2827909D01*
G01X21452542Y-2832735D01*
G01X21450256Y-2839593D01*
G01X21450256Y-2844165D01*
G01X21452542Y-2851277D01*
G01X21459654Y-2855849D01*
G01X21471338Y-2858389D01*
G01X21478196Y-2858389D01*
G01X21489880Y-2855849D01*
G01X21496992Y-2851277D01*
G01X21499278Y-2844165D01*
G01X21499278Y-2839593D01*
G01X21499278Y-2908935D02*
G01X21496992Y-2902077D01*
G01X21489880Y-2897251D01*
G01X21478196Y-2894965D01*
G01X21471338Y-2894965D01*
G01X21459654Y-2897251D01*
G01X21452542Y-2902077D01*
G01X21450256Y-2908935D01*
G01X21450256Y-2913507D01*
G01X21452542Y-2920619D01*
G01X21459654Y-2925191D01*
G01X21471338Y-2927731D01*
G01X21478196Y-2927731D01*
G01X21489880Y-2925191D01*
G01X21496992Y-2920619D01*
G01X21499278Y-2913507D01*
G01X21499278Y-2908935D01*
G01X21499278Y-2978277D02*
G01X21496992Y-2971419D01*
G01X21489880Y-2966593D01*
G01X21478196Y-2964307D01*
G01X21471338Y-2964307D01*
G01X21459654Y-2966593D01*
G01X21452542Y-2971419D01*
G01X21450256Y-2978277D01*
G01X21450256Y-2982849D01*
G01X21452542Y-2989961D01*
G01X21459654Y-2994533D01*
G01X21471338Y-2997073D01*
G01X21478196Y-2997073D01*
G01X21489880Y-2994533D01*
G01X21496992Y-2989961D01*
G01X21499278Y-2982849D01*
G01X21499278Y-2978277D01*
G01X21483022Y-3033649D02*
G01X21450256Y-3033649D01*
G01X21473624Y-3033649D02*
G01X21480736Y-3040761D01*
G01X21483022Y-3045333D01*
G01X21483022Y-3052191D01*
G01X21480736Y-3057017D01*
G01X21473624Y-3059303D01*
G01X21450256Y-3059303D01*
G01X21473624Y-3059303D02*
G01X21480736Y-3066415D01*
G01X21483022Y-3070987D01*
G01X21483022Y-3077845D01*
G01X21480736Y-3082671D01*
G01X21473624Y-3084957D01*
G01X21450256Y-3084957D01*
G01X21483022Y-3121533D02*
G01X21450256Y-3121533D01*
G01X21473624Y-3121533D02*
G01X21480736Y-3128645D01*
G01X21483022Y-3133217D01*
G01X21483022Y-3140075D01*
G01X21480736Y-3144901D01*
G01X21473624Y-3147187D01*
G01X21450256Y-3147187D01*
G01X21473624Y-3147187D02*
G01X21480736Y-3154299D01*
G01X21483022Y-3158871D01*
G01X21483022Y-3165729D01*
G01X21480736Y-3170555D01*
G01X21473624Y-3172841D01*
G01X21450256Y-3172841D01*
G01X20971300Y-3278300D02*
G01X21675300Y-3278300D01*
G01X20971300Y-2538300D02*
G01X21675300Y-2538300D01*
G01X21421300Y-3278300D02*
G01X21401578Y-3204696D01*
G01X21421300Y-3278300D02*
G01X21441022Y-3204696D01*
G01X21421300Y-2538300D02*
G01X21401578Y-2611904D01*
G01X21421300Y-2538300D02*
G01X21441022Y-2611904D01*
G01X21421300Y-3278300D02*
G01X21421300Y-3185541D01*
G01X21421300Y-2631059D02*
G01X21421300Y-2538300D01*
G04 Dimension End*

M02*

