G04 Layer: TopSolderMaskLayer*
G04 EasyEDA Pro v3.2.149.88089769, 2026-07-23 19:21:16*
G04 Gerber Generator version 0.3*
G04 Scale: 100 percent, Rotated: No, Reflected: No*
G04 Dimensions in millimeters*
G04 Leading zeros omitted, absolute positions, 4 integers and 5 decimals*
G04 Generated by one-click*
G04 Object Configs: Pad,Via,Track,Text,Image,Dimension,BoardOutline,BoardCutout,CopperFilled,SolidRegion,FPCStiffener,Line,PlaneZone,ComponentProperty,ComponentSilkscreen,TearDrop*
G04 Layer Configs: 1,2,3,4,5,6,7,8,9,10,11,13,14,71,72,73,74,75,76,77,78,79,80,81,82,83,84,85,86,87,88,89,56*
G04 Copper Areas: 0*
%FSLAX45Y45*%
%MOMM*%
%AMPolygonMacro1*4,1,8,5.08,1.905,5.08,-1.905,3.81,-3.175,-3.81,-3.175,-5.08,-1.905,-5.08,1.905,-3.81,3.175,3.81,3.175,5.08,1.905,0*%
%AMRoundRect*1,1,$1,$2,$3*1,1,$1,$4,$5*1,1,$1,0-$2,0-$3*1,1,$1,0-$4,0-$5*20,1,$1,$2,$3,$4,$5,0*20,1,$1,$4,$5,0-$2,0-$3,0*20,1,$1,0-$2,0-$3,0-$4,0-$5,0*20,1,$1,0-$4,0-$5,$2,$3,0*4,1,4,$2,$3,$4,$5,0-$2,0-$3,0-$4,0-$5,$2,$3,0*%
%ADD10R,0.65X1.7*%
%ADD11R,1.5X2.0*%
%ADD12C,1.0*%
%ADD13PolygonMacro1*%
%ADD14RoundRect,0.384X-0.895X0.21X0.895X0.21*%
%ADD15RoundRect,0.5095X-1.25X0.55X1.25X0.55*%
%ADD16RoundRect,0.5X-1.25X0.55X1.25X0.55*%
%ADD17RoundRect,0.5X-0.3X0.3X0.3X0.3*%
%ADD18R,2.0X4.0*%
%ADD19RoundRect,0.5X-0.55X-1.5X-0.55X1.5*%
%ADD20RoundRect,0.204X-0.5588X0.1778X0.5588X0.1778*%
%ADD21RoundRect,0.51X-2.245X0.255X2.245X0.255*%
%ADD22RoundRect,0.5X-0.55X-1.25X-0.55X1.25*%
%ADD23RoundRect,0.1016X-0.675X-0.705X-0.675X0.705*%
%ADD24RoundRect,0.1016X-0.705X0.67501X0.705X0.67501*%
%ADD25RoundRect,0.1016X-0.4X-0.4X-0.4X0.4*%
%ADD26RoundRect,0.1016X-0.535X0.3X0.535X0.3*%
%ADD27RoundRect,0.1016X-0.56627X0.68851X0.56627X0.68851*%
%ADD28R,4.0X2.0*%
%ADD29RoundRect,0.1016X-0.85X0.85X0.85X0.85*%
%ADD30C,1.8016*%
%ADD31RoundRect,0.1016X-0.68851X-0.56627X-0.68851X0.56627*%
%ADD32RoundRect,0.1016X-1.0X1.0X1.0X1.0*%
%ADD33C,2.1016*%
%ADD34O,7.0X4.2*%
%ADD35C,7.4196*%
G75*


G04 Pad Start*
G54D10*
G01X17255500Y-10617700D03*
G01X17128500Y-10617700D03*
G01X17001500Y-10617700D03*
G01X16874500Y-10617700D03*
G01X16874500Y-11347700D03*
G01X17001500Y-11347700D03*
G01X17128500Y-11347700D03*
G01X17255500Y-11347700D03*
G54D11*
G01X20291400Y-11920000D03*
G01X20521400Y-11920000D03*
G54D12*
G01X20140400Y-11478000D03*
G01X20267400Y-11478000D03*
G54D13*
G01X20521400Y-11287500D03*
G54D12*
G01X20775400Y-11478000D03*
G01X20902400Y-11478000D03*
G01X20140400Y-11351000D03*
G01X20267400Y-11351000D03*
G01X20775400Y-11351000D03*
G01X20902400Y-11351000D03*
G01X20267367Y-11231157D03*
G01X20140400Y-11224000D03*
G01X20775400Y-11224000D03*
G01X20902400Y-11224000D03*
G01X20646092Y-11101749D03*
G01X20140400Y-11097000D03*
G01X20267400Y-11097000D03*
G01X20394400Y-11097000D03*
G01X20521400Y-11097000D03*
G01X20775400Y-11097000D03*
G01X20902400Y-11097000D03*
G54D11*
G01X20751400Y-11920000D03*
G54D14*
G01X20216900Y-9992100D03*
G01X20216900Y-10119100D03*
G01X20216900Y-10246100D03*
G01X20216900Y-10373100D03*
G01X20216900Y-10500100D03*
G01X20216900Y-10627100D03*
G01X20216900Y-10754100D03*
G01X20711900Y-10754100D03*
G01X20711900Y-10627100D03*
G01X20711900Y-10500100D03*
G01X20711900Y-10373100D03*
G01X20711900Y-10246100D03*
G01X20711900Y-10119100D03*
G01X20711900Y-9992100D03*
G54D16*
G01X17552100Y-12773400D03*
G01X17992100Y-12773400D03*
G54D17*
G01X18576600Y-12773400D03*
G01X18296600Y-12773400D03*
G54D18*
G01X16613600Y-7378100D03*
G54D19*
G01X20648400Y-12303500D03*
G01X20648400Y-12863500D03*
G54D20*
G01X19309080Y-10106660D03*
G01X19309080Y-10172700D03*
G01X19309080Y-10238740D03*
G01X19502120Y-10238740D03*
G01X19502120Y-10106660D03*
G54D21*
G01X19137100Y-12773400D03*
G01X19897100Y-12773400D03*
G01X19137100Y-13027400D03*
G01X19897100Y-13027400D03*
G01X19137100Y-13281400D03*
G01X19897100Y-13281400D03*
G01X19137100Y-13535400D03*
G01X19897100Y-13535400D03*
G01X19137100Y-13789400D03*
G01X19897100Y-13789400D03*
G54D22*
G01X20775400Y-13387500D03*
G01X20775400Y-13827500D03*
G54D23*
G01X19443700Y-9790100D03*
G01X19443700Y-9590100D03*
G01X19683200Y-9904800D03*
G01X19683200Y-10104800D03*
G54D24*
G01X21156600Y-9994900D03*
G01X20956600Y-9994900D03*
G54D23*
G01X17255500Y-11843400D03*
G01X17255500Y-11643400D03*
G01X16874500Y-10182900D03*
G01X16874500Y-10382900D03*
G54D16*
G01X17958100Y-13789400D03*
G01X17518100Y-13789400D03*
G54D17*
G01X18296600Y-13789400D03*
G01X18576600Y-13789400D03*
G54D25*
G01X17792700Y-9671710D03*
G01X17792700Y-9911690D03*
G54D18*
G01X20164500Y-6270500D03*
G54D26*
G01X18259443Y-9693904D03*
G01X18259443Y-9883896D03*
G01X18506458Y-9788900D03*
G54D27*
G01X17321000Y-10296900D03*
G01X17121000Y-10296900D03*
G01X16945500Y-11630400D03*
G01X16745500Y-11630400D03*
G54D18*
G01X16471900Y-4508500D03*
G54D28*
G01X19977100Y-4864100D03*
G54D18*
G01X16422700Y-5197400D03*
G54D29*
G01X16894000Y-4662500D03*
G54D30*
G01X17148000Y-4662500D03*
G01X17402000Y-4662500D03*
G01X17656000Y-4662500D03*
G54D24*
G01X17321200Y-9956800D03*
G01X17121200Y-9956800D03*
G01X16927500Y-11861800D03*
G01X16727500Y-11861800D03*
G54D27*
G01X18485450Y-9255500D03*
G01X18285450Y-9255500D03*
G54D31*
G01X18806900Y-9826250D03*
G01X18806900Y-10026250D03*
G01X19113500Y-9831400D03*
G01X19113500Y-10031400D03*
G01X20459700Y-9269400D03*
G01X20459700Y-9069400D03*
G54D27*
G01X19877100Y-9791700D03*
G01X20077100Y-9791700D03*
G54D31*
G01X17117800Y-9479600D03*
G01X17117800Y-9679600D03*
G01X17371800Y-9679600D03*
G01X17371800Y-9479600D03*
G54D27*
G01X16295700Y-11861800D03*
G01X16495700Y-11861800D03*
G01X16089300Y-11861800D03*
G01X15889300Y-11861800D03*
G54D31*
G01X18046700Y-9691700D03*
G01X18046700Y-9891700D03*
G54D32*
G01X19316700Y-3898900D03*
G54D33*
G01X19570700Y-3898900D03*
G54D34*
G01X16116250Y-2832100D03*
G01X20689950Y-2837900D03*
G01X16109150Y-15080700D03*
G01X20681850Y-15093400D03*
G54D35*
G01X16103550Y-3822700D03*
G01X17629250Y-3824900D03*
G01X20675550Y-3822700D03*
G04 Pad End*

M02*

