G04 Layer: BottomLayer*
G04 EasyEDA Pro v3.2.149.88089769, 2026-07-23 19:21:16*
G04 Gerber Generator version 0.3*
G04 Scale: 100 percent, Rotated: No, Reflected: No*
G04 Dimensions in millimeters*
G04 Leading zeros omitted, absolute positions, 4 integers and 5 decimals*
G04 Generated by one-click*
G04 Object Configs: Pad,Via,Track,Text,Image,Dimension,BoardOutline,BoardCutout,CopperFilled,SolidRegion,FPCStiffener,Line,PlaneZone,ComponentProperty,ComponentSilkscreen,TearDrop*
G04 Layer Configs: 1,2,3,4,5,6,7,8,9,10,11,13,14,71,72,73,74,75,76,77,78,79,80,81,82,83,84,85,86,87,88,89,56*
G04 Copper Areas: 1*
%FSLAX45Y45*%
%MOMM*%
%ADD10C,1.0*%
%ADD11R,2.0X4.0*%
%ADD12O,7.0X4.2*%
%ADD13C,7.318*%
%ADD14C,0.6*%
%ADD15C,0.61*%
%ADD16C,0.254*%
%ADD17C,0.7636*%
%ADD18C,0.762*%
G75*


G04 Copper Start*
G36*
G01X15392654Y-2561654D02*
G01X21401346Y-2561654D01*
G01X21401346Y-15360346D01*
G01X15392654Y-15360346D01*
G01X15392654Y-13106800D01*
G01X16014246Y-13106800D01*
G01X16014246Y-13506800D01*
G01X16016199Y-13516617D01*
G01X16021760Y-13524940D01*
G01X16030083Y-13530501D01*
G01X16039900Y-13532454D01*
G01X16239900Y-13532454D01*
G01X16249717Y-13530501D01*
G01X16258040Y-13524940D01*
G01X16263601Y-13516617D01*
G01X16265554Y-13506800D01*
G01X16265554Y-13345154D01*
G01X16672549Y-13345154D01*
G01X16682476Y-13343847D01*
G01X16691726Y-13340015D01*
G01X16699670Y-13333920D01*
G01X19983965Y-10049625D01*
G01X19998563Y-10048054D01*
G01X20012242Y-10042720D01*
G01X20024050Y-10033994D01*
G01X20033166Y-10022484D01*
G01X20038954Y-10008991D01*
G01X20041013Y-9994454D01*
G01X20039198Y-9979884D01*
G01X20033636Y-9966296D01*
G01X20024714Y-9954635D01*
G01X20013053Y-9945714D01*
G01X19999465Y-9940152D01*
G01X19984895Y-9938337D01*
G01X19970358Y-9940395D01*
G01X19956865Y-9946183D01*
G01X19945355Y-9955299D01*
G01X19936629Y-9967107D01*
G01X19931295Y-9980786D01*
G01X19929724Y-9995384D01*
G01X16656663Y-13268446D01*
G01X16265554Y-13268446D01*
G01X16265554Y-13268446D01*
G01X16265554Y-13106800D01*
G01X16263601Y-13096983D01*
G01X16258040Y-13088660D01*
G01X16249717Y-13083099D01*
G01X16239900Y-13081146D01*
G01X16039900Y-13081146D01*
G01X16030083Y-13083099D01*
G01X16021760Y-13088660D01*
G01X16016199Y-13096983D01*
G01X16014246Y-13106800D01*
G01X15392654Y-13106800D01*
G01X15392654Y-8661400D01*
G01X15510696Y-8661400D01*
G01X15510696Y-9055100D01*
G01X15512649Y-9064917D01*
G01X15518210Y-9073240D01*
G01X15526533Y-9078801D01*
G01X15536350Y-9080754D01*
G01X15980850Y-9080754D01*
G01X15990667Y-9078801D01*
G01X15998990Y-9073240D01*
G01X16004551Y-9064917D01*
G01X16006504Y-9055100D01*
G01X16006504Y-8661400D01*
G01X16006504Y-8661400D01*
G01X16458946Y-8661400D01*
G01X16458946Y-9055100D01*
G01X16460899Y-9064917D01*
G01X16466460Y-9073240D01*
G01X16474783Y-9078801D01*
G01X16484600Y-9080754D01*
G01X17018000Y-9080754D01*
G01X17027817Y-9078801D01*
G01X17036140Y-9073240D01*
G01X17041701Y-9064917D01*
G01X17043654Y-9055100D01*
G01X17043654Y-8661400D01*
G01X17043654Y-8661400D01*
G01X17042388Y-8655035D01*
G01X17517296Y-8655035D01*
G01X17517296Y-9048735D01*
G01X17519249Y-9058552D01*
G01X17524810Y-9066875D01*
G01X17533133Y-9072436D01*
G01X17542950Y-9074389D01*
G01X17987450Y-9074389D01*
G01X17997267Y-9072436D01*
G01X18005590Y-9066875D01*
G01X18011151Y-9058552D01*
G01X18013104Y-9048735D01*
G01X18013104Y-8655035D01*
G01X18013104Y-8655035D01*
G01X18011151Y-8645218D01*
G01X18005590Y-8636895D01*
G01X17997267Y-8631334D01*
G01X17987450Y-8629381D01*
G01X17542950Y-8629381D01*
G01X17533133Y-8631334D01*
G01X17524810Y-8636895D01*
G01X17519249Y-8645218D01*
G01X17517296Y-8655035D01*
G01X17042388Y-8655035D01*
G01X17041701Y-8651583D01*
G01X17036140Y-8643260D01*
G01X17027817Y-8637699D01*
G01X17018000Y-8635746D01*
G01X16484600Y-8635746D01*
G01X16474783Y-8637699D01*
G01X16466460Y-8643260D01*
G01X16460899Y-8651583D01*
G01X16458946Y-8661400D01*
G01X16006504Y-8661400D01*
G01X16004551Y-8651583D01*
G01X15998990Y-8643260D01*
G01X15990667Y-8637699D01*
G01X15980850Y-8635746D01*
G01X15536350Y-8635746D01*
G01X15526533Y-8637699D01*
G01X15518210Y-8643260D01*
G01X15512649Y-8651583D01*
G01X15510696Y-8661400D01*
G01X15392654Y-8661400D01*
G01X15392654Y-7867077D01*
G01X16550108Y-7867077D01*
G01X16553247Y-7881844D01*
G01X16559770Y-7895459D01*
G01X16569311Y-7907159D01*
G01X16581336Y-7916287D01*
G01X16595170Y-7922332D01*
G01X17023719Y-8350881D01*
G01X17033380Y-8358810D01*
G01X17044402Y-8364701D01*
G01X17056362Y-8368329D01*
G01X17068800Y-8369554D01*
G01X19442692Y-8369554D01*
G01X20457646Y-9384508D01*
G01X20457646Y-11055485D01*
G01X20447025Y-11042648D01*
G01X20433853Y-11032448D01*
G01X20418767Y-11025377D01*
G01X20402499Y-11021781D01*
G01X20385839Y-11021832D01*
G01X20369593Y-11025529D01*
G01X20354551Y-11032691D01*
G01X20341441Y-11042973D01*
G01X20330900Y-11055875D01*
G01X20320322Y-11042937D01*
G01X20307161Y-11032637D01*
G01X20292060Y-11025478D01*
G01X20275756Y-11021809D01*
G01X20259044Y-11021809D01*
G01X20242740Y-11025478D01*
G01X20227639Y-11032637D01*
G01X20214478Y-11042937D01*
G01X20203900Y-11055875D01*
G01X20193250Y-11042866D01*
G01X20179989Y-11032531D01*
G01X20164774Y-11025380D01*
G01X20148355Y-11021765D01*
G01X20131543Y-11021866D01*
G01X20115168Y-11025677D01*
G01X20100040Y-11033011D01*
G01X20086904Y-11043504D01*
G01X20076411Y-11056640D01*
G01X20069077Y-11071768D01*
G01X20065266Y-11088143D01*
G01X20065165Y-11104955D01*
G01X20068780Y-11121374D01*
G01X20075931Y-11136589D01*
G01X20086266Y-11149850D01*
G01X20099275Y-11160500D01*
G01X20087521Y-11169895D01*
G01X20077860Y-11181429D01*
G01X20070672Y-11194648D01*
G01X20066242Y-11209028D01*
G01X20064746Y-11224000D01*
G01X20066242Y-11238972D01*
G01X20070672Y-11253352D01*
G01X20077860Y-11266570D01*
G01X20087521Y-11278105D01*
G01X20099275Y-11287500D01*
G01X20087521Y-11296895D01*
G01X20077860Y-11308429D01*
G01X20070672Y-11321648D01*
G01X20066242Y-11336028D01*
G01X20064746Y-11351000D01*
G01X20066242Y-11365972D01*
G01X20070672Y-11380352D01*
G01X20077860Y-11393570D01*
G01X20087521Y-11405105D01*
G01X20099275Y-11414500D01*
G01X20086266Y-11425150D01*
G01X20075931Y-11438411D01*
G01X20068780Y-11453626D01*
G01X20065165Y-11470045D01*
G01X20065266Y-11486857D01*
G01X20069077Y-11503232D01*
G01X20076411Y-11518360D01*
G01X20086904Y-11531495D01*
G01X20100040Y-11541989D01*
G01X20115168Y-11549322D01*
G01X20131543Y-11553134D01*
G01X20148355Y-11553235D01*
G01X20164774Y-11549620D01*
G01X20179989Y-11542469D01*
G01X20193250Y-11532134D01*
G01X20203900Y-11519125D01*
G01X20214550Y-11532134D01*
G01X20227811Y-11542469D01*
G01X20243026Y-11549620D01*
G01X20259445Y-11553235D01*
G01X20276257Y-11553134D01*
G01X20292632Y-11549322D01*
G01X20307760Y-11541989D01*
G01X20320895Y-11531495D01*
G01X20331389Y-11518360D01*
G01X20338722Y-11503232D01*
G01X20342534Y-11486857D01*
G01X20342635Y-11470045D01*
G01X20339020Y-11453626D01*
G01X20331869Y-11438411D01*
G01X20321534Y-11425150D01*
G01X20308525Y-11414500D01*
G01X20319835Y-11405535D01*
G01X20329237Y-11394586D01*
G01X20336388Y-11382051D01*
G01X20341029Y-11368385D01*
G01X20342991Y-11354088D01*
G01X20342202Y-11339677D01*
G01X20338691Y-11325679D01*
G01X20332585Y-11312602D01*
G01X20324108Y-11300923D01*
G01X20313567Y-11291065D01*
G01X20324566Y-11280672D01*
G01X20333277Y-11268297D01*
G01X20339350Y-11254436D01*
G01X20342543Y-11239643D01*
G01X20342728Y-11224511D01*
G01X20339898Y-11209645D01*
G01X20334165Y-11195639D01*
G01X20325760Y-11183055D01*
G01X20315018Y-11172395D01*
G01X20302369Y-11164087D01*
G01X20313327Y-11157118D01*
G01X20322932Y-11148379D01*
G01X20330900Y-11138125D01*
G01X20341478Y-11151063D01*
G01X20354639Y-11161363D01*
G01X20369740Y-11168522D01*
G01X20386044Y-11172191D01*
G01X20402756Y-11172191D01*
G01X20419060Y-11168522D01*
G01X20434161Y-11161363D01*
G01X20447322Y-11151063D01*
G01X20457900Y-11138125D01*
G01X20468092Y-11150682D01*
G01X20480720Y-11160786D01*
G01X20495208Y-11167975D01*
G01X20510892Y-11171921D01*
G01X20527057Y-11172442D01*
G01X20542963Y-11169516D01*
G01X20557884Y-11163276D01*
G01X20571137Y-11154006D01*
G01X20582117Y-11142132D01*
G01X20593010Y-11155655D01*
G01X20606700Y-11166339D01*
G01X20622465Y-11173619D01*
G01X20639475Y-11177113D01*
G01X20656833Y-11176637D01*
G01X20673625Y-11172215D01*
G01X20688967Y-11164080D01*
G01X20702050Y-11152662D01*
G01X20712185Y-11138562D01*
G01X20722089Y-11150680D01*
G01X20734275Y-11160500D01*
G01X20722521Y-11169895D01*
G01X20712860Y-11181429D01*
G01X20705672Y-11194648D01*
G01X20701242Y-11209028D01*
G01X20699746Y-11224000D01*
G01X20701242Y-11238972D01*
G01X20705672Y-11253352D01*
G01X20712860Y-11266570D01*
G01X20722521Y-11278105D01*
G01X20734275Y-11287500D01*
G01X20722521Y-11296895D01*
G01X20712860Y-11308429D01*
G01X20705672Y-11321648D01*
G01X20701242Y-11336028D01*
G01X20699746Y-11351000D01*
G01X20701242Y-11365972D01*
G01X20705672Y-11380352D01*
G01X20712860Y-11393570D01*
G01X20722521Y-11405105D01*
G01X20734275Y-11414500D01*
G01X20721266Y-11425150D01*
G01X20710931Y-11438411D01*
G01X20703780Y-11453626D01*
G01X20700165Y-11470045D01*
G01X20700266Y-11486857D01*
G01X20704077Y-11503232D01*
G01X20711411Y-11518360D01*
G01X20721904Y-11531495D01*
G01X20735040Y-11541989D01*
G01X20750168Y-11549322D01*
G01X20766543Y-11553134D01*
G01X20783355Y-11553235D01*
G01X20799774Y-11549620D01*
G01X20814989Y-11542469D01*
G01X20828250Y-11532134D01*
G01X20838900Y-11519125D01*
G01X20849550Y-11532134D01*
G01X20862811Y-11542469D01*
G01X20878026Y-11549620D01*
G01X20894445Y-11553235D01*
G01X20911257Y-11553134D01*
G01X20927632Y-11549322D01*
G01X20942760Y-11541989D01*
G01X20955895Y-11531495D01*
G01X20966389Y-11518360D01*
G01X20973722Y-11503232D01*
G01X20977534Y-11486857D01*
G01X20977635Y-11470045D01*
G01X20974020Y-11453626D01*
G01X20966869Y-11438411D01*
G01X20956534Y-11425150D01*
G01X20943525Y-11414500D01*
G01X20955278Y-11405105D01*
G01X20964940Y-11393570D01*
G01X20972128Y-11380352D01*
G01X20976558Y-11365972D01*
G01X20978054Y-11351000D01*
G01X20976558Y-11336028D01*
G01X20972128Y-11321648D01*
G01X20964940Y-11308429D01*
G01X20955278Y-11296895D01*
G01X20943525Y-11287500D01*
G01X20955278Y-11278105D01*
G01X20964940Y-11266570D01*
G01X20972128Y-11253352D01*
G01X20976558Y-11238972D01*
G01X20978054Y-11224000D01*
G01X20976558Y-11209028D01*
G01X20972128Y-11194648D01*
G01X20964940Y-11181429D01*
G01X20955278Y-11169895D01*
G01X20943525Y-11160500D01*
G01X20956534Y-11149850D01*
G01X20966869Y-11136589D01*
G01X20974020Y-11121374D01*
G01X20977635Y-11104955D01*
G01X20977534Y-11088143D01*
G01X20973722Y-11071768D01*
G01X20966389Y-11056640D01*
G01X20955895Y-11043504D01*
G01X20942760Y-11033011D01*
G01X20927632Y-11025677D01*
G01X20911257Y-11021866D01*
G01X20894445Y-11021765D01*
G01X20878026Y-11025380D01*
G01X20862811Y-11032531D01*
G01X20849550Y-11042866D01*
G01X20838900Y-11055875D01*
G01X20827921Y-11042547D01*
G01X20814205Y-11032056D01*
G01X20798468Y-11024949D01*
G01X20781529Y-11021595D01*
G01X20764271Y-11022169D01*
G01X20747593Y-11026641D01*
G01X20732363Y-11034779D01*
G01X20719376Y-11046159D01*
G01X20709307Y-11060187D01*
G01X20699069Y-11047741D01*
G01X20686428Y-11037745D01*
G01X20671957Y-11030654D01*
G01X20656312Y-11026788D01*
G01X20640203Y-11026324D01*
G01X20624362Y-11029283D01*
G01X20609506Y-11035529D01*
G01X20596311Y-11044780D01*
G01X20585374Y-11056617D01*
G01X20585154Y-11056270D01*
G01X20585154Y-9358100D01*
G01X20583929Y-9345662D01*
G01X20580301Y-9333702D01*
G01X20574409Y-9322680D01*
G01X20566481Y-9313019D01*
G01X19514181Y-8260719D01*
G01X19514181Y-8260719D01*
G01X19504520Y-8252790D01*
G01X19493498Y-8246899D01*
G01X19481538Y-8243271D01*
G01X19469100Y-8242046D01*
G01X17095208Y-8242046D01*
G01X16669381Y-7816219D01*
G01X16659720Y-7808290D01*
G01X16648698Y-7802399D01*
G01X16636738Y-7798771D01*
G01X16624300Y-7797546D01*
G01X16613600Y-7797546D01*
G01X16598609Y-7799334D01*
G01X16584459Y-7804596D01*
G01X16571942Y-7813038D01*
G01X16561762Y-7824187D01*
G01X16554489Y-7837416D01*
G01X16550530Y-7851985D01*
G01X16550108Y-7867077D01*
G01X15392654Y-7867077D01*
G01X15392654Y-6940550D01*
G01X15976346Y-6940550D01*
G01X15976346Y-7766050D01*
G01X15978299Y-7775867D01*
G01X15983860Y-7784190D01*
G01X15992183Y-7789751D01*
G01X16002000Y-7791704D01*
G01X16344900Y-7791704D01*
G01X16354717Y-7789751D01*
G01X16363040Y-7784190D01*
G01X16368601Y-7775867D01*
G01X16370554Y-7766050D01*
G01X16370554Y-7531100D01*
G01X17017746Y-7531100D01*
G01X17017746Y-8047788D01*
G01X17019699Y-8057605D01*
G01X17025260Y-8065928D01*
G01X17033583Y-8071489D01*
G01X17043400Y-8073442D01*
G01X19742174Y-8073442D01*
G01X19751991Y-8071489D01*
G01X19760314Y-8065928D01*
G01X19765875Y-8057605D01*
G01X19767828Y-8047788D01*
G01X19767828Y-7531100D01*
G01X19765875Y-7521283D01*
G01X19760314Y-7512960D01*
G01X19751991Y-7507399D01*
G01X19742174Y-7505446D01*
G01X17043400Y-7505446D01*
G01X17043400Y-7505446D01*
G01X17033583Y-7507399D01*
G01X17025260Y-7512960D01*
G01X17019699Y-7521283D01*
G01X17017746Y-7531100D01*
G01X16370554Y-7531100D01*
G01X16370554Y-6944782D01*
G01X20415010Y-6944782D01*
G01X20415010Y-7770282D01*
G01X20416963Y-7780100D01*
G01X20422524Y-7788423D01*
G01X20430847Y-7793984D01*
G01X20440664Y-7795936D01*
G01X20783564Y-7795936D01*
G01X20793381Y-7793984D01*
G01X20801704Y-7788423D01*
G01X20807265Y-7780100D01*
G01X20809218Y-7770282D01*
G01X20809218Y-6944782D01*
G01X20807265Y-6934965D01*
G01X20801704Y-6926642D01*
G01X20793381Y-6921081D01*
G01X20783564Y-6919128D01*
G01X20440664Y-6919128D01*
G01X20440664Y-6919128D01*
G01X20430847Y-6921081D01*
G01X20422524Y-6926642D01*
G01X20416963Y-6934965D01*
G01X20415010Y-6944782D01*
G01X16370554Y-6944782D01*
G01X16370554Y-6940550D01*
G01X16368601Y-6930733D01*
G01X16363040Y-6922410D01*
G01X16354717Y-6916849D01*
G01X16344900Y-6914896D01*
G01X16002000Y-6914896D01*
G01X16002000Y-6914896D01*
G01X15992183Y-6916849D01*
G01X15983860Y-6922410D01*
G01X15978299Y-6930733D01*
G01X15976346Y-6940550D01*
G01X15392654Y-6940550D01*
G01X15392654Y-5867400D01*
G01X15976346Y-5867400D01*
G01X15976346Y-6692900D01*
G01X15978299Y-6702717D01*
G01X15983860Y-6711040D01*
G01X15992183Y-6716601D01*
G01X16002000Y-6718554D01*
G01X16344900Y-6718554D01*
G01X16354717Y-6716601D01*
G01X16363040Y-6711040D01*
G01X16368601Y-6702717D01*
G01X16370554Y-6692900D01*
G01X16370554Y-5867400D01*
G01X16368601Y-5857583D01*
G01X16363040Y-5849260D01*
G01X16354717Y-5843699D01*
G01X16344900Y-5841746D01*
G01X16002000Y-5841746D01*
G01X16002000Y-5841746D01*
G01X15992183Y-5843699D01*
G01X15983860Y-5849260D01*
G01X15978299Y-5857583D01*
G01X15976346Y-5867400D01*
G01X15392654Y-5867400D01*
G01X15392654Y-5604712D01*
G01X17024072Y-5604712D01*
G01X17024072Y-6121400D01*
G01X17026025Y-6131217D01*
G01X17031586Y-6139540D01*
G01X17039909Y-6145101D01*
G01X17049726Y-6147054D01*
G01X19748500Y-6147054D01*
G01X19758317Y-6145101D01*
G01X19766640Y-6139540D01*
G01X19772201Y-6131217D01*
G01X19774154Y-6121400D01*
G01X19774154Y-5871632D01*
G01X20415010Y-5871632D01*
G01X20415010Y-6697132D01*
G01X20416963Y-6706950D01*
G01X20422524Y-6715273D01*
G01X20430847Y-6720834D01*
G01X20440664Y-6722786D01*
G01X20783564Y-6722786D01*
G01X20793381Y-6720834D01*
G01X20801704Y-6715273D01*
G01X20807265Y-6706950D01*
G01X20809218Y-6697132D01*
G01X20809218Y-5871632D01*
G01X20807265Y-5861815D01*
G01X20801704Y-5853492D01*
G01X20793381Y-5847931D01*
G01X20783564Y-5845978D01*
G01X20440664Y-5845978D01*
G01X20440664Y-5845978D01*
G01X20430847Y-5847931D01*
G01X20422524Y-5853492D01*
G01X20416963Y-5861815D01*
G01X20415010Y-5871632D01*
G01X19774154Y-5871632D01*
G01X19774154Y-5604712D01*
G01X19772201Y-5594895D01*
G01X19766640Y-5586572D01*
G01X19758317Y-5581011D01*
G01X19748500Y-5579058D01*
G01X17049726Y-5579058D01*
G01X17049726Y-5579058D01*
G01X17039909Y-5581011D01*
G01X17031586Y-5586572D01*
G01X17026025Y-5594895D01*
G01X17024072Y-5604712D01*
G01X15392654Y-5604712D01*
G01X15392654Y-5010150D01*
G01X16566896Y-5010150D01*
G01X16566896Y-5403850D01*
G01X16568849Y-5413667D01*
G01X16574410Y-5421990D01*
G01X16582733Y-5427551D01*
G01X16592550Y-5429504D01*
G01X17037050Y-5429504D01*
G01X17046867Y-5427551D01*
G01X17055190Y-5421990D01*
G01X17060751Y-5413667D01*
G01X17062704Y-5403850D01*
G01X17062704Y-5010150D01*
G01X17062704Y-5010150D01*
G01X17060751Y-5000333D01*
G01X17055190Y-4992010D01*
G01X17046867Y-4986449D01*
G01X17037050Y-4984496D01*
G01X16592550Y-4984496D01*
G01X16582733Y-4986449D01*
G01X16574410Y-4992010D01*
G01X16568849Y-5000333D01*
G01X16566896Y-5010150D01*
G01X15392654Y-5010150D01*
G01X15392654Y-4306706D01*
G01X15838762Y-4306706D01*
G01X15838762Y-4700406D01*
G01X15840715Y-4710224D01*
G01X15846276Y-4718547D01*
G01X15854599Y-4724108D01*
G01X15864416Y-4726060D01*
G01X16308916Y-4726060D01*
G01X16318733Y-4724108D01*
G01X16327056Y-4718547D01*
G01X16332617Y-4710224D01*
G01X16334570Y-4700406D01*
G01X16334570Y-4306706D01*
G01X16334570Y-4306706D01*
G01X16332617Y-4296889D01*
G01X16327056Y-4288566D01*
G01X16323590Y-4286250D01*
G01X19729196Y-4286250D01*
G01X19729196Y-4679950D01*
G01X19731149Y-4689767D01*
G01X19736710Y-4698090D01*
G01X19745033Y-4703651D01*
G01X19754850Y-4705604D01*
G01X20199350Y-4705604D01*
G01X20209167Y-4703651D01*
G01X20217490Y-4698090D01*
G01X20223051Y-4689767D01*
G01X20225004Y-4679950D01*
G01X20225004Y-4286250D01*
G01X20225004Y-4286250D01*
G01X20223051Y-4276433D01*
G01X20217490Y-4268110D01*
G01X20209167Y-4262549D01*
G01X20199350Y-4260596D01*
G01X19754850Y-4260596D01*
G01X19745033Y-4262549D01*
G01X19736710Y-4268110D01*
G01X19731149Y-4276433D01*
G01X19729196Y-4286250D01*
G01X16323590Y-4286250D01*
G01X16318733Y-4283005D01*
G01X16308916Y-4281052D01*
G01X15864416Y-4281052D01*
G01X15854599Y-4283005D01*
G01X15846276Y-4288566D01*
G01X15840715Y-4296889D01*
G01X15838762Y-4306706D01*
G01X15392654Y-4306706D01*
G01X15392654Y-2561654D01*
G37*
G04 Copper End*

G04 Pad Start*
G54D10*
G01X20140400Y-11478000D03*
G01X20267400Y-11478000D03*
G01X20775400Y-11478000D03*
G01X20902400Y-11478000D03*
G01X20140400Y-11351000D03*
G01X20267400Y-11351000D03*
G01X20775400Y-11351000D03*
G01X20902400Y-11351000D03*
G01X20267367Y-11231157D03*
G01X20140400Y-11224000D03*
G01X20775400Y-11224000D03*
G01X20902400Y-11224000D03*
G01X20646092Y-11101749D03*
G01X20140400Y-11097000D03*
G01X20267400Y-11097000D03*
G01X20394400Y-11097000D03*
G01X20521400Y-11097000D03*
G01X20775400Y-11097000D03*
G01X20902400Y-11097000D03*
G54D11*
G01X16139900Y-13306800D03*
G54D12*
G01X16116250Y-2832100D03*
G01X20689950Y-2837900D03*
G01X16109150Y-15080700D03*
G01X20681850Y-15093400D03*
G54D13*
G01X16103550Y-3822700D03*
G01X17629250Y-3824900D03*
G01X20675550Y-3822700D03*
G04 Pad End*

G04 Via Start*
G54D14*
G01X19264100Y-9585700D03*
G01X20019900Y-10754100D03*
G01X17255500Y-12011400D03*
G01X17738100Y-13789400D03*
G01X20648400Y-13155000D03*
G01X19516100Y-13281400D03*
G01X18754100Y-13027400D03*
G01X16874500Y-10042900D03*
G01X20775400Y-14081500D03*
G01X18262600Y-9994900D03*
G01X18754100Y-13535400D03*
G01X20278100Y-13281400D03*
G01X20278100Y-13535400D03*
G01X17536900Y-12608300D03*
G01X19683200Y-9725400D03*
G01X16874500Y-11185900D03*
G01X19516100Y-13027400D03*
G01X19516100Y-13535400D03*
G01X18754100Y-13281400D03*
G01X20278100Y-13027400D03*
G01X20286450Y-12093950D03*
G01X21302600Y-9992100D03*
G01X17001500Y-10804900D03*
G01X19340300Y-10322300D03*
G01X19985361Y-9993989D03*
G01X21132800Y-6985000D03*
G01X18338800Y-6794500D03*
G01X18796000Y-8597900D03*
G01X19050000Y-10820400D03*
G01X18389600Y-11874500D03*
G54D15*
G01X16613600Y-7861300D03*
G54D14*
G01X15913100Y-9512300D03*
G01X15913100Y-11099800D03*
G01X16459200Y-8293100D03*
G01X16090900Y-5448300D03*
G01X15760700Y-4914900D03*
G01X17373600Y-4978400D03*
G01X17868900Y-5346700D03*
G01X20764500Y-4470400D03*
G01X15913100Y-14287500D03*
G01X20815300Y-14478000D03*
G01X16637000Y-12534900D03*
G01X19710400Y-10439400D03*
G01X20281900Y-9791700D03*
G01X21069300Y-10477500D03*
G01X20396200Y-10604500D03*
G01X20370800Y-8255000D03*
G01X18516600Y-4876800D03*
G01X19367500Y-5334000D03*
G01X19354800Y-4597400D03*
G01X17716500Y-11582400D03*
G01X17221200Y-9207500D03*
G01X17208500Y-8597900D03*
G01X16814800Y-5651500D03*
G01X20164500Y-5965900D03*
G04 Via End*

G04 Track Start*
G54D16*
G01X16672549Y-13306800D02*
G01X19985361Y-9993989D01*
G54D18*
G01X20521400Y-11097000D02*
G01X20521400Y-9358100D01*
G01X19469100Y-8305800D02*
G01X17068800Y-8305800D01*
G01X16624300Y-7861300D01*
G01X16613600Y-7861300D01*
G01X20521400Y-9358100D02*
G01X19469100Y-8305800D01*
G54D16*
G01X16139900Y-13306800D02*
G01X16672549Y-13306800D01*
G04 Track End*

M02*

