G04 Layer: TopLayer*
G04 EasyEDA Pro v3.2.149.88089769, 2026-07-23 19:21:16*
G04 Gerber Generator version 0.3*
G04 Scale: 100 percent, Rotated: No, Reflected: No*
G04 Dimensions in millimeters*
G04 Leading zeros omitted, absolute positions, 4 integers and 5 decimals*
G04 Generated by one-click*
G04 Object Configs: Pad,Via,Track,Text,Image,Dimension,BoardOutline,BoardCutout,CopperFilled,SolidRegion,FPCStiffener,Line,PlaneZone,ComponentProperty,ComponentSilkscreen,TearDrop*
G04 Layer Configs: 1,2,3,4,5,6,7,8,9,10,11,13,14,71,72,73,74,75,76,77,78,79,80,81,82,83,84,85,86,87,88,89,56*
G04 Copper Areas: 113*
%FSLAX45Y45*%
%MOMM*%
%AMPolygonMacro1*4,1,8,5.08,1.905,5.08,-1.905,3.81,-3.175,-3.81,-3.175,-5.08,-1.905,-5.08,1.905,-3.81,3.175,3.81,3.175,5.08,1.905,0*%
%AMRoundRect*1,1,$1,$2,$3*1,1,$1,$4,$5*1,1,$1,0-$2,0-$3*1,1,$1,0-$4,0-$5*20,1,$1,$2,$3,$4,$5,0*20,1,$1,$4,$5,0-$2,0-$3,0*20,1,$1,0-$2,0-$3,0-$4,0-$5,0*20,1,$1,0-$4,0-$5,$2,$3,0*4,1,4,$2,$3,$4,$5,0-$2,0-$3,0-$4,0-$5,$2,$3,0*%
%ADD10C,0.5*%
%ADD11R,0.65X1.7*%
%ADD12R,1.5X2.0*%
%ADD13C,1.0*%
%ADD14PolygonMacro1*%
%ADD15RoundRect,0.1843X-0.895X0.21X0.895X0.21*%
%ADD16RoundRect,0.18X-0.895X0.21X0.895X0.21*%
%ADD17RoundRect,0.5X-1.25X0.55X1.25X0.55*%
%ADD18RoundRect,0.5X-0.3X0.3X0.3X0.3*%
%ADD19R,2.0X4.0*%
%ADD20RoundRect,0.5X-0.55X-1.5X-0.55X1.5*%
%ADD21R,1.1176X0.3556*%
%ADD22RoundRect,0.51X-2.245X0.255X2.245X0.255*%
%ADD23RoundRect,0.5X-0.55X-1.25X-0.55X1.25*%
%ADD24R,1.35001X1.41*%
%ADD25R,1.41X1.35001*%
%ADD26R,0.8X0.8*%
%ADD27R,1.07X0.6*%
%ADD28R,1.13254X1.37701*%
%ADD29R,4.0X2.0*%
%ADD30R,1.7X1.7*%
%ADD31C,1.7*%
%ADD32R,1.37701X1.13254*%
%ADD33R,2.0X2.0*%
%ADD34C,2.0*%
%ADD35O,7.0X4.2*%
%ADD36C,7.318*%
%ADD37C,0.6*%
%ADD38C,0.61*%
%ADD39C,0.508*%
%ADD40C,0.254*%
%ADD41C,0.762*%
G75*


G04 Copper Start*
G36*
G01X20306668Y-12902368D02*
G01X20308732Y-12904032D01*
G01X20401468Y-12996768D01*
G01X20404817Y-13002900D01*
G01X20405100Y-13005536D01*
G01X20405100Y-13557264D01*
G01X20403131Y-13563968D01*
G01X20401468Y-13566032D01*
G01X20308732Y-13658768D01*
G01X20302599Y-13662117D01*
G01X20299964Y-13662400D01*
G01X18732236Y-13662400D01*
G01X18725532Y-13660431D01*
G01X18723468Y-13658768D01*
G01X18630732Y-13566032D01*
G01X18627657Y-13560400D01*
G01X18887100Y-13560400D01*
G01X18887100Y-13563411D01*
G01X18888579Y-13570850D01*
G01X18888580Y-13570850D01*
G01X18894215Y-13579284D01*
G01X18902650Y-13584921D01*
G01X18902651Y-13584921D01*
G01X18910088Y-13586400D01*
G01X19112100Y-13586400D01*
G01X19112100Y-13560400D01*
G01X19162100Y-13560400D01*
G01X19162100Y-13586400D01*
G01X19364111Y-13586400D01*
G01X19371550Y-13584921D01*
G01X19371550Y-13584920D01*
G01X19379984Y-13579284D01*
G01X19385620Y-13570849D01*
G01X19385621Y-13570849D01*
G01X19387100Y-13563412D01*
G01X19387100Y-13563412D01*
G01X19387100Y-13560400D01*
G01X19647100Y-13560400D01*
G01X19647100Y-13563411D01*
G01X19648579Y-13570850D01*
G01X19648580Y-13570850D01*
G01X19654215Y-13579284D01*
G01X19662650Y-13584921D01*
G01X19662651Y-13584921D01*
G01X19670088Y-13586400D01*
G01X19872100Y-13586400D01*
G01X19872100Y-13560400D01*
G01X19922100Y-13560400D01*
G01X19922100Y-13586400D01*
G01X20124111Y-13586400D01*
G01X20131550Y-13584921D01*
G01X20131550Y-13584920D01*
G01X20139984Y-13579284D01*
G01X20145620Y-13570849D01*
G01X20145621Y-13570849D01*
G01X20147100Y-13563412D01*
G01X20147100Y-13563412D01*
G01X20147100Y-13560400D01*
G01X19922100Y-13560400D01*
G01X19872100Y-13560400D01*
G01X19647100Y-13560400D01*
G01X19387100Y-13560400D01*
G01X19162100Y-13560400D01*
G01X19112100Y-13560400D01*
G01X18887100Y-13560400D01*
G01X18627657Y-13560400D01*
G01X18627383Y-13559899D01*
G01X18627100Y-13557264D01*
G01X18627100Y-13510400D01*
G01X18887100Y-13510400D01*
G01X19112100Y-13510400D01*
G01X19112100Y-13484400D01*
G01X19162100Y-13484400D01*
G01X19162100Y-13510400D01*
G01X19387100Y-13510400D01*
G01X19647100Y-13510400D01*
G01X19872100Y-13510400D01*
G01X19872100Y-13484400D01*
G01X19922100Y-13484400D01*
G01X19922100Y-13510400D01*
G01X20147100Y-13510400D01*
G01X20147100Y-13507389D01*
G01X20145620Y-13499950D01*
G01X20145620Y-13499950D01*
G01X20139984Y-13491516D01*
G01X20131550Y-13485880D01*
G01X20131549Y-13485879D01*
G01X20124112Y-13484400D01*
G01X19922100Y-13484400D01*
G01X19872100Y-13484400D01*
G01X19670089Y-13484400D01*
G01X19662650Y-13485880D01*
G01X19662650Y-13485880D01*
G01X19654215Y-13491516D01*
G01X19648579Y-13499950D01*
G01X19648579Y-13499951D01*
G01X19647100Y-13507388D01*
G01X19647100Y-13510400D01*
G01X19387100Y-13510400D01*
G01X19387100Y-13507389D01*
G01X19385620Y-13499950D01*
G01X19385620Y-13499950D01*
G01X19379984Y-13491516D01*
G01X19371550Y-13485880D01*
G01X19371549Y-13485879D01*
G01X19364112Y-13484400D01*
G01X19162100Y-13484400D01*
G01X19112100Y-13484400D01*
G01X18910089Y-13484400D01*
G01X18902650Y-13485880D01*
G01X18902650Y-13485880D01*
G01X18894215Y-13491516D01*
G01X18888579Y-13499950D01*
G01X18888579Y-13499951D01*
G01X18887100Y-13507388D01*
G01X18887100Y-13510400D01*
G01X18627100Y-13510400D01*
G01X18627100Y-13306400D01*
G01X18887100Y-13306400D01*
G01X18887100Y-13309411D01*
G01X18888579Y-13316850D01*
G01X18888580Y-13316850D01*
G01X18894215Y-13325284D01*
G01X18902650Y-13330921D01*
G01X18902651Y-13330921D01*
G01X18910088Y-13332400D01*
G01X19112100Y-13332400D01*
G01X19112100Y-13306400D01*
G01X19162100Y-13306400D01*
G01X19162100Y-13332400D01*
G01X19364111Y-13332400D01*
G01X19371550Y-13330921D01*
G01X19371550Y-13330920D01*
G01X19379984Y-13325284D01*
G01X19385620Y-13316849D01*
G01X19385621Y-13316849D01*
G01X19387100Y-13309412D01*
G01X19387100Y-13309412D01*
G01X19387100Y-13306400D01*
G01X19647100Y-13306400D01*
G01X19647100Y-13309411D01*
G01X19648579Y-13316850D01*
G01X19648580Y-13316850D01*
G01X19654215Y-13325284D01*
G01X19662650Y-13330921D01*
G01X19662651Y-13330921D01*
G01X19670088Y-13332400D01*
G01X19872100Y-13332400D01*
G01X19872100Y-13306400D01*
G01X19922100Y-13306400D01*
G01X19922100Y-13332400D01*
G01X20124111Y-13332400D01*
G01X20131550Y-13330921D01*
G01X20131550Y-13330920D01*
G01X20139984Y-13325284D01*
G01X20145620Y-13316849D01*
G01X20145621Y-13316849D01*
G01X20147100Y-13309412D01*
G01X20147100Y-13309412D01*
G01X20147100Y-13306400D01*
G01X19922100Y-13306400D01*
G01X19872100Y-13306400D01*
G01X19647100Y-13306400D01*
G01X19387100Y-13306400D01*
G01X19162100Y-13306400D01*
G01X19112100Y-13306400D01*
G01X18887100Y-13306400D01*
G01X18627100Y-13306400D01*
G01X18627100Y-13256400D01*
G01X18887100Y-13256400D01*
G01X19112100Y-13256400D01*
G01X19112100Y-13230400D01*
G01X19162100Y-13230400D01*
G01X19162100Y-13256400D01*
G01X19387100Y-13256400D01*
G01X19647100Y-13256400D01*
G01X19872100Y-13256400D01*
G01X19872100Y-13230400D01*
G01X19922100Y-13230400D01*
G01X19922100Y-13256400D01*
G01X20147100Y-13256400D01*
G01X20147100Y-13253389D01*
G01X20145620Y-13245950D01*
G01X20145620Y-13245950D01*
G01X20139984Y-13237516D01*
G01X20131550Y-13231880D01*
G01X20131549Y-13231879D01*
G01X20124112Y-13230400D01*
G01X19922100Y-13230400D01*
G01X19872100Y-13230400D01*
G01X19670089Y-13230400D01*
G01X19662650Y-13231880D01*
G01X19662650Y-13231880D01*
G01X19654215Y-13237516D01*
G01X19648579Y-13245950D01*
G01X19648579Y-13245951D01*
G01X19647100Y-13253388D01*
G01X19647100Y-13256400D01*
G01X19387100Y-13256400D01*
G01X19387100Y-13253389D01*
G01X19385620Y-13245950D01*
G01X19385620Y-13245950D01*
G01X19379984Y-13237516D01*
G01X19371550Y-13231880D01*
G01X19371549Y-13231879D01*
G01X19364112Y-13230400D01*
G01X19162100Y-13230400D01*
G01X19112100Y-13230400D01*
G01X18910089Y-13230400D01*
G01X18902650Y-13231880D01*
G01X18902650Y-13231880D01*
G01X18894215Y-13237516D01*
G01X18888579Y-13245950D01*
G01X18888579Y-13245951D01*
G01X18887100Y-13253388D01*
G01X18887100Y-13256400D01*
G01X18627100Y-13256400D01*
G01X18627100Y-13052400D01*
G01X18887100Y-13052400D01*
G01X18887100Y-13055411D01*
G01X18888579Y-13062850D01*
G01X18888580Y-13062850D01*
G01X18894215Y-13071284D01*
G01X18902650Y-13076921D01*
G01X18902651Y-13076921D01*
G01X18910088Y-13078400D01*
G01X19112100Y-13078400D01*
G01X19112100Y-13052400D01*
G01X19162100Y-13052400D01*
G01X19162100Y-13078400D01*
G01X19364111Y-13078400D01*
G01X19371550Y-13076921D01*
G01X19371550Y-13076920D01*
G01X19379984Y-13071284D01*
G01X19385620Y-13062849D01*
G01X19385621Y-13062849D01*
G01X19387100Y-13055412D01*
G01X19387100Y-13055412D01*
G01X19387100Y-13052400D01*
G01X19647100Y-13052400D01*
G01X19647100Y-13055411D01*
G01X19648579Y-13062850D01*
G01X19648580Y-13062850D01*
G01X19654215Y-13071284D01*
G01X19662650Y-13076921D01*
G01X19662651Y-13076921D01*
G01X19670088Y-13078400D01*
G01X19872100Y-13078400D01*
G01X19872100Y-13052400D01*
G01X19922100Y-13052400D01*
G01X19922100Y-13078400D01*
G01X20124111Y-13078400D01*
G01X20131550Y-13076921D01*
G01X20131550Y-13076920D01*
G01X20139984Y-13071284D01*
G01X20145620Y-13062849D01*
G01X20145621Y-13062849D01*
G01X20147100Y-13055412D01*
G01X20147100Y-13055412D01*
G01X20147100Y-13052400D01*
G01X19922100Y-13052400D01*
G01X19872100Y-13052400D01*
G01X19647100Y-13052400D01*
G01X19387100Y-13052400D01*
G01X19162100Y-13052400D01*
G01X19112100Y-13052400D01*
G01X18887100Y-13052400D01*
G01X18627100Y-13052400D01*
G01X18627100Y-13005536D01*
G01X18628021Y-13002400D01*
G01X18887100Y-13002400D01*
G01X19112100Y-13002400D01*
G01X19112100Y-12976400D01*
G01X19162100Y-12976400D01*
G01X19162100Y-13002400D01*
G01X19387100Y-13002400D01*
G01X19647100Y-13002400D01*
G01X19872100Y-13002400D01*
G01X19872100Y-12976400D01*
G01X19922100Y-12976400D01*
G01X19922100Y-13002400D01*
G01X20147100Y-13002400D01*
G01X20147100Y-12999389D01*
G01X20145620Y-12991950D01*
G01X20145620Y-12991950D01*
G01X20139984Y-12983516D01*
G01X20131550Y-12977880D01*
G01X20131549Y-12977879D01*
G01X20124112Y-12976400D01*
G01X19922100Y-12976400D01*
G01X19872100Y-12976400D01*
G01X19670089Y-12976400D01*
G01X19662650Y-12977880D01*
G01X19662650Y-12977880D01*
G01X19654215Y-12983516D01*
G01X19648579Y-12991950D01*
G01X19648579Y-12991951D01*
G01X19647100Y-12999388D01*
G01X19647100Y-13002400D01*
G01X19387100Y-13002400D01*
G01X19387100Y-12999389D01*
G01X19385620Y-12991950D01*
G01X19385620Y-12991950D01*
G01X19379984Y-12983516D01*
G01X19371550Y-12977880D01*
G01X19371549Y-12977879D01*
G01X19364112Y-12976400D01*
G01X19162100Y-12976400D01*
G01X19112100Y-12976400D01*
G01X18910089Y-12976400D01*
G01X18902650Y-12977880D01*
G01X18902650Y-12977880D01*
G01X18894215Y-12983516D01*
G01X18888579Y-12991950D01*
G01X18888579Y-12991951D01*
G01X18887100Y-12999388D01*
G01X18887100Y-13002400D01*
G01X18628021Y-13002400D01*
G01X18629068Y-12998832D01*
G01X18630732Y-12996768D01*
G01X18723468Y-12904032D01*
G01X18729600Y-12900683D01*
G01X18732236Y-12900400D01*
G01X20299964Y-12900400D01*
G01X20306668Y-12902368D01*
G37*
G36*
G01X15392654Y-2561654D02*
G01X21401346Y-2561654D01*
G01X21401346Y-15360346D01*
G01X15392654Y-15360346D01*
G01X15392654Y-15071886D01*
G01X15716540Y-15071886D01*
G01X15716540Y-15103314D01*
G01X15720479Y-15134493D01*
G01X15728294Y-15164933D01*
G01X15739863Y-15194153D01*
G01X15755004Y-15221693D01*
G01X15773476Y-15247118D01*
G01X15794989Y-15270027D01*
G01X15819204Y-15290060D01*
G01X15845739Y-15306899D01*
G01X15874175Y-15320280D01*
G01X15904064Y-15329992D01*
G01X15934935Y-15335881D01*
G01X15966300Y-15337854D01*
G01X16266300Y-15337854D01*
G01X16297665Y-15335881D01*
G01X16328536Y-15329992D01*
G01X16358425Y-15320280D01*
G01X16386861Y-15306899D01*
G01X16413396Y-15290060D01*
G01X16437611Y-15270027D01*
G01X16459124Y-15247118D01*
G01X16477596Y-15221693D01*
G01X16492737Y-15194153D01*
G01X16504306Y-15164933D01*
G01X16512121Y-15134493D01*
G01X16516060Y-15103314D01*
G01X16516060Y-15071886D01*
G01X16516060Y-15071886D01*
G01X20288540Y-15071886D01*
G01X20288540Y-15103314D01*
G01X20292479Y-15134493D01*
G01X20300294Y-15164933D01*
G01X20311863Y-15194153D01*
G01X20327004Y-15221693D01*
G01X20345476Y-15247118D01*
G01X20366989Y-15270027D01*
G01X20391204Y-15290060D01*
G01X20417739Y-15306899D01*
G01X20446175Y-15320280D01*
G01X20476064Y-15329992D01*
G01X20506935Y-15335881D01*
G01X20538300Y-15337854D01*
G01X20838300Y-15337854D01*
G01X20869665Y-15335881D01*
G01X20900536Y-15329992D01*
G01X20930425Y-15320280D01*
G01X20958861Y-15306899D01*
G01X20985396Y-15290060D01*
G01X21009611Y-15270027D01*
G01X21031124Y-15247118D01*
G01X21049596Y-15221693D01*
G01X21064737Y-15194153D01*
G01X21076306Y-15164933D01*
G01X21084121Y-15134493D01*
G01X21088060Y-15103314D01*
G01X21088060Y-15071886D01*
G01X21084121Y-15040707D01*
G01X21076306Y-15010267D01*
G01X21064737Y-14981047D01*
G01X21049596Y-14953507D01*
G01X21031124Y-14928082D01*
G01X21009611Y-14905173D01*
G01X20985396Y-14885140D01*
G01X20958861Y-14868301D01*
G01X20930425Y-14854920D01*
G01X20900536Y-14845208D01*
G01X20869665Y-14839319D01*
G01X20838300Y-14837346D01*
G01X20838300Y-14837346D01*
G01X20538300Y-14837346D01*
G01X20506935Y-14839319D01*
G01X20476064Y-14845208D01*
G01X20446175Y-14854920D01*
G01X20417739Y-14868301D01*
G01X20391204Y-14885140D01*
G01X20366989Y-14905173D01*
G01X20345476Y-14928082D01*
G01X20327004Y-14953507D01*
G01X20311863Y-14981047D01*
G01X20300294Y-15010267D01*
G01X20292479Y-15040707D01*
G01X20288540Y-15071886D01*
G01X16516060Y-15071886D01*
G01X16512121Y-15040707D01*
G01X16504306Y-15010267D01*
G01X16492737Y-14981047D01*
G01X16477596Y-14953507D01*
G01X16459124Y-14928082D01*
G01X16437611Y-14905173D01*
G01X16413396Y-14885140D01*
G01X16386861Y-14868301D01*
G01X16358425Y-14854920D01*
G01X16328536Y-14845208D01*
G01X16297665Y-14839319D01*
G01X16266300Y-14837346D01*
G01X16266300Y-14837346D01*
G01X15966300Y-14837346D01*
G01X15934935Y-14839319D01*
G01X15904064Y-14845208D01*
G01X15874175Y-14854920D01*
G01X15845739Y-14868301D01*
G01X15819204Y-14885140D01*
G01X15794989Y-14905173D01*
G01X15773476Y-14928082D01*
G01X15755004Y-14953507D01*
G01X15739863Y-14981047D01*
G01X15728294Y-15010267D01*
G01X15720479Y-15040707D01*
G01X15716540Y-15071886D01*
G01X15392654Y-15071886D01*
G01X15392654Y-13734400D01*
G01X17317846Y-13734400D01*
G01X17317846Y-13844400D01*
G01X17319733Y-13861145D01*
G01X17325298Y-13877051D01*
G01X17334264Y-13891320D01*
G01X17346180Y-13903236D01*
G01X17360448Y-13912201D01*
G01X17376354Y-13917767D01*
G01X17393100Y-13919654D01*
G01X17643100Y-13919654D01*
G01X17659845Y-13917767D01*
G01X17675751Y-13912201D01*
G01X17690020Y-13903236D01*
G01X17701936Y-13891320D01*
G01X17710901Y-13877051D01*
G01X17716467Y-13861145D01*
G01X17718354Y-13844400D01*
G01X17718354Y-13734400D01*
G01X17716467Y-13717654D01*
G01X17710901Y-13701748D01*
G01X17701936Y-13687480D01*
G01X17690020Y-13675564D01*
G01X17675751Y-13666598D01*
G01X17659845Y-13661033D01*
G01X17643100Y-13659146D01*
G01X17393100Y-13659146D01*
G01X17376354Y-13661033D01*
G01X17360448Y-13666598D01*
G01X17346180Y-13675564D01*
G01X17334264Y-13687480D01*
G01X17325298Y-13701748D01*
G01X17319733Y-13717654D01*
G01X17317846Y-13734400D01*
G01X17317846Y-13734400D01*
G01X15392654Y-13734400D01*
G01X15392654Y-8643713D01*
G01X15455296Y-8643713D01*
G01X15455296Y-9072787D01*
G01X15456603Y-9082714D01*
G01X15460434Y-9091964D01*
G01X15466530Y-9099907D01*
G01X15563596Y-9196974D01*
G01X15563596Y-9196974D01*
G01X15563596Y-11526600D01*
G01X15564903Y-11536527D01*
G01X15568734Y-11545777D01*
G01X15574830Y-11553720D01*
G01X15807796Y-11786686D01*
G01X15807019Y-11792949D01*
G01X15807019Y-11930651D01*
G01X15808972Y-11940468D01*
G01X15814533Y-11948791D01*
G01X15822856Y-11954352D01*
G01X15832673Y-11956305D01*
G01X15945927Y-11956305D01*
G01X15955744Y-11954352D01*
G01X15964067Y-11948791D01*
G01X15969628Y-11940468D01*
G01X15971581Y-11930651D01*
G01X15971581Y-11868213D01*
G01X15972704Y-11859000D01*
G01X15971581Y-11849787D01*
G01X15971581Y-11792949D01*
G01X16007019Y-11792949D01*
G01X16007019Y-11930651D01*
G01X16008972Y-11940468D01*
G01X16014533Y-11948791D01*
G01X16022856Y-11954352D01*
G01X16032673Y-11956305D01*
G01X16105764Y-11956305D01*
G01X16254280Y-12104820D01*
G01X16262223Y-12110916D01*
G01X16271473Y-12114747D01*
G01X16281400Y-12116054D01*
G01X16709200Y-12116054D01*
G01X16719126Y-12114747D01*
G01X16728377Y-12110916D01*
G01X16736320Y-12104820D01*
G01X16886186Y-11954954D01*
G01X16998000Y-11954954D01*
G01X16998000Y-11954954D01*
G01X17007817Y-11953002D01*
G01X17016140Y-11947441D01*
G01X17021701Y-11939118D01*
G01X17023654Y-11929300D01*
G01X17023654Y-11794299D01*
G01X17021701Y-11784482D01*
G01X17016140Y-11776159D01*
G01X17011261Y-11772899D01*
G01X17137746Y-11772899D01*
G01X17137746Y-11913900D01*
G01X17139458Y-11926907D01*
G01X17144478Y-11939027D01*
G01X17152465Y-11949435D01*
G01X17162872Y-11957421D01*
G01X17174993Y-11962442D01*
G01X17187999Y-11964154D01*
G01X17323000Y-11964154D01*
G01X17336007Y-11962442D01*
G01X17348127Y-11957421D01*
G01X17358535Y-11949435D01*
G01X17366522Y-11939027D01*
G01X17371542Y-11926907D01*
G01X17373254Y-11913900D01*
G01X17373254Y-11779506D01*
G01X17400330Y-11806582D01*
G01X17400330Y-12106335D01*
G01X17223482Y-12283182D01*
G01X17223482Y-12283182D01*
G01X17215432Y-12293673D01*
G01X17210372Y-12305890D01*
G01X17208646Y-12319000D01*
G01X17208646Y-13090600D01*
G01X17210372Y-13103710D01*
G01X17215432Y-13115927D01*
G01X17223482Y-13126418D01*
G01X17796474Y-13699409D01*
G01X17788852Y-13709744D01*
G01X17784074Y-13721662D01*
G01X17782446Y-13734400D01*
G01X17782446Y-13844400D01*
G01X17784172Y-13857510D01*
G01X17789232Y-13869727D01*
G01X17797282Y-13880218D01*
G01X17807773Y-13888268D01*
G01X17819990Y-13893328D01*
G01X17833100Y-13895054D01*
G01X18083100Y-13895054D01*
G01X18096210Y-13893328D01*
G01X18108427Y-13888268D01*
G01X18118918Y-13880218D01*
G01X18126968Y-13869727D01*
G01X18132028Y-13857510D01*
G01X18133754Y-13844400D01*
G01X18133754Y-13840454D01*
G01X18220529Y-13840454D01*
G01X18226493Y-13850340D01*
G01X18234541Y-13858618D01*
G01X18244255Y-13864859D01*
G01X18255129Y-13868738D01*
G01X18266600Y-13870054D01*
G01X18305053Y-13870054D01*
G01X18616099Y-14181101D01*
G01X18626673Y-14189214D01*
G01X18638986Y-14194314D01*
G01X18652200Y-14196054D01*
G01X20017900Y-14196054D01*
G01X20031114Y-14194314D01*
G01X20043427Y-14189214D01*
G01X20054001Y-14181101D01*
G01X20532601Y-13702500D01*
G01X20645146Y-13702500D01*
G01X20645146Y-13952500D01*
G01X20647033Y-13969246D01*
G01X20652598Y-13985152D01*
G01X20661564Y-13999420D01*
G01X20673480Y-14011336D01*
G01X20687748Y-14020302D01*
G01X20703654Y-14025867D01*
G01X20720400Y-14027754D01*
G01X20720400Y-14027754D01*
G01X20830400Y-14027754D01*
G01X20847145Y-14025867D01*
G01X20863051Y-14020302D01*
G01X20877320Y-14011336D01*
G01X20889236Y-13999420D01*
G01X20898201Y-13985152D01*
G01X20903767Y-13969246D01*
G01X20905654Y-13952500D01*
G01X20905654Y-13702500D01*
G01X20903767Y-13685755D01*
G01X20898201Y-13669849D01*
G01X20889236Y-13655580D01*
G01X20877320Y-13643664D01*
G01X20863051Y-13634699D01*
G01X20847145Y-13629133D01*
G01X20830400Y-13627246D01*
G01X20720400Y-13627246D01*
G01X20703654Y-13629133D01*
G01X20687748Y-13634699D01*
G01X20673480Y-13643664D01*
G01X20661564Y-13655580D01*
G01X20652598Y-13669849D01*
G01X20647033Y-13685755D01*
G01X20645146Y-13702500D01*
G01X20532601Y-13702500D01*
G01X20685700Y-13549402D01*
G01X20695977Y-13556877D01*
G01X20707792Y-13561560D01*
G01X20720400Y-13563154D01*
G01X20830400Y-13563154D01*
G01X20843510Y-13561428D01*
G01X20855727Y-13556368D01*
G01X20866218Y-13548318D01*
G01X20874268Y-13537827D01*
G01X20879328Y-13525610D01*
G01X20881054Y-13512500D01*
G01X20881054Y-13354047D01*
G01X21192501Y-13042601D01*
G01X21200614Y-13032027D01*
G01X21205714Y-13019714D01*
G01X21207454Y-13006500D01*
G01X21207454Y-12325000D01*
G01X21205714Y-12311786D01*
G01X21200614Y-12299473D01*
G01X21192501Y-12288899D01*
G01X20852054Y-11948453D01*
G01X20852054Y-11820000D01*
G01X20850101Y-11810183D01*
G01X20844540Y-11801860D01*
G01X20836217Y-11796299D01*
G01X20826400Y-11794346D01*
G01X20676400Y-11794346D01*
G01X20666583Y-11796299D01*
G01X20658260Y-11801860D01*
G01X20652699Y-11810183D01*
G01X20650746Y-11820000D01*
G01X20650746Y-12020000D01*
G01X20652699Y-12029817D01*
G01X20658260Y-12038140D01*
G01X20666583Y-12043701D01*
G01X20676400Y-12045654D01*
G01X20804853Y-12045654D01*
G01X21105346Y-12346147D01*
G01X21105346Y-12985353D01*
G01X20865100Y-13225599D01*
G01X20854823Y-13218123D01*
G01X20843008Y-13213440D01*
G01X20830400Y-13211846D01*
G01X20720400Y-13211846D01*
G01X20707290Y-13213572D01*
G01X20695073Y-13218632D01*
G01X20684582Y-13226682D01*
G01X20676532Y-13237173D01*
G01X20671472Y-13249390D01*
G01X20669746Y-13262500D01*
G01X20669746Y-13420953D01*
G01X19996753Y-14093946D01*
G01X18673347Y-14093946D01*
G01X18377254Y-13797853D01*
G01X18377254Y-13759400D01*
G01X18495946Y-13759400D01*
G01X18495946Y-13819400D01*
G01X18497672Y-13832510D01*
G01X18502732Y-13844727D01*
G01X18510782Y-13855218D01*
G01X18521273Y-13863268D01*
G01X18533490Y-13868328D01*
G01X18546600Y-13870054D01*
G01X18606600Y-13870054D01*
G01X18618070Y-13868738D01*
G01X18628945Y-13864859D01*
G01X18638659Y-13858618D01*
G01X18646707Y-13850340D01*
G01X18652671Y-13840454D01*
G01X18868286Y-13840454D01*
G01X18876414Y-13851057D01*
G01X18887011Y-13859194D01*
G01X18899354Y-13864309D01*
G01X18912600Y-13866054D01*
G01X19361600Y-13866054D01*
G01X19374846Y-13864309D01*
G01X19387188Y-13859194D01*
G01X19397785Y-13851057D01*
G01X19405914Y-13840454D01*
G01X19628286Y-13840454D01*
G01X19636414Y-13851057D01*
G01X19647011Y-13859194D01*
G01X19659354Y-13864309D01*
G01X19672600Y-13866054D01*
G01X20121600Y-13866054D01*
G01X20134840Y-13864311D01*
G01X20147177Y-13859201D01*
G01X20157771Y-13851071D01*
G01X20165901Y-13840477D01*
G01X20171011Y-13828140D01*
G01X20172754Y-13814900D01*
G01X20172754Y-13763900D01*
G01X20171011Y-13750660D01*
G01X20165901Y-13738323D01*
G01X20157771Y-13727729D01*
G01X20147177Y-13719599D01*
G01X20134840Y-13714489D01*
G01X20121600Y-13712746D01*
G01X19672600Y-13712746D01*
G01X19659354Y-13714491D01*
G01X19647011Y-13719606D01*
G01X19636414Y-13727743D01*
G01X19628286Y-13738346D01*
G01X19405914Y-13738346D01*
G01X19405914Y-13738346D01*
G01X19397785Y-13727743D01*
G01X19387188Y-13719606D01*
G01X19374846Y-13714491D01*
G01X19361600Y-13712746D01*
G01X18912600Y-13712746D01*
G01X18899354Y-13714491D01*
G01X18887011Y-13719606D01*
G01X18876414Y-13727743D01*
G01X18868286Y-13738346D01*
G01X18652671Y-13738346D01*
G01X18646707Y-13728460D01*
G01X18638659Y-13720182D01*
G01X18628945Y-13713941D01*
G01X18618070Y-13710062D01*
G01X18606600Y-13708746D01*
G01X18546600Y-13708746D01*
G01X18533490Y-13710472D01*
G01X18521273Y-13715532D01*
G01X18510782Y-13723582D01*
G01X18502732Y-13734073D01*
G01X18497672Y-13746290D01*
G01X18495946Y-13759400D01*
G01X18377254Y-13759400D01*
G01X18375528Y-13746290D01*
G01X18370468Y-13734073D01*
G01X18362418Y-13723582D01*
G01X18351927Y-13715532D01*
G01X18339710Y-13710472D01*
G01X18326600Y-13708746D01*
G01X18266600Y-13708746D01*
G01X18255129Y-13710062D01*
G01X18244255Y-13713941D01*
G01X18234541Y-13720182D01*
G01X18226493Y-13728460D01*
G01X18220529Y-13738346D01*
G01X18133754Y-13738346D01*
G01X18133754Y-13734400D01*
G01X18132028Y-13721290D01*
G01X18126968Y-13709073D01*
G01X18118918Y-13698582D01*
G01X18108427Y-13690532D01*
G01X18096210Y-13685472D01*
G01X18083100Y-13683746D01*
G01X17924081Y-13683746D01*
G01X17750235Y-13509900D01*
G01X18836846Y-13509900D01*
G01X18836846Y-13560900D01*
G01X18838745Y-13577757D01*
G01X18844348Y-13593768D01*
G01X18853373Y-13608132D01*
G01X18865368Y-13620127D01*
G01X18879732Y-13629152D01*
G01X18895743Y-13634754D01*
G01X18912600Y-13636654D01*
G01X19361600Y-13636654D01*
G01X19361600Y-13636654D01*
G01X19378457Y-13634754D01*
G01X19394468Y-13629152D01*
G01X19408832Y-13620127D01*
G01X19420827Y-13608132D01*
G01X19429852Y-13593768D01*
G01X19435454Y-13577757D01*
G01X19437354Y-13560900D01*
G01X19437354Y-13509900D01*
G01X19596846Y-13509900D01*
G01X19596846Y-13560900D01*
G01X19598745Y-13577757D01*
G01X19604348Y-13593768D01*
G01X19613373Y-13608132D01*
G01X19625368Y-13620127D01*
G01X19639732Y-13629152D01*
G01X19655743Y-13634754D01*
G01X19672600Y-13636654D01*
G01X20121600Y-13636654D01*
G01X20121600Y-13636654D01*
G01X20138457Y-13634754D01*
G01X20154468Y-13629152D01*
G01X20168832Y-13620127D01*
G01X20180827Y-13608132D01*
G01X20189852Y-13593768D01*
G01X20195454Y-13577757D01*
G01X20197354Y-13560900D01*
G01X20197354Y-13509900D01*
G01X20195454Y-13493043D01*
G01X20189852Y-13477032D01*
G01X20180827Y-13462668D01*
G01X20168832Y-13450673D01*
G01X20154468Y-13441648D01*
G01X20138457Y-13436045D01*
G01X20121600Y-13434146D01*
G01X19672600Y-13434146D01*
G01X19655743Y-13436045D01*
G01X19639732Y-13441648D01*
G01X19625368Y-13450673D01*
G01X19613373Y-13462668D01*
G01X19604348Y-13477032D01*
G01X19598745Y-13493043D01*
G01X19596846Y-13509900D01*
G01X19437354Y-13509900D01*
G01X19435454Y-13493043D01*
G01X19429852Y-13477032D01*
G01X19420827Y-13462668D01*
G01X19408832Y-13450673D01*
G01X19394468Y-13441648D01*
G01X19378457Y-13436045D01*
G01X19361600Y-13434146D01*
G01X18912600Y-13434146D01*
G01X18895743Y-13436045D01*
G01X18879732Y-13441648D01*
G01X18865368Y-13450673D01*
G01X18853373Y-13462668D01*
G01X18844348Y-13477032D01*
G01X18838745Y-13493043D01*
G01X18836846Y-13509900D01*
G01X17750235Y-13509900D01*
G01X17496235Y-13255900D01*
G01X18836846Y-13255900D01*
G01X18836846Y-13306900D01*
G01X18838745Y-13323757D01*
G01X18844348Y-13339768D01*
G01X18853373Y-13354132D01*
G01X18865368Y-13366127D01*
G01X18879732Y-13375152D01*
G01X18895743Y-13380754D01*
G01X18912600Y-13382654D01*
G01X19361600Y-13382654D01*
G01X19361600Y-13382654D01*
G01X19378457Y-13380754D01*
G01X19394468Y-13375152D01*
G01X19408832Y-13366127D01*
G01X19420827Y-13354132D01*
G01X19429852Y-13339768D01*
G01X19435454Y-13323757D01*
G01X19437354Y-13306900D01*
G01X19437354Y-13255900D01*
G01X19596846Y-13255900D01*
G01X19596846Y-13306900D01*
G01X19598745Y-13323757D01*
G01X19604348Y-13339768D01*
G01X19613373Y-13354132D01*
G01X19625368Y-13366127D01*
G01X19639732Y-13375152D01*
G01X19655743Y-13380754D01*
G01X19672600Y-13382654D01*
G01X20121600Y-13382654D01*
G01X20121600Y-13382654D01*
G01X20138457Y-13380754D01*
G01X20154468Y-13375152D01*
G01X20168832Y-13366127D01*
G01X20180827Y-13354132D01*
G01X20189852Y-13339768D01*
G01X20195454Y-13323757D01*
G01X20197354Y-13306900D01*
G01X20197354Y-13255900D01*
G01X20195454Y-13239043D01*
G01X20189852Y-13223032D01*
G01X20180827Y-13208668D01*
G01X20168832Y-13196673D01*
G01X20154468Y-13187648D01*
G01X20138457Y-13182045D01*
G01X20121600Y-13180146D01*
G01X19672600Y-13180146D01*
G01X19655743Y-13182045D01*
G01X19639732Y-13187648D01*
G01X19625368Y-13196673D01*
G01X19613373Y-13208668D01*
G01X19604348Y-13223032D01*
G01X19598745Y-13239043D01*
G01X19596846Y-13255900D01*
G01X19437354Y-13255900D01*
G01X19435454Y-13239043D01*
G01X19429852Y-13223032D01*
G01X19420827Y-13208668D01*
G01X19408832Y-13196673D01*
G01X19394468Y-13187648D01*
G01X19378457Y-13182045D01*
G01X19361600Y-13180146D01*
G01X18912600Y-13180146D01*
G01X18895743Y-13182045D01*
G01X18879732Y-13187648D01*
G01X18865368Y-13196673D01*
G01X18853373Y-13208668D01*
G01X18844348Y-13223032D01*
G01X18838745Y-13239043D01*
G01X18836846Y-13255900D01*
G01X17496235Y-13255900D01*
G01X17309954Y-13069618D01*
G01X17309954Y-13001900D01*
G01X18836846Y-13001900D01*
G01X18836846Y-13052900D01*
G01X18838745Y-13069757D01*
G01X18844348Y-13085768D01*
G01X18853373Y-13100132D01*
G01X18865368Y-13112127D01*
G01X18879732Y-13121152D01*
G01X18895743Y-13126754D01*
G01X18912600Y-13128654D01*
G01X19361600Y-13128654D01*
G01X19361600Y-13128654D01*
G01X19378457Y-13126754D01*
G01X19394468Y-13121152D01*
G01X19408832Y-13112127D01*
G01X19420827Y-13100132D01*
G01X19429852Y-13085768D01*
G01X19435454Y-13069757D01*
G01X19437354Y-13052900D01*
G01X19437354Y-13001900D01*
G01X19596846Y-13001900D01*
G01X19596846Y-13052900D01*
G01X19598745Y-13069757D01*
G01X19604348Y-13085768D01*
G01X19613373Y-13100132D01*
G01X19625368Y-13112127D01*
G01X19639732Y-13121152D01*
G01X19655743Y-13126754D01*
G01X19672600Y-13128654D01*
G01X20121600Y-13128654D01*
G01X20121600Y-13128654D01*
G01X20138457Y-13126754D01*
G01X20154468Y-13121152D01*
G01X20168832Y-13112127D01*
G01X20180827Y-13100132D01*
G01X20189852Y-13085768D01*
G01X20195454Y-13069757D01*
G01X20197354Y-13052900D01*
G01X20197354Y-13001900D01*
G01X20195454Y-12985043D01*
G01X20189852Y-12969032D01*
G01X20180827Y-12954668D01*
G01X20168832Y-12942673D01*
G01X20154468Y-12933648D01*
G01X20138457Y-12928045D01*
G01X20121600Y-12926146D01*
G01X19672600Y-12926146D01*
G01X19655743Y-12928045D01*
G01X19639732Y-12933648D01*
G01X19625368Y-12942673D01*
G01X19613373Y-12954668D01*
G01X19604348Y-12969032D01*
G01X19598745Y-12985043D01*
G01X19596846Y-13001900D01*
G01X19437354Y-13001900D01*
G01X19435454Y-12985043D01*
G01X19429852Y-12969032D01*
G01X19420827Y-12954668D01*
G01X19408832Y-12942673D01*
G01X19394468Y-12933648D01*
G01X19378457Y-12928045D01*
G01X19361600Y-12926146D01*
G01X18912600Y-12926146D01*
G01X18895743Y-12928045D01*
G01X18879732Y-12933648D01*
G01X18865368Y-12942673D01*
G01X18853373Y-12954668D01*
G01X18844348Y-12969032D01*
G01X18838745Y-12985043D01*
G01X18836846Y-13001900D01*
G01X17309954Y-13001900D01*
G01X17309954Y-12718400D01*
G01X17351846Y-12718400D01*
G01X17351846Y-12828400D01*
G01X17353733Y-12845145D01*
G01X17359299Y-12861051D01*
G01X17368264Y-12875320D01*
G01X17380180Y-12887236D01*
G01X17394449Y-12896201D01*
G01X17410355Y-12901767D01*
G01X17427100Y-12903654D01*
G01X17677100Y-12903654D01*
G01X17677100Y-12903654D01*
G01X17693846Y-12901767D01*
G01X17709752Y-12896201D01*
G01X17724020Y-12887236D01*
G01X17735936Y-12875320D01*
G01X17744902Y-12861051D01*
G01X17750467Y-12845145D01*
G01X17752354Y-12828400D01*
G01X17752354Y-12718400D01*
G01X17750467Y-12701654D01*
G01X17744902Y-12685748D01*
G01X17735936Y-12671480D01*
G01X17724020Y-12659564D01*
G01X17709752Y-12650598D01*
G01X17693846Y-12645033D01*
G01X17677100Y-12643146D01*
G01X17427100Y-12643146D01*
G01X17410355Y-12645033D01*
G01X17394449Y-12650598D01*
G01X17380180Y-12659564D01*
G01X17368264Y-12671480D01*
G01X17359299Y-12685748D01*
G01X17353733Y-12701654D01*
G01X17351846Y-12718400D01*
G01X17309954Y-12718400D01*
G01X17309954Y-12339982D01*
G01X17486801Y-12163134D01*
G01X17494851Y-12152643D01*
G01X17499912Y-12140427D01*
G01X17501638Y-12127316D01*
G01X17501638Y-11785600D01*
G01X17499912Y-11772490D01*
G01X17494851Y-11760273D01*
G01X17486801Y-11749782D01*
G01X17348654Y-11611635D01*
G01X17348654Y-11572900D01*
G01X17346702Y-11563083D01*
G01X17341141Y-11554760D01*
G01X17332818Y-11549199D01*
G01X17323000Y-11547246D01*
G01X17306554Y-11547246D01*
G01X17306554Y-11450416D01*
G01X17311813Y-11442243D01*
G01X17313654Y-11432700D01*
G01X17313654Y-11262700D01*
G01X17311701Y-11252883D01*
G01X17306140Y-11244560D01*
G01X17297817Y-11238999D01*
G01X17288000Y-11237046D01*
G01X17223000Y-11237046D01*
G01X17213183Y-11238999D01*
G01X17204860Y-11244560D01*
G01X17199299Y-11252883D01*
G01X17197346Y-11262700D01*
G01X17197346Y-11432700D01*
G01X17199187Y-11442243D01*
G01X17204446Y-11450416D01*
G01X17204446Y-11547246D01*
G01X17187999Y-11547246D01*
G01X17178182Y-11549199D01*
G01X17169859Y-11554760D01*
G01X17164298Y-11563083D01*
G01X17162345Y-11572900D01*
G01X17162345Y-11713900D01*
G01X17163352Y-11721017D01*
G01X17166294Y-11727575D01*
G01X17154574Y-11735373D01*
G01X17145477Y-11746116D01*
G01X17139717Y-11758961D01*
G01X17137746Y-11772899D01*
G01X17011261Y-11772899D01*
G01X17007817Y-11770598D01*
G01X16998000Y-11768645D01*
G01X16983854Y-11768645D01*
G01X16983854Y-11724904D01*
G01X17002127Y-11724904D01*
G01X17011944Y-11722952D01*
G01X17020267Y-11717391D01*
G01X17025828Y-11709068D01*
G01X17027781Y-11699250D01*
G01X17027781Y-11639560D01*
G01X17146720Y-11520620D01*
G01X17152816Y-11512677D01*
G01X17156647Y-11503427D01*
G01X17157954Y-11493500D01*
G01X17157954Y-11458354D01*
G01X17161000Y-11458354D01*
G01X17170817Y-11456401D01*
G01X17179140Y-11450840D01*
G01X17184701Y-11442517D01*
G01X17186654Y-11432700D01*
G01X17186654Y-11262700D01*
G01X17184701Y-11252883D01*
G01X17179140Y-11244560D01*
G01X17170817Y-11238999D01*
G01X17161000Y-11237046D01*
G01X17096000Y-11237046D01*
G01X17086183Y-11238999D01*
G01X17077860Y-11244560D01*
G01X17072299Y-11252883D01*
G01X17070346Y-11262700D01*
G01X17070346Y-11432700D01*
G01X17071643Y-11440754D01*
G01X17075403Y-11447994D01*
G01X17081246Y-11453687D01*
G01X17081246Y-11477613D01*
G01X17017698Y-11541162D01*
G01X17010345Y-11537248D01*
G01X17002127Y-11535895D01*
G01X16915545Y-11535895D01*
G01X16993087Y-11458354D01*
G01X17034000Y-11458354D01*
G01X17043817Y-11456401D01*
G01X17052140Y-11450840D01*
G01X17057701Y-11442517D01*
G01X17059654Y-11432700D01*
G01X17059654Y-11262700D01*
G01X17057701Y-11252883D01*
G01X17052140Y-11244560D01*
G01X17043817Y-11238999D01*
G01X17034000Y-11237046D01*
G01X16969000Y-11237046D01*
G01X16960560Y-11238474D01*
G01X16953059Y-11242600D01*
G01X16947208Y-11232554D01*
G01X16939204Y-11224121D01*
G01X16929478Y-11217753D01*
G01X16918548Y-11213791D01*
G01X16907000Y-11212446D01*
G01X16842000Y-11212446D01*
G01X16828993Y-11214158D01*
G01X16816873Y-11219179D01*
G01X16806465Y-11227165D01*
G01X16798479Y-11237573D01*
G01X16793458Y-11249693D01*
G01X16791746Y-11262700D01*
G01X16791746Y-11432700D01*
G01X16793458Y-11445707D01*
G01X16798479Y-11457827D01*
G01X16806465Y-11468235D01*
G01X16816873Y-11476221D01*
G01X16828993Y-11481241D01*
G01X16842000Y-11482954D01*
G01X16860005Y-11482954D01*
G01X16806660Y-11536299D01*
G01X16802127Y-11535895D01*
G01X16688873Y-11535895D01*
G01X16679056Y-11537848D01*
G01X16670733Y-11543409D01*
G01X16665172Y-11551732D01*
G01X16663219Y-11561549D01*
G01X16663219Y-11699250D01*
G01X16665172Y-11709068D01*
G01X16670733Y-11717391D01*
G01X16679056Y-11722952D01*
G01X16688873Y-11724904D01*
G01X16709146Y-11724904D01*
G01X16709146Y-11768645D01*
G01X16657000Y-11768645D01*
G01X16647183Y-11770598D01*
G01X16638860Y-11776159D01*
G01X16633299Y-11784482D01*
G01X16631346Y-11794299D01*
G01X16631346Y-11846046D01*
G01X16577981Y-11846046D01*
G01X16577981Y-11792949D01*
G01X16576028Y-11783132D01*
G01X16570467Y-11774809D01*
G01X16562144Y-11769248D01*
G01X16552327Y-11767295D01*
G01X16439073Y-11767295D01*
G01X16429256Y-11769248D01*
G01X16420933Y-11774809D01*
G01X16415372Y-11783132D01*
G01X16413419Y-11792949D01*
G01X16413419Y-11930651D01*
G01X16415372Y-11940468D01*
G01X16420933Y-11948791D01*
G01X16429256Y-11954352D01*
G01X16439073Y-11956305D01*
G01X16552327Y-11956305D01*
G01X16562144Y-11954352D01*
G01X16570467Y-11948791D01*
G01X16576028Y-11940468D01*
G01X16577981Y-11930651D01*
G01X16577981Y-11922754D01*
G01X16631346Y-11922754D01*
G01X16631346Y-11929300D01*
G01X16633299Y-11939118D01*
G01X16638860Y-11947441D01*
G01X16647183Y-11953002D01*
G01X16657000Y-11954954D01*
G01X16777705Y-11954954D01*
G01X16693313Y-12039346D01*
G01X16297287Y-12039346D01*
G01X16171581Y-11913640D01*
G01X16171581Y-11792949D01*
G01X16169628Y-11783132D01*
G01X16164067Y-11774809D01*
G01X16155744Y-11769248D01*
G01X16145927Y-11767295D01*
G01X16032673Y-11767295D01*
G01X16022856Y-11769248D01*
G01X16014533Y-11774809D01*
G01X16008972Y-11783132D01*
G01X16007019Y-11792949D01*
G01X15971581Y-11792949D01*
G01X15969628Y-11783132D01*
G01X15964067Y-11774809D01*
G01X15955744Y-11769248D01*
G01X15945927Y-11767295D01*
G01X15896886Y-11767295D01*
G01X15640304Y-11510713D01*
G01X15640304Y-9181087D01*
G01X15638997Y-9171160D01*
G01X15635166Y-9161910D01*
G01X15629070Y-9153966D01*
G01X15555858Y-9080754D01*
G01X15980850Y-9080754D01*
G01X15990667Y-9078801D01*
G01X15998990Y-9073240D01*
G01X16004551Y-9064917D01*
G01X16006504Y-9055100D01*
G01X16006504Y-8661400D01*
G01X16004551Y-8651583D01*
G01X15998990Y-8643260D01*
G01X15990667Y-8637699D01*
G01X15980850Y-8635746D01*
G01X15555858Y-8635746D01*
G01X15629070Y-8562534D01*
G01X15635166Y-8554590D01*
G01X15638997Y-8545340D01*
G01X15640304Y-8535413D01*
G01X15640304Y-5232400D01*
G01X15773146Y-5232400D01*
G01X15773146Y-8216900D01*
G01X15774453Y-8226827D01*
G01X15778284Y-8236077D01*
G01X15784380Y-8244020D01*
G01X16281146Y-8740787D01*
G01X16281146Y-11767295D01*
G01X16281146Y-11767295D01*
G01X16239073Y-11767295D01*
G01X16229256Y-11769248D01*
G01X16220933Y-11774809D01*
G01X16215372Y-11783132D01*
G01X16213419Y-11792949D01*
G01X16213419Y-11930651D01*
G01X16215372Y-11940468D01*
G01X16220933Y-11948791D01*
G01X16229256Y-11954352D01*
G01X16239073Y-11956305D01*
G01X16352327Y-11956305D01*
G01X16362144Y-11954352D01*
G01X16370467Y-11948791D01*
G01X16376028Y-11940468D01*
G01X16377981Y-11930651D01*
G01X16377981Y-11792949D01*
G01X16376526Y-11784433D01*
G01X16372326Y-11776882D01*
G01X16365857Y-11771154D01*
G01X16357854Y-11767898D01*
G01X16357854Y-10509900D01*
G01X16535546Y-10509900D01*
G01X16535546Y-10731500D01*
G01X16537272Y-10744610D01*
G01X16542332Y-10756827D01*
G01X16550382Y-10767318D01*
G01X16804382Y-11021318D01*
G01X16814873Y-11029368D01*
G01X16827090Y-11034428D01*
G01X16840200Y-11036154D01*
G01X17606618Y-11036154D01*
G01X17941446Y-11370982D01*
G01X17941446Y-12667746D01*
G01X17867100Y-12667746D01*
G01X17867100Y-12667746D01*
G01X17853990Y-12669472D01*
G01X17841773Y-12674532D01*
G01X17831282Y-12682582D01*
G01X17823232Y-12693073D01*
G01X17818172Y-12705290D01*
G01X17816446Y-12718400D01*
G01X17816446Y-12828400D01*
G01X17818172Y-12841510D01*
G01X17823232Y-12853727D01*
G01X17831282Y-12864218D01*
G01X17841773Y-12872268D01*
G01X17853990Y-12877328D01*
G01X17867100Y-12879054D01*
G01X18117100Y-12879054D01*
G01X18130210Y-12877328D01*
G01X18142427Y-12872268D01*
G01X18152918Y-12864218D01*
G01X18160968Y-12853727D01*
G01X18166028Y-12841510D01*
G01X18167754Y-12828400D01*
G01X18167754Y-12811754D01*
G01X18216640Y-12811754D01*
G01X18220916Y-12825282D01*
G01X18228777Y-12837094D01*
G01X18239605Y-12846262D01*
G01X18252552Y-12852067D01*
G01X18266600Y-12854054D01*
G01X18326600Y-12854054D01*
G01X18339710Y-12852328D01*
G01X18351927Y-12847268D01*
G01X18362418Y-12839218D01*
G01X18370468Y-12828727D01*
G01X18375528Y-12816510D01*
G01X18377254Y-12803400D01*
G01X18377254Y-12743400D01*
G01X18495946Y-12743400D01*
G01X18495946Y-12803400D01*
G01X18497672Y-12816510D01*
G01X18502732Y-12828727D01*
G01X18510782Y-12839218D01*
G01X18521273Y-12847268D01*
G01X18533490Y-12852328D01*
G01X18546600Y-12854054D01*
G01X18606600Y-12854054D01*
G01X18618070Y-12852738D01*
G01X18628945Y-12848859D01*
G01X18638659Y-12842618D01*
G01X18646707Y-12834340D01*
G01X18652671Y-12824454D01*
G01X18868286Y-12824454D01*
G01X18876414Y-12835057D01*
G01X18887011Y-12843194D01*
G01X18899354Y-12848309D01*
G01X18912600Y-12850054D01*
G01X19361600Y-12850054D01*
G01X19374846Y-12848309D01*
G01X19387188Y-12843194D01*
G01X19397785Y-12835057D01*
G01X19405914Y-12824454D01*
G01X19628286Y-12824454D01*
G01X19636414Y-12835057D01*
G01X19647011Y-12843194D01*
G01X19659354Y-12848309D01*
G01X19672600Y-12850054D01*
G01X20121600Y-12850054D01*
G01X20134840Y-12848311D01*
G01X20147177Y-12843201D01*
G01X20157771Y-12835071D01*
G01X20165901Y-12824477D01*
G01X20171011Y-12812140D01*
G01X20172754Y-12798900D01*
G01X20172754Y-12747900D01*
G01X20171011Y-12734660D01*
G01X20165901Y-12722323D01*
G01X20159131Y-12713500D01*
G01X20518146Y-12713500D01*
G01X20518146Y-13013500D01*
G01X20520033Y-13030246D01*
G01X20525598Y-13046152D01*
G01X20534564Y-13060420D01*
G01X20546480Y-13072336D01*
G01X20560748Y-13081302D01*
G01X20576654Y-13086867D01*
G01X20593400Y-13088754D01*
G01X20593400Y-13088754D01*
G01X20703400Y-13088754D01*
G01X20720145Y-13086867D01*
G01X20736051Y-13081302D01*
G01X20750320Y-13072336D01*
G01X20762236Y-13060420D01*
G01X20771201Y-13046152D01*
G01X20776767Y-13030246D01*
G01X20778654Y-13013500D01*
G01X20778654Y-12713500D01*
G01X20776767Y-12696755D01*
G01X20771201Y-12680849D01*
G01X20762236Y-12666580D01*
G01X20750320Y-12654664D01*
G01X20736051Y-12645699D01*
G01X20720145Y-12640133D01*
G01X20703400Y-12638246D01*
G01X20593400Y-12638246D01*
G01X20576654Y-12640133D01*
G01X20560748Y-12645699D01*
G01X20546480Y-12654664D01*
G01X20534564Y-12666580D01*
G01X20525598Y-12680849D01*
G01X20520033Y-12696755D01*
G01X20518146Y-12713500D01*
G01X20159131Y-12713500D01*
G01X20157771Y-12711729D01*
G01X20147177Y-12703599D01*
G01X20134840Y-12698489D01*
G01X20121600Y-12696746D01*
G01X19672600Y-12696746D01*
G01X19659354Y-12698491D01*
G01X19647011Y-12703606D01*
G01X19636414Y-12711743D01*
G01X19628286Y-12722346D01*
G01X19405914Y-12722346D01*
G01X19405914Y-12722346D01*
G01X19397785Y-12711743D01*
G01X19387188Y-12703606D01*
G01X19374846Y-12698491D01*
G01X19361600Y-12696746D01*
G01X18912600Y-12696746D01*
G01X18899354Y-12698491D01*
G01X18887011Y-12703606D01*
G01X18876414Y-12711743D01*
G01X18868286Y-12722346D01*
G01X18652671Y-12722346D01*
G01X18646707Y-12712460D01*
G01X18638659Y-12704182D01*
G01X18628945Y-12697941D01*
G01X18618070Y-12694062D01*
G01X18606600Y-12692746D01*
G01X18546600Y-12692746D01*
G01X18533490Y-12694472D01*
G01X18521273Y-12699532D01*
G01X18510782Y-12707582D01*
G01X18502732Y-12718073D01*
G01X18497672Y-12730290D01*
G01X18495946Y-12743400D01*
G01X18377254Y-12743400D01*
G01X18375528Y-12730290D01*
G01X18370468Y-12718073D01*
G01X18362418Y-12707582D01*
G01X18351927Y-12699532D01*
G01X18339710Y-12694472D01*
G01X18326600Y-12692746D01*
G01X18266600Y-12692746D01*
G01X18252552Y-12694733D01*
G01X18239605Y-12700538D01*
G01X18228777Y-12709706D01*
G01X18220916Y-12721518D01*
G01X18216640Y-12735046D01*
G01X18167754Y-12735046D01*
G01X18167754Y-12718400D01*
G01X18166028Y-12705290D01*
G01X18160968Y-12693073D01*
G01X18152918Y-12682582D01*
G01X18142427Y-12674532D01*
G01X18130210Y-12669472D01*
G01X18117100Y-12667746D01*
G01X18042754Y-12667746D01*
G01X18042754Y-11820000D01*
G01X20166146Y-11820000D01*
G01X20166146Y-12020000D01*
G01X20167858Y-12033007D01*
G01X20172879Y-12045127D01*
G01X20180865Y-12055535D01*
G01X20191273Y-12063521D01*
G01X20203393Y-12068541D01*
G01X20216400Y-12070254D01*
G01X20366400Y-12070254D01*
G01X20366400Y-12070254D01*
G01X20379407Y-12068541D01*
G01X20391527Y-12063521D01*
G01X20401935Y-12055535D01*
G01X20409921Y-12045127D01*
G01X20414941Y-12033007D01*
G01X20416654Y-12020000D01*
G01X20416654Y-11820000D01*
G01X20414941Y-11806993D01*
G01X20409921Y-11794873D01*
G01X20401935Y-11784465D01*
G01X20391527Y-11776479D01*
G01X20379407Y-11771458D01*
G01X20366400Y-11769746D01*
G01X20216400Y-11769746D01*
G01X20203393Y-11771458D01*
G01X20191273Y-11776479D01*
G01X20180865Y-11784465D01*
G01X20172879Y-11794873D01*
G01X20167858Y-11806993D01*
G01X20166146Y-11820000D01*
G01X18042754Y-11820000D01*
G01X18042754Y-11350000D01*
G01X18041028Y-11336890D01*
G01X18035968Y-11324673D01*
G01X18027918Y-11314182D01*
G01X17663418Y-10949682D01*
G01X17652927Y-10941632D01*
G01X17640710Y-10936572D01*
G01X17627600Y-10934846D01*
G01X16861182Y-10934846D01*
G01X16636854Y-10710518D01*
G01X16636854Y-10530881D01*
G01X16734182Y-10433554D01*
G01X16781345Y-10433554D01*
G01X16781345Y-10453400D01*
G01X16783298Y-10463217D01*
G01X16788859Y-10471540D01*
G01X16797182Y-10477101D01*
G01X16806999Y-10479054D01*
G01X16823846Y-10479054D01*
G01X16823846Y-10514574D01*
G01X16818295Y-10522892D01*
G01X16816346Y-10532700D01*
G01X16816346Y-10702700D01*
G01X16818299Y-10712517D01*
G01X16823860Y-10720840D01*
G01X16832183Y-10726401D01*
G01X16842000Y-10728354D01*
G01X16907000Y-10728354D01*
G01X16915440Y-10726926D01*
G01X16922941Y-10722800D01*
G01X16928792Y-10732846D01*
G01X16936795Y-10741279D01*
G01X16946522Y-10747647D01*
G01X16957452Y-10751609D01*
G01X16969000Y-10752954D01*
G01X17034000Y-10752954D01*
G01X17045548Y-10751609D01*
G01X17056478Y-10747647D01*
G01X17066204Y-10741279D01*
G01X17074208Y-10732846D01*
G01X17080059Y-10722800D01*
G01X17087560Y-10726926D01*
G01X17096000Y-10728354D01*
G01X17161000Y-10728354D01*
G01X17170817Y-10726401D01*
G01X17179140Y-10720840D01*
G01X17184701Y-10712517D01*
G01X17186654Y-10702700D01*
G01X17186654Y-10532700D01*
G01X17197346Y-10532700D01*
G01X17197346Y-10702700D01*
G01X17199299Y-10712517D01*
G01X17204860Y-10720840D01*
G01X17213183Y-10726401D01*
G01X17223000Y-10728354D01*
G01X17288000Y-10728354D01*
G01X17297817Y-10726401D01*
G01X17306140Y-10720840D01*
G01X17311701Y-10712517D01*
G01X17313654Y-10702700D01*
G01X17313654Y-10613787D01*
G01X17348120Y-10579320D01*
G01X17354215Y-10571377D01*
G01X17358047Y-10562127D01*
G01X17359354Y-10552200D01*
G01X17359354Y-10391404D01*
G01X17377627Y-10391404D01*
G01X17387444Y-10389452D01*
G01X17395767Y-10383891D01*
G01X17401328Y-10375568D01*
G01X17403281Y-10365750D01*
G01X17403281Y-10228049D01*
G01X17401328Y-10218232D01*
G01X17395767Y-10209909D01*
G01X17387444Y-10204348D01*
G01X17377627Y-10202395D01*
G01X17359354Y-10202395D01*
G01X17359354Y-10049954D01*
G01X17391700Y-10049954D01*
G01X17401517Y-10048002D01*
G01X17409840Y-10042441D01*
G01X17415401Y-10034118D01*
G01X17417354Y-10024300D01*
G01X17417354Y-9889299D01*
G01X17416301Y-9882024D01*
G01X17413227Y-9875345D01*
G01X17410028Y-9871690D01*
G01X17702446Y-9871690D01*
G01X17702446Y-9951690D01*
G01X17704159Y-9964696D01*
G01X17709179Y-9976816D01*
G01X17717165Y-9987224D01*
G01X17727573Y-9995211D01*
G01X17739693Y-10000231D01*
G01X17752700Y-10001943D01*
G01X17832700Y-10001943D01*
G01X17845707Y-10000231D01*
G01X17857827Y-9995211D01*
G01X17868235Y-9987224D01*
G01X17876221Y-9976816D01*
G01X17881241Y-9964696D01*
G01X17882954Y-9951690D01*
G01X17882954Y-9871690D01*
G01X17881241Y-9858683D01*
G01X17876221Y-9846563D01*
G01X17868235Y-9836155D01*
G01X17866825Y-9835073D01*
G01X17927596Y-9835073D01*
G01X17927596Y-9948327D01*
G01X17929308Y-9961333D01*
G01X17934328Y-9973454D01*
G01X17942315Y-9983861D01*
G01X17952723Y-9991848D01*
G01X17964843Y-9996868D01*
G01X17977849Y-9998580D01*
G01X18115551Y-9998580D01*
G01X18128557Y-9996868D01*
G01X18140677Y-9991848D01*
G01X18151085Y-9983861D01*
G01X18159072Y-9973454D01*
G01X18160658Y-9969623D01*
G01X18712395Y-9969623D01*
G01X18712395Y-10082876D01*
G01X18714348Y-10092694D01*
G01X18719909Y-10101017D01*
G01X18728232Y-10106578D01*
G01X18738049Y-10108530D01*
G01X18843690Y-10108530D01*
G01X19987746Y-11252587D01*
G01X19987746Y-11478000D01*
G01X19989699Y-11487817D01*
G01X19995260Y-11496140D01*
G01X20122260Y-11623140D01*
G01X20130583Y-11628701D01*
G01X20140400Y-11630654D01*
G01X20470346Y-11630654D01*
G01X20470346Y-11794346D01*
G01X20446400Y-11794346D01*
G01X20436583Y-11796299D01*
G01X20428260Y-11801860D01*
G01X20422699Y-11810183D01*
G01X20420746Y-11820000D01*
G01X20420746Y-12020000D01*
G01X20422699Y-12029817D01*
G01X20428260Y-12038140D01*
G01X20436583Y-12043701D01*
G01X20446400Y-12045654D01*
G01X20470346Y-12045654D01*
G01X20470346Y-12176500D01*
G01X20472086Y-12189714D01*
G01X20477186Y-12202027D01*
G01X20485299Y-12212601D01*
G01X20542746Y-12270047D01*
G01X20542746Y-12270047D01*
G01X20542746Y-12453500D01*
G01X20544472Y-12466610D01*
G01X20549532Y-12478827D01*
G01X20557582Y-12489318D01*
G01X20568073Y-12497368D01*
G01X20580290Y-12502428D01*
G01X20593400Y-12504154D01*
G01X20703400Y-12504154D01*
G01X20716510Y-12502428D01*
G01X20728727Y-12497368D01*
G01X20739218Y-12489318D01*
G01X20747268Y-12478827D01*
G01X20752328Y-12466610D01*
G01X20754054Y-12453500D01*
G01X20754054Y-12153500D01*
G01X20752328Y-12140390D01*
G01X20747268Y-12128173D01*
G01X20739218Y-12117682D01*
G01X20728727Y-12109632D01*
G01X20716510Y-12104572D01*
G01X20703400Y-12102846D01*
G01X20593400Y-12102846D01*
G01X20582684Y-12103992D01*
G01X20572454Y-12107380D01*
G01X20572454Y-12045654D01*
G01X20596400Y-12045654D01*
G01X20606217Y-12043701D01*
G01X20614540Y-12038140D01*
G01X20620101Y-12029817D01*
G01X20622054Y-12020000D01*
G01X20622054Y-11820000D01*
G01X20620101Y-11810183D01*
G01X20614540Y-11801860D01*
G01X20606217Y-11796299D01*
G01X20596400Y-11794346D01*
G01X20572454Y-11794346D01*
G01X20572454Y-11630654D01*
G01X20902400Y-11630654D01*
G01X20912217Y-11628701D01*
G01X20920540Y-11623140D01*
G01X21047540Y-11496140D01*
G01X21053101Y-11487817D01*
G01X21055054Y-11478000D01*
G01X21055054Y-11097000D01*
G01X21053101Y-11087183D01*
G01X21047540Y-11078860D01*
G01X20920540Y-10951860D01*
G01X20912217Y-10946299D01*
G01X20902400Y-10944346D01*
G01X20572454Y-10944346D01*
G01X20572454Y-10733100D01*
G01X20587746Y-10733100D01*
G01X20587746Y-10775100D01*
G01X20589442Y-10785809D01*
G01X20594364Y-10795469D01*
G01X20602031Y-10803136D01*
G01X20611691Y-10808058D01*
G01X20622400Y-10809754D01*
G01X20801400Y-10809754D01*
G01X20801400Y-10809754D01*
G01X20812109Y-10808058D01*
G01X20821769Y-10803136D01*
G01X20829436Y-10795469D01*
G01X20834358Y-10785809D01*
G01X20836054Y-10775100D01*
G01X20836054Y-10733100D01*
G01X20834358Y-10722391D01*
G01X20829436Y-10712731D01*
G01X20821769Y-10705064D01*
G01X20812109Y-10700142D01*
G01X20801400Y-10698446D01*
G01X20622400Y-10698446D01*
G01X20611691Y-10700142D01*
G01X20602031Y-10705064D01*
G01X20594364Y-10712731D01*
G01X20589442Y-10722391D01*
G01X20587746Y-10733100D01*
G01X20572454Y-10733100D01*
G01X20572454Y-10606100D01*
G01X20587746Y-10606100D01*
G01X20587746Y-10648100D01*
G01X20589442Y-10658809D01*
G01X20594364Y-10668469D01*
G01X20602031Y-10676136D01*
G01X20611691Y-10681058D01*
G01X20622400Y-10682754D01*
G01X20801400Y-10682754D01*
G01X20801400Y-10682754D01*
G01X20812109Y-10681058D01*
G01X20821769Y-10676136D01*
G01X20829436Y-10668469D01*
G01X20834358Y-10658809D01*
G01X20836054Y-10648100D01*
G01X20836054Y-10606100D01*
G01X20834358Y-10595391D01*
G01X20829436Y-10585731D01*
G01X20821769Y-10578064D01*
G01X20812109Y-10573142D01*
G01X20801400Y-10571446D01*
G01X20622400Y-10571446D01*
G01X20611691Y-10573142D01*
G01X20602031Y-10578064D01*
G01X20594364Y-10585731D01*
G01X20589442Y-10595391D01*
G01X20587746Y-10606100D01*
G01X20572454Y-10606100D01*
G01X20572454Y-10538454D01*
G01X20592404Y-10538454D01*
G01X20597912Y-10545621D01*
G01X20605087Y-10551119D01*
G01X20613438Y-10554575D01*
G01X20622400Y-10555754D01*
G01X20801400Y-10555754D01*
G01X20812109Y-10554058D01*
G01X20821769Y-10549136D01*
G01X20829436Y-10541469D01*
G01X20834358Y-10531809D01*
G01X20836054Y-10521100D01*
G01X20836054Y-10479100D01*
G01X20834358Y-10468391D01*
G01X20829436Y-10458731D01*
G01X20821769Y-10451064D01*
G01X20812109Y-10446142D01*
G01X20801400Y-10444446D01*
G01X20622400Y-10444446D01*
G01X20613438Y-10445625D01*
G01X20605087Y-10449081D01*
G01X20597912Y-10454579D01*
G01X20592404Y-10461746D01*
G01X20572454Y-10461746D01*
G01X20572454Y-10411454D01*
G01X20592404Y-10411454D01*
G01X20597912Y-10418621D01*
G01X20605087Y-10424119D01*
G01X20613438Y-10427575D01*
G01X20622400Y-10428754D01*
G01X20801400Y-10428754D01*
G01X20812109Y-10427058D01*
G01X20821769Y-10422136D01*
G01X20829436Y-10414469D01*
G01X20834358Y-10404809D01*
G01X20836054Y-10394100D01*
G01X20836054Y-10352100D01*
G01X20834358Y-10341391D01*
G01X20829436Y-10331731D01*
G01X20821769Y-10324064D01*
G01X20812109Y-10319142D01*
G01X20801400Y-10317446D01*
G01X20622400Y-10317446D01*
G01X20613438Y-10318625D01*
G01X20605087Y-10322081D01*
G01X20597912Y-10327579D01*
G01X20592404Y-10334746D01*
G01X20572454Y-10334746D01*
G01X20572454Y-10284454D01*
G01X20592404Y-10284454D01*
G01X20597912Y-10291621D01*
G01X20605087Y-10297119D01*
G01X20613438Y-10300575D01*
G01X20622400Y-10301754D01*
G01X20801400Y-10301754D01*
G01X20812109Y-10300058D01*
G01X20821769Y-10295136D01*
G01X20829436Y-10287469D01*
G01X20834358Y-10277809D01*
G01X20836054Y-10267100D01*
G01X20836054Y-10225100D01*
G01X20834358Y-10214391D01*
G01X20829436Y-10204731D01*
G01X20821769Y-10197064D01*
G01X20812109Y-10192142D01*
G01X20801400Y-10190446D01*
G01X20622400Y-10190446D01*
G01X20613438Y-10191625D01*
G01X20605087Y-10195081D01*
G01X20597912Y-10200579D01*
G01X20592404Y-10207746D01*
G01X20572454Y-10207746D01*
G01X20572454Y-10160521D01*
G01X20594402Y-10160521D01*
G01X20602065Y-10168161D01*
G01X20611712Y-10173064D01*
G01X20622400Y-10174754D01*
G01X20801400Y-10174754D01*
G01X20812109Y-10173058D01*
G01X20821769Y-10168136D01*
G01X20829436Y-10160469D01*
G01X20834358Y-10150809D01*
G01X20836054Y-10140100D01*
G01X20836054Y-10098100D01*
G01X20834358Y-10087391D01*
G01X20829436Y-10077731D01*
G01X20821769Y-10070064D01*
G01X20812109Y-10065142D01*
G01X20801400Y-10063446D01*
G01X20652322Y-10063446D01*
G01X20668014Y-10047754D01*
G01X20801400Y-10047754D01*
G01X20810328Y-10046584D01*
G01X20818653Y-10043154D01*
G01X20860446Y-10043154D01*
G01X20860446Y-10062400D01*
G01X20862399Y-10072218D01*
G01X20867960Y-10080541D01*
G01X20876283Y-10086102D01*
G01X20886100Y-10088054D01*
G01X21027100Y-10088054D01*
G01X21034217Y-10087048D01*
G01X21040775Y-10084106D01*
G01X21048573Y-10095826D01*
G01X21059317Y-10104923D01*
G01X21072161Y-10110683D01*
G01X21086100Y-10112654D01*
G01X21227100Y-10112654D01*
G01X21240107Y-10110942D01*
G01X21252227Y-10105922D01*
G01X21262635Y-10097935D01*
G01X21270621Y-10087527D01*
G01X21275642Y-10075407D01*
G01X21277354Y-10062400D01*
G01X21277354Y-9927399D01*
G01X21275642Y-9914393D01*
G01X21270621Y-9902273D01*
G01X21262635Y-9891865D01*
G01X21252227Y-9883878D01*
G01X21240107Y-9878858D01*
G01X21227100Y-9877146D01*
G01X21086100Y-9877146D01*
G01X21072161Y-9879117D01*
G01X21059317Y-9884877D01*
G01X21048573Y-9893974D01*
G01X21040775Y-9905694D01*
G01X21034217Y-9902752D01*
G01X21027100Y-9901745D01*
G01X20886100Y-9901745D01*
G01X20876283Y-9903698D01*
G01X20867960Y-9909259D01*
G01X20862399Y-9917582D01*
G01X20860446Y-9927399D01*
G01X20860446Y-9941046D01*
G01X20818653Y-9941046D01*
G01X20810328Y-9937616D01*
G01X20801400Y-9936446D01*
G01X20622400Y-9936446D01*
G01X20611691Y-9938142D01*
G01X20602031Y-9943064D01*
G01X20594364Y-9950731D01*
G01X20589442Y-9960391D01*
G01X20587746Y-9971100D01*
G01X20587746Y-9983619D01*
G01X20499254Y-10072111D01*
G01X20499254Y-9351681D01*
G01X20528551Y-9351681D01*
G01X20538368Y-9349728D01*
G01X20546691Y-9344167D01*
G01X20552252Y-9335844D01*
G01X20554205Y-9326027D01*
G01X20554205Y-9212773D01*
G01X20552252Y-9202956D01*
G01X20546691Y-9194633D01*
G01X20538368Y-9189072D01*
G01X20528551Y-9187119D01*
G01X20390849Y-9187119D01*
G01X20381032Y-9189072D01*
G01X20372709Y-9194633D01*
G01X20367148Y-9202956D01*
G01X20365195Y-9212773D01*
G01X20365195Y-9326027D01*
G01X20367148Y-9335844D01*
G01X20372709Y-9344167D01*
G01X20381032Y-9349728D01*
G01X20390849Y-9351681D01*
G01X20422546Y-9351681D01*
G01X20422546Y-10346891D01*
G01X20386454Y-10382983D01*
G01X20386454Y-10151800D01*
G01X20385147Y-10141873D01*
G01X20381316Y-10132623D01*
G01X20375220Y-10124680D01*
G01X20342521Y-10091980D01*
G01X20340018Y-10089689D01*
G01X20335452Y-10079208D01*
G01X20327724Y-10070784D01*
G01X20317676Y-10065332D01*
G01X20306400Y-10063446D01*
G01X20127400Y-10063446D01*
G01X20116691Y-10065142D01*
G01X20107031Y-10070064D01*
G01X20099364Y-10077731D01*
G01X20094442Y-10087391D01*
G01X20092746Y-10098100D01*
G01X20092746Y-10140100D01*
G01X20094442Y-10150809D01*
G01X20099364Y-10160469D01*
G01X20107031Y-10168136D01*
G01X20116691Y-10173058D01*
G01X20127400Y-10174754D01*
G01X20306400Y-10174754D01*
G01X20309746Y-10174592D01*
G01X20309746Y-10190608D01*
G01X20306400Y-10190446D01*
G01X20127400Y-10190446D01*
G01X20116277Y-10192279D01*
G01X20106332Y-10197586D01*
G01X19763407Y-10197586D01*
G01X19770293Y-10191861D01*
G01X19774791Y-10184118D01*
G01X19776354Y-10175300D01*
G01X19776354Y-10142214D01*
G01X19783640Y-10142214D01*
G01X19793567Y-10140907D01*
G01X19802817Y-10137075D01*
G01X19810760Y-10130980D01*
G01X19896120Y-10045620D01*
G01X19902215Y-10037677D01*
G01X19906047Y-10028427D01*
G01X19907354Y-10018500D01*
G01X19907354Y-9996598D01*
G01X19929768Y-9996598D01*
G01X19932383Y-10011039D01*
G01X19938682Y-10024294D01*
G01X19948226Y-10035442D01*
G01X19960353Y-10043708D01*
G01X19974219Y-10048516D01*
G01X19988860Y-10049532D01*
G01X20003257Y-10046687D01*
G01X20016410Y-10040176D01*
G01X20027404Y-10030454D01*
G01X20097404Y-10030454D01*
G01X20102912Y-10037621D01*
G01X20110087Y-10043119D01*
G01X20118438Y-10046575D01*
G01X20127400Y-10047754D01*
G01X20306400Y-10047754D01*
G01X20317109Y-10046058D01*
G01X20326769Y-10041136D01*
G01X20334436Y-10033469D01*
G01X20339358Y-10023809D01*
G01X20341054Y-10013100D01*
G01X20341054Y-9971100D01*
G01X20339358Y-9960391D01*
G01X20334436Y-9950731D01*
G01X20326769Y-9943064D01*
G01X20317109Y-9938142D01*
G01X20306400Y-9936446D01*
G01X20215487Y-9936446D01*
G01X20154560Y-9875520D01*
G01X20158146Y-9868414D01*
G01X20159381Y-9860551D01*
G01X20159381Y-9722849D01*
G01X20157428Y-9713032D01*
G01X20151867Y-9704709D01*
G01X20143544Y-9699148D01*
G01X20133727Y-9697195D01*
G01X20020473Y-9697195D01*
G01X20010656Y-9699148D01*
G01X20002333Y-9704709D01*
G01X19996772Y-9713032D01*
G01X19994819Y-9722849D01*
G01X19994819Y-9860551D01*
G01X19996772Y-9870368D01*
G01X20002333Y-9878691D01*
G01X20010656Y-9884252D01*
G01X20020473Y-9886205D01*
G01X20056764Y-9886205D01*
G01X20111086Y-9940526D01*
G01X20103320Y-9946179D01*
G01X20097404Y-9953746D01*
G01X20023804Y-9953746D01*
G01X20023804Y-9953746D01*
G01X20011948Y-9945096D01*
G01X19998243Y-9939846D01*
G01X19983642Y-9938361D01*
G01X19969161Y-9940744D01*
G01X19955807Y-9946830D01*
G01X19944507Y-9956195D01*
G01X19936048Y-9968188D01*
G01X19931019Y-9981975D01*
G01X19929768Y-9996598D01*
G01X19907354Y-9996598D01*
G01X19907354Y-9886205D01*
G01X19933727Y-9886205D01*
G01X19943544Y-9884252D01*
G01X19951867Y-9878691D01*
G01X19957428Y-9870368D01*
G01X19959381Y-9860551D01*
G01X19959381Y-9722849D01*
G01X19957428Y-9713032D01*
G01X19951867Y-9704709D01*
G01X19943544Y-9699148D01*
G01X19933727Y-9697195D01*
G01X19820473Y-9697195D01*
G01X19810656Y-9699148D01*
G01X19802333Y-9704709D01*
G01X19796772Y-9713032D01*
G01X19794819Y-9722849D01*
G01X19794819Y-9810238D01*
G01X19786877Y-9799419D01*
G01X19776354Y-9791087D01*
G01X19764002Y-9785838D01*
G01X19750700Y-9784046D01*
G01X19615699Y-9784046D01*
G01X19602693Y-9785758D01*
G01X19590572Y-9790779D01*
G01X19580165Y-9798765D01*
G01X19572178Y-9809173D01*
G01X19567158Y-9821293D01*
G01X19565446Y-9834300D01*
G01X19565446Y-9975300D01*
G01X19567417Y-9989239D01*
G01X19573177Y-10002083D01*
G01X19582274Y-10012826D01*
G01X19593994Y-10020625D01*
G01X19591052Y-10027183D01*
G01X19590045Y-10034299D01*
G01X19590045Y-10065506D01*
G01X19568573Y-10065506D01*
G01X19563408Y-10063802D01*
G01X19558000Y-10063226D01*
G01X19446240Y-10063226D01*
G01X19436423Y-10065179D01*
G01X19428100Y-10070740D01*
G01X19422539Y-10079063D01*
G01X19420586Y-10088880D01*
G01X19420586Y-10124440D01*
G01X19421641Y-10131721D01*
G01X19424719Y-10138403D01*
G01X19429566Y-10143936D01*
G01X19393740Y-10179763D01*
G01X19390614Y-10177747D01*
G01X19390614Y-10154920D01*
G01X19389327Y-10146898D01*
G01X19385597Y-10139680D01*
G01X19389327Y-10132462D01*
G01X19390614Y-10124440D01*
G01X19390614Y-10088880D01*
G01X19388661Y-10079063D01*
G01X19383100Y-10070740D01*
G01X19374777Y-10065179D01*
G01X19364960Y-10063226D01*
G01X19253200Y-10063226D01*
G01X19243383Y-10065179D01*
G01X19235060Y-10070740D01*
G01X19229499Y-10079063D01*
G01X19227546Y-10088880D01*
G01X19227546Y-10118205D01*
G01X19206372Y-10097031D01*
G01X19208005Y-10088027D01*
G01X19208005Y-10060554D01*
G01X19211600Y-10060554D01*
G01X19221527Y-10059247D01*
G01X19230777Y-10055415D01*
G01X19238720Y-10049320D01*
G01X19401787Y-9886254D01*
G01X19511201Y-9886254D01*
G01X19521018Y-9884301D01*
G01X19529341Y-9878740D01*
G01X19534902Y-9870417D01*
G01X19536855Y-9860600D01*
G01X19536855Y-9719600D01*
G01X19535848Y-9712483D01*
G01X19532906Y-9705925D01*
G01X19544626Y-9698127D01*
G01X19553723Y-9687383D01*
G01X19559483Y-9674539D01*
G01X19561454Y-9660600D01*
G01X19561454Y-9519600D01*
G01X19559742Y-9506593D01*
G01X19554722Y-9494473D01*
G01X19546735Y-9484065D01*
G01X19536327Y-9476079D01*
G01X19524207Y-9471058D01*
G01X19511201Y-9469346D01*
G01X19376200Y-9469346D01*
G01X19363193Y-9471058D01*
G01X19351073Y-9476079D01*
G01X19340665Y-9484065D01*
G01X19332678Y-9494473D01*
G01X19327658Y-9506593D01*
G01X19325946Y-9519600D01*
G01X19325946Y-9660600D01*
G01X19327917Y-9674539D01*
G01X19333677Y-9687383D01*
G01X19342774Y-9698127D01*
G01X19354494Y-9705925D01*
G01X19351552Y-9712483D01*
G01X19350546Y-9719600D01*
G01X19350546Y-9829014D01*
G01X19207824Y-9971735D01*
G01X19205085Y-9962887D01*
G01X19199383Y-9955589D01*
G01X19191460Y-9950791D01*
G01X19182351Y-9949119D01*
G01X19044649Y-9949119D01*
G01X19034832Y-9951072D01*
G01X19026509Y-9956633D01*
G01X19020948Y-9964956D01*
G01X19018995Y-9974773D01*
G01X19018995Y-10088027D01*
G01X19020948Y-10097844D01*
G01X19026509Y-10106167D01*
G01X19034832Y-10111728D01*
G01X19044649Y-10113681D01*
G01X19124664Y-10113681D01*
G01X19128391Y-10124939D01*
G01X19135380Y-10134520D01*
G01X19197880Y-10197020D01*
G01X19206150Y-10203302D01*
G01X19203754Y-10211987D01*
G01X19202946Y-10220960D01*
G01X19202946Y-10256520D01*
G01X19204658Y-10269527D01*
G01X19209679Y-10281647D01*
G01X19217665Y-10292055D01*
G01X19228073Y-10300041D01*
G01X19240193Y-10305062D01*
G01X19253200Y-10306774D01*
G01X19364960Y-10306774D01*
G01X19367246Y-10306722D01*
G01X19367246Y-10414000D01*
G01X19368553Y-10423927D01*
G01X19372384Y-10433177D01*
G01X19378480Y-10441120D01*
G01X20005739Y-11068380D01*
G01X19995260Y-11078860D01*
G01X19989699Y-11087183D01*
G01X19987746Y-11097000D01*
G01X19987746Y-11144105D01*
G01X18901404Y-10057764D01*
G01X18901404Y-9969623D01*
G01X18899452Y-9959806D01*
G01X18893891Y-9951483D01*
G01X18885568Y-9945922D01*
G01X18875750Y-9943969D01*
G01X18738049Y-9943969D01*
G01X18728232Y-9945922D01*
G01X18719909Y-9951483D01*
G01X18714348Y-9959806D01*
G01X18712395Y-9969623D01*
G01X18160658Y-9969623D01*
G01X18164092Y-9961333D01*
G01X18165804Y-9948327D01*
G01X18165804Y-9944135D01*
G01X18173805Y-9952530D01*
G01X18183517Y-9958868D01*
G01X18194423Y-9962812D01*
G01X18205943Y-9964150D01*
G01X18312943Y-9964150D01*
G01X18325949Y-9962437D01*
G01X18338069Y-9957417D01*
G01X18348477Y-9949431D01*
G01X18356464Y-9939023D01*
G01X18361484Y-9926903D01*
G01X18363196Y-9913896D01*
G01X18363196Y-9853896D01*
G01X18361484Y-9840889D01*
G01X18356464Y-9828769D01*
G01X18348477Y-9818361D01*
G01X18338069Y-9810375D01*
G01X18325949Y-9805354D01*
G01X18312943Y-9803642D01*
G01X18205943Y-9803642D01*
G01X18194005Y-9805080D01*
G01X18182751Y-9809313D01*
G01X18172825Y-9816098D01*
G01X18164794Y-9825047D01*
G01X18160245Y-9812097D01*
G01X18152361Y-9800861D01*
G01X18141731Y-9792177D01*
G01X18129148Y-9786694D01*
G01X18115551Y-9784819D01*
G01X18115551Y-9784819D01*
G01X17977849Y-9784819D01*
G01X17964843Y-9786532D01*
G01X17952723Y-9791552D01*
G01X17942315Y-9799538D01*
G01X17934328Y-9809946D01*
G01X17929308Y-9822066D01*
G01X17927596Y-9835073D01*
G01X17866825Y-9835073D01*
G01X17857827Y-9828169D01*
G01X17845707Y-9823148D01*
G01X17832700Y-9821436D01*
G01X17752700Y-9821436D01*
G01X17752700Y-9821436D01*
G01X17739693Y-9823148D01*
G01X17727573Y-9828169D01*
G01X17717165Y-9836155D01*
G01X17709179Y-9846563D01*
G01X17704159Y-9858683D01*
G01X17702446Y-9871690D01*
G01X17410028Y-9871690D01*
G01X17408385Y-9869813D01*
G01X17410154Y-9858300D01*
G01X17410154Y-9761881D01*
G01X17440650Y-9761881D01*
G01X17450468Y-9759928D01*
G01X17458791Y-9754367D01*
G01X17464352Y-9746044D01*
G01X17466304Y-9736227D01*
G01X17466304Y-9631710D01*
G01X17727046Y-9631710D01*
G01X17727046Y-9711710D01*
G01X17728999Y-9721528D01*
G01X17734560Y-9729850D01*
G01X17742883Y-9735412D01*
G01X17752700Y-9737364D01*
G01X17832700Y-9737364D01*
G01X17842517Y-9735412D01*
G01X17850840Y-9729850D01*
G01X17856401Y-9721528D01*
G01X17858354Y-9711710D01*
G01X17858354Y-9710064D01*
G01X17952195Y-9710064D01*
G01X17952195Y-9748327D01*
G01X17952195Y-9748327D01*
G01X17954148Y-9758144D01*
G01X17959709Y-9766467D01*
G01X17968032Y-9772028D01*
G01X17977849Y-9773981D01*
G01X18115551Y-9773981D01*
G01X18125368Y-9772028D01*
G01X18133691Y-9766467D01*
G01X18138747Y-9758900D01*
G01X18427304Y-9758900D01*
G01X18427304Y-9818900D01*
G01X18429256Y-9828717D01*
G01X18434817Y-9837040D01*
G01X18443140Y-9842601D01*
G01X18452958Y-9844554D01*
G01X18478113Y-9844554D01*
G01X18495680Y-9862120D01*
G01X18503623Y-9868215D01*
G01X18512873Y-9872047D01*
G01X18522800Y-9873354D01*
G01X18712395Y-9873354D01*
G01X18712395Y-9882877D01*
G01X18712395Y-9882877D01*
G01X18714348Y-9892694D01*
G01X18719909Y-9901017D01*
G01X18728232Y-9906578D01*
G01X18738049Y-9908531D01*
G01X18875750Y-9908531D01*
G01X18885568Y-9906578D01*
G01X18893891Y-9901017D01*
G01X18899452Y-9892694D01*
G01X18901404Y-9882877D01*
G01X18901404Y-9878054D01*
G01X19018995Y-9878054D01*
G01X19018995Y-9888027D01*
G01X19020948Y-9897844D01*
G01X19026509Y-9906167D01*
G01X19034832Y-9911728D01*
G01X19044649Y-9913681D01*
G01X19182351Y-9913681D01*
G01X19192168Y-9911728D01*
G01X19200491Y-9906167D01*
G01X19206052Y-9897844D01*
G01X19208005Y-9888027D01*
G01X19208005Y-9774773D01*
G01X19206052Y-9764956D01*
G01X19200491Y-9756633D01*
G01X19192168Y-9751072D01*
G01X19182351Y-9749119D01*
G01X19044649Y-9749119D01*
G01X19034832Y-9751072D01*
G01X19026509Y-9756633D01*
G01X19020948Y-9764956D01*
G01X19018995Y-9774773D01*
G01X19018995Y-9801346D01*
G01X18901404Y-9801346D01*
G01X18901404Y-9769623D01*
G01X18899452Y-9759806D01*
G01X18893891Y-9751483D01*
G01X18885568Y-9745922D01*
G01X18875750Y-9743969D01*
G01X18738049Y-9743969D01*
G01X18728232Y-9745922D01*
G01X18719909Y-9751483D01*
G01X18714348Y-9759806D01*
G01X18712395Y-9769623D01*
G01X18712395Y-9796646D01*
G01X18585612Y-9796646D01*
G01X18585612Y-9758900D01*
G01X18583659Y-9749083D01*
G01X18578098Y-9740760D01*
G01X18569775Y-9735199D01*
G01X18559958Y-9733246D01*
G01X18452958Y-9733246D01*
G01X18443140Y-9735199D01*
G01X18434817Y-9740760D01*
G01X18429256Y-9749083D01*
G01X18427304Y-9758900D01*
G01X18138747Y-9758900D01*
G01X18139252Y-9758144D01*
G01X18141205Y-9748327D01*
G01X18141205Y-9732258D01*
G01X18181687Y-9732258D01*
G01X18185388Y-9739254D01*
G01X18191046Y-9744790D01*
G01X18198122Y-9748337D01*
G01X18205943Y-9749558D01*
G01X18312943Y-9749558D01*
G01X18322760Y-9747605D01*
G01X18331083Y-9742044D01*
G01X18336644Y-9733721D01*
G01X18338597Y-9723904D01*
G01X18338597Y-9663904D01*
G01X18337281Y-9655795D01*
G01X18333470Y-9648517D01*
G01X18327554Y-9642818D01*
G01X18327554Y-9350004D01*
G01X18342077Y-9350004D01*
G01X18351894Y-9348052D01*
G01X18360217Y-9342491D01*
G01X18365778Y-9334168D01*
G01X18367731Y-9324350D01*
G01X18367731Y-9186649D01*
G01X18403169Y-9186649D01*
G01X18403169Y-9324350D01*
G01X18405122Y-9334168D01*
G01X18410683Y-9342491D01*
G01X18419006Y-9348052D01*
G01X18428823Y-9350004D01*
G01X18542076Y-9350004D01*
G01X18551894Y-9348052D01*
G01X18560217Y-9342491D01*
G01X18565778Y-9334168D01*
G01X18567730Y-9324350D01*
G01X18567730Y-9296654D01*
G01X19113500Y-9296654D01*
G01X19123427Y-9295347D01*
G01X19132677Y-9291516D01*
G01X19140620Y-9285420D01*
G01X19928020Y-8498020D01*
G01X19934116Y-8490077D01*
G01X19937947Y-8480827D01*
G01X19939254Y-8470900D01*
G01X19939254Y-6944782D01*
G01X20415010Y-6944782D01*
G01X20415010Y-7770282D01*
G01X20416963Y-7780100D01*
G01X20422524Y-7788423D01*
G01X20430847Y-7793984D01*
G01X20440664Y-7795936D01*
G01X20783564Y-7795936D01*
G01X20793381Y-7793984D01*
G01X20801704Y-7788423D01*
G01X20807265Y-7780100D01*
G01X20809218Y-7770282D01*
G01X20809218Y-6944782D01*
G01X20807265Y-6934965D01*
G01X20801704Y-6926642D01*
G01X20793381Y-6921081D01*
G01X20783564Y-6919128D01*
G01X20440664Y-6919128D01*
G01X20440664Y-6919128D01*
G01X20430847Y-6921081D01*
G01X20422524Y-6926642D01*
G01X20416963Y-6934965D01*
G01X20415010Y-6944782D01*
G01X19939254Y-6944782D01*
G01X19939254Y-6470500D01*
G01X20014246Y-6470500D01*
G01X20015958Y-6483507D01*
G01X20020979Y-6495627D01*
G01X20028965Y-6506035D01*
G01X20039373Y-6514021D01*
G01X20051493Y-6519042D01*
G01X20064500Y-6520754D01*
G01X20264500Y-6520754D01*
G01X20277507Y-6519042D01*
G01X20289627Y-6514021D01*
G01X20300035Y-6506035D01*
G01X20308021Y-6495627D01*
G01X20313041Y-6483507D01*
G01X20314754Y-6470500D01*
G01X20314754Y-6070500D01*
G01X20313041Y-6057493D01*
G01X20308021Y-6045373D01*
G01X20300035Y-6034965D01*
G01X20289627Y-6026979D01*
G01X20277507Y-6021958D01*
G01X20264500Y-6020246D01*
G01X20064500Y-6020246D01*
G01X20051493Y-6021958D01*
G01X20039373Y-6026979D01*
G01X20028965Y-6034965D01*
G01X20020979Y-6045373D01*
G01X20015958Y-6057493D01*
G01X20014246Y-6070500D01*
G01X20014246Y-6470500D01*
G01X20014246Y-6470500D01*
G01X19939254Y-6470500D01*
G01X19939254Y-5871632D01*
G01X20415010Y-5871632D01*
G01X20415010Y-6697132D01*
G01X20416963Y-6706950D01*
G01X20422524Y-6715273D01*
G01X20430847Y-6720834D01*
G01X20440664Y-6722786D01*
G01X20783564Y-6722786D01*
G01X20793381Y-6720834D01*
G01X20801704Y-6715273D01*
G01X20807265Y-6706950D01*
G01X20809218Y-6697132D01*
G01X20809218Y-5871632D01*
G01X20807265Y-5861815D01*
G01X20801704Y-5853492D01*
G01X20793381Y-5847931D01*
G01X20783564Y-5845978D01*
G01X20440664Y-5845978D01*
G01X20440664Y-5845978D01*
G01X20430847Y-5847931D01*
G01X20422524Y-5853492D01*
G01X20416963Y-5861815D01*
G01X20415010Y-5871632D01*
G01X19939254Y-5871632D01*
G01X19939254Y-5537200D01*
G01X19937947Y-5527273D01*
G01X19934116Y-5518023D01*
G01X19928020Y-5510080D01*
G01X19609054Y-5191113D01*
G01X19609054Y-4764100D01*
G01X19751446Y-4764100D01*
G01X19751446Y-4964100D01*
G01X19753399Y-4973917D01*
G01X19758960Y-4982240D01*
G01X19767283Y-4987801D01*
G01X19777100Y-4989754D01*
G01X20177100Y-4989754D01*
G01X20186917Y-4987801D01*
G01X20195240Y-4982240D01*
G01X20200801Y-4973917D01*
G01X20202754Y-4964100D01*
G01X20202754Y-4902454D01*
G01X20242725Y-4902454D01*
G01X20878546Y-5538275D01*
G01X20878546Y-8605063D01*
G01X20496490Y-8987119D01*
G01X20390849Y-8987119D01*
G01X20390849Y-8987119D01*
G01X20381032Y-8989072D01*
G01X20372709Y-8994633D01*
G01X20367148Y-9002956D01*
G01X20365195Y-9012773D01*
G01X20365195Y-9126027D01*
G01X20367148Y-9135844D01*
G01X20372709Y-9144167D01*
G01X20381032Y-9149728D01*
G01X20390849Y-9151681D01*
G01X20528551Y-9151681D01*
G01X20538368Y-9149728D01*
G01X20546691Y-9144167D01*
G01X20552252Y-9135844D01*
G01X20554205Y-9126027D01*
G01X20554205Y-9037886D01*
G01X20944020Y-8648070D01*
G01X20950116Y-8640127D01*
G01X20953947Y-8630877D01*
G01X20955254Y-8620950D01*
G01X20955254Y-5522388D01*
G01X20953947Y-5512462D01*
G01X20950116Y-5503211D01*
G01X20944020Y-5495268D01*
G01X20285732Y-4836980D01*
G01X20277789Y-4830884D01*
G01X20268538Y-4827053D01*
G01X20258612Y-4825746D01*
G01X20202754Y-4825746D01*
G01X20202754Y-4764100D01*
G01X20200801Y-4754283D01*
G01X20195240Y-4745960D01*
G01X20186917Y-4740399D01*
G01X20177100Y-4738446D01*
G01X19777100Y-4738446D01*
G01X19767283Y-4740399D01*
G01X19758960Y-4745960D01*
G01X19753399Y-4754283D01*
G01X19751446Y-4764100D01*
G01X19609054Y-4764100D01*
G01X19609054Y-4286250D01*
G01X19729196Y-4286250D01*
G01X19729196Y-4679950D01*
G01X19731149Y-4689767D01*
G01X19736710Y-4698090D01*
G01X19745033Y-4703651D01*
G01X19754850Y-4705604D01*
G01X20199350Y-4705604D01*
G01X20209167Y-4703651D01*
G01X20217490Y-4698090D01*
G01X20223051Y-4689767D01*
G01X20225004Y-4679950D01*
G01X20225004Y-4286250D01*
G01X20225004Y-4286250D01*
G01X20223051Y-4276433D01*
G01X20217490Y-4268110D01*
G01X20209167Y-4262549D01*
G01X20199350Y-4260596D01*
G01X19754850Y-4260596D01*
G01X19745033Y-4262549D01*
G01X19736710Y-4268110D01*
G01X19731149Y-4276433D01*
G01X19729196Y-4286250D01*
G01X19609054Y-4286250D01*
G01X19609054Y-4018557D01*
G01X19629063Y-4010177D01*
G01X19647332Y-3998481D01*
G01X19663317Y-3983817D01*
G01X19676542Y-3966622D01*
G01X19686613Y-3947409D01*
G01X19693229Y-3926750D01*
G01X19696193Y-3905260D01*
G01X19695417Y-3883582D01*
G01X19690923Y-3862360D01*
G01X19682847Y-3842226D01*
G01X19671428Y-3823782D01*
G01X19670465Y-3822700D01*
G01X20259446Y-3822700D01*
G01X20261450Y-3863490D01*
G01X20267442Y-3903888D01*
G01X20277366Y-3943503D01*
G01X20291124Y-3981955D01*
G01X20308585Y-4018874D01*
G01X20329581Y-4053903D01*
G01X20353909Y-4086705D01*
G01X20381335Y-4116965D01*
G01X20411595Y-4144391D01*
G01X20444397Y-4168719D01*
G01X20479426Y-4189715D01*
G01X20516345Y-4207176D01*
G01X20554797Y-4220934D01*
G01X20594412Y-4230858D01*
G01X20634810Y-4236850D01*
G01X20675600Y-4238854D01*
G01X20716390Y-4236850D01*
G01X20756788Y-4230858D01*
G01X20796403Y-4220934D01*
G01X20834855Y-4207176D01*
G01X20871774Y-4189715D01*
G01X20906803Y-4168719D01*
G01X20939605Y-4144391D01*
G01X20969865Y-4116965D01*
G01X20997291Y-4086705D01*
G01X21021619Y-4053903D01*
G01X21042615Y-4018874D01*
G01X21060076Y-3981955D01*
G01X21073834Y-3943503D01*
G01X21083758Y-3903888D01*
G01X21089750Y-3863490D01*
G01X21091754Y-3822700D01*
G01X21089750Y-3781910D01*
G01X21083758Y-3741512D01*
G01X21073834Y-3701897D01*
G01X21060076Y-3663445D01*
G01X21042615Y-3626526D01*
G01X21021619Y-3591497D01*
G01X20997291Y-3558695D01*
G01X20969865Y-3528435D01*
G01X20939605Y-3501009D01*
G01X20906803Y-3476681D01*
G01X20871774Y-3455685D01*
G01X20834855Y-3438224D01*
G01X20796403Y-3424466D01*
G01X20756788Y-3414542D01*
G01X20716390Y-3408550D01*
G01X20675600Y-3406546D01*
G01X20634810Y-3408550D01*
G01X20594412Y-3414542D01*
G01X20554797Y-3424466D01*
G01X20516345Y-3438224D01*
G01X20479426Y-3455685D01*
G01X20444397Y-3476681D01*
G01X20411595Y-3501009D01*
G01X20381335Y-3528435D01*
G01X20353909Y-3558695D01*
G01X20329581Y-3591497D01*
G01X20308585Y-3626526D01*
G01X20291124Y-3663445D01*
G01X20277366Y-3701897D01*
G01X20267442Y-3741512D01*
G01X20261450Y-3781910D01*
G01X20259446Y-3822700D01*
G01X20259446Y-3822700D01*
G01X19670465Y-3822700D01*
G01X19657008Y-3807577D01*
G01X19640015Y-3794094D01*
G01X19620956Y-3783734D01*
G01X19600399Y-3776806D01*
G01X19578957Y-3773518D01*
G01X19557269Y-3773966D01*
G01X19535981Y-3778138D01*
G01X19515729Y-3785909D01*
G01X19497114Y-3797047D01*
G01X19480693Y-3811221D01*
G01X19466954Y-3828009D01*
G01X19466954Y-3798900D01*
G01X19465241Y-3785894D01*
G01X19460221Y-3773773D01*
G01X19452235Y-3763365D01*
G01X19441827Y-3755379D01*
G01X19429706Y-3750359D01*
G01X19416700Y-3748646D01*
G01X19216700Y-3748646D01*
G01X19203694Y-3750359D01*
G01X19191573Y-3755379D01*
G01X19181165Y-3763365D01*
G01X19173179Y-3773773D01*
G01X19168159Y-3785894D01*
G01X19166446Y-3798900D01*
G01X19166446Y-3998900D01*
G01X19168159Y-4011906D01*
G01X19173179Y-4024027D01*
G01X19181165Y-4034435D01*
G01X19191573Y-4042421D01*
G01X19203694Y-4047441D01*
G01X19216700Y-4049154D01*
G01X19416700Y-4049154D01*
G01X19429706Y-4047441D01*
G01X19441827Y-4042421D01*
G01X19452235Y-4034435D01*
G01X19460221Y-4024027D01*
G01X19465241Y-4011906D01*
G01X19466954Y-3998900D01*
G01X19466954Y-3969791D01*
G01X19480032Y-3985896D01*
G01X19495582Y-3999628D01*
G01X19513180Y-4010616D01*
G01X19532346Y-4018557D01*
G01X19532346Y-5207000D01*
G01X19533653Y-5216927D01*
G01X19537484Y-5226177D01*
G01X19543580Y-5234120D01*
G01X19862546Y-5553087D01*
G01X19862546Y-8455013D01*
G01X19097613Y-9219946D01*
G01X18567730Y-9219946D01*
G01X18567730Y-9219946D01*
G01X18567730Y-9186649D01*
G01X18565778Y-9176832D01*
G01X18560217Y-9168509D01*
G01X18551894Y-9162948D01*
G01X18542076Y-9160995D01*
G01X18428823Y-9160995D01*
G01X18419006Y-9162948D01*
G01X18410683Y-9168509D01*
G01X18405122Y-9176832D01*
G01X18403169Y-9186649D01*
G01X18367731Y-9186649D01*
G01X18365778Y-9176832D01*
G01X18360217Y-9168509D01*
G01X18351894Y-9162948D01*
G01X18342077Y-9160995D01*
G01X18228823Y-9160995D01*
G01X18219006Y-9162948D01*
G01X18210683Y-9168509D01*
G01X18205122Y-9176832D01*
G01X18203169Y-9186649D01*
G01X18203169Y-9324350D01*
G01X18205122Y-9334168D01*
G01X18210683Y-9342491D01*
G01X18219006Y-9348052D01*
G01X18228823Y-9350004D01*
G01X18250846Y-9350004D01*
G01X18250846Y-9638250D01*
G01X18205943Y-9638250D01*
G01X18198122Y-9639471D01*
G01X18191046Y-9643018D01*
G01X18185388Y-9648553D01*
G01X18181687Y-9655550D01*
G01X18141205Y-9655550D01*
G01X18141205Y-9635073D01*
G01X18139252Y-9625256D01*
G01X18133691Y-9616933D01*
G01X18125368Y-9611372D01*
G01X18115551Y-9609419D01*
G01X17977849Y-9609419D01*
G01X17968430Y-9611211D01*
G01X17960327Y-9616336D01*
G01X17954671Y-9624078D01*
G01X17952253Y-9633356D01*
G01X17858354Y-9633356D01*
G01X17858354Y-9631710D01*
G01X17856401Y-9621893D01*
G01X17850840Y-9613570D01*
G01X17842517Y-9608009D01*
G01X17832700Y-9606056D01*
G01X17752700Y-9606056D01*
G01X17742883Y-9608009D01*
G01X17734560Y-9613570D01*
G01X17728999Y-9621893D01*
G01X17727046Y-9631710D01*
G01X17466304Y-9631710D01*
G01X17466304Y-9622973D01*
G01X17464352Y-9613156D01*
G01X17458791Y-9604833D01*
G01X17450468Y-9599272D01*
G01X17440650Y-9597319D01*
G01X17302949Y-9597319D01*
G01X17293132Y-9599272D01*
G01X17284809Y-9604833D01*
G01X17279248Y-9613156D01*
G01X17277295Y-9622973D01*
G01X17277295Y-9736227D01*
G01X17279248Y-9746044D01*
G01X17284809Y-9754367D01*
G01X17293132Y-9759928D01*
G01X17302949Y-9761881D01*
G01X17333446Y-9761881D01*
G01X17333446Y-9842413D01*
G01X17312214Y-9863645D01*
G01X17250700Y-9863645D01*
G01X17240882Y-9865598D01*
G01X17232559Y-9871159D01*
G01X17226998Y-9879482D01*
G01X17225046Y-9889299D01*
G01X17225046Y-10024300D01*
G01X17226998Y-10034118D01*
G01X17232559Y-10042441D01*
G01X17240882Y-10048002D01*
G01X17250700Y-10049954D01*
G01X17282646Y-10049954D01*
G01X17282646Y-10202395D01*
G01X17264373Y-10202395D01*
G01X17254556Y-10204348D01*
G01X17246233Y-10209909D01*
G01X17240672Y-10218232D01*
G01X17238719Y-10228049D01*
G01X17238719Y-10365750D01*
G01X17240672Y-10375568D01*
G01X17246233Y-10383891D01*
G01X17254556Y-10389452D01*
G01X17264373Y-10391404D01*
G01X17282646Y-10391404D01*
G01X17282646Y-10507046D01*
G01X17223000Y-10507046D01*
G01X17223000Y-10507046D01*
G01X17213183Y-10508999D01*
G01X17204860Y-10514560D01*
G01X17199299Y-10522883D01*
G01X17197346Y-10532700D01*
G01X17186654Y-10532700D01*
G01X17185227Y-10524262D01*
G01X17181103Y-10516763D01*
G01X17174743Y-10511038D01*
G01X17166854Y-10507723D01*
G01X17166854Y-10391404D01*
G01X17177627Y-10391404D01*
G01X17187444Y-10389452D01*
G01X17195767Y-10383891D01*
G01X17201328Y-10375568D01*
G01X17203281Y-10365750D01*
G01X17203281Y-10228049D01*
G01X17201732Y-10219269D01*
G01X17197270Y-10211549D01*
G01X17190436Y-10205822D01*
G01X17182054Y-10202780D01*
G01X17182054Y-10049954D01*
G01X17191700Y-10049954D01*
G01X17201518Y-10048002D01*
G01X17209841Y-10042441D01*
G01X17215402Y-10034118D01*
G01X17217354Y-10024300D01*
G01X17217354Y-9889299D01*
G01X17215402Y-9879482D01*
G01X17209841Y-9871159D01*
G01X17201518Y-9865598D01*
G01X17191700Y-9863645D01*
G01X17156154Y-9863645D01*
G01X17156154Y-9761881D01*
G01X17186650Y-9761881D01*
G01X17196468Y-9759928D01*
G01X17204791Y-9754367D01*
G01X17210352Y-9746044D01*
G01X17212304Y-9736227D01*
G01X17212304Y-9622973D01*
G01X17210352Y-9613156D01*
G01X17204791Y-9604833D01*
G01X17196468Y-9599272D01*
G01X17186650Y-9597319D01*
G01X17048949Y-9597319D01*
G01X17039132Y-9599272D01*
G01X17030809Y-9604833D01*
G01X17025248Y-9613156D01*
G01X17023295Y-9622973D01*
G01X17023295Y-9736227D01*
G01X17025248Y-9746044D01*
G01X17030809Y-9754367D01*
G01X17039132Y-9759928D01*
G01X17048949Y-9761881D01*
G01X17079446Y-9761881D01*
G01X17079446Y-9863645D01*
G01X17050700Y-9863645D01*
G01X17040883Y-9865598D01*
G01X17032560Y-9871159D01*
G01X17026999Y-9879482D01*
G01X17025046Y-9889299D01*
G01X17025046Y-10024300D01*
G01X17026999Y-10034118D01*
G01X17032560Y-10042441D01*
G01X17040883Y-10048002D01*
G01X17050700Y-10049954D01*
G01X17105346Y-10049954D01*
G01X17105346Y-10202395D01*
G01X17064374Y-10202395D01*
G01X17054556Y-10204348D01*
G01X17046233Y-10209909D01*
G01X17040672Y-10218232D01*
G01X17038720Y-10228049D01*
G01X17038720Y-10365750D01*
G01X17040672Y-10375568D01*
G01X17046233Y-10383891D01*
G01X17054556Y-10389452D01*
G01X17064374Y-10391404D01*
G01X17090146Y-10391404D01*
G01X17090146Y-10507723D01*
G01X17084833Y-10509604D01*
G01X17080059Y-10512600D01*
G01X17074208Y-10502554D01*
G01X17066204Y-10494121D01*
G01X17056478Y-10487753D01*
G01X17045548Y-10483791D01*
G01X17034000Y-10482446D01*
G01X16969000Y-10482446D01*
G01X16955835Y-10484201D01*
G01X16943589Y-10489344D01*
G01X16933118Y-10497515D01*
G01X16925154Y-10508144D01*
G01X16925154Y-10479054D01*
G01X16942000Y-10479054D01*
G01X16951818Y-10477101D01*
G01X16960141Y-10471540D01*
G01X16965702Y-10463217D01*
G01X16967654Y-10453400D01*
G01X16967654Y-10312399D01*
G01X16966648Y-10305283D01*
G01X16963706Y-10298725D01*
G01X16975426Y-10290926D01*
G01X16984522Y-10280183D01*
G01X16990283Y-10267339D01*
G01X16992254Y-10253400D01*
G01X16992254Y-10112400D01*
G01X16990542Y-10099393D01*
G01X16985522Y-10087273D01*
G01X16977535Y-10076865D01*
G01X16967127Y-10068879D01*
G01X16955007Y-10063858D01*
G01X16942000Y-10062146D01*
G01X16806999Y-10062146D01*
G01X16793993Y-10063858D01*
G01X16781872Y-10068879D01*
G01X16771465Y-10076865D01*
G01X16763478Y-10087273D01*
G01X16758458Y-10099393D01*
G01X16756746Y-10112400D01*
G01X16756746Y-10253400D01*
G01X16758717Y-10267339D01*
G01X16764477Y-10280183D01*
G01X16773574Y-10290926D01*
G01X16785294Y-10298725D01*
G01X16782352Y-10305283D01*
G01X16781345Y-10312399D01*
G01X16781345Y-10332246D01*
G01X16713200Y-10332246D01*
G01X16700090Y-10333972D01*
G01X16687873Y-10339032D01*
G01X16677382Y-10347082D01*
G01X16550382Y-10474082D01*
G01X16542332Y-10484573D01*
G01X16537272Y-10496790D01*
G01X16535546Y-10509900D01*
G01X16357854Y-10509900D01*
G01X16357854Y-8724900D01*
G01X16356547Y-8714973D01*
G01X16352716Y-8705723D01*
G01X16346620Y-8697780D01*
G01X16310241Y-8661400D01*
G01X16458946Y-8661400D01*
G01X16458946Y-9055100D01*
G01X16460899Y-9064917D01*
G01X16466460Y-9073240D01*
G01X16474783Y-9078801D01*
G01X16484600Y-9080754D01*
G01X17018000Y-9080754D01*
G01X17027817Y-9078801D01*
G01X17036140Y-9073240D01*
G01X17041701Y-9064917D01*
G01X17043654Y-9055100D01*
G01X17043654Y-8661400D01*
G01X17043654Y-8661400D01*
G01X17041701Y-8651583D01*
G01X17036140Y-8643260D01*
G01X17027817Y-8637699D01*
G01X17018000Y-8635746D01*
G01X16484600Y-8635746D01*
G01X16474783Y-8637699D01*
G01X16466460Y-8643260D01*
G01X16460899Y-8651583D01*
G01X16458946Y-8661400D01*
G01X16310241Y-8661400D01*
G01X15849854Y-8201013D01*
G01X15849854Y-6940550D01*
G01X15976346Y-6940550D01*
G01X15976346Y-7766050D01*
G01X15978299Y-7775867D01*
G01X15983860Y-7784190D01*
G01X15992183Y-7789751D01*
G01X16002000Y-7791704D01*
G01X16344900Y-7791704D01*
G01X16354717Y-7789751D01*
G01X16363040Y-7784190D01*
G01X16368601Y-7775867D01*
G01X16370554Y-7766050D01*
G01X16370554Y-7178100D01*
G01X16487946Y-7178100D01*
G01X16487946Y-7578100D01*
G01X16489899Y-7587917D01*
G01X16495460Y-7596240D01*
G01X16503783Y-7601801D01*
G01X16513600Y-7603754D01*
G01X16549846Y-7603754D01*
G01X16549846Y-7861300D01*
G01X16549846Y-7861300D01*
G01X16551699Y-7876557D01*
G01X16557149Y-7890928D01*
G01X16565879Y-7903577D01*
G01X16577384Y-7913769D01*
G01X16590993Y-7920911D01*
G01X16605915Y-7924589D01*
G01X16621285Y-7924589D01*
G01X16636207Y-7920911D01*
G01X16649816Y-7913769D01*
G01X16661321Y-7903577D01*
G01X16670051Y-7890928D01*
G01X16675501Y-7876557D01*
G01X16677354Y-7861300D01*
G01X16677354Y-7603754D01*
G01X16713600Y-7603754D01*
G01X16723417Y-7601801D01*
G01X16731740Y-7596240D01*
G01X16737301Y-7587917D01*
G01X16739254Y-7578100D01*
G01X16739254Y-7178100D01*
G01X16737301Y-7168283D01*
G01X16731740Y-7159960D01*
G01X16723417Y-7154399D01*
G01X16713600Y-7152446D01*
G01X16513600Y-7152446D01*
G01X16503783Y-7154399D01*
G01X16495460Y-7159960D01*
G01X16489899Y-7168283D01*
G01X16487946Y-7178100D01*
G01X16370554Y-7178100D01*
G01X16370554Y-6940550D01*
G01X16368601Y-6930733D01*
G01X16363040Y-6922410D01*
G01X16354717Y-6916849D01*
G01X16344900Y-6914896D01*
G01X16002000Y-6914896D01*
G01X16002000Y-6914896D01*
G01X15992183Y-6916849D01*
G01X15983860Y-6922410D01*
G01X15978299Y-6930733D01*
G01X15976346Y-6940550D01*
G01X15849854Y-6940550D01*
G01X15849854Y-5867400D01*
G01X15976346Y-5867400D01*
G01X15976346Y-6692900D01*
G01X15978299Y-6702717D01*
G01X15983860Y-6711040D01*
G01X15992183Y-6716601D01*
G01X16002000Y-6718554D01*
G01X16344900Y-6718554D01*
G01X16354717Y-6716601D01*
G01X16363040Y-6711040D01*
G01X16368601Y-6702717D01*
G01X16370554Y-6692900D01*
G01X16370554Y-5867400D01*
G01X16368601Y-5857583D01*
G01X16363040Y-5849260D01*
G01X16354717Y-5843699D01*
G01X16344900Y-5841746D01*
G01X16002000Y-5841746D01*
G01X16002000Y-5841746D01*
G01X15992183Y-5843699D01*
G01X15983860Y-5849260D01*
G01X15978299Y-5857583D01*
G01X15976346Y-5867400D01*
G01X15849854Y-5867400D01*
G01X15849854Y-5248287D01*
G01X16100741Y-4997400D01*
G01X16297046Y-4997400D01*
G01X16297046Y-5397400D01*
G01X16298999Y-5407217D01*
G01X16304560Y-5415540D01*
G01X16312883Y-5421101D01*
G01X16322700Y-5423054D01*
G01X16395446Y-5423054D01*
G01X16395446Y-5499100D01*
G01X16396753Y-5509027D01*
G01X16400584Y-5518277D01*
G01X16406680Y-5526220D01*
G01X16813875Y-5933416D01*
G01X16813875Y-8305129D01*
G01X16815182Y-8315056D01*
G01X16819014Y-8324306D01*
G01X16825109Y-8332250D01*
G01X17079446Y-8586587D01*
G01X17079446Y-9397320D01*
G01X17079446Y-9397320D01*
G01X17048949Y-9397320D01*
G01X17039132Y-9399272D01*
G01X17030809Y-9404833D01*
G01X17025248Y-9413156D01*
G01X17023295Y-9422974D01*
G01X17023295Y-9536227D01*
G01X17025248Y-9546044D01*
G01X17030809Y-9554367D01*
G01X17039132Y-9559928D01*
G01X17048949Y-9561881D01*
G01X17186650Y-9561881D01*
G01X17196468Y-9559928D01*
G01X17204791Y-9554367D01*
G01X17210352Y-9546044D01*
G01X17212304Y-9536227D01*
G01X17212304Y-9422974D01*
G01X17210352Y-9413156D01*
G01X17204791Y-9404833D01*
G01X17196468Y-9399272D01*
G01X17186650Y-9397320D01*
G01X17156154Y-9397320D01*
G01X17156154Y-8570700D01*
G01X17154847Y-8560773D01*
G01X17151015Y-8551523D01*
G01X17144920Y-8543580D01*
G01X16890583Y-8289242D01*
G01X16890583Y-5917529D01*
G01X16889276Y-5907602D01*
G01X16885445Y-5898352D01*
G01X16879350Y-5890409D01*
G01X16506001Y-5517061D01*
G01X16936285Y-5517061D01*
G01X16936285Y-8135439D01*
G01X16937592Y-8145366D01*
G01X16941424Y-8154616D01*
G01X16947519Y-8162560D01*
G01X17335246Y-8550287D01*
G01X17335246Y-9397320D01*
G01X17335246Y-9397320D01*
G01X17302949Y-9397320D01*
G01X17293132Y-9399272D01*
G01X17284809Y-9404833D01*
G01X17279248Y-9413156D01*
G01X17277295Y-9422974D01*
G01X17277295Y-9536227D01*
G01X17279248Y-9546044D01*
G01X17284809Y-9554367D01*
G01X17293132Y-9559928D01*
G01X17302949Y-9561881D01*
G01X17440650Y-9561881D01*
G01X17450468Y-9559928D01*
G01X17458791Y-9554367D01*
G01X17464352Y-9546044D01*
G01X17466304Y-9536227D01*
G01X17466304Y-9422974D01*
G01X17464352Y-9413156D01*
G01X17458791Y-9404833D01*
G01X17450468Y-9399272D01*
G01X17440650Y-9397320D01*
G01X17411954Y-9397320D01*
G01X17411954Y-8655035D01*
G01X17517296Y-8655035D01*
G01X17517296Y-9048735D01*
G01X17519249Y-9058552D01*
G01X17524810Y-9066875D01*
G01X17533133Y-9072436D01*
G01X17542950Y-9074389D01*
G01X17987450Y-9074389D01*
G01X17997267Y-9072436D01*
G01X18005590Y-9066875D01*
G01X18011151Y-9058552D01*
G01X18013104Y-9048735D01*
G01X18013104Y-8655035D01*
G01X18013104Y-8655035D01*
G01X18011151Y-8645218D01*
G01X18005590Y-8636895D01*
G01X17997267Y-8631334D01*
G01X17987450Y-8629381D01*
G01X17542950Y-8629381D01*
G01X17533133Y-8631334D01*
G01X17524810Y-8636895D01*
G01X17519249Y-8645218D01*
G01X17517296Y-8655035D01*
G01X17411954Y-8655035D01*
G01X17411954Y-8534400D01*
G01X17410647Y-8524473D01*
G01X17406816Y-8515223D01*
G01X17400720Y-8507280D01*
G01X17012993Y-8119553D01*
G01X17012993Y-7531100D01*
G01X17017746Y-7531100D01*
G01X17017746Y-8047788D01*
G01X17019699Y-8057605D01*
G01X17025260Y-8065928D01*
G01X17033583Y-8071489D01*
G01X17043400Y-8073442D01*
G01X19742174Y-8073442D01*
G01X19751991Y-8071489D01*
G01X19760314Y-8065928D01*
G01X19765875Y-8057605D01*
G01X19767828Y-8047788D01*
G01X19767828Y-7531100D01*
G01X19765875Y-7521283D01*
G01X19760314Y-7512960D01*
G01X19751991Y-7507399D01*
G01X19742174Y-7505446D01*
G01X17043400Y-7505446D01*
G01X17043400Y-7505446D01*
G01X17033583Y-7507399D01*
G01X17025260Y-7512960D01*
G01X17019699Y-7521283D01*
G01X17017746Y-7531100D01*
G01X17012993Y-7531100D01*
G01X17012993Y-5604712D01*
G01X17024072Y-5604712D01*
G01X17024072Y-6121400D01*
G01X17026025Y-6131217D01*
G01X17031586Y-6139540D01*
G01X17039909Y-6145101D01*
G01X17049726Y-6147054D01*
G01X19748500Y-6147054D01*
G01X19758317Y-6145101D01*
G01X19766640Y-6139540D01*
G01X19772201Y-6131217D01*
G01X19774154Y-6121400D01*
G01X19774154Y-5604712D01*
G01X19772201Y-5594895D01*
G01X19766640Y-5586572D01*
G01X19758317Y-5581011D01*
G01X19748500Y-5579058D01*
G01X17049726Y-5579058D01*
G01X17049726Y-5579058D01*
G01X17039909Y-5581011D01*
G01X17031586Y-5586572D01*
G01X17026025Y-5594895D01*
G01X17024072Y-5604712D01*
G01X17012993Y-5604712D01*
G01X17012993Y-5537454D01*
G01X17437100Y-5537454D01*
G01X17447027Y-5536147D01*
G01X17456277Y-5532316D01*
G01X17464220Y-5526220D01*
G01X17683120Y-5307320D01*
G01X17689216Y-5299377D01*
G01X17693047Y-5290127D01*
G01X17694354Y-5280200D01*
G01X17694354Y-4766294D01*
G01X17712872Y-4757420D01*
G01X17729432Y-4745277D01*
G01X17743462Y-4730284D01*
G01X17754481Y-4712956D01*
G01X17762108Y-4693890D01*
G01X17766081Y-4673743D01*
G01X17766263Y-4653210D01*
G01X17762648Y-4632996D01*
G01X17755360Y-4613798D01*
G01X17744650Y-4596277D01*
G01X17730887Y-4581037D01*
G01X17714546Y-4568603D01*
G01X17696188Y-4559402D01*
G01X17676446Y-4553751D01*
G01X17656000Y-4551846D01*
G01X17635554Y-4553751D01*
G01X17615812Y-4559402D01*
G01X17597454Y-4568603D01*
G01X17581113Y-4581037D01*
G01X17567350Y-4596277D01*
G01X17556640Y-4613798D01*
G01X17549352Y-4632996D01*
G01X17545737Y-4653210D01*
G01X17545919Y-4673743D01*
G01X17549892Y-4693890D01*
G01X17557519Y-4712956D01*
G01X17568538Y-4730284D01*
G01X17582568Y-4745277D01*
G01X17599128Y-4757420D01*
G01X17617646Y-4766294D01*
G01X17617646Y-5264313D01*
G01X17421213Y-5460746D01*
G01X16992600Y-5460746D01*
G01X16982673Y-5462053D01*
G01X16973423Y-5465884D01*
G01X16965480Y-5471980D01*
G01X16947519Y-5489940D01*
G01X16941424Y-5497884D01*
G01X16937592Y-5507134D01*
G01X16936285Y-5517061D01*
G01X16506001Y-5517061D01*
G01X16472154Y-5483213D01*
G01X16472154Y-5423054D01*
G01X16522700Y-5423054D01*
G01X16532518Y-5421101D01*
G01X16540840Y-5415540D01*
G01X16546401Y-5407217D01*
G01X16548354Y-5397400D01*
G01X16548354Y-5010150D01*
G01X16566896Y-5010150D01*
G01X16566896Y-5403850D01*
G01X16568849Y-5413667D01*
G01X16574410Y-5421990D01*
G01X16582733Y-5427551D01*
G01X16592550Y-5429504D01*
G01X17037050Y-5429504D01*
G01X17046867Y-5427551D01*
G01X17055190Y-5421990D01*
G01X17060751Y-5413667D01*
G01X17062704Y-5403850D01*
G01X17062704Y-5010150D01*
G01X17062704Y-5010150D01*
G01X17060751Y-5000333D01*
G01X17055190Y-4992010D01*
G01X17046867Y-4986449D01*
G01X17037050Y-4984496D01*
G01X16592550Y-4984496D01*
G01X16582733Y-4986449D01*
G01X16574410Y-4992010D01*
G01X16568849Y-5000333D01*
G01X16566896Y-5010150D01*
G01X16548354Y-5010150D01*
G01X16548354Y-4997400D01*
G01X16546401Y-4987583D01*
G01X16540840Y-4979260D01*
G01X16532518Y-4973699D01*
G01X16522700Y-4971746D01*
G01X16322700Y-4971746D01*
G01X16312883Y-4973699D01*
G01X16304560Y-4979260D01*
G01X16298999Y-4987583D01*
G01X16297046Y-4997400D01*
G01X16100741Y-4997400D01*
G01X16221087Y-4877054D01*
G01X16446500Y-4877054D01*
G01X16456427Y-4875747D01*
G01X16465677Y-4871916D01*
G01X16473620Y-4865820D01*
G01X16500621Y-4838820D01*
G01X16506716Y-4830877D01*
G01X16510547Y-4821627D01*
G01X16511854Y-4811700D01*
G01X16511854Y-4734154D01*
G01X16571900Y-4734154D01*
G01X16581717Y-4732201D01*
G01X16590040Y-4726640D01*
G01X16595601Y-4718317D01*
G01X16597554Y-4708500D01*
G01X16597554Y-4577500D01*
G01X16758746Y-4577500D01*
G01X16758746Y-4747500D01*
G01X16760459Y-4760506D01*
G01X16765479Y-4772627D01*
G01X16773465Y-4783035D01*
G01X16783873Y-4791021D01*
G01X16795993Y-4796041D01*
G01X16809000Y-4797754D01*
G01X16809000Y-4797754D01*
G01X16979000Y-4797754D01*
G01X16992006Y-4796041D01*
G01X17004127Y-4791021D01*
G01X17014535Y-4783035D01*
G01X17022521Y-4772627D01*
G01X17027541Y-4760506D01*
G01X17029254Y-4747500D01*
G01X17029254Y-4577500D01*
G01X17027541Y-4564493D01*
G01X17022521Y-4552373D01*
G01X17014535Y-4541965D01*
G01X17004127Y-4533979D01*
G01X16992006Y-4528959D01*
G01X16979000Y-4527246D01*
G01X16809000Y-4527246D01*
G01X16795993Y-4528959D01*
G01X16783873Y-4533979D01*
G01X16773465Y-4541965D01*
G01X16765479Y-4552373D01*
G01X16760459Y-4564493D01*
G01X16758746Y-4577500D01*
G01X16597554Y-4577500D01*
G01X16597554Y-4308500D01*
G01X16595601Y-4298683D01*
G01X16590040Y-4290360D01*
G01X16581717Y-4284799D01*
G01X16571900Y-4282846D01*
G01X16371900Y-4282846D01*
G01X16362083Y-4284799D01*
G01X16353760Y-4290360D01*
G01X16348199Y-4298683D01*
G01X16346246Y-4308500D01*
G01X16346246Y-4708500D01*
G01X16348199Y-4718317D01*
G01X16353760Y-4726640D01*
G01X16362083Y-4732201D01*
G01X16371900Y-4734154D01*
G01X16435146Y-4734154D01*
G01X16435146Y-4795813D01*
G01X16430613Y-4800346D01*
G01X16205200Y-4800346D01*
G01X16195273Y-4801653D01*
G01X16186023Y-4805484D01*
G01X16178080Y-4811580D01*
G01X15784380Y-5205280D01*
G01X15778284Y-5213223D01*
G01X15774453Y-5222473D01*
G01X15773146Y-5232400D01*
G01X15640304Y-5232400D01*
G01X15640304Y-4492637D01*
G01X15826234Y-4306706D01*
G01X15838762Y-4306706D01*
G01X15838762Y-4700406D01*
G01X15840715Y-4710224D01*
G01X15846276Y-4718547D01*
G01X15854599Y-4724108D01*
G01X15864416Y-4726060D01*
G01X16308916Y-4726060D01*
G01X16318733Y-4724108D01*
G01X16327056Y-4718547D01*
G01X16332617Y-4710224D01*
G01X16334570Y-4700406D01*
G01X16334570Y-4306706D01*
G01X16334570Y-4306706D01*
G01X16332617Y-4296889D01*
G01X16327056Y-4288566D01*
G01X16318733Y-4283005D01*
G01X16308916Y-4281052D01*
G01X15864416Y-4281052D01*
G01X15854599Y-4283005D01*
G01X15846276Y-4288566D01*
G01X15840715Y-4296889D01*
G01X15838762Y-4306706D01*
G01X15826234Y-4306706D01*
G01X15865487Y-4267454D01*
G01X16951313Y-4267454D01*
G01X17109646Y-4425787D01*
G01X17109646Y-4558706D01*
G01X17091128Y-4567580D01*
G01X17074568Y-4579723D01*
G01X17060538Y-4594716D01*
G01X17049519Y-4612044D01*
G01X17041892Y-4631110D01*
G01X17037919Y-4651256D01*
G01X17037737Y-4671790D01*
G01X17041352Y-4692004D01*
G01X17048640Y-4711202D01*
G01X17059350Y-4728722D01*
G01X17073113Y-4743962D01*
G01X17089454Y-4756397D01*
G01X17107812Y-4765598D01*
G01X17127554Y-4771248D01*
G01X17148000Y-4773154D01*
G01X17168446Y-4771248D01*
G01X17188188Y-4765598D01*
G01X17206546Y-4756397D01*
G01X17222887Y-4743962D01*
G01X17236650Y-4728722D01*
G01X17247360Y-4711202D01*
G01X17254648Y-4692004D01*
G01X17258263Y-4671790D01*
G01X17258181Y-4662500D01*
G01X17266746Y-4662500D01*
G01X17268591Y-4684762D01*
G01X17274075Y-4706417D01*
G01X17283048Y-4726874D01*
G01X17295266Y-4745575D01*
G01X17310395Y-4762009D01*
G01X17328023Y-4775730D01*
G01X17347669Y-4786362D01*
G01X17368797Y-4793615D01*
G01X17390831Y-4797292D01*
G01X17413169Y-4797292D01*
G01X17435203Y-4793615D01*
G01X17456331Y-4786362D01*
G01X17475977Y-4775730D01*
G01X17493605Y-4762009D01*
G01X17508734Y-4745575D01*
G01X17520952Y-4726874D01*
G01X17529925Y-4706417D01*
G01X17535409Y-4684762D01*
G01X17537254Y-4662500D01*
G01X17535409Y-4640238D01*
G01X17529925Y-4618583D01*
G01X17520952Y-4598126D01*
G01X17508734Y-4579425D01*
G01X17493605Y-4562991D01*
G01X17475977Y-4549270D01*
G01X17456331Y-4538638D01*
G01X17435203Y-4531385D01*
G01X17413169Y-4527708D01*
G01X17390831Y-4527708D01*
G01X17368797Y-4531385D01*
G01X17347669Y-4538638D01*
G01X17328023Y-4549270D01*
G01X17310395Y-4562991D01*
G01X17295266Y-4579425D01*
G01X17283048Y-4598126D01*
G01X17274075Y-4618583D01*
G01X17268591Y-4640238D01*
G01X17266746Y-4662500D01*
G01X17266746Y-4662500D01*
G01X17258181Y-4662500D01*
G01X17258081Y-4651256D01*
G01X17254108Y-4631110D01*
G01X17246481Y-4612044D01*
G01X17235462Y-4594716D01*
G01X17221432Y-4579723D01*
G01X17204872Y-4567580D01*
G01X17186354Y-4558706D01*
G01X17186354Y-4409900D01*
G01X17185047Y-4399973D01*
G01X17181216Y-4390723D01*
G01X17175120Y-4382780D01*
G01X16994320Y-4201980D01*
G01X16986377Y-4195884D01*
G01X16977127Y-4192053D01*
G01X16967200Y-4190746D01*
G01X16297832Y-4190746D01*
G01X16333040Y-4169891D01*
G01X16366029Y-4145679D01*
G01X16396480Y-4118344D01*
G01X16424100Y-4088150D01*
G01X16448621Y-4055390D01*
G01X16469806Y-4020380D01*
G01X16487450Y-3983458D01*
G01X16501383Y-3944982D01*
G01X16511469Y-3905324D01*
G01X16517612Y-3864867D01*
G01X16519752Y-3824003D01*
G01X16519692Y-3822700D01*
G01X17211446Y-3822700D01*
G01X17213450Y-3863490D01*
G01X17219442Y-3903888D01*
G01X17229366Y-3943503D01*
G01X17243124Y-3981955D01*
G01X17260585Y-4018874D01*
G01X17281581Y-4053903D01*
G01X17305909Y-4086705D01*
G01X17333335Y-4116965D01*
G01X17363595Y-4144391D01*
G01X17396397Y-4168719D01*
G01X17431426Y-4189715D01*
G01X17468345Y-4207176D01*
G01X17506797Y-4220934D01*
G01X17546412Y-4230858D01*
G01X17586810Y-4236850D01*
G01X17627600Y-4238854D01*
G01X17668390Y-4236850D01*
G01X17708788Y-4230858D01*
G01X17748403Y-4220934D01*
G01X17786855Y-4207176D01*
G01X17823774Y-4189715D01*
G01X17858803Y-4168719D01*
G01X17891605Y-4144391D01*
G01X17921865Y-4116965D01*
G01X17949291Y-4086705D01*
G01X17973619Y-4053903D01*
G01X17994615Y-4018874D01*
G01X18012076Y-3981955D01*
G01X18025834Y-3943503D01*
G01X18035758Y-3903888D01*
G01X18041750Y-3863490D01*
G01X18043754Y-3822700D01*
G01X18041750Y-3781910D01*
G01X18035758Y-3741512D01*
G01X18025834Y-3701897D01*
G01X18012076Y-3663445D01*
G01X17994615Y-3626526D01*
G01X17973619Y-3591497D01*
G01X17949291Y-3558695D01*
G01X17921865Y-3528435D01*
G01X17891605Y-3501009D01*
G01X17858803Y-3476681D01*
G01X17823774Y-3455685D01*
G01X17786855Y-3438224D01*
G01X17748403Y-3424466D01*
G01X17708788Y-3414542D01*
G01X17668390Y-3408550D01*
G01X17627600Y-3406546D01*
G01X17586810Y-3408550D01*
G01X17546412Y-3414542D01*
G01X17506797Y-3424466D01*
G01X17468345Y-3438224D01*
G01X17431426Y-3455685D01*
G01X17396397Y-3476681D01*
G01X17363595Y-3501009D01*
G01X17333335Y-3528435D01*
G01X17305909Y-3558695D01*
G01X17281581Y-3591497D01*
G01X17260585Y-3626526D01*
G01X17243124Y-3663445D01*
G01X17229366Y-3701897D01*
G01X17219442Y-3741512D01*
G01X17213450Y-3781910D01*
G01X17211446Y-3822700D01*
G01X17211446Y-3822700D01*
G01X16519692Y-3822700D01*
G01X16517868Y-3783125D01*
G01X16511978Y-3742631D01*
G01X16502140Y-3702910D01*
G01X16488449Y-3664348D01*
G01X16471036Y-3627317D01*
G01X16450071Y-3592175D01*
G01X16425756Y-3559262D01*
G01X16398325Y-3528896D01*
G01X16368045Y-3501371D01*
G01X16335209Y-3476952D01*
G01X16300132Y-3455877D01*
G01X16263156Y-3438349D01*
G01X16224637Y-3424537D01*
G01X16184947Y-3414574D01*
G01X16144471Y-3408558D01*
G01X16103600Y-3406546D01*
G01X16062729Y-3408558D01*
G01X16022253Y-3414574D01*
G01X15982563Y-3424537D01*
G01X15944044Y-3438349D01*
G01X15907068Y-3455877D01*
G01X15871991Y-3476952D01*
G01X15839155Y-3501371D01*
G01X15808875Y-3528896D01*
G01X15781444Y-3559262D01*
G01X15757129Y-3592175D01*
G01X15736164Y-3627317D01*
G01X15718751Y-3664348D01*
G01X15705060Y-3702910D01*
G01X15695222Y-3742631D01*
G01X15689332Y-3783125D01*
G01X15687448Y-3824003D01*
G01X15689588Y-3864867D01*
G01X15695731Y-3905324D01*
G01X15705817Y-3944982D01*
G01X15719750Y-3983458D01*
G01X15737394Y-4020380D01*
G01X15758579Y-4055390D01*
G01X15783100Y-4088150D01*
G01X15810720Y-4118344D01*
G01X15841171Y-4145679D01*
G01X15874160Y-4169891D01*
G01X15909368Y-4190746D01*
G01X15849600Y-4190746D01*
G01X15839673Y-4192053D01*
G01X15830423Y-4195884D01*
G01X15822480Y-4201980D01*
G01X15574830Y-4449630D01*
G01X15568734Y-4457573D01*
G01X15564903Y-4466823D01*
G01X15563596Y-4476750D01*
G01X15563596Y-8519526D01*
G01X15466530Y-8616593D01*
G01X15460434Y-8624536D01*
G01X15456603Y-8633786D01*
G01X15455296Y-8643713D01*
G01X15392654Y-8643713D01*
G01X15392654Y-2816386D01*
G01X15716540Y-2816386D01*
G01X15716540Y-2847814D01*
G01X15720479Y-2878993D01*
G01X15728294Y-2909433D01*
G01X15739863Y-2938653D01*
G01X15755004Y-2966193D01*
G01X15773476Y-2991618D01*
G01X15794989Y-3014527D01*
G01X15819204Y-3034560D01*
G01X15845739Y-3051399D01*
G01X15874175Y-3064780D01*
G01X15904064Y-3074492D01*
G01X15934935Y-3080381D01*
G01X15966300Y-3082354D01*
G01X16266300Y-3082354D01*
G01X16297665Y-3080381D01*
G01X16328536Y-3074492D01*
G01X16358425Y-3064780D01*
G01X16386861Y-3051399D01*
G01X16413396Y-3034560D01*
G01X16437611Y-3014527D01*
G01X16459124Y-2991618D01*
G01X16477596Y-2966193D01*
G01X16492737Y-2938653D01*
G01X16504306Y-2909433D01*
G01X16512121Y-2878993D01*
G01X16516060Y-2847814D01*
G01X16516060Y-2816386D01*
G01X16516060Y-2816386D01*
G01X20288540Y-2816386D01*
G01X20288540Y-2847814D01*
G01X20292479Y-2878993D01*
G01X20300294Y-2909433D01*
G01X20311863Y-2938653D01*
G01X20327004Y-2966193D01*
G01X20345476Y-2991618D01*
G01X20366989Y-3014527D01*
G01X20391204Y-3034560D01*
G01X20417739Y-3051399D01*
G01X20446175Y-3064780D01*
G01X20476064Y-3074492D01*
G01X20506935Y-3080381D01*
G01X20538300Y-3082354D01*
G01X20838300Y-3082354D01*
G01X20869665Y-3080381D01*
G01X20900536Y-3074492D01*
G01X20930425Y-3064780D01*
G01X20958861Y-3051399D01*
G01X20985396Y-3034560D01*
G01X21009611Y-3014527D01*
G01X21031124Y-2991618D01*
G01X21049596Y-2966193D01*
G01X21064737Y-2938653D01*
G01X21076306Y-2909433D01*
G01X21084121Y-2878993D01*
G01X21088060Y-2847814D01*
G01X21088060Y-2816386D01*
G01X21084121Y-2785207D01*
G01X21076306Y-2754767D01*
G01X21064737Y-2725547D01*
G01X21049596Y-2698007D01*
G01X21031124Y-2672582D01*
G01X21009611Y-2649673D01*
G01X20985396Y-2629640D01*
G01X20958861Y-2612801D01*
G01X20930425Y-2599420D01*
G01X20900536Y-2589708D01*
G01X20869665Y-2583819D01*
G01X20838300Y-2581846D01*
G01X20838300Y-2581846D01*
G01X20538300Y-2581846D01*
G01X20506935Y-2583819D01*
G01X20476064Y-2589708D01*
G01X20446175Y-2599420D01*
G01X20417739Y-2612801D01*
G01X20391204Y-2629640D01*
G01X20366989Y-2649673D01*
G01X20345476Y-2672582D01*
G01X20327004Y-2698007D01*
G01X20311863Y-2725547D01*
G01X20300294Y-2754767D01*
G01X20292479Y-2785207D01*
G01X20288540Y-2816386D01*
G01X16516060Y-2816386D01*
G01X16512121Y-2785207D01*
G01X16504306Y-2754767D01*
G01X16492737Y-2725547D01*
G01X16477596Y-2698007D01*
G01X16459124Y-2672582D01*
G01X16437611Y-2649673D01*
G01X16413396Y-2629640D01*
G01X16386861Y-2612801D01*
G01X16358425Y-2599420D01*
G01X16328536Y-2589708D01*
G01X16297665Y-2583819D01*
G01X16266300Y-2581846D01*
G01X16266300Y-2581846D01*
G01X15966300Y-2581846D01*
G01X15934935Y-2583819D01*
G01X15904064Y-2589708D01*
G01X15874175Y-2599420D01*
G01X15845739Y-2612801D01*
G01X15819204Y-2629640D01*
G01X15794989Y-2649673D01*
G01X15773476Y-2672582D01*
G01X15755004Y-2698007D01*
G01X15739863Y-2725547D01*
G01X15728294Y-2754767D01*
G01X15720479Y-2785207D01*
G01X15716540Y-2816386D01*
G01X15392654Y-2816386D01*
G01X15392654Y-2561654D01*
G37*
G36*
G01X19443954Y-10398113D02*
G01X19443954Y-10282072D01*
G01X19446240Y-10282174D01*
G01X19558000Y-10282174D01*
G01X19564805Y-10281255D01*
G01X19571122Y-10278564D01*
G01X19576499Y-10274294D01*
G01X20093501Y-10274294D01*
G01X20097848Y-10285199D01*
G01X20105587Y-10294028D01*
G01X20115830Y-10299765D01*
G01X20127400Y-10301754D01*
G01X20306400Y-10301754D01*
G01X20309746Y-10301592D01*
G01X20309746Y-10317608D01*
G01X20306400Y-10317446D01*
G01X20127400Y-10317446D01*
G01X20118438Y-10318625D01*
G01X20110087Y-10322081D01*
G01X20102912Y-10327579D01*
G01X20097404Y-10334746D01*
G01X20005300Y-10334746D01*
G01X19995373Y-10336053D01*
G01X19986123Y-10339884D01*
G01X19978180Y-10345980D01*
G01X19835680Y-10488480D01*
G01X19829584Y-10496423D01*
G01X19825753Y-10505673D01*
G01X19824446Y-10515600D01*
G01X19824446Y-10778605D01*
G01X19443954Y-10398113D01*
G37*
G36*
G01X20021187Y-10411454D02*
G01X20073205Y-10411454D01*
G01X20049780Y-10434879D01*
G01X20043684Y-10442823D01*
G01X20039853Y-10452073D01*
G01X20038546Y-10462000D01*
G01X20038546Y-10585600D01*
G01X20039853Y-10595527D01*
G01X20043684Y-10604777D01*
G01X20049780Y-10612721D01*
G01X20091280Y-10654220D01*
G01X20093782Y-10656511D01*
G01X20096863Y-10664482D01*
G01X20101800Y-10671456D01*
G01X20108294Y-10677011D01*
G01X20095086Y-10683433D01*
G01X20083863Y-10692906D01*
G01X20075315Y-10704849D01*
G01X20069966Y-10718527D01*
G01X20068146Y-10733100D01*
G01X20068146Y-10775100D01*
G01X20070165Y-10790436D01*
G01X20076085Y-10804727D01*
G01X20085501Y-10816999D01*
G01X20097773Y-10826415D01*
G01X20112064Y-10832335D01*
G01X20127400Y-10834354D01*
G01X20306400Y-10834354D01*
G01X20321736Y-10832335D01*
G01X20336027Y-10826415D01*
G01X20348299Y-10816999D01*
G01X20357715Y-10804727D01*
G01X20363635Y-10790436D01*
G01X20365654Y-10775100D01*
G01X20365654Y-10733100D01*
G01X20363834Y-10718527D01*
G01X20358485Y-10704849D01*
G01X20349937Y-10692906D01*
G01X20338714Y-10683433D01*
G01X20325506Y-10677011D01*
G01X20333821Y-10669289D01*
G01X20339196Y-10659295D01*
G01X20341054Y-10648100D01*
G01X20341054Y-10606100D01*
G01X20339358Y-10595391D01*
G01X20334436Y-10585731D01*
G01X20326769Y-10578064D01*
G01X20317109Y-10573142D01*
G01X20306400Y-10571446D01*
G01X20127400Y-10571446D01*
G01X20118224Y-10572683D01*
G01X20115254Y-10569713D01*
G01X20115254Y-10553556D01*
G01X20121228Y-10555200D01*
G01X20127400Y-10555754D01*
G01X20306400Y-10555754D01*
G01X20316107Y-10554367D01*
G01X20325036Y-10550316D01*
G01X20332473Y-10543927D01*
G01X20337824Y-10535710D01*
G01X20344692Y-10532119D01*
G01X20350698Y-10527220D01*
G01X20470346Y-10407573D01*
G01X20470346Y-10944346D01*
G01X20140400Y-10944346D01*
G01X20130583Y-10946299D01*
G01X20122260Y-10951860D01*
G01X20059980Y-11014139D01*
G01X19901154Y-10855313D01*
G01X19901154Y-10531487D01*
G01X20021187Y-10411454D01*
G37*
G54D10*
G01X16874500Y-11347700D02*
G01X16874500Y-11212446D01*
G01X16874500Y-11347700D02*
G01X16791746Y-11347700D01*
G01X16874500Y-10182900D02*
G01X16874500Y-10062146D01*
G01X16874500Y-10182900D02*
G01X16756746Y-10182900D01*
G01X16874500Y-10182900D02*
G01X16992254Y-10182900D01*
G01X16894000Y-4662500D02*
G01X16758746Y-4662500D01*
G01X16894000Y-4662500D02*
G01X16894000Y-4527246D01*
G01X16894000Y-4662500D02*
G01X16894000Y-4797754D01*
G01X17001500Y-10617700D02*
G01X17001500Y-10482446D01*
G01X17001500Y-10617700D02*
G01X17001500Y-10752954D01*
G01X17255500Y-11843400D02*
G01X17255500Y-11964154D01*
G01X17255500Y-11843400D02*
G01X17373254Y-11843400D01*
G01X17255500Y-11843400D02*
G01X17137746Y-11843400D01*
G01X17402000Y-4662500D02*
G01X17402000Y-4527246D01*
G01X17402000Y-4662500D02*
G01X17402000Y-4797754D01*
G01X17518100Y-13789400D02*
G01X17718354Y-13789400D01*
G01X17518100Y-13789400D02*
G01X17317846Y-13789400D01*
G01X17518100Y-13789400D02*
G01X17518100Y-13919654D01*
G01X17518100Y-13789400D02*
G01X17518100Y-13659146D01*
G01X17552100Y-12773400D02*
G01X17351846Y-12773400D01*
G01X17552100Y-12773400D02*
G01X17752354Y-12773400D01*
G01X17552100Y-12773400D02*
G01X17552100Y-12643146D01*
G01X17552100Y-12773400D02*
G01X17552100Y-12903654D01*
G01X17792700Y-9911690D02*
G01X17792700Y-9821436D01*
G01X17792700Y-9911690D02*
G01X17792700Y-10001943D01*
G01X17792700Y-9911690D02*
G01X17882954Y-9911690D01*
G01X17792700Y-9911690D02*
G01X17702446Y-9911690D01*
G01X18046700Y-9891700D02*
G01X18046700Y-9998580D01*
G01X18046700Y-9891700D02*
G01X17927596Y-9891700D01*
G01X18259443Y-9883896D02*
G01X18363196Y-9883896D01*
G01X18259443Y-9883896D02*
G01X18259443Y-9964150D01*
G01X18259443Y-9883896D02*
G01X18259443Y-9803642D01*
G01X19137100Y-13281400D02*
G01X18836846Y-13281400D01*
G01X19137100Y-13281400D02*
G01X19437354Y-13281400D01*
G01X19137100Y-13281400D02*
G01X19137100Y-13180146D01*
G01X19137100Y-13281400D02*
G01X19137100Y-13382654D01*
G01X19137100Y-13027400D02*
G01X18836846Y-13027400D01*
G01X19137100Y-13027400D02*
G01X19437354Y-13027400D01*
G01X19137100Y-13027400D02*
G01X19137100Y-12926146D01*
G01X19137100Y-13027400D02*
G01X19137100Y-13128654D01*
G01X19137100Y-13535400D02*
G01X18836846Y-13535400D01*
G01X19137100Y-13535400D02*
G01X19437354Y-13535400D01*
G01X19137100Y-13535400D02*
G01X19137100Y-13434146D01*
G01X19137100Y-13535400D02*
G01X19137100Y-13636654D01*
G01X19309080Y-10256520D02*
G01X19309080Y-10306774D01*
G01X19316700Y-3898900D02*
G01X19166446Y-3898900D01*
G01X19316700Y-3898900D02*
G01X19316700Y-3748646D01*
G01X19316700Y-3898900D02*
G01X19316700Y-4049154D01*
G01X19443700Y-9590100D02*
G01X19443700Y-9469346D01*
G01X19443700Y-9590100D02*
G01X19561454Y-9590100D01*
G01X19443700Y-9590100D02*
G01X19325946Y-9590100D01*
G01X19683200Y-9904800D02*
G01X19683200Y-9784046D01*
G01X19683200Y-9904800D02*
G01X19565446Y-9904800D01*
G01X19897100Y-13281400D02*
G01X19596846Y-13281400D01*
G01X19897100Y-13281400D02*
G01X20197354Y-13281400D01*
G01X19897100Y-13281400D02*
G01X19897100Y-13180146D01*
G01X19897100Y-13281400D02*
G01X19897100Y-13382654D01*
G01X19897100Y-13535400D02*
G01X19596846Y-13535400D01*
G01X19897100Y-13535400D02*
G01X20197354Y-13535400D01*
G01X19897100Y-13535400D02*
G01X19897100Y-13434146D01*
G01X19897100Y-13535400D02*
G01X19897100Y-13636654D01*
G01X19897100Y-13027400D02*
G01X19596846Y-13027400D01*
G01X19897100Y-13027400D02*
G01X20197354Y-13027400D01*
G01X19897100Y-13027400D02*
G01X19897100Y-12926146D01*
G01X19897100Y-13027400D02*
G01X19897100Y-13128654D01*
G01X20164500Y-6270500D02*
G01X20014246Y-6270500D01*
G01X20164500Y-6270500D02*
G01X20314754Y-6270500D01*
G01X20164500Y-6270500D02*
G01X20164500Y-6020246D01*
G01X20164500Y-6270500D02*
G01X20164500Y-6520754D01*
G01X20216900Y-10754100D02*
G01X20068146Y-10754100D01*
G01X20216900Y-10754100D02*
G01X20365654Y-10754100D01*
G01X20216900Y-10754100D02*
G01X20216900Y-10834354D01*
G01X20291400Y-11920000D02*
G01X20291400Y-12070254D01*
G01X20291400Y-11920000D02*
G01X20291400Y-11769746D01*
G01X20291400Y-11920000D02*
G01X20166146Y-11920000D01*
G01X20648400Y-12863500D02*
G01X20648400Y-12638246D01*
G01X20648400Y-12863500D02*
G01X20648400Y-13088754D01*
G01X20648400Y-12863500D02*
G01X20778654Y-12863500D01*
G01X20648400Y-12863500D02*
G01X20518146Y-12863500D01*
G01X20775400Y-13827500D02*
G01X20775400Y-13627246D01*
G01X20775400Y-13827500D02*
G01X20775400Y-14027754D01*
G01X20775400Y-13827500D02*
G01X20905654Y-13827500D01*
G01X20775400Y-13827500D02*
G01X20645146Y-13827500D01*
G01X21156600Y-9994900D02*
G01X21277354Y-9994900D01*
G01X21156600Y-9994900D02*
G01X21156600Y-9877146D01*
G01X21156600Y-9994900D02*
G01X21156600Y-10112654D01*
G01X16116300Y-2832100D02*
G01X15716046Y-2832100D01*
G01X16116300Y-2832100D02*
G01X16516554Y-2832100D01*
G01X16116300Y-2832100D02*
G01X16116300Y-3082354D01*
G01X20688300Y-2832100D02*
G01X20288046Y-2832100D01*
G01X20688300Y-2832100D02*
G01X21088554Y-2832100D01*
G01X20688300Y-2832100D02*
G01X20688300Y-3082354D01*
G01X16116300Y-15087600D02*
G01X15716046Y-15087600D01*
G01X16116300Y-15087600D02*
G01X16516554Y-15087600D01*
G01X16116300Y-15087600D02*
G01X16116300Y-14837346D01*
G01X20688300Y-15087600D02*
G01X20288046Y-15087600D01*
G01X20688300Y-15087600D02*
G01X21088554Y-15087600D01*
G01X20688300Y-15087600D02*
G01X20688300Y-14837346D01*
G01X16103600Y-3822700D02*
G01X15687446Y-3822700D01*
G01X16103600Y-3822700D02*
G01X16519754Y-3822700D01*
G01X16103600Y-3822700D02*
G01X16103600Y-3406546D01*
G01X17627600Y-3822700D02*
G01X17211446Y-3822700D01*
G01X17627600Y-3822700D02*
G01X18043754Y-3822700D01*
G01X17627600Y-3822700D02*
G01X17627600Y-3406546D01*
G01X17627600Y-3822700D02*
G01X17627600Y-4238854D01*
G01X20675600Y-3822700D02*
G01X20259446Y-3822700D01*
G01X20675600Y-3822700D02*
G01X21091754Y-3822700D01*
G01X20675600Y-3822700D02*
G01X20675600Y-3406546D01*
G01X20675600Y-3822700D02*
G01X20675600Y-4238854D01*
G04 Copper End*

G04 Pad Start*
G54D11*
G01X17255500Y-10617700D03*
G01X17128500Y-10617700D03*
G01X17001500Y-10617700D03*
G01X16874500Y-10617700D03*
G01X16874500Y-11347700D03*
G01X17001500Y-11347700D03*
G01X17128500Y-11347700D03*
G01X17255500Y-11347700D03*
G54D12*
G01X20291400Y-11920000D03*
G01X20521400Y-11920000D03*
G54D13*
G01X20140400Y-11478000D03*
G01X20267400Y-11478000D03*
G54D14*
G01X20521400Y-11287500D03*
G54D13*
G01X20775400Y-11478000D03*
G01X20902400Y-11478000D03*
G01X20140400Y-11351000D03*
G01X20267400Y-11351000D03*
G01X20775400Y-11351000D03*
G01X20902400Y-11351000D03*
G01X20267367Y-11231157D03*
G01X20140400Y-11224000D03*
G01X20775400Y-11224000D03*
G01X20902400Y-11224000D03*
G01X20646092Y-11101749D03*
G01X20140400Y-11097000D03*
G01X20267400Y-11097000D03*
G01X20394400Y-11097000D03*
G01X20521400Y-11097000D03*
G01X20775400Y-11097000D03*
G01X20902400Y-11097000D03*
G54D12*
G01X20751400Y-11920000D03*
G54D16*
G01X20216900Y-9992100D03*
G01X20216900Y-10119100D03*
G01X20216900Y-10246100D03*
G01X20216900Y-10373100D03*
G01X20216900Y-10500100D03*
G01X20216900Y-10627100D03*
G01X20216900Y-10754100D03*
G01X20711900Y-10754100D03*
G01X20711900Y-10627100D03*
G01X20711900Y-10500100D03*
G01X20711900Y-10373100D03*
G01X20711900Y-10246100D03*
G01X20711900Y-10119100D03*
G01X20711900Y-9992100D03*
G54D17*
G01X17552100Y-12773400D03*
G01X17992100Y-12773400D03*
G54D18*
G01X18576600Y-12773400D03*
G01X18296600Y-12773400D03*
G54D19*
G01X16613600Y-7378100D03*
G54D20*
G01X20648400Y-12303500D03*
G01X20648400Y-12863500D03*
G54D21*
G01X19309080Y-10106660D03*
G01X19309080Y-10172700D03*
G01X19309080Y-10238740D03*
G01X19502120Y-10238740D03*
G01X19502120Y-10106660D03*
G54D22*
G01X19137100Y-12773400D03*
G01X19897100Y-12773400D03*
G01X19137100Y-13027400D03*
G01X19897100Y-13027400D03*
G01X19137100Y-13281400D03*
G01X19897100Y-13281400D03*
G01X19137100Y-13535400D03*
G01X19897100Y-13535400D03*
G01X19137100Y-13789400D03*
G01X19897100Y-13789400D03*
G54D23*
G01X20775400Y-13387500D03*
G01X20775400Y-13827500D03*
G54D24*
G01X19443700Y-9790100D03*
G01X19443700Y-9590100D03*
G01X19683200Y-9904800D03*
G01X19683200Y-10104800D03*
G54D25*
G01X21156600Y-9994900D03*
G01X20956600Y-9994900D03*
G54D24*
G01X17255500Y-11843400D03*
G01X17255500Y-11643400D03*
G01X16874500Y-10182900D03*
G01X16874500Y-10382900D03*
G54D17*
G01X17958100Y-13789400D03*
G01X17518100Y-13789400D03*
G54D18*
G01X18296600Y-13789400D03*
G01X18576600Y-13789400D03*
G54D26*
G01X17792700Y-9671710D03*
G01X17792700Y-9911690D03*
G54D19*
G01X20164500Y-6270500D03*
G54D27*
G01X18259443Y-9693904D03*
G01X18259443Y-9883896D03*
G01X18506458Y-9788900D03*
G54D28*
G01X17321000Y-10296900D03*
G01X17121000Y-10296900D03*
G01X16945500Y-11630400D03*
G01X16745500Y-11630400D03*
G54D19*
G01X16471900Y-4508500D03*
G54D29*
G01X19977100Y-4864100D03*
G54D19*
G01X16422700Y-5197400D03*
G54D30*
G01X16894000Y-4662500D03*
G54D31*
G01X17148000Y-4662500D03*
G01X17402000Y-4662500D03*
G01X17656000Y-4662500D03*
G54D25*
G01X17321200Y-9956800D03*
G01X17121200Y-9956800D03*
G01X16927500Y-11861800D03*
G01X16727500Y-11861800D03*
G54D28*
G01X18485450Y-9255500D03*
G01X18285450Y-9255500D03*
G54D32*
G01X18806900Y-9826250D03*
G01X18806900Y-10026250D03*
G01X19113500Y-9831400D03*
G01X19113500Y-10031400D03*
G01X20459700Y-9269400D03*
G01X20459700Y-9069400D03*
G54D28*
G01X19877100Y-9791700D03*
G01X20077100Y-9791700D03*
G54D32*
G01X17117800Y-9479600D03*
G01X17117800Y-9679600D03*
G01X17371800Y-9679600D03*
G01X17371800Y-9479600D03*
G54D28*
G01X16295700Y-11861800D03*
G01X16495700Y-11861800D03*
G01X16089300Y-11861800D03*
G01X15889300Y-11861800D03*
G54D32*
G01X18046700Y-9691700D03*
G01X18046700Y-9891700D03*
G54D33*
G01X19316700Y-3898900D03*
G54D34*
G01X19570700Y-3898900D03*
G54D35*
G01X16116250Y-2832100D03*
G01X20689950Y-2837900D03*
G01X16109150Y-15080700D03*
G01X20681850Y-15093400D03*
G54D36*
G01X16103550Y-3822700D03*
G01X17629250Y-3824900D03*
G01X20675550Y-3822700D03*
G04 Pad End*

G04 Via Start*
G54D37*
G01X19264100Y-9585700D03*
G01X20019900Y-10754100D03*
G01X17255500Y-12011400D03*
G01X17738100Y-13789400D03*
G01X20648400Y-13155000D03*
G01X19516100Y-13281400D03*
G01X18754100Y-13027400D03*
G01X16874500Y-10042900D03*
G01X20775400Y-14081500D03*
G01X18262600Y-9994900D03*
G01X18754100Y-13535400D03*
G01X20278100Y-13281400D03*
G01X20278100Y-13535400D03*
G01X17536900Y-12608300D03*
G01X19683200Y-9725400D03*
G01X16874500Y-11185900D03*
G01X19516100Y-13027400D03*
G01X19516100Y-13535400D03*
G01X18754100Y-13281400D03*
G01X20278100Y-13027400D03*
G01X20286450Y-12093950D03*
G01X21302600Y-9992100D03*
G01X17001500Y-10804900D03*
G01X19340300Y-10322300D03*
G01X19985361Y-9993989D03*
G01X21132800Y-6985000D03*
G01X18338800Y-6794500D03*
G01X18796000Y-8597900D03*
G01X19050000Y-10820400D03*
G01X18389600Y-11874500D03*
G54D38*
G01X16613600Y-7861300D03*
G54D37*
G01X15913100Y-9512300D03*
G01X15913100Y-11099800D03*
G01X16459200Y-8293100D03*
G01X16090900Y-5448300D03*
G01X15760700Y-4914900D03*
G01X17373600Y-4978400D03*
G01X17868900Y-5346700D03*
G01X20764500Y-4470400D03*
G01X15913100Y-14287500D03*
G01X20815300Y-14478000D03*
G01X16637000Y-12534900D03*
G01X19710400Y-10439400D03*
G01X20281900Y-9791700D03*
G01X21069300Y-10477500D03*
G01X20396200Y-10604500D03*
G01X20370800Y-8255000D03*
G01X18516600Y-4876800D03*
G01X19367500Y-5334000D03*
G01X19354800Y-4597400D03*
G01X17716500Y-11582400D03*
G01X17221200Y-9207500D03*
G01X17208500Y-8597900D03*
G01X16814800Y-5651500D03*
G01X20164500Y-5965900D03*
G04 Via End*

G04 Track Start*
G54D39*
G01X21156400Y-13006500D02*
G01X21156400Y-12325000D01*
G01X20017900Y-14145000D02*
G01X20775400Y-13387500D01*
G01X18652200Y-14145000D02*
G01X20017900Y-14145000D01*
G01X18296600Y-13789400D02*
G01X18652200Y-14145000D01*
G01X20775400Y-13387500D02*
G01X21156400Y-13006500D01*
G01X21156400Y-12325000D02*
G01X20751400Y-11920000D01*
G01X20648400Y-12844450D02*
G01X20648400Y-13155000D01*
G01X17255500Y-12011400D02*
G01X17255500Y-11820900D01*
G01X17536900Y-12608300D02*
G01X17536900Y-12758200D01*
G01X17001500Y-10630400D02*
G01X17001500Y-10804900D01*
G01X20291400Y-12089000D02*
G01X20291400Y-11920000D01*
G01X20775400Y-14081500D02*
G01X20775400Y-13827500D01*
G01X20286450Y-12093950D02*
G01X20291400Y-12089000D01*
G01X17536900Y-12758200D02*
G01X17552100Y-12773400D01*
G01X20216900Y-10754100D02*
G01X20019900Y-10754100D01*
G01X16874500Y-11360400D02*
G01X16874500Y-11185900D01*
G01X16874500Y-10042900D02*
G01X16874500Y-10205400D01*
G01X17488600Y-13789400D02*
G01X17738100Y-13789400D01*
G01X20648400Y-12303500D02*
G01X20521400Y-12176500D01*
G01X20521400Y-11920000D01*
G54D40*
G01X19869000Y-9788900D02*
G01X19869000Y-10018500D01*
G54D39*
G01X20521400Y-10122167D02*
G01X20651467Y-9992100D01*
G54D40*
G01X19869000Y-10018500D02*
G01X19783640Y-10103860D01*
G54D39*
G01X20518900Y-11287500D02*
G01X20521400Y-11290000D01*
G01X20651467Y-9992100D02*
G01X20711900Y-9992100D01*
G01X20944400Y-9992100D02*
G01X20711900Y-9992100D01*
G01X19137100Y-13789400D02*
G01X18576600Y-13789400D01*
G01X19137100Y-13789400D02*
G01X19897100Y-13789400D01*
G01X19137100Y-12773400D02*
G01X19897100Y-12773400D01*
G01X19137100Y-12773400D02*
G01X18576600Y-12773400D01*
G54D40*
G01X20216900Y-9992100D02*
G01X20051500Y-9826700D01*
G01X20051500Y-9788900D01*
G01X18289200Y-9693900D02*
G01X18289200Y-9260500D01*
G01X18294200Y-9255500D01*
G01X18811600Y-9839700D02*
G01X18806900Y-9835000D01*
G01X18522800Y-9835000D01*
G01X18476700Y-9788900D01*
G01X19162500Y-9839700D02*
G01X18811600Y-9839700D01*
G01X20460900Y-10362778D02*
G01X20460900Y-9255500D01*
G01X20216900Y-10500100D02*
G01X20323578Y-10500100D01*
G01X20460900Y-10362778D01*
G01X20206740Y-10235940D02*
G01X20216900Y-10246100D01*
G01X19538420Y-10235940D02*
G01X20206740Y-10235940D01*
G01X20076900Y-10462000D02*
G01X20076900Y-10585600D01*
G01X20348100Y-10411373D02*
G01X20322073Y-10437400D01*
G01X20076900Y-10585600D02*
G01X20118400Y-10627100D01*
G01X20101500Y-10437400D02*
G01X20076900Y-10462000D01*
G01X20348100Y-10151800D02*
G01X20348100Y-10411373D01*
G01X20118400Y-10627100D02*
G01X20216900Y-10627100D01*
G01X20322073Y-10437400D02*
G01X20101500Y-10437400D01*
G01X20216900Y-10119100D02*
G01X20315400Y-10119100D01*
G01X20348100Y-10151800D01*
G01X19345380Y-10169900D02*
G01X19225000Y-10169900D01*
G01X19162500Y-10107400D02*
G01X19162500Y-10022200D01*
G01X19225000Y-10169900D02*
G01X19162500Y-10107400D01*
G01X19162500Y-10022200D02*
G01X19211600Y-10022200D01*
G01X19443700Y-9790100D01*
G01X20711900Y-10500100D02*
G01X20529625Y-10500100D01*
G01X20521400Y-10508325D01*
G54D39*
G01X20521400Y-10970000D02*
G01X20521400Y-10508325D01*
G54D40*
G01X20711900Y-10373100D02*
G01X20523309Y-10373100D01*
G01X20521400Y-10375009D01*
G54D39*
G01X20521400Y-10508325D02*
G01X20521400Y-10375009D01*
G54D40*
G01X20711900Y-10246100D02*
G01X20524374Y-10246100D01*
G01X20521400Y-10243126D01*
G54D39*
G01X20521400Y-10375009D02*
G01X20521400Y-10243126D01*
G01X20521400Y-10122167D01*
G54D40*
G01X20711900Y-10119100D02*
G01X20708833Y-10122167D01*
G01X20521400Y-10122167D01*
G01X20088600Y-11097000D02*
G01X20140400Y-11097000D01*
G01X20216900Y-10373100D02*
G01X20005300Y-10373100D01*
G01X19862800Y-10515600D01*
G01X19862800Y-10871200D01*
G01X20088600Y-11097000D01*
G01X18259443Y-9693904D02*
G01X18078646Y-9693904D01*
G01X18072100Y-9700450D01*
G01X18043360Y-9671710D02*
G01X18072100Y-9700450D01*
G01X18072100Y-9882950D02*
G01X18043360Y-9911690D01*
G01X18259443Y-9883896D02*
G01X18073046Y-9883896D01*
G01X18072100Y-9882950D01*
G01X20154900Y-5956300D02*
G01X20164500Y-5965900D01*
G01X20164500Y-6270500D01*
G01X20154900Y-6591300D02*
G01X20154900Y-6280100D01*
G01X20164500Y-6270500D01*
G01X20140400Y-11478000D02*
G01X20267400Y-11478000D01*
G01X20521400Y-11478000D01*
G54D39*
G01X20521400Y-11290000D02*
G01X20521400Y-11478000D01*
G01X20521400Y-11920000D01*
G54D40*
G01X20916900Y-8620950D02*
G01X20459700Y-9078150D01*
G01X18806900Y-10017500D02*
G01X20140400Y-11351000D01*
G01X20267400Y-11478000D01*
G01X18262600Y-9994900D02*
G01X18262600Y-9887053D01*
G01X18259443Y-9883896D01*
G01X19900900Y-8470900D02*
G01X19113500Y-9258300D01*
G01X18479500Y-9258300D01*
G01X18476700Y-9255500D01*
G01X19900900Y-5537200D02*
G01X19900900Y-8470900D01*
G01X19977100Y-4864100D02*
G01X20258612Y-4864100D01*
G01X20916900Y-5522388D01*
G01X20916900Y-8620950D01*
G01X20216900Y-9992100D02*
G01X19987249Y-9992100D01*
G01X19985361Y-9993989D01*
G01X19494000Y-9573000D02*
G01X19481300Y-9585700D01*
G01X19264100Y-9585700D01*
G01X19683200Y-9927300D02*
G01X19683200Y-9725400D01*
G54D39*
G01X21099400Y-9992100D02*
G01X21302600Y-9992100D01*
G54D40*
G01X17792700Y-9671710D02*
G01X18043360Y-9671710D01*
G01X18043360Y-9911690D02*
G01X17792700Y-9911690D01*
G01X17117800Y-9670850D02*
G01X17117800Y-9905500D01*
G01X17143700Y-9931400D01*
G01X17371800Y-9670850D02*
G01X17371800Y-9858300D01*
G01X17128500Y-10617700D02*
G01X17128500Y-10304400D01*
G01X17121000Y-10296900D01*
G01X17143700Y-9931400D02*
G01X17143700Y-10274200D01*
G01X17121000Y-10296900D01*
G01X17321000Y-10296900D02*
G01X17321000Y-10552200D01*
G01X17255500Y-10617700D01*
G54D39*
G01X18296600Y-13789400D02*
G01X17958100Y-13789400D01*
G54D40*
G01X17321000Y-10296900D02*
G01X17321000Y-9953700D01*
G01X17298700Y-9931400D01*
G01X17371800Y-9858300D02*
G01X17298700Y-9931400D01*
G01X17001500Y-11347700D02*
G01X17001500Y-11395700D01*
G01X16766800Y-11630400D02*
G01X16745500Y-11630400D01*
G01X17001500Y-11395700D02*
G01X16766800Y-11630400D01*
G01X16747500Y-11884400D02*
G01X16747500Y-11632400D01*
G01X16745500Y-11630400D01*
G01X16747500Y-11884400D02*
G01X16523250Y-11884400D01*
G01X16497850Y-11859000D01*
G01X17128500Y-11347700D02*
G01X17119600Y-11356600D01*
G01X17119600Y-11493500D01*
G01X16982700Y-11630400D01*
G01X16945500Y-11630400D01*
G01X16902500Y-11884400D02*
G01X16945500Y-11841400D01*
G01X16945500Y-11630400D01*
G01X16902500Y-11884400D02*
G01X16709200Y-12077700D01*
G01X16281400Y-12077700D01*
G01X16116850Y-11913150D01*
G01X16116850Y-11859000D01*
G54D41*
G01X16613600Y-7378100D02*
G01X16613600Y-7861300D01*
G54D40*
G01X18296600Y-12773400D02*
G01X17992100Y-12773400D01*
G54D10*
G01X17992100Y-11350000D02*
G01X17992100Y-12773400D01*
G54D40*
G01X17437100Y-5499100D02*
G01X16992600Y-5499100D01*
G01X16974639Y-5517061D01*
G01X16974639Y-8135439D01*
G01X17373600Y-8534400D01*
G01X17373600Y-9486550D01*
G01X17371800Y-9488350D01*
G01X16422700Y-5197400D02*
G01X16433800Y-5208500D01*
G01X16433800Y-5499100D01*
G01X16852229Y-5917529D01*
G01X16852229Y-8305129D01*
G01X17117800Y-8570700D02*
G01X17117800Y-9488350D01*
G01X16852229Y-8305129D02*
G01X17117800Y-8570700D01*
G01X15811500Y-8216900D02*
G01X16319500Y-8724900D01*
G01X16319500Y-11854850D01*
G01X16315350Y-11859000D01*
G01X15811500Y-5232400D02*
G01X15811500Y-8216900D01*
G01X16473500Y-4529400D02*
G01X16473500Y-4811700D01*
G01X16446500Y-4838700D01*
G01X16205200Y-4838700D01*
G01X15811500Y-5232400D01*
G01X15601950Y-11526600D02*
G01X15934350Y-11859000D01*
G01X15601950Y-4476750D02*
G01X15601950Y-8535413D01*
G01X15493650Y-8643713D01*
G01X15493650Y-9072787D01*
G01X15601950Y-9181087D01*
G01X15601950Y-11526600D01*
G54D10*
G01X17259300Y-12319000D02*
G01X17450984Y-12127316D01*
G01X17450984Y-11785600D01*
G01X17308784Y-11643400D01*
G01X17255500Y-11643400D01*
G54D39*
G01X17255500Y-11360400D02*
G01X17255500Y-11643400D01*
G54D10*
G01X17259300Y-13090600D02*
G01X17259300Y-12319000D01*
G01X17259300Y-13090600D02*
G01X17958100Y-13789400D01*
G54D40*
G01X19405600Y-10414000D02*
G01X19862800Y-10871200D01*
G01X19783640Y-10103860D02*
G01X19523883Y-10103860D01*
G01X19405600Y-10222143D02*
G01X19523883Y-10103860D01*
G01X19405600Y-10222143D02*
G01X19405600Y-10414000D01*
G54D10*
G01X16874500Y-10382900D02*
G01X16874500Y-10617700D01*
G54D40*
G01X15849600Y-4229100D02*
G01X15601950Y-4476750D01*
G01X16967200Y-4229100D02*
G01X15849600Y-4229100D01*
G01X17148000Y-4409900D02*
G01X16967200Y-4229100D01*
G01X17148000Y-4662500D02*
G01X17148000Y-4409900D01*
G01X17656000Y-4662500D02*
G01X17656000Y-5280200D01*
G01X17437100Y-5499100D01*
G01X19570700Y-5207000D02*
G01X19900900Y-5537200D01*
G01X19570700Y-3924300D02*
G01X19596100Y-3898900D01*
G01X19570700Y-3924300D02*
G01X19570700Y-5207000D01*
G54D10*
G01X16874500Y-10382900D02*
G01X16713200Y-10382900D01*
G01X16586200Y-10509900D01*
G01X16586200Y-10731500D01*
G01X16840200Y-10985500D01*
G01X17627600Y-10985500D01*
G01X17992100Y-11350000D01*
G54D40*
G01X19340300Y-10322300D02*
G01X19345380Y-10317220D01*
G01X19345380Y-10235940D01*
G04 Track End*

M02*

